%TF.GenerationSoftware,KiCad,Pcbnew,7.0.7*%
%TF.CreationDate,2023-10-16T08:59:51-07:00*%
%TF.ProjectId,Soil Power Sensor,536f696c-2050-46f7-9765-722053656e73,2.1.0*%
%TF.SameCoordinates,Original*%
%TF.FileFunction,Drillmap*%
%TF.FilePolarity,Positive*%
%FSLAX45Y45*%
G04 Gerber Fmt 4.5, Leading zero omitted, Abs format (unit mm)*
G04 Created by KiCad (PCBNEW 7.0.7) date 2023-10-16 08:59:51*
%MOMM*%
%LPD*%
G01*
G04 APERTURE LIST*
%ADD10C,0.050000*%
%ADD11C,0.200000*%
%ADD12C,0.030000*%
%ADD13C,0.100000*%
%ADD14C,0.115000*%
G04 APERTURE END LIST*
D10*
X12500000Y-4900000D02*
X12500000Y-9200000D01*
X24100000Y-4900000D02*
G75*
G03*
X24000000Y-4800000I-100000J0D01*
G01*
X12600000Y-9300000D02*
X24000000Y-9300000D01*
X24100000Y-9200000D02*
X24100000Y-4900000D01*
X24000000Y-9300000D02*
G75*
G03*
X24100000Y-9200000I0J100000D01*
G01*
X12600000Y-4800000D02*
G75*
G03*
X12500000Y-4900000I0J-100000D01*
G01*
X24000000Y-4800000D02*
X12600000Y-4800000D01*
X12500000Y-9200000D02*
G75*
G03*
X12600000Y-9300000I100000J0D01*
G01*
D11*
D12*
X14338000Y-6561000D02*
X14368000Y-6591000D01*
X14368000Y-6561000D02*
X14338000Y-6591000D01*
X14410000Y-7556000D02*
X14440000Y-7586000D01*
X14440000Y-7556000D02*
X14410000Y-7586000D01*
X14474000Y-6027000D02*
X14504000Y-6057000D01*
X14504000Y-6027000D02*
X14474000Y-6057000D01*
X14619000Y-5685000D02*
X14649000Y-5715000D01*
X14649000Y-5685000D02*
X14619000Y-5715000D01*
X14639000Y-5509500D02*
X14669000Y-5539500D01*
X14669000Y-5509500D02*
X14639000Y-5539500D01*
X14888000Y-6908000D02*
X14918000Y-6938000D01*
X14918000Y-6908000D02*
X14888000Y-6938000D01*
X15084000Y-7697000D02*
X15114000Y-7727000D01*
X15114000Y-7697000D02*
X15084000Y-7727000D01*
X15137000Y-6975000D02*
X15167000Y-7005000D01*
X15167000Y-6975000D02*
X15137000Y-7005000D01*
X15164000Y-5126000D02*
X15194000Y-5156000D01*
X15194000Y-5126000D02*
X15164000Y-5156000D01*
X15301000Y-5316000D02*
X15331000Y-5346000D01*
X15331000Y-5316000D02*
X15301000Y-5346000D01*
X15306000Y-6908000D02*
X15336000Y-6938000D01*
X15336000Y-6908000D02*
X15306000Y-6938000D01*
X15542500Y-6144500D02*
X15572500Y-6174500D01*
X15572500Y-6144500D02*
X15542500Y-6174500D01*
X15669500Y-5192000D02*
X15699500Y-5222000D01*
X15699500Y-5192000D02*
X15669500Y-5222000D01*
X15772150Y-6165000D02*
X15802150Y-6195000D01*
X15802150Y-6165000D02*
X15772150Y-6195000D01*
X15964000Y-5852000D02*
X15994000Y-5882000D01*
X15994000Y-5852000D02*
X15964000Y-5882000D01*
X16056000Y-6633000D02*
X16086000Y-6663000D01*
X16086000Y-6633000D02*
X16056000Y-6663000D01*
X16072000Y-7097000D02*
X16102000Y-7127000D01*
X16102000Y-7097000D02*
X16072000Y-7127000D01*
X16112000Y-7428000D02*
X16142000Y-7458000D01*
X16142000Y-7428000D02*
X16112000Y-7458000D01*
X16114000Y-9002000D02*
X16144000Y-9032000D01*
X16144000Y-9002000D02*
X16114000Y-9032000D01*
X16190000Y-6731000D02*
X16220000Y-6761000D01*
X16220000Y-6731000D02*
X16190000Y-6761000D01*
X16247000Y-5742000D02*
X16277000Y-5772000D01*
X16277000Y-5742000D02*
X16247000Y-5772000D01*
X16250000Y-6346000D02*
X16280000Y-6376000D01*
X16280000Y-6346000D02*
X16250000Y-6376000D01*
X16325000Y-7215000D02*
X16355000Y-7245000D01*
X16355000Y-7215000D02*
X16325000Y-7245000D01*
X16725000Y-6368000D02*
X16755000Y-6398000D01*
X16755000Y-6368000D02*
X16725000Y-6398000D01*
X16749000Y-6970000D02*
X16779000Y-7000000D01*
X16779000Y-6970000D02*
X16749000Y-7000000D01*
X16812500Y-6779500D02*
X16842500Y-6809500D01*
X16842500Y-6779500D02*
X16812500Y-6809500D01*
X17096000Y-7870000D02*
X17126000Y-7900000D01*
X17126000Y-7870000D02*
X17096000Y-7900000D01*
X17214000Y-7997000D02*
X17244000Y-8027000D01*
X17244000Y-7997000D02*
X17214000Y-8027000D01*
X17263000Y-9028000D02*
X17293000Y-9058000D01*
X17293000Y-9028000D02*
X17263000Y-9058000D01*
X17289000Y-8180000D02*
X17319000Y-8210000D01*
X17319000Y-8180000D02*
X17289000Y-8210000D01*
X17359000Y-6368000D02*
X17389000Y-6398000D01*
X17389000Y-6368000D02*
X17359000Y-6398000D01*
X17407000Y-8067000D02*
X17437000Y-8097000D01*
X17437000Y-8067000D02*
X17407000Y-8097000D01*
X17522000Y-6259000D02*
X17552000Y-6289000D01*
X17552000Y-6259000D02*
X17522000Y-6289000D01*
X17802000Y-6272000D02*
X17832000Y-6302000D01*
X17832000Y-6272000D02*
X17802000Y-6302000D01*
X17808000Y-9185000D02*
X17838000Y-9215000D01*
X17838000Y-9185000D02*
X17808000Y-9215000D01*
X17815800Y-6512800D02*
X17845800Y-6542800D01*
X17845800Y-6512800D02*
X17815800Y-6542800D01*
X17815800Y-6639800D02*
X17845800Y-6669800D01*
X17845800Y-6639800D02*
X17815800Y-6669800D01*
X17892000Y-6589000D02*
X17922000Y-6619000D01*
X17922000Y-6589000D02*
X17892000Y-6619000D01*
X18335000Y-7994900D02*
X18365000Y-8024900D01*
X18365000Y-7994900D02*
X18335000Y-8024900D01*
X18425400Y-8570200D02*
X18455400Y-8600200D01*
X18455400Y-8570200D02*
X18425400Y-8600200D01*
X18831800Y-8341600D02*
X18861800Y-8371600D01*
X18861800Y-8341600D02*
X18831800Y-8371600D01*
X18871000Y-6190450D02*
X18901000Y-6220450D01*
X18901000Y-6190450D02*
X18871000Y-6220450D01*
X18908000Y-8341600D02*
X18938000Y-8371600D01*
X18938000Y-8341600D02*
X18908000Y-8371600D01*
X18957000Y-5975000D02*
X18987000Y-6005000D01*
X18987000Y-5975000D02*
X18957000Y-6005000D01*
X19083721Y-8100250D02*
X19113721Y-8130250D01*
X19113721Y-8100250D02*
X19083721Y-8130250D01*
X19823000Y-7124250D02*
X19853000Y-7154250D01*
X19853000Y-7124250D02*
X19823000Y-7154250D01*
X19924000Y-7694000D02*
X19954000Y-7724000D01*
X19954000Y-7694000D02*
X19924000Y-7724000D01*
X19972000Y-8417000D02*
X20002000Y-8447000D01*
X20002000Y-8417000D02*
X19972000Y-8447000D01*
X20047000Y-7805000D02*
X20077000Y-7835000D01*
X20077000Y-7805000D02*
X20047000Y-7835000D01*
X20051000Y-6919200D02*
X20081000Y-6949200D01*
X20081000Y-6919200D02*
X20051000Y-6949200D01*
X20083000Y-7124250D02*
X20113000Y-7154250D01*
X20113000Y-7124250D02*
X20083000Y-7154250D01*
X20158000Y-6103000D02*
X20188000Y-6133000D01*
X20188000Y-6103000D02*
X20158000Y-6133000D01*
X20204000Y-6313000D02*
X20234000Y-6343000D01*
X20234000Y-6313000D02*
X20204000Y-6343000D01*
X20217000Y-6563000D02*
X20247000Y-6593000D01*
X20247000Y-6563000D02*
X20217000Y-6593000D01*
X20226900Y-6971900D02*
X20256900Y-7001900D01*
X20256900Y-6971900D02*
X20226900Y-7001900D01*
X20310000Y-6349000D02*
X20340000Y-6379000D01*
X20340000Y-6349000D02*
X20310000Y-6379000D01*
X20325000Y-7018950D02*
X20355000Y-7048950D01*
X20355000Y-7018950D02*
X20325000Y-7048950D01*
X20326000Y-7124250D02*
X20356000Y-7154250D01*
X20356000Y-7124250D02*
X20326000Y-7154250D01*
X20436000Y-9128000D02*
X20466000Y-9158000D01*
X20466000Y-9128000D02*
X20436000Y-9158000D01*
X20437000Y-8747000D02*
X20467000Y-8777000D01*
X20467000Y-8747000D02*
X20437000Y-8777000D01*
X20526000Y-6000000D02*
X20556000Y-6030000D01*
X20556000Y-6000000D02*
X20526000Y-6030000D01*
X20757000Y-8243000D02*
X20787000Y-8273000D01*
X20787000Y-8243000D02*
X20757000Y-8273000D01*
X20813000Y-9002000D02*
X20843000Y-9032000D01*
X20843000Y-9002000D02*
X20813000Y-9032000D01*
X20839000Y-7262000D02*
X20869000Y-7292000D01*
X20869000Y-7262000D02*
X20839000Y-7292000D01*
X20839000Y-7954000D02*
X20869000Y-7984000D01*
X20869000Y-7954000D02*
X20839000Y-7984000D01*
X20902000Y-6335000D02*
X20932000Y-6365000D01*
X20932000Y-6335000D02*
X20902000Y-6365000D01*
X20910000Y-8243000D02*
X20940000Y-8273000D01*
X20940000Y-8243000D02*
X20910000Y-8273000D01*
X20965400Y-8773400D02*
X20995400Y-8803400D01*
X20995400Y-8773400D02*
X20965400Y-8803400D01*
X21016200Y-8976600D02*
X21046200Y-9006600D01*
X21046200Y-8976600D02*
X21016200Y-9006600D01*
X23335000Y-9129000D02*
X23365000Y-9159000D01*
X23365000Y-9129000D02*
X23335000Y-9159000D01*
X23949000Y-7605000D02*
X23979000Y-7635000D01*
X23979000Y-7605000D02*
X23949000Y-7635000D01*
D13*
X14650000Y-7800000D02*
G75*
G03*
X14650000Y-7800000I-50000J0D01*
G01*
X14654500Y-8256500D02*
G75*
G03*
X14654500Y-8256500I-50000J0D01*
G01*
X14654500Y-8510500D02*
G75*
G03*
X14654500Y-8510500I-50000J0D01*
G01*
X14654500Y-8764500D02*
G75*
G03*
X14654500Y-8764500I-50000J0D01*
G01*
X14904000Y-7800000D02*
G75*
G03*
X14904000Y-7800000I-50000J0D01*
G01*
X14908500Y-8256500D02*
G75*
G03*
X14908500Y-8256500I-50000J0D01*
G01*
X14908500Y-8510500D02*
G75*
G03*
X14908500Y-8510500I-50000J0D01*
G01*
X14908500Y-8764500D02*
G75*
G03*
X14908500Y-8764500I-50000J0D01*
G01*
X15544000Y-8763000D02*
G75*
G03*
X15544000Y-8763000I-50000J0D01*
G01*
X15550000Y-8255000D02*
G75*
G03*
X15550000Y-8255000I-50000J0D01*
G01*
X15798000Y-8763000D02*
G75*
G03*
X15798000Y-8763000I-50000J0D01*
G01*
X15804000Y-8255000D02*
G75*
G03*
X15804000Y-8255000I-50000J0D01*
G01*
X20319200Y-5842000D02*
G75*
G03*
X20319200Y-5842000I-50000J0D01*
G01*
X20573200Y-5842000D02*
G75*
G03*
X20573200Y-5842000I-50000J0D01*
G01*
X20827200Y-5842000D02*
G75*
G03*
X20827200Y-5842000I-50000J0D01*
G01*
D14*
X13462000Y-5276500D02*
X13462000Y-5391500D01*
X13404500Y-5334000D02*
X13519500Y-5334000D01*
X13462000Y-5776500D02*
X13462000Y-5891500D01*
X13404500Y-5834000D02*
X13519500Y-5834000D01*
X13462000Y-6673500D02*
X13462000Y-6788500D01*
X13404500Y-6731000D02*
X13519500Y-6731000D01*
X13462000Y-7173500D02*
X13462000Y-7288500D01*
X13404500Y-7231000D02*
X13519500Y-7231000D01*
X13462000Y-8197500D02*
X13462000Y-8312500D01*
X13404500Y-8255000D02*
X13519500Y-8255000D01*
X13462000Y-8697500D02*
X13462000Y-8812500D01*
X13404500Y-8755000D02*
X13519500Y-8755000D01*
X16764000Y-5530500D02*
X16764000Y-5645500D01*
X16706500Y-5588000D02*
X16821500Y-5588000D01*
X17264000Y-5530500D02*
X17264000Y-5645500D01*
X17206500Y-5588000D02*
X17321500Y-5588000D01*
X17764000Y-5530500D02*
X17764000Y-5645500D01*
X17706500Y-5588000D02*
X17821500Y-5588000D01*
D11*
X12758277Y-9613984D02*
X12758277Y-9413984D01*
X12758277Y-9413984D02*
X12805896Y-9413984D01*
X12805896Y-9413984D02*
X12834467Y-9423508D01*
X12834467Y-9423508D02*
X12853515Y-9442555D01*
X12853515Y-9442555D02*
X12863039Y-9461603D01*
X12863039Y-9461603D02*
X12872562Y-9499698D01*
X12872562Y-9499698D02*
X12872562Y-9528270D01*
X12872562Y-9528270D02*
X12863039Y-9566365D01*
X12863039Y-9566365D02*
X12853515Y-9585412D01*
X12853515Y-9585412D02*
X12834467Y-9604460D01*
X12834467Y-9604460D02*
X12805896Y-9613984D01*
X12805896Y-9613984D02*
X12758277Y-9613984D01*
X12958277Y-9613984D02*
X12958277Y-9480650D01*
X12958277Y-9518746D02*
X12967801Y-9499698D01*
X12967801Y-9499698D02*
X12977324Y-9490174D01*
X12977324Y-9490174D02*
X12996372Y-9480650D01*
X12996372Y-9480650D02*
X13015420Y-9480650D01*
X13082086Y-9613984D02*
X13082086Y-9480650D01*
X13082086Y-9413984D02*
X13072562Y-9423508D01*
X13072562Y-9423508D02*
X13082086Y-9433031D01*
X13082086Y-9433031D02*
X13091610Y-9423508D01*
X13091610Y-9423508D02*
X13082086Y-9413984D01*
X13082086Y-9413984D02*
X13082086Y-9433031D01*
X13205896Y-9613984D02*
X13186848Y-9604460D01*
X13186848Y-9604460D02*
X13177324Y-9585412D01*
X13177324Y-9585412D02*
X13177324Y-9413984D01*
X13310658Y-9613984D02*
X13291610Y-9604460D01*
X13291610Y-9604460D02*
X13282086Y-9585412D01*
X13282086Y-9585412D02*
X13282086Y-9413984D01*
X13539229Y-9613984D02*
X13539229Y-9413984D01*
X13539229Y-9413984D02*
X13605896Y-9556841D01*
X13605896Y-9556841D02*
X13672562Y-9413984D01*
X13672562Y-9413984D02*
X13672562Y-9613984D01*
X13853515Y-9613984D02*
X13853515Y-9509222D01*
X13853515Y-9509222D02*
X13843991Y-9490174D01*
X13843991Y-9490174D02*
X13824943Y-9480650D01*
X13824943Y-9480650D02*
X13786848Y-9480650D01*
X13786848Y-9480650D02*
X13767801Y-9490174D01*
X13853515Y-9604460D02*
X13834467Y-9613984D01*
X13834467Y-9613984D02*
X13786848Y-9613984D01*
X13786848Y-9613984D02*
X13767801Y-9604460D01*
X13767801Y-9604460D02*
X13758277Y-9585412D01*
X13758277Y-9585412D02*
X13758277Y-9566365D01*
X13758277Y-9566365D02*
X13767801Y-9547317D01*
X13767801Y-9547317D02*
X13786848Y-9537793D01*
X13786848Y-9537793D02*
X13834467Y-9537793D01*
X13834467Y-9537793D02*
X13853515Y-9528270D01*
X13948753Y-9480650D02*
X13948753Y-9680650D01*
X13948753Y-9490174D02*
X13967801Y-9480650D01*
X13967801Y-9480650D02*
X14005896Y-9480650D01*
X14005896Y-9480650D02*
X14024943Y-9490174D01*
X14024943Y-9490174D02*
X14034467Y-9499698D01*
X14034467Y-9499698D02*
X14043991Y-9518746D01*
X14043991Y-9518746D02*
X14043991Y-9575889D01*
X14043991Y-9575889D02*
X14034467Y-9594936D01*
X14034467Y-9594936D02*
X14024943Y-9604460D01*
X14024943Y-9604460D02*
X14005896Y-9613984D01*
X14005896Y-9613984D02*
X13967801Y-9613984D01*
X13967801Y-9613984D02*
X13948753Y-9604460D01*
X14129705Y-9594936D02*
X14139229Y-9604460D01*
X14139229Y-9604460D02*
X14129705Y-9613984D01*
X14129705Y-9613984D02*
X14120182Y-9604460D01*
X14120182Y-9604460D02*
X14129705Y-9594936D01*
X14129705Y-9594936D02*
X14129705Y-9613984D01*
X14129705Y-9490174D02*
X14139229Y-9499698D01*
X14139229Y-9499698D02*
X14129705Y-9509222D01*
X14129705Y-9509222D02*
X14120182Y-9499698D01*
X14120182Y-9499698D02*
X14129705Y-9490174D01*
X14129705Y-9490174D02*
X14129705Y-9509222D01*
D12*
X12467500Y-9927500D02*
X12497500Y-9957500D01*
X12497500Y-9927500D02*
X12467500Y-9957500D01*
D11*
X12796372Y-9833984D02*
X12815420Y-9833984D01*
X12815420Y-9833984D02*
X12834467Y-9843508D01*
X12834467Y-9843508D02*
X12843991Y-9853031D01*
X12843991Y-9853031D02*
X12853515Y-9872079D01*
X12853515Y-9872079D02*
X12863039Y-9910174D01*
X12863039Y-9910174D02*
X12863039Y-9957793D01*
X12863039Y-9957793D02*
X12853515Y-9995889D01*
X12853515Y-9995889D02*
X12843991Y-10014936D01*
X12843991Y-10014936D02*
X12834467Y-10024460D01*
X12834467Y-10024460D02*
X12815420Y-10033984D01*
X12815420Y-10033984D02*
X12796372Y-10033984D01*
X12796372Y-10033984D02*
X12777324Y-10024460D01*
X12777324Y-10024460D02*
X12767801Y-10014936D01*
X12767801Y-10014936D02*
X12758277Y-9995889D01*
X12758277Y-9995889D02*
X12748753Y-9957793D01*
X12748753Y-9957793D02*
X12748753Y-9910174D01*
X12748753Y-9910174D02*
X12758277Y-9872079D01*
X12758277Y-9872079D02*
X12767801Y-9853031D01*
X12767801Y-9853031D02*
X12777324Y-9843508D01*
X12777324Y-9843508D02*
X12796372Y-9833984D01*
X12948753Y-10014936D02*
X12958277Y-10024460D01*
X12958277Y-10024460D02*
X12948753Y-10033984D01*
X12948753Y-10033984D02*
X12939229Y-10024460D01*
X12939229Y-10024460D02*
X12948753Y-10014936D01*
X12948753Y-10014936D02*
X12948753Y-10033984D01*
X13024943Y-9833984D02*
X13148753Y-9833984D01*
X13148753Y-9833984D02*
X13082086Y-9910174D01*
X13082086Y-9910174D02*
X13110658Y-9910174D01*
X13110658Y-9910174D02*
X13129705Y-9919698D01*
X13129705Y-9919698D02*
X13139229Y-9929222D01*
X13139229Y-9929222D02*
X13148753Y-9948270D01*
X13148753Y-9948270D02*
X13148753Y-9995889D01*
X13148753Y-9995889D02*
X13139229Y-10014936D01*
X13139229Y-10014936D02*
X13129705Y-10024460D01*
X13129705Y-10024460D02*
X13110658Y-10033984D01*
X13110658Y-10033984D02*
X13053515Y-10033984D01*
X13053515Y-10033984D02*
X13034467Y-10024460D01*
X13034467Y-10024460D02*
X13024943Y-10014936D01*
X13272562Y-9833984D02*
X13291610Y-9833984D01*
X13291610Y-9833984D02*
X13310658Y-9843508D01*
X13310658Y-9843508D02*
X13320182Y-9853031D01*
X13320182Y-9853031D02*
X13329705Y-9872079D01*
X13329705Y-9872079D02*
X13339229Y-9910174D01*
X13339229Y-9910174D02*
X13339229Y-9957793D01*
X13339229Y-9957793D02*
X13329705Y-9995889D01*
X13329705Y-9995889D02*
X13320182Y-10014936D01*
X13320182Y-10014936D02*
X13310658Y-10024460D01*
X13310658Y-10024460D02*
X13291610Y-10033984D01*
X13291610Y-10033984D02*
X13272562Y-10033984D01*
X13272562Y-10033984D02*
X13253515Y-10024460D01*
X13253515Y-10024460D02*
X13243991Y-10014936D01*
X13243991Y-10014936D02*
X13234467Y-9995889D01*
X13234467Y-9995889D02*
X13224943Y-9957793D01*
X13224943Y-9957793D02*
X13224943Y-9910174D01*
X13224943Y-9910174D02*
X13234467Y-9872079D01*
X13234467Y-9872079D02*
X13243991Y-9853031D01*
X13243991Y-9853031D02*
X13253515Y-9843508D01*
X13253515Y-9843508D02*
X13272562Y-9833984D01*
X13463039Y-9833984D02*
X13482086Y-9833984D01*
X13482086Y-9833984D02*
X13501134Y-9843508D01*
X13501134Y-9843508D02*
X13510658Y-9853031D01*
X13510658Y-9853031D02*
X13520182Y-9872079D01*
X13520182Y-9872079D02*
X13529705Y-9910174D01*
X13529705Y-9910174D02*
X13529705Y-9957793D01*
X13529705Y-9957793D02*
X13520182Y-9995889D01*
X13520182Y-9995889D02*
X13510658Y-10014936D01*
X13510658Y-10014936D02*
X13501134Y-10024460D01*
X13501134Y-10024460D02*
X13482086Y-10033984D01*
X13482086Y-10033984D02*
X13463039Y-10033984D01*
X13463039Y-10033984D02*
X13443991Y-10024460D01*
X13443991Y-10024460D02*
X13434467Y-10014936D01*
X13434467Y-10014936D02*
X13424943Y-9995889D01*
X13424943Y-9995889D02*
X13415420Y-9957793D01*
X13415420Y-9957793D02*
X13415420Y-9910174D01*
X13415420Y-9910174D02*
X13424943Y-9872079D01*
X13424943Y-9872079D02*
X13434467Y-9853031D01*
X13434467Y-9853031D02*
X13443991Y-9843508D01*
X13443991Y-9843508D02*
X13463039Y-9833984D01*
X13615420Y-10033984D02*
X13615420Y-9900650D01*
X13615420Y-9919698D02*
X13624943Y-9910174D01*
X13624943Y-9910174D02*
X13643991Y-9900650D01*
X13643991Y-9900650D02*
X13672563Y-9900650D01*
X13672563Y-9900650D02*
X13691610Y-9910174D01*
X13691610Y-9910174D02*
X13701134Y-9929222D01*
X13701134Y-9929222D02*
X13701134Y-10033984D01*
X13701134Y-9929222D02*
X13710658Y-9910174D01*
X13710658Y-9910174D02*
X13729705Y-9900650D01*
X13729705Y-9900650D02*
X13758277Y-9900650D01*
X13758277Y-9900650D02*
X13777324Y-9910174D01*
X13777324Y-9910174D02*
X13786848Y-9929222D01*
X13786848Y-9929222D02*
X13786848Y-10033984D01*
X13882086Y-10033984D02*
X13882086Y-9900650D01*
X13882086Y-9919698D02*
X13891610Y-9910174D01*
X13891610Y-9910174D02*
X13910658Y-9900650D01*
X13910658Y-9900650D02*
X13939229Y-9900650D01*
X13939229Y-9900650D02*
X13958277Y-9910174D01*
X13958277Y-9910174D02*
X13967801Y-9929222D01*
X13967801Y-9929222D02*
X13967801Y-10033984D01*
X13967801Y-9929222D02*
X13977324Y-9910174D01*
X13977324Y-9910174D02*
X13996372Y-9900650D01*
X13996372Y-9900650D02*
X14024943Y-9900650D01*
X14024943Y-9900650D02*
X14043991Y-9910174D01*
X14043991Y-9910174D02*
X14053515Y-9929222D01*
X14053515Y-9929222D02*
X14053515Y-10033984D01*
X14443991Y-9824460D02*
X14272563Y-10081603D01*
X14701134Y-9833984D02*
X14720182Y-9833984D01*
X14720182Y-9833984D02*
X14739229Y-9843508D01*
X14739229Y-9843508D02*
X14748753Y-9853031D01*
X14748753Y-9853031D02*
X14758277Y-9872079D01*
X14758277Y-9872079D02*
X14767801Y-9910174D01*
X14767801Y-9910174D02*
X14767801Y-9957793D01*
X14767801Y-9957793D02*
X14758277Y-9995889D01*
X14758277Y-9995889D02*
X14748753Y-10014936D01*
X14748753Y-10014936D02*
X14739229Y-10024460D01*
X14739229Y-10024460D02*
X14720182Y-10033984D01*
X14720182Y-10033984D02*
X14701134Y-10033984D01*
X14701134Y-10033984D02*
X14682086Y-10024460D01*
X14682086Y-10024460D02*
X14672563Y-10014936D01*
X14672563Y-10014936D02*
X14663039Y-9995889D01*
X14663039Y-9995889D02*
X14653515Y-9957793D01*
X14653515Y-9957793D02*
X14653515Y-9910174D01*
X14653515Y-9910174D02*
X14663039Y-9872079D01*
X14663039Y-9872079D02*
X14672563Y-9853031D01*
X14672563Y-9853031D02*
X14682086Y-9843508D01*
X14682086Y-9843508D02*
X14701134Y-9833984D01*
X14853515Y-10014936D02*
X14863039Y-10024460D01*
X14863039Y-10024460D02*
X14853515Y-10033984D01*
X14853515Y-10033984D02*
X14843991Y-10024460D01*
X14843991Y-10024460D02*
X14853515Y-10014936D01*
X14853515Y-10014936D02*
X14853515Y-10033984D01*
X14986848Y-9833984D02*
X15005896Y-9833984D01*
X15005896Y-9833984D02*
X15024944Y-9843508D01*
X15024944Y-9843508D02*
X15034467Y-9853031D01*
X15034467Y-9853031D02*
X15043991Y-9872079D01*
X15043991Y-9872079D02*
X15053515Y-9910174D01*
X15053515Y-9910174D02*
X15053515Y-9957793D01*
X15053515Y-9957793D02*
X15043991Y-9995889D01*
X15043991Y-9995889D02*
X15034467Y-10014936D01*
X15034467Y-10014936D02*
X15024944Y-10024460D01*
X15024944Y-10024460D02*
X15005896Y-10033984D01*
X15005896Y-10033984D02*
X14986848Y-10033984D01*
X14986848Y-10033984D02*
X14967801Y-10024460D01*
X14967801Y-10024460D02*
X14958277Y-10014936D01*
X14958277Y-10014936D02*
X14948753Y-9995889D01*
X14948753Y-9995889D02*
X14939229Y-9957793D01*
X14939229Y-9957793D02*
X14939229Y-9910174D01*
X14939229Y-9910174D02*
X14948753Y-9872079D01*
X14948753Y-9872079D02*
X14958277Y-9853031D01*
X14958277Y-9853031D02*
X14967801Y-9843508D01*
X14967801Y-9843508D02*
X14986848Y-9833984D01*
X15243991Y-10033984D02*
X15129706Y-10033984D01*
X15186848Y-10033984D02*
X15186848Y-9833984D01*
X15186848Y-9833984D02*
X15167801Y-9862555D01*
X15167801Y-9862555D02*
X15148753Y-9881603D01*
X15148753Y-9881603D02*
X15129706Y-9891127D01*
X15434467Y-10033984D02*
X15320182Y-10033984D01*
X15377325Y-10033984D02*
X15377325Y-9833984D01*
X15377325Y-9833984D02*
X15358277Y-9862555D01*
X15358277Y-9862555D02*
X15339229Y-9881603D01*
X15339229Y-9881603D02*
X15320182Y-9891127D01*
X15548753Y-9919698D02*
X15529706Y-9910174D01*
X15529706Y-9910174D02*
X15520182Y-9900650D01*
X15520182Y-9900650D02*
X15510658Y-9881603D01*
X15510658Y-9881603D02*
X15510658Y-9872079D01*
X15510658Y-9872079D02*
X15520182Y-9853031D01*
X15520182Y-9853031D02*
X15529706Y-9843508D01*
X15529706Y-9843508D02*
X15548753Y-9833984D01*
X15548753Y-9833984D02*
X15586848Y-9833984D01*
X15586848Y-9833984D02*
X15605896Y-9843508D01*
X15605896Y-9843508D02*
X15615420Y-9853031D01*
X15615420Y-9853031D02*
X15624944Y-9872079D01*
X15624944Y-9872079D02*
X15624944Y-9881603D01*
X15624944Y-9881603D02*
X15615420Y-9900650D01*
X15615420Y-9900650D02*
X15605896Y-9910174D01*
X15605896Y-9910174D02*
X15586848Y-9919698D01*
X15586848Y-9919698D02*
X15548753Y-9919698D01*
X15548753Y-9919698D02*
X15529706Y-9929222D01*
X15529706Y-9929222D02*
X15520182Y-9938746D01*
X15520182Y-9938746D02*
X15510658Y-9957793D01*
X15510658Y-9957793D02*
X15510658Y-9995889D01*
X15510658Y-9995889D02*
X15520182Y-10014936D01*
X15520182Y-10014936D02*
X15529706Y-10024460D01*
X15529706Y-10024460D02*
X15548753Y-10033984D01*
X15548753Y-10033984D02*
X15586848Y-10033984D01*
X15586848Y-10033984D02*
X15605896Y-10024460D01*
X15605896Y-10024460D02*
X15615420Y-10014936D01*
X15615420Y-10014936D02*
X15624944Y-9995889D01*
X15624944Y-9995889D02*
X15624944Y-9957793D01*
X15624944Y-9957793D02*
X15615420Y-9938746D01*
X15615420Y-9938746D02*
X15605896Y-9929222D01*
X15605896Y-9929222D02*
X15586848Y-9919698D01*
X15701134Y-9833984D02*
X15701134Y-9872079D01*
X15777325Y-9833984D02*
X15777325Y-9872079D01*
X16072563Y-10110174D02*
X16063039Y-10100650D01*
X16063039Y-10100650D02*
X16043991Y-10072079D01*
X16043991Y-10072079D02*
X16034468Y-10053031D01*
X16034468Y-10053031D02*
X16024944Y-10024460D01*
X16024944Y-10024460D02*
X16015420Y-9976841D01*
X16015420Y-9976841D02*
X16015420Y-9938746D01*
X16015420Y-9938746D02*
X16024944Y-9891127D01*
X16024944Y-9891127D02*
X16034468Y-9862555D01*
X16034468Y-9862555D02*
X16043991Y-9843508D01*
X16043991Y-9843508D02*
X16063039Y-9814936D01*
X16063039Y-9814936D02*
X16072563Y-9805412D01*
X16129706Y-9833984D02*
X16263039Y-9833984D01*
X16263039Y-9833984D02*
X16177325Y-10033984D01*
X16443991Y-10033984D02*
X16329706Y-10033984D01*
X16386848Y-10033984D02*
X16386848Y-9833984D01*
X16386848Y-9833984D02*
X16367801Y-9862555D01*
X16367801Y-9862555D02*
X16348753Y-9881603D01*
X16348753Y-9881603D02*
X16329706Y-9891127D01*
X16682087Y-10033984D02*
X16682087Y-9833984D01*
X16767801Y-10033984D02*
X16767801Y-9929222D01*
X16767801Y-9929222D02*
X16758277Y-9910174D01*
X16758277Y-9910174D02*
X16739230Y-9900650D01*
X16739230Y-9900650D02*
X16710658Y-9900650D01*
X16710658Y-9900650D02*
X16691610Y-9910174D01*
X16691610Y-9910174D02*
X16682087Y-9919698D01*
X16891611Y-10033984D02*
X16872563Y-10024460D01*
X16872563Y-10024460D02*
X16863039Y-10014936D01*
X16863039Y-10014936D02*
X16853515Y-9995889D01*
X16853515Y-9995889D02*
X16853515Y-9938746D01*
X16853515Y-9938746D02*
X16863039Y-9919698D01*
X16863039Y-9919698D02*
X16872563Y-9910174D01*
X16872563Y-9910174D02*
X16891611Y-9900650D01*
X16891611Y-9900650D02*
X16920182Y-9900650D01*
X16920182Y-9900650D02*
X16939230Y-9910174D01*
X16939230Y-9910174D02*
X16948753Y-9919698D01*
X16948753Y-9919698D02*
X16958277Y-9938746D01*
X16958277Y-9938746D02*
X16958277Y-9995889D01*
X16958277Y-9995889D02*
X16948753Y-10014936D01*
X16948753Y-10014936D02*
X16939230Y-10024460D01*
X16939230Y-10024460D02*
X16920182Y-10033984D01*
X16920182Y-10033984D02*
X16891611Y-10033984D01*
X17072563Y-10033984D02*
X17053515Y-10024460D01*
X17053515Y-10024460D02*
X17043992Y-10005412D01*
X17043992Y-10005412D02*
X17043992Y-9833984D01*
X17224944Y-10024460D02*
X17205896Y-10033984D01*
X17205896Y-10033984D02*
X17167801Y-10033984D01*
X17167801Y-10033984D02*
X17148753Y-10024460D01*
X17148753Y-10024460D02*
X17139230Y-10005412D01*
X17139230Y-10005412D02*
X17139230Y-9929222D01*
X17139230Y-9929222D02*
X17148753Y-9910174D01*
X17148753Y-9910174D02*
X17167801Y-9900650D01*
X17167801Y-9900650D02*
X17205896Y-9900650D01*
X17205896Y-9900650D02*
X17224944Y-9910174D01*
X17224944Y-9910174D02*
X17234468Y-9929222D01*
X17234468Y-9929222D02*
X17234468Y-9948270D01*
X17234468Y-9948270D02*
X17139230Y-9967317D01*
X17310658Y-10024460D02*
X17329706Y-10033984D01*
X17329706Y-10033984D02*
X17367801Y-10033984D01*
X17367801Y-10033984D02*
X17386849Y-10024460D01*
X17386849Y-10024460D02*
X17396373Y-10005412D01*
X17396373Y-10005412D02*
X17396373Y-9995889D01*
X17396373Y-9995889D02*
X17386849Y-9976841D01*
X17386849Y-9976841D02*
X17367801Y-9967317D01*
X17367801Y-9967317D02*
X17339230Y-9967317D01*
X17339230Y-9967317D02*
X17320182Y-9957793D01*
X17320182Y-9957793D02*
X17310658Y-9938746D01*
X17310658Y-9938746D02*
X17310658Y-9929222D01*
X17310658Y-9929222D02*
X17320182Y-9910174D01*
X17320182Y-9910174D02*
X17339230Y-9900650D01*
X17339230Y-9900650D02*
X17367801Y-9900650D01*
X17367801Y-9900650D02*
X17386849Y-9910174D01*
X17463039Y-10110174D02*
X17472563Y-10100650D01*
X17472563Y-10100650D02*
X17491611Y-10072079D01*
X17491611Y-10072079D02*
X17501134Y-10053031D01*
X17501134Y-10053031D02*
X17510658Y-10024460D01*
X17510658Y-10024460D02*
X17520182Y-9976841D01*
X17520182Y-9976841D02*
X17520182Y-9938746D01*
X17520182Y-9938746D02*
X17510658Y-9891127D01*
X17510658Y-9891127D02*
X17501134Y-9862555D01*
X17501134Y-9862555D02*
X17491611Y-9843508D01*
X17491611Y-9843508D02*
X17472563Y-9814936D01*
X17472563Y-9814936D02*
X17463039Y-9805412D01*
D13*
X12497500Y-10206500D02*
G75*
G03*
X12497500Y-10206500I-50000J0D01*
G01*
D11*
X12863039Y-10297984D02*
X12748753Y-10297984D01*
X12805896Y-10297984D02*
X12805896Y-10097984D01*
X12805896Y-10097984D02*
X12786848Y-10126555D01*
X12786848Y-10126555D02*
X12767801Y-10145603D01*
X12767801Y-10145603D02*
X12748753Y-10155127D01*
X12948753Y-10278936D02*
X12958277Y-10288460D01*
X12958277Y-10288460D02*
X12948753Y-10297984D01*
X12948753Y-10297984D02*
X12939229Y-10288460D01*
X12939229Y-10288460D02*
X12948753Y-10278936D01*
X12948753Y-10278936D02*
X12948753Y-10297984D01*
X13082086Y-10097984D02*
X13101134Y-10097984D01*
X13101134Y-10097984D02*
X13120182Y-10107508D01*
X13120182Y-10107508D02*
X13129705Y-10117031D01*
X13129705Y-10117031D02*
X13139229Y-10136079D01*
X13139229Y-10136079D02*
X13148753Y-10174174D01*
X13148753Y-10174174D02*
X13148753Y-10221793D01*
X13148753Y-10221793D02*
X13139229Y-10259889D01*
X13139229Y-10259889D02*
X13129705Y-10278936D01*
X13129705Y-10278936D02*
X13120182Y-10288460D01*
X13120182Y-10288460D02*
X13101134Y-10297984D01*
X13101134Y-10297984D02*
X13082086Y-10297984D01*
X13082086Y-10297984D02*
X13063039Y-10288460D01*
X13063039Y-10288460D02*
X13053515Y-10278936D01*
X13053515Y-10278936D02*
X13043991Y-10259889D01*
X13043991Y-10259889D02*
X13034467Y-10221793D01*
X13034467Y-10221793D02*
X13034467Y-10174174D01*
X13034467Y-10174174D02*
X13043991Y-10136079D01*
X13043991Y-10136079D02*
X13053515Y-10117031D01*
X13053515Y-10117031D02*
X13063039Y-10107508D01*
X13063039Y-10107508D02*
X13082086Y-10097984D01*
X13272562Y-10097984D02*
X13291610Y-10097984D01*
X13291610Y-10097984D02*
X13310658Y-10107508D01*
X13310658Y-10107508D02*
X13320182Y-10117031D01*
X13320182Y-10117031D02*
X13329705Y-10136079D01*
X13329705Y-10136079D02*
X13339229Y-10174174D01*
X13339229Y-10174174D02*
X13339229Y-10221793D01*
X13339229Y-10221793D02*
X13329705Y-10259889D01*
X13329705Y-10259889D02*
X13320182Y-10278936D01*
X13320182Y-10278936D02*
X13310658Y-10288460D01*
X13310658Y-10288460D02*
X13291610Y-10297984D01*
X13291610Y-10297984D02*
X13272562Y-10297984D01*
X13272562Y-10297984D02*
X13253515Y-10288460D01*
X13253515Y-10288460D02*
X13243991Y-10278936D01*
X13243991Y-10278936D02*
X13234467Y-10259889D01*
X13234467Y-10259889D02*
X13224943Y-10221793D01*
X13224943Y-10221793D02*
X13224943Y-10174174D01*
X13224943Y-10174174D02*
X13234467Y-10136079D01*
X13234467Y-10136079D02*
X13243991Y-10117031D01*
X13243991Y-10117031D02*
X13253515Y-10107508D01*
X13253515Y-10107508D02*
X13272562Y-10097984D01*
X13463039Y-10097984D02*
X13482086Y-10097984D01*
X13482086Y-10097984D02*
X13501134Y-10107508D01*
X13501134Y-10107508D02*
X13510658Y-10117031D01*
X13510658Y-10117031D02*
X13520182Y-10136079D01*
X13520182Y-10136079D02*
X13529705Y-10174174D01*
X13529705Y-10174174D02*
X13529705Y-10221793D01*
X13529705Y-10221793D02*
X13520182Y-10259889D01*
X13520182Y-10259889D02*
X13510658Y-10278936D01*
X13510658Y-10278936D02*
X13501134Y-10288460D01*
X13501134Y-10288460D02*
X13482086Y-10297984D01*
X13482086Y-10297984D02*
X13463039Y-10297984D01*
X13463039Y-10297984D02*
X13443991Y-10288460D01*
X13443991Y-10288460D02*
X13434467Y-10278936D01*
X13434467Y-10278936D02*
X13424943Y-10259889D01*
X13424943Y-10259889D02*
X13415420Y-10221793D01*
X13415420Y-10221793D02*
X13415420Y-10174174D01*
X13415420Y-10174174D02*
X13424943Y-10136079D01*
X13424943Y-10136079D02*
X13434467Y-10117031D01*
X13434467Y-10117031D02*
X13443991Y-10107508D01*
X13443991Y-10107508D02*
X13463039Y-10097984D01*
X13615420Y-10297984D02*
X13615420Y-10164650D01*
X13615420Y-10183698D02*
X13624943Y-10174174D01*
X13624943Y-10174174D02*
X13643991Y-10164650D01*
X13643991Y-10164650D02*
X13672563Y-10164650D01*
X13672563Y-10164650D02*
X13691610Y-10174174D01*
X13691610Y-10174174D02*
X13701134Y-10193222D01*
X13701134Y-10193222D02*
X13701134Y-10297984D01*
X13701134Y-10193222D02*
X13710658Y-10174174D01*
X13710658Y-10174174D02*
X13729705Y-10164650D01*
X13729705Y-10164650D02*
X13758277Y-10164650D01*
X13758277Y-10164650D02*
X13777324Y-10174174D01*
X13777324Y-10174174D02*
X13786848Y-10193222D01*
X13786848Y-10193222D02*
X13786848Y-10297984D01*
X13882086Y-10297984D02*
X13882086Y-10164650D01*
X13882086Y-10183698D02*
X13891610Y-10174174D01*
X13891610Y-10174174D02*
X13910658Y-10164650D01*
X13910658Y-10164650D02*
X13939229Y-10164650D01*
X13939229Y-10164650D02*
X13958277Y-10174174D01*
X13958277Y-10174174D02*
X13967801Y-10193222D01*
X13967801Y-10193222D02*
X13967801Y-10297984D01*
X13967801Y-10193222D02*
X13977324Y-10174174D01*
X13977324Y-10174174D02*
X13996372Y-10164650D01*
X13996372Y-10164650D02*
X14024943Y-10164650D01*
X14024943Y-10164650D02*
X14043991Y-10174174D01*
X14043991Y-10174174D02*
X14053515Y-10193222D01*
X14053515Y-10193222D02*
X14053515Y-10297984D01*
X14443991Y-10088460D02*
X14272563Y-10345603D01*
X14701134Y-10097984D02*
X14720182Y-10097984D01*
X14720182Y-10097984D02*
X14739229Y-10107508D01*
X14739229Y-10107508D02*
X14748753Y-10117031D01*
X14748753Y-10117031D02*
X14758277Y-10136079D01*
X14758277Y-10136079D02*
X14767801Y-10174174D01*
X14767801Y-10174174D02*
X14767801Y-10221793D01*
X14767801Y-10221793D02*
X14758277Y-10259889D01*
X14758277Y-10259889D02*
X14748753Y-10278936D01*
X14748753Y-10278936D02*
X14739229Y-10288460D01*
X14739229Y-10288460D02*
X14720182Y-10297984D01*
X14720182Y-10297984D02*
X14701134Y-10297984D01*
X14701134Y-10297984D02*
X14682086Y-10288460D01*
X14682086Y-10288460D02*
X14672563Y-10278936D01*
X14672563Y-10278936D02*
X14663039Y-10259889D01*
X14663039Y-10259889D02*
X14653515Y-10221793D01*
X14653515Y-10221793D02*
X14653515Y-10174174D01*
X14653515Y-10174174D02*
X14663039Y-10136079D01*
X14663039Y-10136079D02*
X14672563Y-10117031D01*
X14672563Y-10117031D02*
X14682086Y-10107508D01*
X14682086Y-10107508D02*
X14701134Y-10097984D01*
X14853515Y-10278936D02*
X14863039Y-10288460D01*
X14863039Y-10288460D02*
X14853515Y-10297984D01*
X14853515Y-10297984D02*
X14843991Y-10288460D01*
X14843991Y-10288460D02*
X14853515Y-10278936D01*
X14853515Y-10278936D02*
X14853515Y-10297984D01*
X14986848Y-10097984D02*
X15005896Y-10097984D01*
X15005896Y-10097984D02*
X15024944Y-10107508D01*
X15024944Y-10107508D02*
X15034467Y-10117031D01*
X15034467Y-10117031D02*
X15043991Y-10136079D01*
X15043991Y-10136079D02*
X15053515Y-10174174D01*
X15053515Y-10174174D02*
X15053515Y-10221793D01*
X15053515Y-10221793D02*
X15043991Y-10259889D01*
X15043991Y-10259889D02*
X15034467Y-10278936D01*
X15034467Y-10278936D02*
X15024944Y-10288460D01*
X15024944Y-10288460D02*
X15005896Y-10297984D01*
X15005896Y-10297984D02*
X14986848Y-10297984D01*
X14986848Y-10297984D02*
X14967801Y-10288460D01*
X14967801Y-10288460D02*
X14958277Y-10278936D01*
X14958277Y-10278936D02*
X14948753Y-10259889D01*
X14948753Y-10259889D02*
X14939229Y-10221793D01*
X14939229Y-10221793D02*
X14939229Y-10174174D01*
X14939229Y-10174174D02*
X14948753Y-10136079D01*
X14948753Y-10136079D02*
X14958277Y-10117031D01*
X14958277Y-10117031D02*
X14967801Y-10107508D01*
X14967801Y-10107508D02*
X14986848Y-10097984D01*
X15120182Y-10097984D02*
X15243991Y-10097984D01*
X15243991Y-10097984D02*
X15177325Y-10174174D01*
X15177325Y-10174174D02*
X15205896Y-10174174D01*
X15205896Y-10174174D02*
X15224944Y-10183698D01*
X15224944Y-10183698D02*
X15234467Y-10193222D01*
X15234467Y-10193222D02*
X15243991Y-10212270D01*
X15243991Y-10212270D02*
X15243991Y-10259889D01*
X15243991Y-10259889D02*
X15234467Y-10278936D01*
X15234467Y-10278936D02*
X15224944Y-10288460D01*
X15224944Y-10288460D02*
X15205896Y-10297984D01*
X15205896Y-10297984D02*
X15148753Y-10297984D01*
X15148753Y-10297984D02*
X15129706Y-10288460D01*
X15129706Y-10288460D02*
X15120182Y-10278936D01*
X15339229Y-10297984D02*
X15377325Y-10297984D01*
X15377325Y-10297984D02*
X15396372Y-10288460D01*
X15396372Y-10288460D02*
X15405896Y-10278936D01*
X15405896Y-10278936D02*
X15424944Y-10250365D01*
X15424944Y-10250365D02*
X15434467Y-10212270D01*
X15434467Y-10212270D02*
X15434467Y-10136079D01*
X15434467Y-10136079D02*
X15424944Y-10117031D01*
X15424944Y-10117031D02*
X15415420Y-10107508D01*
X15415420Y-10107508D02*
X15396372Y-10097984D01*
X15396372Y-10097984D02*
X15358277Y-10097984D01*
X15358277Y-10097984D02*
X15339229Y-10107508D01*
X15339229Y-10107508D02*
X15329706Y-10117031D01*
X15329706Y-10117031D02*
X15320182Y-10136079D01*
X15320182Y-10136079D02*
X15320182Y-10183698D01*
X15320182Y-10183698D02*
X15329706Y-10202746D01*
X15329706Y-10202746D02*
X15339229Y-10212270D01*
X15339229Y-10212270D02*
X15358277Y-10221793D01*
X15358277Y-10221793D02*
X15396372Y-10221793D01*
X15396372Y-10221793D02*
X15415420Y-10212270D01*
X15415420Y-10212270D02*
X15424944Y-10202746D01*
X15424944Y-10202746D02*
X15434467Y-10183698D01*
X15605896Y-10164650D02*
X15605896Y-10297984D01*
X15558277Y-10088460D02*
X15510658Y-10231317D01*
X15510658Y-10231317D02*
X15634467Y-10231317D01*
X15701134Y-10097984D02*
X15701134Y-10136079D01*
X15777325Y-10097984D02*
X15777325Y-10136079D01*
X16072563Y-10374174D02*
X16063039Y-10364650D01*
X16063039Y-10364650D02*
X16043991Y-10336079D01*
X16043991Y-10336079D02*
X16034468Y-10317031D01*
X16034468Y-10317031D02*
X16024944Y-10288460D01*
X16024944Y-10288460D02*
X16015420Y-10240841D01*
X16015420Y-10240841D02*
X16015420Y-10202746D01*
X16015420Y-10202746D02*
X16024944Y-10155127D01*
X16024944Y-10155127D02*
X16034468Y-10126555D01*
X16034468Y-10126555D02*
X16043991Y-10107508D01*
X16043991Y-10107508D02*
X16063039Y-10078936D01*
X16063039Y-10078936D02*
X16072563Y-10069412D01*
X16253515Y-10297984D02*
X16139229Y-10297984D01*
X16196372Y-10297984D02*
X16196372Y-10097984D01*
X16196372Y-10097984D02*
X16177325Y-10126555D01*
X16177325Y-10126555D02*
X16158277Y-10145603D01*
X16158277Y-10145603D02*
X16139229Y-10155127D01*
X16434468Y-10097984D02*
X16339229Y-10097984D01*
X16339229Y-10097984D02*
X16329706Y-10193222D01*
X16329706Y-10193222D02*
X16339229Y-10183698D01*
X16339229Y-10183698D02*
X16358277Y-10174174D01*
X16358277Y-10174174D02*
X16405896Y-10174174D01*
X16405896Y-10174174D02*
X16424944Y-10183698D01*
X16424944Y-10183698D02*
X16434468Y-10193222D01*
X16434468Y-10193222D02*
X16443991Y-10212270D01*
X16443991Y-10212270D02*
X16443991Y-10259889D01*
X16443991Y-10259889D02*
X16434468Y-10278936D01*
X16434468Y-10278936D02*
X16424944Y-10288460D01*
X16424944Y-10288460D02*
X16405896Y-10297984D01*
X16405896Y-10297984D02*
X16358277Y-10297984D01*
X16358277Y-10297984D02*
X16339229Y-10288460D01*
X16339229Y-10288460D02*
X16329706Y-10278936D01*
X16682087Y-10297984D02*
X16682087Y-10097984D01*
X16767801Y-10297984D02*
X16767801Y-10193222D01*
X16767801Y-10193222D02*
X16758277Y-10174174D01*
X16758277Y-10174174D02*
X16739230Y-10164650D01*
X16739230Y-10164650D02*
X16710658Y-10164650D01*
X16710658Y-10164650D02*
X16691610Y-10174174D01*
X16691610Y-10174174D02*
X16682087Y-10183698D01*
X16891611Y-10297984D02*
X16872563Y-10288460D01*
X16872563Y-10288460D02*
X16863039Y-10278936D01*
X16863039Y-10278936D02*
X16853515Y-10259889D01*
X16853515Y-10259889D02*
X16853515Y-10202746D01*
X16853515Y-10202746D02*
X16863039Y-10183698D01*
X16863039Y-10183698D02*
X16872563Y-10174174D01*
X16872563Y-10174174D02*
X16891611Y-10164650D01*
X16891611Y-10164650D02*
X16920182Y-10164650D01*
X16920182Y-10164650D02*
X16939230Y-10174174D01*
X16939230Y-10174174D02*
X16948753Y-10183698D01*
X16948753Y-10183698D02*
X16958277Y-10202746D01*
X16958277Y-10202746D02*
X16958277Y-10259889D01*
X16958277Y-10259889D02*
X16948753Y-10278936D01*
X16948753Y-10278936D02*
X16939230Y-10288460D01*
X16939230Y-10288460D02*
X16920182Y-10297984D01*
X16920182Y-10297984D02*
X16891611Y-10297984D01*
X17072563Y-10297984D02*
X17053515Y-10288460D01*
X17053515Y-10288460D02*
X17043992Y-10269412D01*
X17043992Y-10269412D02*
X17043992Y-10097984D01*
X17224944Y-10288460D02*
X17205896Y-10297984D01*
X17205896Y-10297984D02*
X17167801Y-10297984D01*
X17167801Y-10297984D02*
X17148753Y-10288460D01*
X17148753Y-10288460D02*
X17139230Y-10269412D01*
X17139230Y-10269412D02*
X17139230Y-10193222D01*
X17139230Y-10193222D02*
X17148753Y-10174174D01*
X17148753Y-10174174D02*
X17167801Y-10164650D01*
X17167801Y-10164650D02*
X17205896Y-10164650D01*
X17205896Y-10164650D02*
X17224944Y-10174174D01*
X17224944Y-10174174D02*
X17234468Y-10193222D01*
X17234468Y-10193222D02*
X17234468Y-10212270D01*
X17234468Y-10212270D02*
X17139230Y-10231317D01*
X17310658Y-10288460D02*
X17329706Y-10297984D01*
X17329706Y-10297984D02*
X17367801Y-10297984D01*
X17367801Y-10297984D02*
X17386849Y-10288460D01*
X17386849Y-10288460D02*
X17396373Y-10269412D01*
X17396373Y-10269412D02*
X17396373Y-10259889D01*
X17396373Y-10259889D02*
X17386849Y-10240841D01*
X17386849Y-10240841D02*
X17367801Y-10231317D01*
X17367801Y-10231317D02*
X17339230Y-10231317D01*
X17339230Y-10231317D02*
X17320182Y-10221793D01*
X17320182Y-10221793D02*
X17310658Y-10202746D01*
X17310658Y-10202746D02*
X17310658Y-10193222D01*
X17310658Y-10193222D02*
X17320182Y-10174174D01*
X17320182Y-10174174D02*
X17339230Y-10164650D01*
X17339230Y-10164650D02*
X17367801Y-10164650D01*
X17367801Y-10164650D02*
X17386849Y-10174174D01*
X17463039Y-10374174D02*
X17472563Y-10364650D01*
X17472563Y-10364650D02*
X17491611Y-10336079D01*
X17491611Y-10336079D02*
X17501134Y-10317031D01*
X17501134Y-10317031D02*
X17510658Y-10288460D01*
X17510658Y-10288460D02*
X17520182Y-10240841D01*
X17520182Y-10240841D02*
X17520182Y-10202746D01*
X17520182Y-10202746D02*
X17510658Y-10155127D01*
X17510658Y-10155127D02*
X17501134Y-10126555D01*
X17501134Y-10126555D02*
X17491611Y-10107508D01*
X17491611Y-10107508D02*
X17472563Y-10078936D01*
X17472563Y-10078936D02*
X17463039Y-10069412D01*
D14*
X12440000Y-10413000D02*
X12440000Y-10528000D01*
X12382500Y-10470500D02*
X12497500Y-10470500D01*
D11*
X12863039Y-10561984D02*
X12748753Y-10561984D01*
X12805896Y-10561984D02*
X12805896Y-10361984D01*
X12805896Y-10361984D02*
X12786848Y-10390555D01*
X12786848Y-10390555D02*
X12767801Y-10409603D01*
X12767801Y-10409603D02*
X12748753Y-10419127D01*
X12948753Y-10542936D02*
X12958277Y-10552460D01*
X12958277Y-10552460D02*
X12948753Y-10561984D01*
X12948753Y-10561984D02*
X12939229Y-10552460D01*
X12939229Y-10552460D02*
X12948753Y-10542936D01*
X12948753Y-10542936D02*
X12948753Y-10561984D01*
X13148753Y-10561984D02*
X13034467Y-10561984D01*
X13091610Y-10561984D02*
X13091610Y-10361984D01*
X13091610Y-10361984D02*
X13072562Y-10390555D01*
X13072562Y-10390555D02*
X13053515Y-10409603D01*
X13053515Y-10409603D02*
X13034467Y-10419127D01*
X13329705Y-10361984D02*
X13234467Y-10361984D01*
X13234467Y-10361984D02*
X13224943Y-10457222D01*
X13224943Y-10457222D02*
X13234467Y-10447698D01*
X13234467Y-10447698D02*
X13253515Y-10438174D01*
X13253515Y-10438174D02*
X13301134Y-10438174D01*
X13301134Y-10438174D02*
X13320182Y-10447698D01*
X13320182Y-10447698D02*
X13329705Y-10457222D01*
X13329705Y-10457222D02*
X13339229Y-10476270D01*
X13339229Y-10476270D02*
X13339229Y-10523889D01*
X13339229Y-10523889D02*
X13329705Y-10542936D01*
X13329705Y-10542936D02*
X13320182Y-10552460D01*
X13320182Y-10552460D02*
X13301134Y-10561984D01*
X13301134Y-10561984D02*
X13253515Y-10561984D01*
X13253515Y-10561984D02*
X13234467Y-10552460D01*
X13234467Y-10552460D02*
X13224943Y-10542936D01*
X13463039Y-10361984D02*
X13482086Y-10361984D01*
X13482086Y-10361984D02*
X13501134Y-10371508D01*
X13501134Y-10371508D02*
X13510658Y-10381031D01*
X13510658Y-10381031D02*
X13520182Y-10400079D01*
X13520182Y-10400079D02*
X13529705Y-10438174D01*
X13529705Y-10438174D02*
X13529705Y-10485793D01*
X13529705Y-10485793D02*
X13520182Y-10523889D01*
X13520182Y-10523889D02*
X13510658Y-10542936D01*
X13510658Y-10542936D02*
X13501134Y-10552460D01*
X13501134Y-10552460D02*
X13482086Y-10561984D01*
X13482086Y-10561984D02*
X13463039Y-10561984D01*
X13463039Y-10561984D02*
X13443991Y-10552460D01*
X13443991Y-10552460D02*
X13434467Y-10542936D01*
X13434467Y-10542936D02*
X13424943Y-10523889D01*
X13424943Y-10523889D02*
X13415420Y-10485793D01*
X13415420Y-10485793D02*
X13415420Y-10438174D01*
X13415420Y-10438174D02*
X13424943Y-10400079D01*
X13424943Y-10400079D02*
X13434467Y-10381031D01*
X13434467Y-10381031D02*
X13443991Y-10371508D01*
X13443991Y-10371508D02*
X13463039Y-10361984D01*
X13615420Y-10561984D02*
X13615420Y-10428650D01*
X13615420Y-10447698D02*
X13624943Y-10438174D01*
X13624943Y-10438174D02*
X13643991Y-10428650D01*
X13643991Y-10428650D02*
X13672563Y-10428650D01*
X13672563Y-10428650D02*
X13691610Y-10438174D01*
X13691610Y-10438174D02*
X13701134Y-10457222D01*
X13701134Y-10457222D02*
X13701134Y-10561984D01*
X13701134Y-10457222D02*
X13710658Y-10438174D01*
X13710658Y-10438174D02*
X13729705Y-10428650D01*
X13729705Y-10428650D02*
X13758277Y-10428650D01*
X13758277Y-10428650D02*
X13777324Y-10438174D01*
X13777324Y-10438174D02*
X13786848Y-10457222D01*
X13786848Y-10457222D02*
X13786848Y-10561984D01*
X13882086Y-10561984D02*
X13882086Y-10428650D01*
X13882086Y-10447698D02*
X13891610Y-10438174D01*
X13891610Y-10438174D02*
X13910658Y-10428650D01*
X13910658Y-10428650D02*
X13939229Y-10428650D01*
X13939229Y-10428650D02*
X13958277Y-10438174D01*
X13958277Y-10438174D02*
X13967801Y-10457222D01*
X13967801Y-10457222D02*
X13967801Y-10561984D01*
X13967801Y-10457222D02*
X13977324Y-10438174D01*
X13977324Y-10438174D02*
X13996372Y-10428650D01*
X13996372Y-10428650D02*
X14024943Y-10428650D01*
X14024943Y-10428650D02*
X14043991Y-10438174D01*
X14043991Y-10438174D02*
X14053515Y-10457222D01*
X14053515Y-10457222D02*
X14053515Y-10561984D01*
X14443991Y-10352460D02*
X14272563Y-10609603D01*
X14701134Y-10361984D02*
X14720182Y-10361984D01*
X14720182Y-10361984D02*
X14739229Y-10371508D01*
X14739229Y-10371508D02*
X14748753Y-10381031D01*
X14748753Y-10381031D02*
X14758277Y-10400079D01*
X14758277Y-10400079D02*
X14767801Y-10438174D01*
X14767801Y-10438174D02*
X14767801Y-10485793D01*
X14767801Y-10485793D02*
X14758277Y-10523889D01*
X14758277Y-10523889D02*
X14748753Y-10542936D01*
X14748753Y-10542936D02*
X14739229Y-10552460D01*
X14739229Y-10552460D02*
X14720182Y-10561984D01*
X14720182Y-10561984D02*
X14701134Y-10561984D01*
X14701134Y-10561984D02*
X14682086Y-10552460D01*
X14682086Y-10552460D02*
X14672563Y-10542936D01*
X14672563Y-10542936D02*
X14663039Y-10523889D01*
X14663039Y-10523889D02*
X14653515Y-10485793D01*
X14653515Y-10485793D02*
X14653515Y-10438174D01*
X14653515Y-10438174D02*
X14663039Y-10400079D01*
X14663039Y-10400079D02*
X14672563Y-10381031D01*
X14672563Y-10381031D02*
X14682086Y-10371508D01*
X14682086Y-10371508D02*
X14701134Y-10361984D01*
X14853515Y-10542936D02*
X14863039Y-10552460D01*
X14863039Y-10552460D02*
X14853515Y-10561984D01*
X14853515Y-10561984D02*
X14843991Y-10552460D01*
X14843991Y-10552460D02*
X14853515Y-10542936D01*
X14853515Y-10542936D02*
X14853515Y-10561984D01*
X14986848Y-10361984D02*
X15005896Y-10361984D01*
X15005896Y-10361984D02*
X15024944Y-10371508D01*
X15024944Y-10371508D02*
X15034467Y-10381031D01*
X15034467Y-10381031D02*
X15043991Y-10400079D01*
X15043991Y-10400079D02*
X15053515Y-10438174D01*
X15053515Y-10438174D02*
X15053515Y-10485793D01*
X15053515Y-10485793D02*
X15043991Y-10523889D01*
X15043991Y-10523889D02*
X15034467Y-10542936D01*
X15034467Y-10542936D02*
X15024944Y-10552460D01*
X15024944Y-10552460D02*
X15005896Y-10561984D01*
X15005896Y-10561984D02*
X14986848Y-10561984D01*
X14986848Y-10561984D02*
X14967801Y-10552460D01*
X14967801Y-10552460D02*
X14958277Y-10542936D01*
X14958277Y-10542936D02*
X14948753Y-10523889D01*
X14948753Y-10523889D02*
X14939229Y-10485793D01*
X14939229Y-10485793D02*
X14939229Y-10438174D01*
X14939229Y-10438174D02*
X14948753Y-10400079D01*
X14948753Y-10400079D02*
X14958277Y-10381031D01*
X14958277Y-10381031D02*
X14967801Y-10371508D01*
X14967801Y-10371508D02*
X14986848Y-10361984D01*
X15224944Y-10428650D02*
X15224944Y-10561984D01*
X15177325Y-10352460D02*
X15129706Y-10495317D01*
X15129706Y-10495317D02*
X15253515Y-10495317D01*
X15424944Y-10361984D02*
X15329706Y-10361984D01*
X15329706Y-10361984D02*
X15320182Y-10457222D01*
X15320182Y-10457222D02*
X15329706Y-10447698D01*
X15329706Y-10447698D02*
X15348753Y-10438174D01*
X15348753Y-10438174D02*
X15396372Y-10438174D01*
X15396372Y-10438174D02*
X15415420Y-10447698D01*
X15415420Y-10447698D02*
X15424944Y-10457222D01*
X15424944Y-10457222D02*
X15434467Y-10476270D01*
X15434467Y-10476270D02*
X15434467Y-10523889D01*
X15434467Y-10523889D02*
X15424944Y-10542936D01*
X15424944Y-10542936D02*
X15415420Y-10552460D01*
X15415420Y-10552460D02*
X15396372Y-10561984D01*
X15396372Y-10561984D02*
X15348753Y-10561984D01*
X15348753Y-10561984D02*
X15329706Y-10552460D01*
X15329706Y-10552460D02*
X15320182Y-10542936D01*
X15501134Y-10361984D02*
X15624944Y-10361984D01*
X15624944Y-10361984D02*
X15558277Y-10438174D01*
X15558277Y-10438174D02*
X15586848Y-10438174D01*
X15586848Y-10438174D02*
X15605896Y-10447698D01*
X15605896Y-10447698D02*
X15615420Y-10457222D01*
X15615420Y-10457222D02*
X15624944Y-10476270D01*
X15624944Y-10476270D02*
X15624944Y-10523889D01*
X15624944Y-10523889D02*
X15615420Y-10542936D01*
X15615420Y-10542936D02*
X15605896Y-10552460D01*
X15605896Y-10552460D02*
X15586848Y-10561984D01*
X15586848Y-10561984D02*
X15529706Y-10561984D01*
X15529706Y-10561984D02*
X15510658Y-10552460D01*
X15510658Y-10552460D02*
X15501134Y-10542936D01*
X15701134Y-10361984D02*
X15701134Y-10400079D01*
X15777325Y-10361984D02*
X15777325Y-10400079D01*
X16072563Y-10638174D02*
X16063039Y-10628650D01*
X16063039Y-10628650D02*
X16043991Y-10600079D01*
X16043991Y-10600079D02*
X16034468Y-10581031D01*
X16034468Y-10581031D02*
X16024944Y-10552460D01*
X16024944Y-10552460D02*
X16015420Y-10504841D01*
X16015420Y-10504841D02*
X16015420Y-10466746D01*
X16015420Y-10466746D02*
X16024944Y-10419127D01*
X16024944Y-10419127D02*
X16034468Y-10390555D01*
X16034468Y-10390555D02*
X16043991Y-10371508D01*
X16043991Y-10371508D02*
X16063039Y-10342936D01*
X16063039Y-10342936D02*
X16072563Y-10333412D01*
X16158277Y-10561984D02*
X16196372Y-10561984D01*
X16196372Y-10561984D02*
X16215420Y-10552460D01*
X16215420Y-10552460D02*
X16224944Y-10542936D01*
X16224944Y-10542936D02*
X16243991Y-10514365D01*
X16243991Y-10514365D02*
X16253515Y-10476270D01*
X16253515Y-10476270D02*
X16253515Y-10400079D01*
X16253515Y-10400079D02*
X16243991Y-10381031D01*
X16243991Y-10381031D02*
X16234468Y-10371508D01*
X16234468Y-10371508D02*
X16215420Y-10361984D01*
X16215420Y-10361984D02*
X16177325Y-10361984D01*
X16177325Y-10361984D02*
X16158277Y-10371508D01*
X16158277Y-10371508D02*
X16148753Y-10381031D01*
X16148753Y-10381031D02*
X16139229Y-10400079D01*
X16139229Y-10400079D02*
X16139229Y-10447698D01*
X16139229Y-10447698D02*
X16148753Y-10466746D01*
X16148753Y-10466746D02*
X16158277Y-10476270D01*
X16158277Y-10476270D02*
X16177325Y-10485793D01*
X16177325Y-10485793D02*
X16215420Y-10485793D01*
X16215420Y-10485793D02*
X16234468Y-10476270D01*
X16234468Y-10476270D02*
X16243991Y-10466746D01*
X16243991Y-10466746D02*
X16253515Y-10447698D01*
X16491610Y-10561984D02*
X16491610Y-10361984D01*
X16577325Y-10561984D02*
X16577325Y-10457222D01*
X16577325Y-10457222D02*
X16567801Y-10438174D01*
X16567801Y-10438174D02*
X16548753Y-10428650D01*
X16548753Y-10428650D02*
X16520182Y-10428650D01*
X16520182Y-10428650D02*
X16501134Y-10438174D01*
X16501134Y-10438174D02*
X16491610Y-10447698D01*
X16701134Y-10561984D02*
X16682087Y-10552460D01*
X16682087Y-10552460D02*
X16672563Y-10542936D01*
X16672563Y-10542936D02*
X16663039Y-10523889D01*
X16663039Y-10523889D02*
X16663039Y-10466746D01*
X16663039Y-10466746D02*
X16672563Y-10447698D01*
X16672563Y-10447698D02*
X16682087Y-10438174D01*
X16682087Y-10438174D02*
X16701134Y-10428650D01*
X16701134Y-10428650D02*
X16729706Y-10428650D01*
X16729706Y-10428650D02*
X16748753Y-10438174D01*
X16748753Y-10438174D02*
X16758277Y-10447698D01*
X16758277Y-10447698D02*
X16767801Y-10466746D01*
X16767801Y-10466746D02*
X16767801Y-10523889D01*
X16767801Y-10523889D02*
X16758277Y-10542936D01*
X16758277Y-10542936D02*
X16748753Y-10552460D01*
X16748753Y-10552460D02*
X16729706Y-10561984D01*
X16729706Y-10561984D02*
X16701134Y-10561984D01*
X16882087Y-10561984D02*
X16863039Y-10552460D01*
X16863039Y-10552460D02*
X16853515Y-10533412D01*
X16853515Y-10533412D02*
X16853515Y-10361984D01*
X17034468Y-10552460D02*
X17015420Y-10561984D01*
X17015420Y-10561984D02*
X16977325Y-10561984D01*
X16977325Y-10561984D02*
X16958277Y-10552460D01*
X16958277Y-10552460D02*
X16948753Y-10533412D01*
X16948753Y-10533412D02*
X16948753Y-10457222D01*
X16948753Y-10457222D02*
X16958277Y-10438174D01*
X16958277Y-10438174D02*
X16977325Y-10428650D01*
X16977325Y-10428650D02*
X17015420Y-10428650D01*
X17015420Y-10428650D02*
X17034468Y-10438174D01*
X17034468Y-10438174D02*
X17043992Y-10457222D01*
X17043992Y-10457222D02*
X17043992Y-10476270D01*
X17043992Y-10476270D02*
X16948753Y-10495317D01*
X17120182Y-10552460D02*
X17139230Y-10561984D01*
X17139230Y-10561984D02*
X17177325Y-10561984D01*
X17177325Y-10561984D02*
X17196373Y-10552460D01*
X17196373Y-10552460D02*
X17205896Y-10533412D01*
X17205896Y-10533412D02*
X17205896Y-10523889D01*
X17205896Y-10523889D02*
X17196373Y-10504841D01*
X17196373Y-10504841D02*
X17177325Y-10495317D01*
X17177325Y-10495317D02*
X17148753Y-10495317D01*
X17148753Y-10495317D02*
X17129706Y-10485793D01*
X17129706Y-10485793D02*
X17120182Y-10466746D01*
X17120182Y-10466746D02*
X17120182Y-10457222D01*
X17120182Y-10457222D02*
X17129706Y-10438174D01*
X17129706Y-10438174D02*
X17148753Y-10428650D01*
X17148753Y-10428650D02*
X17177325Y-10428650D01*
X17177325Y-10428650D02*
X17196373Y-10438174D01*
X17272563Y-10638174D02*
X17282087Y-10628650D01*
X17282087Y-10628650D02*
X17301134Y-10600079D01*
X17301134Y-10600079D02*
X17310658Y-10581031D01*
X17310658Y-10581031D02*
X17320182Y-10552460D01*
X17320182Y-10552460D02*
X17329706Y-10504841D01*
X17329706Y-10504841D02*
X17329706Y-10466746D01*
X17329706Y-10466746D02*
X17320182Y-10419127D01*
X17320182Y-10419127D02*
X17310658Y-10390555D01*
X17310658Y-10390555D02*
X17301134Y-10371508D01*
X17301134Y-10371508D02*
X17282087Y-10342936D01*
X17282087Y-10342936D02*
X17272563Y-10333412D01*
M02*
