%TF.GenerationSoftware,KiCad,Pcbnew,7.0.7*%
%TF.CreationDate,2023-10-16T08:59:51-07:00*%
%TF.ProjectId,Soil Power Sensor,536f696c-2050-46f7-9765-722053656e73,2.1.0*%
%TF.SameCoordinates,Original*%
%TF.FileFunction,Drillmap*%
%TF.FilePolarity,Positive*%
%FSLAX45Y45*%
G04 Gerber Fmt 4.5, Leading zero omitted, Abs format (unit mm)*
G04 Created by KiCad (PCBNEW 7.0.7) date 2023-10-16 08:59:51*
%MOMM*%
%LPD*%
G01*
G04 APERTURE LIST*
%ADD10C,0.050000*%
%ADD11C,0.200000*%
G04 APERTURE END LIST*
D10*
X12500000Y-4900000D02*
X12500000Y-9200000D01*
X24100000Y-4900000D02*
G75*
G03*
X24000000Y-4800000I-100000J0D01*
G01*
X12600000Y-9300000D02*
X24000000Y-9300000D01*
X24100000Y-9200000D02*
X24100000Y-4900000D01*
X24000000Y-9300000D02*
G75*
G03*
X24100000Y-9200000I0J100000D01*
G01*
X12600000Y-4800000D02*
G75*
G03*
X12500000Y-4900000I0J-100000D01*
G01*
X24000000Y-4800000D02*
X12600000Y-4800000D01*
X12500000Y-9200000D02*
G75*
G03*
X12600000Y-9300000I100000J0D01*
G01*
D11*
X12758277Y-9613984D02*
X12758277Y-9413984D01*
X12758277Y-9413984D02*
X12805896Y-9413984D01*
X12805896Y-9413984D02*
X12834467Y-9423508D01*
X12834467Y-9423508D02*
X12853515Y-9442555D01*
X12853515Y-9442555D02*
X12863039Y-9461603D01*
X12863039Y-9461603D02*
X12872562Y-9499698D01*
X12872562Y-9499698D02*
X12872562Y-9528270D01*
X12872562Y-9528270D02*
X12863039Y-9566365D01*
X12863039Y-9566365D02*
X12853515Y-9585412D01*
X12853515Y-9585412D02*
X12834467Y-9604460D01*
X12834467Y-9604460D02*
X12805896Y-9613984D01*
X12805896Y-9613984D02*
X12758277Y-9613984D01*
X12958277Y-9613984D02*
X12958277Y-9480650D01*
X12958277Y-9518746D02*
X12967801Y-9499698D01*
X12967801Y-9499698D02*
X12977324Y-9490174D01*
X12977324Y-9490174D02*
X12996372Y-9480650D01*
X12996372Y-9480650D02*
X13015420Y-9480650D01*
X13082086Y-9613984D02*
X13082086Y-9480650D01*
X13082086Y-9413984D02*
X13072562Y-9423508D01*
X13072562Y-9423508D02*
X13082086Y-9433031D01*
X13082086Y-9433031D02*
X13091610Y-9423508D01*
X13091610Y-9423508D02*
X13082086Y-9413984D01*
X13082086Y-9413984D02*
X13082086Y-9433031D01*
X13205896Y-9613984D02*
X13186848Y-9604460D01*
X13186848Y-9604460D02*
X13177324Y-9585412D01*
X13177324Y-9585412D02*
X13177324Y-9413984D01*
X13310658Y-9613984D02*
X13291610Y-9604460D01*
X13291610Y-9604460D02*
X13282086Y-9585412D01*
X13282086Y-9585412D02*
X13282086Y-9413984D01*
X13539229Y-9613984D02*
X13539229Y-9413984D01*
X13539229Y-9413984D02*
X13605896Y-9556841D01*
X13605896Y-9556841D02*
X13672562Y-9413984D01*
X13672562Y-9413984D02*
X13672562Y-9613984D01*
X13853515Y-9613984D02*
X13853515Y-9509222D01*
X13853515Y-9509222D02*
X13843991Y-9490174D01*
X13843991Y-9490174D02*
X13824943Y-9480650D01*
X13824943Y-9480650D02*
X13786848Y-9480650D01*
X13786848Y-9480650D02*
X13767801Y-9490174D01*
X13853515Y-9604460D02*
X13834467Y-9613984D01*
X13834467Y-9613984D02*
X13786848Y-9613984D01*
X13786848Y-9613984D02*
X13767801Y-9604460D01*
X13767801Y-9604460D02*
X13758277Y-9585412D01*
X13758277Y-9585412D02*
X13758277Y-9566365D01*
X13758277Y-9566365D02*
X13767801Y-9547317D01*
X13767801Y-9547317D02*
X13786848Y-9537793D01*
X13786848Y-9537793D02*
X13834467Y-9537793D01*
X13834467Y-9537793D02*
X13853515Y-9528270D01*
X13948753Y-9480650D02*
X13948753Y-9680650D01*
X13948753Y-9490174D02*
X13967801Y-9480650D01*
X13967801Y-9480650D02*
X14005896Y-9480650D01*
X14005896Y-9480650D02*
X14024943Y-9490174D01*
X14024943Y-9490174D02*
X14034467Y-9499698D01*
X14034467Y-9499698D02*
X14043991Y-9518746D01*
X14043991Y-9518746D02*
X14043991Y-9575889D01*
X14043991Y-9575889D02*
X14034467Y-9594936D01*
X14034467Y-9594936D02*
X14024943Y-9604460D01*
X14024943Y-9604460D02*
X14005896Y-9613984D01*
X14005896Y-9613984D02*
X13967801Y-9613984D01*
X13967801Y-9613984D02*
X13948753Y-9604460D01*
X14129705Y-9594936D02*
X14139229Y-9604460D01*
X14139229Y-9604460D02*
X14129705Y-9613984D01*
X14129705Y-9613984D02*
X14120182Y-9604460D01*
X14120182Y-9604460D02*
X14129705Y-9594936D01*
X14129705Y-9594936D02*
X14129705Y-9613984D01*
X14129705Y-9490174D02*
X14139229Y-9499698D01*
X14139229Y-9499698D02*
X14129705Y-9509222D01*
X14129705Y-9509222D02*
X14120182Y-9499698D01*
X14120182Y-9499698D02*
X14129705Y-9490174D01*
X14129705Y-9490174D02*
X14129705Y-9509222D01*
M02*
