G04 #@! TF.GenerationSoftware,KiCad,Pcbnew,7.0.7*
G04 #@! TF.CreationDate,2023-10-16T09:33:33-07:00*
G04 #@! TF.ProjectId,Soil Power Sensor,536f696c-2050-46f7-9765-722053656e73,2.1.0*
G04 #@! TF.SameCoordinates,Original*
G04 #@! TF.FileFunction,Legend,Bot*
G04 #@! TF.FilePolarity,Positive*
%FSLAX46Y46*%
G04 Gerber Fmt 4.6, Leading zero omitted, Abs format (unit mm)*
G04 Created by KiCad (PCBNEW 7.0.7) date 2023-10-16 09:33:33*
%MOMM*%
%LPD*%
G01*
G04 APERTURE LIST*
G04 Aperture macros list*
%AMRoundRect*
0 Rectangle with rounded corners*
0 $1 Rounding radius*
0 $2 $3 $4 $5 $6 $7 $8 $9 X,Y pos of 4 corners*
0 Add a 4 corners polygon primitive as box body*
4,1,4,$2,$3,$4,$5,$6,$7,$8,$9,$2,$3,0*
0 Add four circle primitives for the rounded corners*
1,1,$1+$1,$2,$3*
1,1,$1+$1,$4,$5*
1,1,$1+$1,$6,$7*
1,1,$1+$1,$8,$9*
0 Add four rect primitives between the rounded corners*
20,1,$1+$1,$2,$3,$4,$5,0*
20,1,$1+$1,$4,$5,$6,$7,0*
20,1,$1+$1,$6,$7,$8,$9,0*
20,1,$1+$1,$8,$9,$2,$3,0*%
G04 Aperture macros list end*
%ADD10C,0.100000*%
%ADD11C,0.300000*%
%ADD12C,0.150000*%
%ADD13C,0.152400*%
%ADD14C,0.076200*%
%ADD15R,3.000000X1.500000*%
%ADD16O,3.000000X1.500000*%
%ADD17R,1.700000X1.700000*%
%ADD18O,1.700000X1.700000*%
%ADD19R,1.500000X3.000000*%
%ADD20O,1.500000X3.000000*%
%ADD21RoundRect,0.101600X1.981200X1.168400X-1.981200X1.168400X-1.981200X-1.168400X1.981200X-1.168400X0*%
%ADD22RoundRect,0.101600X1.981200X2.540000X-1.981200X2.540000X-1.981200X-2.540000X1.981200X-2.540000X0*%
%ADD23RoundRect,0.101600X-1.981200X-1.168400X1.981200X-1.168400X1.981200X1.168400X-1.981200X1.168400X0*%
%ADD24RoundRect,0.101600X-1.981200X-2.540000X1.981200X-2.540000X1.981200X2.540000X-1.981200X2.540000X0*%
G04 APERTURE END LIST*
D10*
X154562419Y-61161027D02*
X155562419Y-61494360D01*
X155562419Y-61494360D02*
X154562419Y-61827693D01*
X155562419Y-62303884D02*
X155514800Y-62208646D01*
X155514800Y-62208646D02*
X155467180Y-62161027D01*
X155467180Y-62161027D02*
X155371942Y-62113408D01*
X155371942Y-62113408D02*
X155086228Y-62113408D01*
X155086228Y-62113408D02*
X154990990Y-62161027D01*
X154990990Y-62161027D02*
X154943371Y-62208646D01*
X154943371Y-62208646D02*
X154895752Y-62303884D01*
X154895752Y-62303884D02*
X154895752Y-62446741D01*
X154895752Y-62446741D02*
X154943371Y-62541979D01*
X154943371Y-62541979D02*
X154990990Y-62589598D01*
X154990990Y-62589598D02*
X155086228Y-62637217D01*
X155086228Y-62637217D02*
X155371942Y-62637217D01*
X155371942Y-62637217D02*
X155467180Y-62589598D01*
X155467180Y-62589598D02*
X155514800Y-62541979D01*
X155514800Y-62541979D02*
X155562419Y-62446741D01*
X155562419Y-62446741D02*
X155562419Y-62303884D01*
X155562419Y-63208646D02*
X155514800Y-63113408D01*
X155514800Y-63113408D02*
X155419561Y-63065789D01*
X155419561Y-63065789D02*
X154562419Y-63065789D01*
X154895752Y-63446742D02*
X154895752Y-63827694D01*
X154562419Y-63589599D02*
X155419561Y-63589599D01*
X155419561Y-63589599D02*
X155514800Y-63637218D01*
X155514800Y-63637218D02*
X155562419Y-63732456D01*
X155562419Y-63732456D02*
X155562419Y-63827694D01*
X155562419Y-64589599D02*
X155038609Y-64589599D01*
X155038609Y-64589599D02*
X154943371Y-64541980D01*
X154943371Y-64541980D02*
X154895752Y-64446742D01*
X154895752Y-64446742D02*
X154895752Y-64256266D01*
X154895752Y-64256266D02*
X154943371Y-64161028D01*
X155514800Y-64589599D02*
X155562419Y-64494361D01*
X155562419Y-64494361D02*
X155562419Y-64256266D01*
X155562419Y-64256266D02*
X155514800Y-64161028D01*
X155514800Y-64161028D02*
X155419561Y-64113409D01*
X155419561Y-64113409D02*
X155324323Y-64113409D01*
X155324323Y-64113409D02*
X155229085Y-64161028D01*
X155229085Y-64161028D02*
X155181466Y-64256266D01*
X155181466Y-64256266D02*
X155181466Y-64494361D01*
X155181466Y-64494361D02*
X155133847Y-64589599D01*
X154895752Y-65494361D02*
X155705276Y-65494361D01*
X155705276Y-65494361D02*
X155800514Y-65446742D01*
X155800514Y-65446742D02*
X155848133Y-65399123D01*
X155848133Y-65399123D02*
X155895752Y-65303885D01*
X155895752Y-65303885D02*
X155895752Y-65161028D01*
X155895752Y-65161028D02*
X155848133Y-65065790D01*
X155514800Y-65494361D02*
X155562419Y-65399123D01*
X155562419Y-65399123D02*
X155562419Y-65208647D01*
X155562419Y-65208647D02*
X155514800Y-65113409D01*
X155514800Y-65113409D02*
X155467180Y-65065790D01*
X155467180Y-65065790D02*
X155371942Y-65018171D01*
X155371942Y-65018171D02*
X155086228Y-65018171D01*
X155086228Y-65018171D02*
X154990990Y-65065790D01*
X154990990Y-65065790D02*
X154943371Y-65113409D01*
X154943371Y-65113409D02*
X154895752Y-65208647D01*
X154895752Y-65208647D02*
X154895752Y-65399123D01*
X154895752Y-65399123D02*
X154943371Y-65494361D01*
X155514800Y-66351504D02*
X155562419Y-66256266D01*
X155562419Y-66256266D02*
X155562419Y-66065790D01*
X155562419Y-66065790D02*
X155514800Y-65970552D01*
X155514800Y-65970552D02*
X155419561Y-65922933D01*
X155419561Y-65922933D02*
X155038609Y-65922933D01*
X155038609Y-65922933D02*
X154943371Y-65970552D01*
X154943371Y-65970552D02*
X154895752Y-66065790D01*
X154895752Y-66065790D02*
X154895752Y-66256266D01*
X154895752Y-66256266D02*
X154943371Y-66351504D01*
X154943371Y-66351504D02*
X155038609Y-66399123D01*
X155038609Y-66399123D02*
X155133847Y-66399123D01*
X155133847Y-66399123D02*
X155229085Y-65922933D01*
X155467180Y-66827695D02*
X155514800Y-66875314D01*
X155514800Y-66875314D02*
X155562419Y-66827695D01*
X155562419Y-66827695D02*
X155514800Y-66780076D01*
X155514800Y-66780076D02*
X155467180Y-66827695D01*
X155467180Y-66827695D02*
X155562419Y-66827695D01*
X154943371Y-66827695D02*
X154990990Y-66875314D01*
X154990990Y-66875314D02*
X155038609Y-66827695D01*
X155038609Y-66827695D02*
X154990990Y-66780076D01*
X154990990Y-66780076D02*
X154943371Y-66827695D01*
X154943371Y-66827695D02*
X155038609Y-66827695D01*
X156172419Y-61161027D02*
X157172419Y-61494360D01*
X157172419Y-61494360D02*
X156172419Y-61827693D01*
X157172419Y-62303884D02*
X157124800Y-62208646D01*
X157124800Y-62208646D02*
X157077180Y-62161027D01*
X157077180Y-62161027D02*
X156981942Y-62113408D01*
X156981942Y-62113408D02*
X156696228Y-62113408D01*
X156696228Y-62113408D02*
X156600990Y-62161027D01*
X156600990Y-62161027D02*
X156553371Y-62208646D01*
X156553371Y-62208646D02*
X156505752Y-62303884D01*
X156505752Y-62303884D02*
X156505752Y-62446741D01*
X156505752Y-62446741D02*
X156553371Y-62541979D01*
X156553371Y-62541979D02*
X156600990Y-62589598D01*
X156600990Y-62589598D02*
X156696228Y-62637217D01*
X156696228Y-62637217D02*
X156981942Y-62637217D01*
X156981942Y-62637217D02*
X157077180Y-62589598D01*
X157077180Y-62589598D02*
X157124800Y-62541979D01*
X157124800Y-62541979D02*
X157172419Y-62446741D01*
X157172419Y-62446741D02*
X157172419Y-62303884D01*
X156505752Y-63494360D02*
X157172419Y-63494360D01*
X156505752Y-63065789D02*
X157029561Y-63065789D01*
X157029561Y-63065789D02*
X157124800Y-63113408D01*
X157124800Y-63113408D02*
X157172419Y-63208646D01*
X157172419Y-63208646D02*
X157172419Y-63351503D01*
X157172419Y-63351503D02*
X157124800Y-63446741D01*
X157124800Y-63446741D02*
X157077180Y-63494360D01*
X156505752Y-63827694D02*
X156505752Y-64208646D01*
X156172419Y-63970551D02*
X157029561Y-63970551D01*
X157029561Y-63970551D02*
X157124800Y-64018170D01*
X157124800Y-64018170D02*
X157172419Y-64113408D01*
X157172419Y-64113408D02*
X157172419Y-64208646D01*
X156648609Y-65303885D02*
X156648609Y-66065790D01*
X156934323Y-66065790D02*
X156934323Y-65303885D01*
X156172419Y-67161028D02*
X157172419Y-67494361D01*
X157172419Y-67494361D02*
X156172419Y-67827694D01*
X157172419Y-68161028D02*
X156505752Y-68161028D01*
X156172419Y-68161028D02*
X156220038Y-68113409D01*
X156220038Y-68113409D02*
X156267657Y-68161028D01*
X156267657Y-68161028D02*
X156220038Y-68208647D01*
X156220038Y-68208647D02*
X156172419Y-68161028D01*
X156172419Y-68161028D02*
X156267657Y-68161028D01*
X156505752Y-68637218D02*
X157172419Y-68637218D01*
X156600990Y-68637218D02*
X156553371Y-68684837D01*
X156553371Y-68684837D02*
X156505752Y-68780075D01*
X156505752Y-68780075D02*
X156505752Y-68922932D01*
X156505752Y-68922932D02*
X156553371Y-69018170D01*
X156553371Y-69018170D02*
X156648609Y-69065789D01*
X156648609Y-69065789D02*
X157172419Y-69065789D01*
X157553371Y-70589599D02*
X157505752Y-70541980D01*
X157505752Y-70541980D02*
X157362895Y-70446742D01*
X157362895Y-70446742D02*
X157267657Y-70399123D01*
X157267657Y-70399123D02*
X157124800Y-70351504D01*
X157124800Y-70351504D02*
X156886704Y-70303885D01*
X156886704Y-70303885D02*
X156696228Y-70303885D01*
X156696228Y-70303885D02*
X156458133Y-70351504D01*
X156458133Y-70351504D02*
X156315276Y-70399123D01*
X156315276Y-70399123D02*
X156220038Y-70446742D01*
X156220038Y-70446742D02*
X156077180Y-70541980D01*
X156077180Y-70541980D02*
X156029561Y-70589599D01*
X157172419Y-71541980D02*
X156696228Y-71208647D01*
X157172419Y-70970552D02*
X156172419Y-70970552D01*
X156172419Y-70970552D02*
X156172419Y-71351504D01*
X156172419Y-71351504D02*
X156220038Y-71446742D01*
X156220038Y-71446742D02*
X156267657Y-71494361D01*
X156267657Y-71494361D02*
X156362895Y-71541980D01*
X156362895Y-71541980D02*
X156505752Y-71541980D01*
X156505752Y-71541980D02*
X156600990Y-71494361D01*
X156600990Y-71494361D02*
X156648609Y-71446742D01*
X156648609Y-71446742D02*
X156696228Y-71351504D01*
X156696228Y-71351504D02*
X156696228Y-70970552D01*
X156172419Y-72446742D02*
X156172419Y-71970552D01*
X156172419Y-71970552D02*
X156648609Y-71922933D01*
X156648609Y-71922933D02*
X156600990Y-71970552D01*
X156600990Y-71970552D02*
X156553371Y-72065790D01*
X156553371Y-72065790D02*
X156553371Y-72303885D01*
X156553371Y-72303885D02*
X156600990Y-72399123D01*
X156600990Y-72399123D02*
X156648609Y-72446742D01*
X156648609Y-72446742D02*
X156743847Y-72494361D01*
X156743847Y-72494361D02*
X156981942Y-72494361D01*
X156981942Y-72494361D02*
X157077180Y-72446742D01*
X157077180Y-72446742D02*
X157124800Y-72399123D01*
X157124800Y-72399123D02*
X157172419Y-72303885D01*
X157172419Y-72303885D02*
X157172419Y-72065790D01*
X157172419Y-72065790D02*
X157124800Y-71970552D01*
X157124800Y-71970552D02*
X157077180Y-71922933D01*
X156124800Y-74399123D02*
X157410514Y-73541981D01*
X157172419Y-76065790D02*
X156696228Y-75732457D01*
X157172419Y-75494362D02*
X156172419Y-75494362D01*
X156172419Y-75494362D02*
X156172419Y-75875314D01*
X156172419Y-75875314D02*
X156220038Y-75970552D01*
X156220038Y-75970552D02*
X156267657Y-76018171D01*
X156267657Y-76018171D02*
X156362895Y-76065790D01*
X156362895Y-76065790D02*
X156505752Y-76065790D01*
X156505752Y-76065790D02*
X156600990Y-76018171D01*
X156600990Y-76018171D02*
X156648609Y-75970552D01*
X156648609Y-75970552D02*
X156696228Y-75875314D01*
X156696228Y-75875314D02*
X156696228Y-75494362D01*
X156172419Y-76399124D02*
X156172419Y-77018171D01*
X156172419Y-77018171D02*
X156553371Y-76684838D01*
X156553371Y-76684838D02*
X156553371Y-76827695D01*
X156553371Y-76827695D02*
X156600990Y-76922933D01*
X156600990Y-76922933D02*
X156648609Y-76970552D01*
X156648609Y-76970552D02*
X156743847Y-77018171D01*
X156743847Y-77018171D02*
X156981942Y-77018171D01*
X156981942Y-77018171D02*
X157077180Y-76970552D01*
X157077180Y-76970552D02*
X157124800Y-76922933D01*
X157124800Y-76922933D02*
X157172419Y-76827695D01*
X157172419Y-76827695D02*
X157172419Y-76541981D01*
X157172419Y-76541981D02*
X157124800Y-76446743D01*
X157124800Y-76446743D02*
X157077180Y-76399124D01*
X157553371Y-77351505D02*
X157505752Y-77399124D01*
X157505752Y-77399124D02*
X157362895Y-77494362D01*
X157362895Y-77494362D02*
X157267657Y-77541981D01*
X157267657Y-77541981D02*
X157124800Y-77589600D01*
X157124800Y-77589600D02*
X156886704Y-77637219D01*
X156886704Y-77637219D02*
X156696228Y-77637219D01*
X156696228Y-77637219D02*
X156458133Y-77589600D01*
X156458133Y-77589600D02*
X156315276Y-77541981D01*
X156315276Y-77541981D02*
X156220038Y-77494362D01*
X156220038Y-77494362D02*
X156077180Y-77399124D01*
X156077180Y-77399124D02*
X156029561Y-77351505D01*
X158782419Y-61875312D02*
X158306228Y-61541979D01*
X158782419Y-61303884D02*
X157782419Y-61303884D01*
X157782419Y-61303884D02*
X157782419Y-61684836D01*
X157782419Y-61684836D02*
X157830038Y-61780074D01*
X157830038Y-61780074D02*
X157877657Y-61827693D01*
X157877657Y-61827693D02*
X157972895Y-61875312D01*
X157972895Y-61875312D02*
X158115752Y-61875312D01*
X158115752Y-61875312D02*
X158210990Y-61827693D01*
X158210990Y-61827693D02*
X158258609Y-61780074D01*
X158258609Y-61780074D02*
X158306228Y-61684836D01*
X158306228Y-61684836D02*
X158306228Y-61303884D01*
X157782419Y-62780074D02*
X157782419Y-62303884D01*
X157782419Y-62303884D02*
X158258609Y-62256265D01*
X158258609Y-62256265D02*
X158210990Y-62303884D01*
X158210990Y-62303884D02*
X158163371Y-62399122D01*
X158163371Y-62399122D02*
X158163371Y-62637217D01*
X158163371Y-62637217D02*
X158210990Y-62732455D01*
X158210990Y-62732455D02*
X158258609Y-62780074D01*
X158258609Y-62780074D02*
X158353847Y-62827693D01*
X158353847Y-62827693D02*
X158591942Y-62827693D01*
X158591942Y-62827693D02*
X158687180Y-62780074D01*
X158687180Y-62780074D02*
X158734800Y-62732455D01*
X158734800Y-62732455D02*
X158782419Y-62637217D01*
X158782419Y-62637217D02*
X158782419Y-62399122D01*
X158782419Y-62399122D02*
X158734800Y-62303884D01*
X158734800Y-62303884D02*
X158687180Y-62256265D01*
X158258609Y-64018170D02*
X158258609Y-64780075D01*
X158544323Y-64780075D02*
X158544323Y-64018170D01*
X158782419Y-66589598D02*
X158306228Y-66256265D01*
X158782419Y-66018170D02*
X157782419Y-66018170D01*
X157782419Y-66018170D02*
X157782419Y-66399122D01*
X157782419Y-66399122D02*
X157830038Y-66494360D01*
X157830038Y-66494360D02*
X157877657Y-66541979D01*
X157877657Y-66541979D02*
X157972895Y-66589598D01*
X157972895Y-66589598D02*
X158115752Y-66589598D01*
X158115752Y-66589598D02*
X158210990Y-66541979D01*
X158210990Y-66541979D02*
X158258609Y-66494360D01*
X158258609Y-66494360D02*
X158306228Y-66399122D01*
X158306228Y-66399122D02*
X158306228Y-66018170D01*
X158782419Y-67541979D02*
X158782419Y-66970551D01*
X158782419Y-67256265D02*
X157782419Y-67256265D01*
X157782419Y-67256265D02*
X157925276Y-67161027D01*
X157925276Y-67161027D02*
X158020514Y-67065789D01*
X158020514Y-67065789D02*
X158068133Y-66970551D01*
X160392419Y-61875312D02*
X159916228Y-61541979D01*
X160392419Y-61303884D02*
X159392419Y-61303884D01*
X159392419Y-61303884D02*
X159392419Y-61684836D01*
X159392419Y-61684836D02*
X159440038Y-61780074D01*
X159440038Y-61780074D02*
X159487657Y-61827693D01*
X159487657Y-61827693D02*
X159582895Y-61875312D01*
X159582895Y-61875312D02*
X159725752Y-61875312D01*
X159725752Y-61875312D02*
X159820990Y-61827693D01*
X159820990Y-61827693D02*
X159868609Y-61780074D01*
X159868609Y-61780074D02*
X159916228Y-61684836D01*
X159916228Y-61684836D02*
X159916228Y-61303884D01*
X159392419Y-62208646D02*
X159392419Y-62827693D01*
X159392419Y-62827693D02*
X159773371Y-62494360D01*
X159773371Y-62494360D02*
X159773371Y-62637217D01*
X159773371Y-62637217D02*
X159820990Y-62732455D01*
X159820990Y-62732455D02*
X159868609Y-62780074D01*
X159868609Y-62780074D02*
X159963847Y-62827693D01*
X159963847Y-62827693D02*
X160201942Y-62827693D01*
X160201942Y-62827693D02*
X160297180Y-62780074D01*
X160297180Y-62780074D02*
X160344800Y-62732455D01*
X160344800Y-62732455D02*
X160392419Y-62637217D01*
X160392419Y-62637217D02*
X160392419Y-62351503D01*
X160392419Y-62351503D02*
X160344800Y-62256265D01*
X160344800Y-62256265D02*
X160297180Y-62208646D01*
X159868609Y-64018170D02*
X159868609Y-64780075D01*
X160154323Y-64780075D02*
X160154323Y-64018170D01*
X160392419Y-66589598D02*
X159916228Y-66256265D01*
X160392419Y-66018170D02*
X159392419Y-66018170D01*
X159392419Y-66018170D02*
X159392419Y-66399122D01*
X159392419Y-66399122D02*
X159440038Y-66494360D01*
X159440038Y-66494360D02*
X159487657Y-66541979D01*
X159487657Y-66541979D02*
X159582895Y-66589598D01*
X159582895Y-66589598D02*
X159725752Y-66589598D01*
X159725752Y-66589598D02*
X159820990Y-66541979D01*
X159820990Y-66541979D02*
X159868609Y-66494360D01*
X159868609Y-66494360D02*
X159916228Y-66399122D01*
X159916228Y-66399122D02*
X159916228Y-66018170D01*
X159487657Y-66970551D02*
X159440038Y-67018170D01*
X159440038Y-67018170D02*
X159392419Y-67113408D01*
X159392419Y-67113408D02*
X159392419Y-67351503D01*
X159392419Y-67351503D02*
X159440038Y-67446741D01*
X159440038Y-67446741D02*
X159487657Y-67494360D01*
X159487657Y-67494360D02*
X159582895Y-67541979D01*
X159582895Y-67541979D02*
X159678133Y-67541979D01*
X159678133Y-67541979D02*
X159820990Y-67494360D01*
X159820990Y-67494360D02*
X160392419Y-66922932D01*
X160392419Y-66922932D02*
X160392419Y-67541979D01*
X163517180Y-61875312D02*
X163564800Y-61827693D01*
X163564800Y-61827693D02*
X163612419Y-61684836D01*
X163612419Y-61684836D02*
X163612419Y-61589598D01*
X163612419Y-61589598D02*
X163564800Y-61446741D01*
X163564800Y-61446741D02*
X163469561Y-61351503D01*
X163469561Y-61351503D02*
X163374323Y-61303884D01*
X163374323Y-61303884D02*
X163183847Y-61256265D01*
X163183847Y-61256265D02*
X163040990Y-61256265D01*
X163040990Y-61256265D02*
X162850514Y-61303884D01*
X162850514Y-61303884D02*
X162755276Y-61351503D01*
X162755276Y-61351503D02*
X162660038Y-61446741D01*
X162660038Y-61446741D02*
X162612419Y-61589598D01*
X162612419Y-61589598D02*
X162612419Y-61684836D01*
X162612419Y-61684836D02*
X162660038Y-61827693D01*
X162660038Y-61827693D02*
X162707657Y-61875312D01*
X162945752Y-62732455D02*
X163612419Y-62732455D01*
X162945752Y-62303884D02*
X163469561Y-62303884D01*
X163469561Y-62303884D02*
X163564800Y-62351503D01*
X163564800Y-62351503D02*
X163612419Y-62446741D01*
X163612419Y-62446741D02*
X163612419Y-62589598D01*
X163612419Y-62589598D02*
X163564800Y-62684836D01*
X163564800Y-62684836D02*
X163517180Y-62732455D01*
X163612419Y-63208646D02*
X162945752Y-63208646D01*
X163136228Y-63208646D02*
X163040990Y-63256265D01*
X163040990Y-63256265D02*
X162993371Y-63303884D01*
X162993371Y-63303884D02*
X162945752Y-63399122D01*
X162945752Y-63399122D02*
X162945752Y-63494360D01*
X163612419Y-63827694D02*
X162945752Y-63827694D01*
X163136228Y-63827694D02*
X163040990Y-63875313D01*
X163040990Y-63875313D02*
X162993371Y-63922932D01*
X162993371Y-63922932D02*
X162945752Y-64018170D01*
X162945752Y-64018170D02*
X162945752Y-64113408D01*
X163564800Y-64827694D02*
X163612419Y-64732456D01*
X163612419Y-64732456D02*
X163612419Y-64541980D01*
X163612419Y-64541980D02*
X163564800Y-64446742D01*
X163564800Y-64446742D02*
X163469561Y-64399123D01*
X163469561Y-64399123D02*
X163088609Y-64399123D01*
X163088609Y-64399123D02*
X162993371Y-64446742D01*
X162993371Y-64446742D02*
X162945752Y-64541980D01*
X162945752Y-64541980D02*
X162945752Y-64732456D01*
X162945752Y-64732456D02*
X162993371Y-64827694D01*
X162993371Y-64827694D02*
X163088609Y-64875313D01*
X163088609Y-64875313D02*
X163183847Y-64875313D01*
X163183847Y-64875313D02*
X163279085Y-64399123D01*
X162945752Y-65303885D02*
X163612419Y-65303885D01*
X163040990Y-65303885D02*
X162993371Y-65351504D01*
X162993371Y-65351504D02*
X162945752Y-65446742D01*
X162945752Y-65446742D02*
X162945752Y-65589599D01*
X162945752Y-65589599D02*
X162993371Y-65684837D01*
X162993371Y-65684837D02*
X163088609Y-65732456D01*
X163088609Y-65732456D02*
X163612419Y-65732456D01*
X162945752Y-66065790D02*
X162945752Y-66446742D01*
X162612419Y-66208647D02*
X163469561Y-66208647D01*
X163469561Y-66208647D02*
X163564800Y-66256266D01*
X163564800Y-66256266D02*
X163612419Y-66351504D01*
X163612419Y-66351504D02*
X163612419Y-66446742D01*
X163517180Y-66780076D02*
X163564800Y-66827695D01*
X163564800Y-66827695D02*
X163612419Y-66780076D01*
X163612419Y-66780076D02*
X163564800Y-66732457D01*
X163564800Y-66732457D02*
X163517180Y-66780076D01*
X163517180Y-66780076D02*
X163612419Y-66780076D01*
X162993371Y-66780076D02*
X163040990Y-66827695D01*
X163040990Y-66827695D02*
X163088609Y-66780076D01*
X163088609Y-66780076D02*
X163040990Y-66732457D01*
X163040990Y-66732457D02*
X162993371Y-66780076D01*
X162993371Y-66780076D02*
X163088609Y-66780076D01*
X164222419Y-61161027D02*
X165222419Y-61494360D01*
X165222419Y-61494360D02*
X164222419Y-61827693D01*
X165222419Y-62303884D02*
X165174800Y-62208646D01*
X165174800Y-62208646D02*
X165127180Y-62161027D01*
X165127180Y-62161027D02*
X165031942Y-62113408D01*
X165031942Y-62113408D02*
X164746228Y-62113408D01*
X164746228Y-62113408D02*
X164650990Y-62161027D01*
X164650990Y-62161027D02*
X164603371Y-62208646D01*
X164603371Y-62208646D02*
X164555752Y-62303884D01*
X164555752Y-62303884D02*
X164555752Y-62446741D01*
X164555752Y-62446741D02*
X164603371Y-62541979D01*
X164603371Y-62541979D02*
X164650990Y-62589598D01*
X164650990Y-62589598D02*
X164746228Y-62637217D01*
X164746228Y-62637217D02*
X165031942Y-62637217D01*
X165031942Y-62637217D02*
X165127180Y-62589598D01*
X165127180Y-62589598D02*
X165174800Y-62541979D01*
X165174800Y-62541979D02*
X165222419Y-62446741D01*
X165222419Y-62446741D02*
X165222419Y-62303884D01*
X164555752Y-63494360D02*
X165222419Y-63494360D01*
X164555752Y-63065789D02*
X165079561Y-63065789D01*
X165079561Y-63065789D02*
X165174800Y-63113408D01*
X165174800Y-63113408D02*
X165222419Y-63208646D01*
X165222419Y-63208646D02*
X165222419Y-63351503D01*
X165222419Y-63351503D02*
X165174800Y-63446741D01*
X165174800Y-63446741D02*
X165127180Y-63494360D01*
X164555752Y-63827694D02*
X164555752Y-64208646D01*
X164222419Y-63970551D02*
X165079561Y-63970551D01*
X165079561Y-63970551D02*
X165174800Y-64018170D01*
X165174800Y-64018170D02*
X165222419Y-64113408D01*
X165222419Y-64113408D02*
X165222419Y-64208646D01*
X164698609Y-65303885D02*
X164698609Y-66065790D01*
X164984323Y-66065790D02*
X164984323Y-65303885D01*
X165603371Y-67589599D02*
X165555752Y-67541980D01*
X165555752Y-67541980D02*
X165412895Y-67446742D01*
X165412895Y-67446742D02*
X165317657Y-67399123D01*
X165317657Y-67399123D02*
X165174800Y-67351504D01*
X165174800Y-67351504D02*
X164936704Y-67303885D01*
X164936704Y-67303885D02*
X164746228Y-67303885D01*
X164746228Y-67303885D02*
X164508133Y-67351504D01*
X164508133Y-67351504D02*
X164365276Y-67399123D01*
X164365276Y-67399123D02*
X164270038Y-67446742D01*
X164270038Y-67446742D02*
X164127180Y-67541980D01*
X164127180Y-67541980D02*
X164079561Y-67589599D01*
X164317657Y-67922933D02*
X164270038Y-67970552D01*
X164270038Y-67970552D02*
X164222419Y-68065790D01*
X164222419Y-68065790D02*
X164222419Y-68303885D01*
X164222419Y-68303885D02*
X164270038Y-68399123D01*
X164270038Y-68399123D02*
X164317657Y-68446742D01*
X164317657Y-68446742D02*
X164412895Y-68494361D01*
X164412895Y-68494361D02*
X164508133Y-68494361D01*
X164508133Y-68494361D02*
X164650990Y-68446742D01*
X164650990Y-68446742D02*
X165222419Y-67875314D01*
X165222419Y-67875314D02*
X165222419Y-68494361D01*
X164222419Y-69113409D02*
X164222419Y-69208647D01*
X164222419Y-69208647D02*
X164270038Y-69303885D01*
X164270038Y-69303885D02*
X164317657Y-69351504D01*
X164317657Y-69351504D02*
X164412895Y-69399123D01*
X164412895Y-69399123D02*
X164603371Y-69446742D01*
X164603371Y-69446742D02*
X164841466Y-69446742D01*
X164841466Y-69446742D02*
X165031942Y-69399123D01*
X165031942Y-69399123D02*
X165127180Y-69351504D01*
X165127180Y-69351504D02*
X165174800Y-69303885D01*
X165174800Y-69303885D02*
X165222419Y-69208647D01*
X165222419Y-69208647D02*
X165222419Y-69113409D01*
X165222419Y-69113409D02*
X165174800Y-69018171D01*
X165174800Y-69018171D02*
X165127180Y-68970552D01*
X165127180Y-68970552D02*
X165031942Y-68922933D01*
X165031942Y-68922933D02*
X164841466Y-68875314D01*
X164841466Y-68875314D02*
X164603371Y-68875314D01*
X164603371Y-68875314D02*
X164412895Y-68922933D01*
X164412895Y-68922933D02*
X164317657Y-68970552D01*
X164317657Y-68970552D02*
X164270038Y-69018171D01*
X164270038Y-69018171D02*
X164222419Y-69113409D01*
X164222419Y-70065790D02*
X164222419Y-70161028D01*
X164222419Y-70161028D02*
X164270038Y-70256266D01*
X164270038Y-70256266D02*
X164317657Y-70303885D01*
X164317657Y-70303885D02*
X164412895Y-70351504D01*
X164412895Y-70351504D02*
X164603371Y-70399123D01*
X164603371Y-70399123D02*
X164841466Y-70399123D01*
X164841466Y-70399123D02*
X165031942Y-70351504D01*
X165031942Y-70351504D02*
X165127180Y-70303885D01*
X165127180Y-70303885D02*
X165174800Y-70256266D01*
X165174800Y-70256266D02*
X165222419Y-70161028D01*
X165222419Y-70161028D02*
X165222419Y-70065790D01*
X165222419Y-70065790D02*
X165174800Y-69970552D01*
X165174800Y-69970552D02*
X165127180Y-69922933D01*
X165127180Y-69922933D02*
X165031942Y-69875314D01*
X165031942Y-69875314D02*
X164841466Y-69827695D01*
X164841466Y-69827695D02*
X164603371Y-69827695D01*
X164603371Y-69827695D02*
X164412895Y-69875314D01*
X164412895Y-69875314D02*
X164317657Y-69922933D01*
X164317657Y-69922933D02*
X164270038Y-69970552D01*
X164270038Y-69970552D02*
X164222419Y-70065790D01*
X165603371Y-70732457D02*
X165555752Y-70780076D01*
X165555752Y-70780076D02*
X165412895Y-70875314D01*
X165412895Y-70875314D02*
X165317657Y-70922933D01*
X165317657Y-70922933D02*
X165174800Y-70970552D01*
X165174800Y-70970552D02*
X164936704Y-71018171D01*
X164936704Y-71018171D02*
X164746228Y-71018171D01*
X164746228Y-71018171D02*
X164508133Y-70970552D01*
X164508133Y-70970552D02*
X164365276Y-70922933D01*
X164365276Y-70922933D02*
X164270038Y-70875314D01*
X164270038Y-70875314D02*
X164127180Y-70780076D01*
X164127180Y-70780076D02*
X164079561Y-70732457D01*
X165603371Y-71780076D02*
X165555752Y-71732457D01*
X165555752Y-71732457D02*
X165412895Y-71637219D01*
X165412895Y-71637219D02*
X165317657Y-71589600D01*
X165317657Y-71589600D02*
X165174800Y-71541981D01*
X165174800Y-71541981D02*
X164936704Y-71494362D01*
X164936704Y-71494362D02*
X164746228Y-71494362D01*
X164746228Y-71494362D02*
X164508133Y-71541981D01*
X164508133Y-71541981D02*
X164365276Y-71589600D01*
X164365276Y-71589600D02*
X164270038Y-71637219D01*
X164270038Y-71637219D02*
X164127180Y-71732457D01*
X164127180Y-71732457D02*
X164079561Y-71780076D01*
X164270038Y-72684838D02*
X164222419Y-72589600D01*
X164222419Y-72589600D02*
X164222419Y-72446743D01*
X164222419Y-72446743D02*
X164270038Y-72303886D01*
X164270038Y-72303886D02*
X164365276Y-72208648D01*
X164365276Y-72208648D02*
X164460514Y-72161029D01*
X164460514Y-72161029D02*
X164650990Y-72113410D01*
X164650990Y-72113410D02*
X164793847Y-72113410D01*
X164793847Y-72113410D02*
X164984323Y-72161029D01*
X164984323Y-72161029D02*
X165079561Y-72208648D01*
X165079561Y-72208648D02*
X165174800Y-72303886D01*
X165174800Y-72303886D02*
X165222419Y-72446743D01*
X165222419Y-72446743D02*
X165222419Y-72541981D01*
X165222419Y-72541981D02*
X165174800Y-72684838D01*
X165174800Y-72684838D02*
X165127180Y-72732457D01*
X165127180Y-72732457D02*
X164793847Y-72732457D01*
X164793847Y-72732457D02*
X164793847Y-72541981D01*
X165603371Y-73065791D02*
X165555752Y-73113410D01*
X165555752Y-73113410D02*
X165412895Y-73208648D01*
X165412895Y-73208648D02*
X165317657Y-73256267D01*
X165317657Y-73256267D02*
X165174800Y-73303886D01*
X165174800Y-73303886D02*
X164936704Y-73351505D01*
X164936704Y-73351505D02*
X164746228Y-73351505D01*
X164746228Y-73351505D02*
X164508133Y-73303886D01*
X164508133Y-73303886D02*
X164365276Y-73256267D01*
X164365276Y-73256267D02*
X164270038Y-73208648D01*
X164270038Y-73208648D02*
X164127180Y-73113410D01*
X164127180Y-73113410D02*
X164079561Y-73065791D01*
X165603371Y-74113410D02*
X165555752Y-74065791D01*
X165555752Y-74065791D02*
X165412895Y-73970553D01*
X165412895Y-73970553D02*
X165317657Y-73922934D01*
X165317657Y-73922934D02*
X165174800Y-73875315D01*
X165174800Y-73875315D02*
X164936704Y-73827696D01*
X164936704Y-73827696D02*
X164746228Y-73827696D01*
X164746228Y-73827696D02*
X164508133Y-73875315D01*
X164508133Y-73875315D02*
X164365276Y-73922934D01*
X164365276Y-73922934D02*
X164270038Y-73970553D01*
X164270038Y-73970553D02*
X164127180Y-74065791D01*
X164127180Y-74065791D02*
X164079561Y-74113410D01*
X165222419Y-75065791D02*
X164746228Y-74732458D01*
X165222419Y-74494363D02*
X164222419Y-74494363D01*
X164222419Y-74494363D02*
X164222419Y-74875315D01*
X164222419Y-74875315D02*
X164270038Y-74970553D01*
X164270038Y-74970553D02*
X164317657Y-75018172D01*
X164317657Y-75018172D02*
X164412895Y-75065791D01*
X164412895Y-75065791D02*
X164555752Y-75065791D01*
X164555752Y-75065791D02*
X164650990Y-75018172D01*
X164650990Y-75018172D02*
X164698609Y-74970553D01*
X164698609Y-74970553D02*
X164746228Y-74875315D01*
X164746228Y-74875315D02*
X164746228Y-74494363D01*
X165174800Y-75446744D02*
X165222419Y-75541982D01*
X165222419Y-75541982D02*
X165222419Y-75732458D01*
X165222419Y-75732458D02*
X165174800Y-75827696D01*
X165174800Y-75827696D02*
X165079561Y-75875315D01*
X165079561Y-75875315D02*
X165031942Y-75875315D01*
X165031942Y-75875315D02*
X164936704Y-75827696D01*
X164936704Y-75827696D02*
X164889085Y-75732458D01*
X164889085Y-75732458D02*
X164889085Y-75589601D01*
X164889085Y-75589601D02*
X164841466Y-75494363D01*
X164841466Y-75494363D02*
X164746228Y-75446744D01*
X164746228Y-75446744D02*
X164698609Y-75446744D01*
X164698609Y-75446744D02*
X164603371Y-75494363D01*
X164603371Y-75494363D02*
X164555752Y-75589601D01*
X164555752Y-75589601D02*
X164555752Y-75732458D01*
X164555752Y-75732458D02*
X164603371Y-75827696D01*
X165174800Y-76684839D02*
X165222419Y-76589601D01*
X165222419Y-76589601D02*
X165222419Y-76399125D01*
X165222419Y-76399125D02*
X165174800Y-76303887D01*
X165174800Y-76303887D02*
X165079561Y-76256268D01*
X165079561Y-76256268D02*
X164698609Y-76256268D01*
X164698609Y-76256268D02*
X164603371Y-76303887D01*
X164603371Y-76303887D02*
X164555752Y-76399125D01*
X164555752Y-76399125D02*
X164555752Y-76589601D01*
X164555752Y-76589601D02*
X164603371Y-76684839D01*
X164603371Y-76684839D02*
X164698609Y-76732458D01*
X164698609Y-76732458D02*
X164793847Y-76732458D01*
X164793847Y-76732458D02*
X164889085Y-76256268D01*
X164555752Y-77161030D02*
X165222419Y-77161030D01*
X164650990Y-77161030D02*
X164603371Y-77208649D01*
X164603371Y-77208649D02*
X164555752Y-77303887D01*
X164555752Y-77303887D02*
X164555752Y-77446744D01*
X164555752Y-77446744D02*
X164603371Y-77541982D01*
X164603371Y-77541982D02*
X164698609Y-77589601D01*
X164698609Y-77589601D02*
X165222419Y-77589601D01*
X165174800Y-78018173D02*
X165222419Y-78113411D01*
X165222419Y-78113411D02*
X165222419Y-78303887D01*
X165222419Y-78303887D02*
X165174800Y-78399125D01*
X165174800Y-78399125D02*
X165079561Y-78446744D01*
X165079561Y-78446744D02*
X165031942Y-78446744D01*
X165031942Y-78446744D02*
X164936704Y-78399125D01*
X164936704Y-78399125D02*
X164889085Y-78303887D01*
X164889085Y-78303887D02*
X164889085Y-78161030D01*
X164889085Y-78161030D02*
X164841466Y-78065792D01*
X164841466Y-78065792D02*
X164746228Y-78018173D01*
X164746228Y-78018173D02*
X164698609Y-78018173D01*
X164698609Y-78018173D02*
X164603371Y-78065792D01*
X164603371Y-78065792D02*
X164555752Y-78161030D01*
X164555752Y-78161030D02*
X164555752Y-78303887D01*
X164555752Y-78303887D02*
X164603371Y-78399125D01*
X165174800Y-79256268D02*
X165222419Y-79161030D01*
X165222419Y-79161030D02*
X165222419Y-78970554D01*
X165222419Y-78970554D02*
X165174800Y-78875316D01*
X165174800Y-78875316D02*
X165079561Y-78827697D01*
X165079561Y-78827697D02*
X164698609Y-78827697D01*
X164698609Y-78827697D02*
X164603371Y-78875316D01*
X164603371Y-78875316D02*
X164555752Y-78970554D01*
X164555752Y-78970554D02*
X164555752Y-79161030D01*
X164555752Y-79161030D02*
X164603371Y-79256268D01*
X164603371Y-79256268D02*
X164698609Y-79303887D01*
X164698609Y-79303887D02*
X164793847Y-79303887D01*
X164793847Y-79303887D02*
X164889085Y-78827697D01*
X165603371Y-79637221D02*
X165555752Y-79684840D01*
X165555752Y-79684840D02*
X165412895Y-79780078D01*
X165412895Y-79780078D02*
X165317657Y-79827697D01*
X165317657Y-79827697D02*
X165174800Y-79875316D01*
X165174800Y-79875316D02*
X164936704Y-79922935D01*
X164936704Y-79922935D02*
X164746228Y-79922935D01*
X164746228Y-79922935D02*
X164508133Y-79875316D01*
X164508133Y-79875316D02*
X164365276Y-79827697D01*
X164365276Y-79827697D02*
X164270038Y-79780078D01*
X164270038Y-79780078D02*
X164127180Y-79684840D01*
X164127180Y-79684840D02*
X164079561Y-79637221D01*
X165603371Y-80684840D02*
X165555752Y-80637221D01*
X165555752Y-80637221D02*
X165412895Y-80541983D01*
X165412895Y-80541983D02*
X165317657Y-80494364D01*
X165317657Y-80494364D02*
X165174800Y-80446745D01*
X165174800Y-80446745D02*
X164936704Y-80399126D01*
X164936704Y-80399126D02*
X164746228Y-80399126D01*
X164746228Y-80399126D02*
X164508133Y-80446745D01*
X164508133Y-80446745D02*
X164365276Y-80494364D01*
X164365276Y-80494364D02*
X164270038Y-80541983D01*
X164270038Y-80541983D02*
X164127180Y-80637221D01*
X164127180Y-80637221D02*
X164079561Y-80684840D01*
X165222419Y-81065793D02*
X164222419Y-81065793D01*
X165222419Y-81541983D02*
X164555752Y-81541983D01*
X164222419Y-81541983D02*
X164270038Y-81494364D01*
X164270038Y-81494364D02*
X164317657Y-81541983D01*
X164317657Y-81541983D02*
X164270038Y-81589602D01*
X164270038Y-81589602D02*
X164222419Y-81541983D01*
X164222419Y-81541983D02*
X164317657Y-81541983D01*
X164555752Y-82018173D02*
X165222419Y-82018173D01*
X164650990Y-82018173D02*
X164603371Y-82065792D01*
X164603371Y-82065792D02*
X164555752Y-82161030D01*
X164555752Y-82161030D02*
X164555752Y-82303887D01*
X164555752Y-82303887D02*
X164603371Y-82399125D01*
X164603371Y-82399125D02*
X164698609Y-82446744D01*
X164698609Y-82446744D02*
X165222419Y-82446744D01*
X165603371Y-82827697D02*
X165555752Y-82875316D01*
X165555752Y-82875316D02*
X165412895Y-82970554D01*
X165412895Y-82970554D02*
X165317657Y-83018173D01*
X165317657Y-83018173D02*
X165174800Y-83065792D01*
X165174800Y-83065792D02*
X164936704Y-83113411D01*
X164936704Y-83113411D02*
X164746228Y-83113411D01*
X164746228Y-83113411D02*
X164508133Y-83065792D01*
X164508133Y-83065792D02*
X164365276Y-83018173D01*
X164365276Y-83018173D02*
X164270038Y-82970554D01*
X164270038Y-82970554D02*
X164127180Y-82875316D01*
X164127180Y-82875316D02*
X164079561Y-82827697D01*
X165880038Y-61827693D02*
X165832419Y-61732455D01*
X165832419Y-61732455D02*
X165832419Y-61589598D01*
X165832419Y-61589598D02*
X165880038Y-61446741D01*
X165880038Y-61446741D02*
X165975276Y-61351503D01*
X165975276Y-61351503D02*
X166070514Y-61303884D01*
X166070514Y-61303884D02*
X166260990Y-61256265D01*
X166260990Y-61256265D02*
X166403847Y-61256265D01*
X166403847Y-61256265D02*
X166594323Y-61303884D01*
X166594323Y-61303884D02*
X166689561Y-61351503D01*
X166689561Y-61351503D02*
X166784800Y-61446741D01*
X166784800Y-61446741D02*
X166832419Y-61589598D01*
X166832419Y-61589598D02*
X166832419Y-61684836D01*
X166832419Y-61684836D02*
X166784800Y-61827693D01*
X166784800Y-61827693D02*
X166737180Y-61875312D01*
X166737180Y-61875312D02*
X166403847Y-61875312D01*
X166403847Y-61875312D02*
X166403847Y-61684836D01*
X166308609Y-63065789D02*
X166308609Y-63827694D01*
X166594323Y-63827694D02*
X166594323Y-63065789D01*
X166832419Y-65637217D02*
X166356228Y-65303884D01*
X166832419Y-65065789D02*
X165832419Y-65065789D01*
X165832419Y-65065789D02*
X165832419Y-65446741D01*
X165832419Y-65446741D02*
X165880038Y-65541979D01*
X165880038Y-65541979D02*
X165927657Y-65589598D01*
X165927657Y-65589598D02*
X166022895Y-65637217D01*
X166022895Y-65637217D02*
X166165752Y-65637217D01*
X166165752Y-65637217D02*
X166260990Y-65589598D01*
X166260990Y-65589598D02*
X166308609Y-65541979D01*
X166308609Y-65541979D02*
X166356228Y-65446741D01*
X166356228Y-65446741D02*
X166356228Y-65065789D01*
X166832419Y-66113408D02*
X166832419Y-66303884D01*
X166832419Y-66303884D02*
X166784800Y-66399122D01*
X166784800Y-66399122D02*
X166737180Y-66446741D01*
X166737180Y-66446741D02*
X166594323Y-66541979D01*
X166594323Y-66541979D02*
X166403847Y-66589598D01*
X166403847Y-66589598D02*
X166022895Y-66589598D01*
X166022895Y-66589598D02*
X165927657Y-66541979D01*
X165927657Y-66541979D02*
X165880038Y-66494360D01*
X165880038Y-66494360D02*
X165832419Y-66399122D01*
X165832419Y-66399122D02*
X165832419Y-66208646D01*
X165832419Y-66208646D02*
X165880038Y-66113408D01*
X165880038Y-66113408D02*
X165927657Y-66065789D01*
X165927657Y-66065789D02*
X166022895Y-66018170D01*
X166022895Y-66018170D02*
X166260990Y-66018170D01*
X166260990Y-66018170D02*
X166356228Y-66065789D01*
X166356228Y-66065789D02*
X166403847Y-66113408D01*
X166403847Y-66113408D02*
X166451466Y-66208646D01*
X166451466Y-66208646D02*
X166451466Y-66399122D01*
X166451466Y-66399122D02*
X166403847Y-66494360D01*
X166403847Y-66494360D02*
X166356228Y-66541979D01*
X166356228Y-66541979D02*
X166260990Y-66589598D01*
X165784800Y-68494360D02*
X167070514Y-67637218D01*
X166832419Y-70161027D02*
X166356228Y-69827694D01*
X166832419Y-69589599D02*
X165832419Y-69589599D01*
X165832419Y-69589599D02*
X165832419Y-69970551D01*
X165832419Y-69970551D02*
X165880038Y-70065789D01*
X165880038Y-70065789D02*
X165927657Y-70113408D01*
X165927657Y-70113408D02*
X166022895Y-70161027D01*
X166022895Y-70161027D02*
X166165752Y-70161027D01*
X166165752Y-70161027D02*
X166260990Y-70113408D01*
X166260990Y-70113408D02*
X166308609Y-70065789D01*
X166308609Y-70065789D02*
X166356228Y-69970551D01*
X166356228Y-69970551D02*
X166356228Y-69589599D01*
X165832419Y-70494361D02*
X165832419Y-71161027D01*
X165832419Y-71161027D02*
X166832419Y-70732456D01*
X168442419Y-61875312D02*
X167966228Y-61541979D01*
X168442419Y-61303884D02*
X167442419Y-61303884D01*
X167442419Y-61303884D02*
X167442419Y-61684836D01*
X167442419Y-61684836D02*
X167490038Y-61780074D01*
X167490038Y-61780074D02*
X167537657Y-61827693D01*
X167537657Y-61827693D02*
X167632895Y-61875312D01*
X167632895Y-61875312D02*
X167775752Y-61875312D01*
X167775752Y-61875312D02*
X167870990Y-61827693D01*
X167870990Y-61827693D02*
X167918609Y-61780074D01*
X167918609Y-61780074D02*
X167966228Y-61684836D01*
X167966228Y-61684836D02*
X167966228Y-61303884D01*
X168442419Y-62351503D02*
X168442419Y-62541979D01*
X168442419Y-62541979D02*
X168394800Y-62637217D01*
X168394800Y-62637217D02*
X168347180Y-62684836D01*
X168347180Y-62684836D02*
X168204323Y-62780074D01*
X168204323Y-62780074D02*
X168013847Y-62827693D01*
X168013847Y-62827693D02*
X167632895Y-62827693D01*
X167632895Y-62827693D02*
X167537657Y-62780074D01*
X167537657Y-62780074D02*
X167490038Y-62732455D01*
X167490038Y-62732455D02*
X167442419Y-62637217D01*
X167442419Y-62637217D02*
X167442419Y-62446741D01*
X167442419Y-62446741D02*
X167490038Y-62351503D01*
X167490038Y-62351503D02*
X167537657Y-62303884D01*
X167537657Y-62303884D02*
X167632895Y-62256265D01*
X167632895Y-62256265D02*
X167870990Y-62256265D01*
X167870990Y-62256265D02*
X167966228Y-62303884D01*
X167966228Y-62303884D02*
X168013847Y-62351503D01*
X168013847Y-62351503D02*
X168061466Y-62446741D01*
X168061466Y-62446741D02*
X168061466Y-62637217D01*
X168061466Y-62637217D02*
X168013847Y-62732455D01*
X168013847Y-62732455D02*
X167966228Y-62780074D01*
X167966228Y-62780074D02*
X167870990Y-62827693D01*
X167918609Y-64018170D02*
X167918609Y-64780075D01*
X168204323Y-64780075D02*
X168204323Y-64018170D01*
X168442419Y-66589598D02*
X167966228Y-66256265D01*
X168442419Y-66018170D02*
X167442419Y-66018170D01*
X167442419Y-66018170D02*
X167442419Y-66399122D01*
X167442419Y-66399122D02*
X167490038Y-66494360D01*
X167490038Y-66494360D02*
X167537657Y-66541979D01*
X167537657Y-66541979D02*
X167632895Y-66589598D01*
X167632895Y-66589598D02*
X167775752Y-66589598D01*
X167775752Y-66589598D02*
X167870990Y-66541979D01*
X167870990Y-66541979D02*
X167918609Y-66494360D01*
X167918609Y-66494360D02*
X167966228Y-66399122D01*
X167966228Y-66399122D02*
X167966228Y-66018170D01*
X167442419Y-67446741D02*
X167442419Y-67256265D01*
X167442419Y-67256265D02*
X167490038Y-67161027D01*
X167490038Y-67161027D02*
X167537657Y-67113408D01*
X167537657Y-67113408D02*
X167680514Y-67018170D01*
X167680514Y-67018170D02*
X167870990Y-66970551D01*
X167870990Y-66970551D02*
X168251942Y-66970551D01*
X168251942Y-66970551D02*
X168347180Y-67018170D01*
X168347180Y-67018170D02*
X168394800Y-67065789D01*
X168394800Y-67065789D02*
X168442419Y-67161027D01*
X168442419Y-67161027D02*
X168442419Y-67351503D01*
X168442419Y-67351503D02*
X168394800Y-67446741D01*
X168394800Y-67446741D02*
X168347180Y-67494360D01*
X168347180Y-67494360D02*
X168251942Y-67541979D01*
X168251942Y-67541979D02*
X168013847Y-67541979D01*
X168013847Y-67541979D02*
X167918609Y-67494360D01*
X167918609Y-67494360D02*
X167870990Y-67446741D01*
X167870990Y-67446741D02*
X167823371Y-67351503D01*
X167823371Y-67351503D02*
X167823371Y-67161027D01*
X167823371Y-67161027D02*
X167870990Y-67065789D01*
X167870990Y-67065789D02*
X167918609Y-67018170D01*
X167918609Y-67018170D02*
X168013847Y-66970551D01*
X170052419Y-61875312D02*
X169576228Y-61541979D01*
X170052419Y-61303884D02*
X169052419Y-61303884D01*
X169052419Y-61303884D02*
X169052419Y-61684836D01*
X169052419Y-61684836D02*
X169100038Y-61780074D01*
X169100038Y-61780074D02*
X169147657Y-61827693D01*
X169147657Y-61827693D02*
X169242895Y-61875312D01*
X169242895Y-61875312D02*
X169385752Y-61875312D01*
X169385752Y-61875312D02*
X169480990Y-61827693D01*
X169480990Y-61827693D02*
X169528609Y-61780074D01*
X169528609Y-61780074D02*
X169576228Y-61684836D01*
X169576228Y-61684836D02*
X169576228Y-61303884D01*
X169052419Y-62208646D02*
X169052419Y-62875312D01*
X169052419Y-62875312D02*
X170052419Y-62446741D01*
X169528609Y-64018170D02*
X169528609Y-64780075D01*
X169814323Y-64780075D02*
X169814323Y-64018170D01*
X170052419Y-66589598D02*
X169576228Y-66256265D01*
X170052419Y-66018170D02*
X169052419Y-66018170D01*
X169052419Y-66018170D02*
X169052419Y-66399122D01*
X169052419Y-66399122D02*
X169100038Y-66494360D01*
X169100038Y-66494360D02*
X169147657Y-66541979D01*
X169147657Y-66541979D02*
X169242895Y-66589598D01*
X169242895Y-66589598D02*
X169385752Y-66589598D01*
X169385752Y-66589598D02*
X169480990Y-66541979D01*
X169480990Y-66541979D02*
X169528609Y-66494360D01*
X169528609Y-66494360D02*
X169576228Y-66399122D01*
X169576228Y-66399122D02*
X169576228Y-66018170D01*
X169480990Y-67161027D02*
X169433371Y-67065789D01*
X169433371Y-67065789D02*
X169385752Y-67018170D01*
X169385752Y-67018170D02*
X169290514Y-66970551D01*
X169290514Y-66970551D02*
X169242895Y-66970551D01*
X169242895Y-66970551D02*
X169147657Y-67018170D01*
X169147657Y-67018170D02*
X169100038Y-67065789D01*
X169100038Y-67065789D02*
X169052419Y-67161027D01*
X169052419Y-67161027D02*
X169052419Y-67351503D01*
X169052419Y-67351503D02*
X169100038Y-67446741D01*
X169100038Y-67446741D02*
X169147657Y-67494360D01*
X169147657Y-67494360D02*
X169242895Y-67541979D01*
X169242895Y-67541979D02*
X169290514Y-67541979D01*
X169290514Y-67541979D02*
X169385752Y-67494360D01*
X169385752Y-67494360D02*
X169433371Y-67446741D01*
X169433371Y-67446741D02*
X169480990Y-67351503D01*
X169480990Y-67351503D02*
X169480990Y-67161027D01*
X169480990Y-67161027D02*
X169528609Y-67065789D01*
X169528609Y-67065789D02*
X169576228Y-67018170D01*
X169576228Y-67018170D02*
X169671466Y-66970551D01*
X169671466Y-66970551D02*
X169861942Y-66970551D01*
X169861942Y-66970551D02*
X169957180Y-67018170D01*
X169957180Y-67018170D02*
X170004800Y-67065789D01*
X170004800Y-67065789D02*
X170052419Y-67161027D01*
X170052419Y-67161027D02*
X170052419Y-67351503D01*
X170052419Y-67351503D02*
X170004800Y-67446741D01*
X170004800Y-67446741D02*
X169957180Y-67494360D01*
X169957180Y-67494360D02*
X169861942Y-67541979D01*
X169861942Y-67541979D02*
X169671466Y-67541979D01*
X169671466Y-67541979D02*
X169576228Y-67494360D01*
X169576228Y-67494360D02*
X169528609Y-67446741D01*
X169528609Y-67446741D02*
X169480990Y-67351503D01*
D11*
X142659400Y-60140939D02*
X142730828Y-60355225D01*
X142730828Y-60355225D02*
X142730828Y-60712367D01*
X142730828Y-60712367D02*
X142659400Y-60855225D01*
X142659400Y-60855225D02*
X142587971Y-60926653D01*
X142587971Y-60926653D02*
X142445114Y-60998082D01*
X142445114Y-60998082D02*
X142302257Y-60998082D01*
X142302257Y-60998082D02*
X142159400Y-60926653D01*
X142159400Y-60926653D02*
X142087971Y-60855225D01*
X142087971Y-60855225D02*
X142016542Y-60712367D01*
X142016542Y-60712367D02*
X141945114Y-60426653D01*
X141945114Y-60426653D02*
X141873685Y-60283796D01*
X141873685Y-60283796D02*
X141802257Y-60212367D01*
X141802257Y-60212367D02*
X141659400Y-60140939D01*
X141659400Y-60140939D02*
X141516542Y-60140939D01*
X141516542Y-60140939D02*
X141373685Y-60212367D01*
X141373685Y-60212367D02*
X141302257Y-60283796D01*
X141302257Y-60283796D02*
X141230828Y-60426653D01*
X141230828Y-60426653D02*
X141230828Y-60783796D01*
X141230828Y-60783796D02*
X141302257Y-60998082D01*
X142730828Y-61855224D02*
X142659400Y-61712367D01*
X142659400Y-61712367D02*
X142587971Y-61640938D01*
X142587971Y-61640938D02*
X142445114Y-61569510D01*
X142445114Y-61569510D02*
X142016542Y-61569510D01*
X142016542Y-61569510D02*
X141873685Y-61640938D01*
X141873685Y-61640938D02*
X141802257Y-61712367D01*
X141802257Y-61712367D02*
X141730828Y-61855224D01*
X141730828Y-61855224D02*
X141730828Y-62069510D01*
X141730828Y-62069510D02*
X141802257Y-62212367D01*
X141802257Y-62212367D02*
X141873685Y-62283796D01*
X141873685Y-62283796D02*
X142016542Y-62355224D01*
X142016542Y-62355224D02*
X142445114Y-62355224D01*
X142445114Y-62355224D02*
X142587971Y-62283796D01*
X142587971Y-62283796D02*
X142659400Y-62212367D01*
X142659400Y-62212367D02*
X142730828Y-62069510D01*
X142730828Y-62069510D02*
X142730828Y-61855224D01*
X142730828Y-62998081D02*
X141730828Y-62998081D01*
X141230828Y-62998081D02*
X141302257Y-62926653D01*
X141302257Y-62926653D02*
X141373685Y-62998081D01*
X141373685Y-62998081D02*
X141302257Y-63069510D01*
X141302257Y-63069510D02*
X141230828Y-62998081D01*
X141230828Y-62998081D02*
X141373685Y-62998081D01*
X142730828Y-63926653D02*
X142659400Y-63783796D01*
X142659400Y-63783796D02*
X142516542Y-63712367D01*
X142516542Y-63712367D02*
X141230828Y-63712367D01*
X142730828Y-65640938D02*
X141230828Y-65640938D01*
X141230828Y-65640938D02*
X141230828Y-66212367D01*
X141230828Y-66212367D02*
X141302257Y-66355224D01*
X141302257Y-66355224D02*
X141373685Y-66426653D01*
X141373685Y-66426653D02*
X141516542Y-66498081D01*
X141516542Y-66498081D02*
X141730828Y-66498081D01*
X141730828Y-66498081D02*
X141873685Y-66426653D01*
X141873685Y-66426653D02*
X141945114Y-66355224D01*
X141945114Y-66355224D02*
X142016542Y-66212367D01*
X142016542Y-66212367D02*
X142016542Y-65640938D01*
X142730828Y-67355224D02*
X142659400Y-67212367D01*
X142659400Y-67212367D02*
X142587971Y-67140938D01*
X142587971Y-67140938D02*
X142445114Y-67069510D01*
X142445114Y-67069510D02*
X142016542Y-67069510D01*
X142016542Y-67069510D02*
X141873685Y-67140938D01*
X141873685Y-67140938D02*
X141802257Y-67212367D01*
X141802257Y-67212367D02*
X141730828Y-67355224D01*
X141730828Y-67355224D02*
X141730828Y-67569510D01*
X141730828Y-67569510D02*
X141802257Y-67712367D01*
X141802257Y-67712367D02*
X141873685Y-67783796D01*
X141873685Y-67783796D02*
X142016542Y-67855224D01*
X142016542Y-67855224D02*
X142445114Y-67855224D01*
X142445114Y-67855224D02*
X142587971Y-67783796D01*
X142587971Y-67783796D02*
X142659400Y-67712367D01*
X142659400Y-67712367D02*
X142730828Y-67569510D01*
X142730828Y-67569510D02*
X142730828Y-67355224D01*
X141730828Y-68355224D02*
X142730828Y-68640939D01*
X142730828Y-68640939D02*
X142016542Y-68926653D01*
X142016542Y-68926653D02*
X142730828Y-69212367D01*
X142730828Y-69212367D02*
X141730828Y-69498081D01*
X142659400Y-70640939D02*
X142730828Y-70498082D01*
X142730828Y-70498082D02*
X142730828Y-70212368D01*
X142730828Y-70212368D02*
X142659400Y-70069510D01*
X142659400Y-70069510D02*
X142516542Y-69998082D01*
X142516542Y-69998082D02*
X141945114Y-69998082D01*
X141945114Y-69998082D02*
X141802257Y-70069510D01*
X141802257Y-70069510D02*
X141730828Y-70212368D01*
X141730828Y-70212368D02*
X141730828Y-70498082D01*
X141730828Y-70498082D02*
X141802257Y-70640939D01*
X141802257Y-70640939D02*
X141945114Y-70712368D01*
X141945114Y-70712368D02*
X142087971Y-70712368D01*
X142087971Y-70712368D02*
X142230828Y-69998082D01*
X142730828Y-71355224D02*
X141730828Y-71355224D01*
X142016542Y-71355224D02*
X141873685Y-71426653D01*
X141873685Y-71426653D02*
X141802257Y-71498082D01*
X141802257Y-71498082D02*
X141730828Y-71640939D01*
X141730828Y-71640939D02*
X141730828Y-71783796D01*
X142659400Y-73355224D02*
X142730828Y-73569510D01*
X142730828Y-73569510D02*
X142730828Y-73926652D01*
X142730828Y-73926652D02*
X142659400Y-74069510D01*
X142659400Y-74069510D02*
X142587971Y-74140938D01*
X142587971Y-74140938D02*
X142445114Y-74212367D01*
X142445114Y-74212367D02*
X142302257Y-74212367D01*
X142302257Y-74212367D02*
X142159400Y-74140938D01*
X142159400Y-74140938D02*
X142087971Y-74069510D01*
X142087971Y-74069510D02*
X142016542Y-73926652D01*
X142016542Y-73926652D02*
X141945114Y-73640938D01*
X141945114Y-73640938D02*
X141873685Y-73498081D01*
X141873685Y-73498081D02*
X141802257Y-73426652D01*
X141802257Y-73426652D02*
X141659400Y-73355224D01*
X141659400Y-73355224D02*
X141516542Y-73355224D01*
X141516542Y-73355224D02*
X141373685Y-73426652D01*
X141373685Y-73426652D02*
X141302257Y-73498081D01*
X141302257Y-73498081D02*
X141230828Y-73640938D01*
X141230828Y-73640938D02*
X141230828Y-73998081D01*
X141230828Y-73998081D02*
X141302257Y-74212367D01*
X142659400Y-75426652D02*
X142730828Y-75283795D01*
X142730828Y-75283795D02*
X142730828Y-74998081D01*
X142730828Y-74998081D02*
X142659400Y-74855223D01*
X142659400Y-74855223D02*
X142516542Y-74783795D01*
X142516542Y-74783795D02*
X141945114Y-74783795D01*
X141945114Y-74783795D02*
X141802257Y-74855223D01*
X141802257Y-74855223D02*
X141730828Y-74998081D01*
X141730828Y-74998081D02*
X141730828Y-75283795D01*
X141730828Y-75283795D02*
X141802257Y-75426652D01*
X141802257Y-75426652D02*
X141945114Y-75498081D01*
X141945114Y-75498081D02*
X142087971Y-75498081D01*
X142087971Y-75498081D02*
X142230828Y-74783795D01*
X141730828Y-76140937D02*
X142730828Y-76140937D01*
X141873685Y-76140937D02*
X141802257Y-76212366D01*
X141802257Y-76212366D02*
X141730828Y-76355223D01*
X141730828Y-76355223D02*
X141730828Y-76569509D01*
X141730828Y-76569509D02*
X141802257Y-76712366D01*
X141802257Y-76712366D02*
X141945114Y-76783795D01*
X141945114Y-76783795D02*
X142730828Y-76783795D01*
X142659400Y-77426652D02*
X142730828Y-77569509D01*
X142730828Y-77569509D02*
X142730828Y-77855223D01*
X142730828Y-77855223D02*
X142659400Y-77998080D01*
X142659400Y-77998080D02*
X142516542Y-78069509D01*
X142516542Y-78069509D02*
X142445114Y-78069509D01*
X142445114Y-78069509D02*
X142302257Y-77998080D01*
X142302257Y-77998080D02*
X142230828Y-77855223D01*
X142230828Y-77855223D02*
X142230828Y-77640938D01*
X142230828Y-77640938D02*
X142159400Y-77498080D01*
X142159400Y-77498080D02*
X142016542Y-77426652D01*
X142016542Y-77426652D02*
X141945114Y-77426652D01*
X141945114Y-77426652D02*
X141802257Y-77498080D01*
X141802257Y-77498080D02*
X141730828Y-77640938D01*
X141730828Y-77640938D02*
X141730828Y-77855223D01*
X141730828Y-77855223D02*
X141802257Y-77998080D01*
X142730828Y-78926652D02*
X142659400Y-78783795D01*
X142659400Y-78783795D02*
X142587971Y-78712366D01*
X142587971Y-78712366D02*
X142445114Y-78640938D01*
X142445114Y-78640938D02*
X142016542Y-78640938D01*
X142016542Y-78640938D02*
X141873685Y-78712366D01*
X141873685Y-78712366D02*
X141802257Y-78783795D01*
X141802257Y-78783795D02*
X141730828Y-78926652D01*
X141730828Y-78926652D02*
X141730828Y-79140938D01*
X141730828Y-79140938D02*
X141802257Y-79283795D01*
X141802257Y-79283795D02*
X141873685Y-79355224D01*
X141873685Y-79355224D02*
X142016542Y-79426652D01*
X142016542Y-79426652D02*
X142445114Y-79426652D01*
X142445114Y-79426652D02*
X142587971Y-79355224D01*
X142587971Y-79355224D02*
X142659400Y-79283795D01*
X142659400Y-79283795D02*
X142730828Y-79140938D01*
X142730828Y-79140938D02*
X142730828Y-78926652D01*
X142730828Y-80069509D02*
X141730828Y-80069509D01*
X142016542Y-80069509D02*
X141873685Y-80140938D01*
X141873685Y-80140938D02*
X141802257Y-80212367D01*
X141802257Y-80212367D02*
X141730828Y-80355224D01*
X141730828Y-80355224D02*
X141730828Y-80498081D01*
X143788685Y-60140939D02*
X143717257Y-60212367D01*
X143717257Y-60212367D02*
X143645828Y-60355225D01*
X143645828Y-60355225D02*
X143645828Y-60712367D01*
X143645828Y-60712367D02*
X143717257Y-60855225D01*
X143717257Y-60855225D02*
X143788685Y-60926653D01*
X143788685Y-60926653D02*
X143931542Y-60998082D01*
X143931542Y-60998082D02*
X144074400Y-60998082D01*
X144074400Y-60998082D02*
X144288685Y-60926653D01*
X144288685Y-60926653D02*
X145145828Y-60069510D01*
X145145828Y-60069510D02*
X145145828Y-60998082D01*
X143645828Y-61926653D02*
X143645828Y-62069510D01*
X143645828Y-62069510D02*
X143717257Y-62212367D01*
X143717257Y-62212367D02*
X143788685Y-62283796D01*
X143788685Y-62283796D02*
X143931542Y-62355224D01*
X143931542Y-62355224D02*
X144217257Y-62426653D01*
X144217257Y-62426653D02*
X144574400Y-62426653D01*
X144574400Y-62426653D02*
X144860114Y-62355224D01*
X144860114Y-62355224D02*
X145002971Y-62283796D01*
X145002971Y-62283796D02*
X145074400Y-62212367D01*
X145074400Y-62212367D02*
X145145828Y-62069510D01*
X145145828Y-62069510D02*
X145145828Y-61926653D01*
X145145828Y-61926653D02*
X145074400Y-61783796D01*
X145074400Y-61783796D02*
X145002971Y-61712367D01*
X145002971Y-61712367D02*
X144860114Y-61640938D01*
X144860114Y-61640938D02*
X144574400Y-61569510D01*
X144574400Y-61569510D02*
X144217257Y-61569510D01*
X144217257Y-61569510D02*
X143931542Y-61640938D01*
X143931542Y-61640938D02*
X143788685Y-61712367D01*
X143788685Y-61712367D02*
X143717257Y-61783796D01*
X143717257Y-61783796D02*
X143645828Y-61926653D01*
X143788685Y-62998081D02*
X143717257Y-63069509D01*
X143717257Y-63069509D02*
X143645828Y-63212367D01*
X143645828Y-63212367D02*
X143645828Y-63569509D01*
X143645828Y-63569509D02*
X143717257Y-63712367D01*
X143717257Y-63712367D02*
X143788685Y-63783795D01*
X143788685Y-63783795D02*
X143931542Y-63855224D01*
X143931542Y-63855224D02*
X144074400Y-63855224D01*
X144074400Y-63855224D02*
X144288685Y-63783795D01*
X144288685Y-63783795D02*
X145145828Y-62926652D01*
X145145828Y-62926652D02*
X145145828Y-63855224D01*
X143645828Y-64355223D02*
X143645828Y-65283795D01*
X143645828Y-65283795D02*
X144217257Y-64783795D01*
X144217257Y-64783795D02*
X144217257Y-64998080D01*
X144217257Y-64998080D02*
X144288685Y-65140938D01*
X144288685Y-65140938D02*
X144360114Y-65212366D01*
X144360114Y-65212366D02*
X144502971Y-65283795D01*
X144502971Y-65283795D02*
X144860114Y-65283795D01*
X144860114Y-65283795D02*
X145002971Y-65212366D01*
X145002971Y-65212366D02*
X145074400Y-65140938D01*
X145074400Y-65140938D02*
X145145828Y-64998080D01*
X145145828Y-64998080D02*
X145145828Y-64569509D01*
X145145828Y-64569509D02*
X145074400Y-64426652D01*
X145074400Y-64426652D02*
X145002971Y-64355223D01*
X144574400Y-65926651D02*
X144574400Y-67069509D01*
X145145828Y-68569509D02*
X145145828Y-67712366D01*
X145145828Y-68140937D02*
X143645828Y-68140937D01*
X143645828Y-68140937D02*
X143860114Y-67998080D01*
X143860114Y-67998080D02*
X144002971Y-67855223D01*
X144002971Y-67855223D02*
X144074400Y-67712366D01*
X143645828Y-69498080D02*
X143645828Y-69640937D01*
X143645828Y-69640937D02*
X143717257Y-69783794D01*
X143717257Y-69783794D02*
X143788685Y-69855223D01*
X143788685Y-69855223D02*
X143931542Y-69926651D01*
X143931542Y-69926651D02*
X144217257Y-69998080D01*
X144217257Y-69998080D02*
X144574400Y-69998080D01*
X144574400Y-69998080D02*
X144860114Y-69926651D01*
X144860114Y-69926651D02*
X145002971Y-69855223D01*
X145002971Y-69855223D02*
X145074400Y-69783794D01*
X145074400Y-69783794D02*
X145145828Y-69640937D01*
X145145828Y-69640937D02*
X145145828Y-69498080D01*
X145145828Y-69498080D02*
X145074400Y-69355223D01*
X145074400Y-69355223D02*
X145002971Y-69283794D01*
X145002971Y-69283794D02*
X144860114Y-69212365D01*
X144860114Y-69212365D02*
X144574400Y-69140937D01*
X144574400Y-69140937D02*
X144217257Y-69140937D01*
X144217257Y-69140937D02*
X143931542Y-69212365D01*
X143931542Y-69212365D02*
X143788685Y-69283794D01*
X143788685Y-69283794D02*
X143717257Y-69355223D01*
X143717257Y-69355223D02*
X143645828Y-69498080D01*
X144574400Y-70640936D02*
X144574400Y-71783794D01*
X143645828Y-72783794D02*
X143645828Y-72926651D01*
X143645828Y-72926651D02*
X143717257Y-73069508D01*
X143717257Y-73069508D02*
X143788685Y-73140937D01*
X143788685Y-73140937D02*
X143931542Y-73212365D01*
X143931542Y-73212365D02*
X144217257Y-73283794D01*
X144217257Y-73283794D02*
X144574400Y-73283794D01*
X144574400Y-73283794D02*
X144860114Y-73212365D01*
X144860114Y-73212365D02*
X145002971Y-73140937D01*
X145002971Y-73140937D02*
X145074400Y-73069508D01*
X145074400Y-73069508D02*
X145145828Y-72926651D01*
X145145828Y-72926651D02*
X145145828Y-72783794D01*
X145145828Y-72783794D02*
X145074400Y-72640937D01*
X145074400Y-72640937D02*
X145002971Y-72569508D01*
X145002971Y-72569508D02*
X144860114Y-72498079D01*
X144860114Y-72498079D02*
X144574400Y-72426651D01*
X144574400Y-72426651D02*
X144217257Y-72426651D01*
X144217257Y-72426651D02*
X143931542Y-72498079D01*
X143931542Y-72498079D02*
X143788685Y-72569508D01*
X143788685Y-72569508D02*
X143717257Y-72640937D01*
X143717257Y-72640937D02*
X143645828Y-72783794D01*
X145145828Y-73998079D02*
X145145828Y-74283793D01*
X145145828Y-74283793D02*
X145074400Y-74426650D01*
X145074400Y-74426650D02*
X145002971Y-74498079D01*
X145002971Y-74498079D02*
X144788685Y-74640936D01*
X144788685Y-74640936D02*
X144502971Y-74712365D01*
X144502971Y-74712365D02*
X143931542Y-74712365D01*
X143931542Y-74712365D02*
X143788685Y-74640936D01*
X143788685Y-74640936D02*
X143717257Y-74569508D01*
X143717257Y-74569508D02*
X143645828Y-74426650D01*
X143645828Y-74426650D02*
X143645828Y-74140936D01*
X143645828Y-74140936D02*
X143717257Y-73998079D01*
X143717257Y-73998079D02*
X143788685Y-73926650D01*
X143788685Y-73926650D02*
X143931542Y-73855222D01*
X143931542Y-73855222D02*
X144288685Y-73855222D01*
X144288685Y-73855222D02*
X144431542Y-73926650D01*
X144431542Y-73926650D02*
X144502971Y-73998079D01*
X144502971Y-73998079D02*
X144574400Y-74140936D01*
X144574400Y-74140936D02*
X144574400Y-74426650D01*
X144574400Y-74426650D02*
X144502971Y-74569508D01*
X144502971Y-74569508D02*
X144431542Y-74640936D01*
X144431542Y-74640936D02*
X144288685Y-74712365D01*
X146203685Y-60140939D02*
X146132257Y-60212367D01*
X146132257Y-60212367D02*
X146060828Y-60355225D01*
X146060828Y-60355225D02*
X146060828Y-60712367D01*
X146060828Y-60712367D02*
X146132257Y-60855225D01*
X146132257Y-60855225D02*
X146203685Y-60926653D01*
X146203685Y-60926653D02*
X146346542Y-60998082D01*
X146346542Y-60998082D02*
X146489400Y-60998082D01*
X146489400Y-60998082D02*
X146703685Y-60926653D01*
X146703685Y-60926653D02*
X147560828Y-60069510D01*
X147560828Y-60069510D02*
X147560828Y-60998082D01*
X147417971Y-61640938D02*
X147489400Y-61712367D01*
X147489400Y-61712367D02*
X147560828Y-61640938D01*
X147560828Y-61640938D02*
X147489400Y-61569510D01*
X147489400Y-61569510D02*
X147417971Y-61640938D01*
X147417971Y-61640938D02*
X147560828Y-61640938D01*
X147560828Y-63140939D02*
X147560828Y-62283796D01*
X147560828Y-62712367D02*
X146060828Y-62712367D01*
X146060828Y-62712367D02*
X146275114Y-62569510D01*
X146275114Y-62569510D02*
X146417971Y-62426653D01*
X146417971Y-62426653D02*
X146489400Y-62283796D01*
X147417971Y-63783795D02*
X147489400Y-63855224D01*
X147489400Y-63855224D02*
X147560828Y-63783795D01*
X147560828Y-63783795D02*
X147489400Y-63712367D01*
X147489400Y-63712367D02*
X147417971Y-63783795D01*
X147417971Y-63783795D02*
X147560828Y-63783795D01*
X146060828Y-64783796D02*
X146060828Y-64926653D01*
X146060828Y-64926653D02*
X146132257Y-65069510D01*
X146132257Y-65069510D02*
X146203685Y-65140939D01*
X146203685Y-65140939D02*
X146346542Y-65212367D01*
X146346542Y-65212367D02*
X146632257Y-65283796D01*
X146632257Y-65283796D02*
X146989400Y-65283796D01*
X146989400Y-65283796D02*
X147275114Y-65212367D01*
X147275114Y-65212367D02*
X147417971Y-65140939D01*
X147417971Y-65140939D02*
X147489400Y-65069510D01*
X147489400Y-65069510D02*
X147560828Y-64926653D01*
X147560828Y-64926653D02*
X147560828Y-64783796D01*
X147560828Y-64783796D02*
X147489400Y-64640939D01*
X147489400Y-64640939D02*
X147417971Y-64569510D01*
X147417971Y-64569510D02*
X147275114Y-64498081D01*
X147275114Y-64498081D02*
X146989400Y-64426653D01*
X146989400Y-64426653D02*
X146632257Y-64426653D01*
X146632257Y-64426653D02*
X146346542Y-64498081D01*
X146346542Y-64498081D02*
X146203685Y-64569510D01*
X146203685Y-64569510D02*
X146132257Y-64640939D01*
X146132257Y-64640939D02*
X146060828Y-64783796D01*
D10*
X140000000Y-88270000D02*
X153810000Y-88270000D01*
X153810000Y-52840000D01*
X140000000Y-52840000D01*
X140000000Y-88270000D01*
D12*
X207529085Y-75301298D02*
X207624323Y-75253679D01*
X207624323Y-75253679D02*
X207767180Y-75253679D01*
X207767180Y-75253679D02*
X207910037Y-75301298D01*
X207910037Y-75301298D02*
X208005275Y-75396536D01*
X208005275Y-75396536D02*
X208052894Y-75491774D01*
X208052894Y-75491774D02*
X208100513Y-75682250D01*
X208100513Y-75682250D02*
X208100513Y-75825107D01*
X208100513Y-75825107D02*
X208052894Y-76015583D01*
X208052894Y-76015583D02*
X208005275Y-76110821D01*
X208005275Y-76110821D02*
X207910037Y-76206060D01*
X207910037Y-76206060D02*
X207767180Y-76253679D01*
X207767180Y-76253679D02*
X207671942Y-76253679D01*
X207671942Y-76253679D02*
X207529085Y-76206060D01*
X207529085Y-76206060D02*
X207481466Y-76158440D01*
X207481466Y-76158440D02*
X207481466Y-75825107D01*
X207481466Y-75825107D02*
X207671942Y-75825107D01*
X207100513Y-75348917D02*
X207052894Y-75301298D01*
X207052894Y-75301298D02*
X206957656Y-75253679D01*
X206957656Y-75253679D02*
X206719561Y-75253679D01*
X206719561Y-75253679D02*
X206624323Y-75301298D01*
X206624323Y-75301298D02*
X206576704Y-75348917D01*
X206576704Y-75348917D02*
X206529085Y-75444155D01*
X206529085Y-75444155D02*
X206529085Y-75539393D01*
X206529085Y-75539393D02*
X206576704Y-75682250D01*
X206576704Y-75682250D02*
X207148132Y-76253679D01*
X207148132Y-76253679D02*
X206529085Y-76253679D01*
X207681954Y-51560311D02*
X207777192Y-51512692D01*
X207777192Y-51512692D02*
X207920049Y-51512692D01*
X207920049Y-51512692D02*
X208062906Y-51560311D01*
X208062906Y-51560311D02*
X208158144Y-51655549D01*
X208158144Y-51655549D02*
X208205763Y-51750787D01*
X208205763Y-51750787D02*
X208253382Y-51941263D01*
X208253382Y-51941263D02*
X208253382Y-52084120D01*
X208253382Y-52084120D02*
X208205763Y-52274596D01*
X208205763Y-52274596D02*
X208158144Y-52369834D01*
X208158144Y-52369834D02*
X208062906Y-52465073D01*
X208062906Y-52465073D02*
X207920049Y-52512692D01*
X207920049Y-52512692D02*
X207824811Y-52512692D01*
X207824811Y-52512692D02*
X207681954Y-52465073D01*
X207681954Y-52465073D02*
X207634335Y-52417453D01*
X207634335Y-52417453D02*
X207634335Y-52084120D01*
X207634335Y-52084120D02*
X207824811Y-52084120D01*
X206681954Y-52512692D02*
X207253382Y-52512692D01*
X206967668Y-52512692D02*
X206967668Y-51512692D01*
X206967668Y-51512692D02*
X207062906Y-51655549D01*
X207062906Y-51655549D02*
X207158144Y-51750787D01*
X207158144Y-51750787D02*
X207253382Y-51798406D01*
X207135167Y-89711791D02*
X207230405Y-89664172D01*
X207230405Y-89664172D02*
X207373262Y-89664172D01*
X207373262Y-89664172D02*
X207516119Y-89711791D01*
X207516119Y-89711791D02*
X207611357Y-89807029D01*
X207611357Y-89807029D02*
X207658976Y-89902267D01*
X207658976Y-89902267D02*
X207706595Y-90092743D01*
X207706595Y-90092743D02*
X207706595Y-90235600D01*
X207706595Y-90235600D02*
X207658976Y-90426076D01*
X207658976Y-90426076D02*
X207611357Y-90521314D01*
X207611357Y-90521314D02*
X207516119Y-90616553D01*
X207516119Y-90616553D02*
X207373262Y-90664172D01*
X207373262Y-90664172D02*
X207278024Y-90664172D01*
X207278024Y-90664172D02*
X207135167Y-90616553D01*
X207135167Y-90616553D02*
X207087548Y-90568933D01*
X207087548Y-90568933D02*
X207087548Y-90235600D01*
X207087548Y-90235600D02*
X207278024Y-90235600D01*
X206230405Y-89997505D02*
X206230405Y-90664172D01*
X206468500Y-89616553D02*
X206706595Y-90330838D01*
X206706595Y-90330838D02*
X206087548Y-90330838D01*
X207122685Y-65970805D02*
X207217923Y-65923186D01*
X207217923Y-65923186D02*
X207360780Y-65923186D01*
X207360780Y-65923186D02*
X207503637Y-65970805D01*
X207503637Y-65970805D02*
X207598875Y-66066043D01*
X207598875Y-66066043D02*
X207646494Y-66161281D01*
X207646494Y-66161281D02*
X207694113Y-66351757D01*
X207694113Y-66351757D02*
X207694113Y-66494614D01*
X207694113Y-66494614D02*
X207646494Y-66685090D01*
X207646494Y-66685090D02*
X207598875Y-66780328D01*
X207598875Y-66780328D02*
X207503637Y-66875567D01*
X207503637Y-66875567D02*
X207360780Y-66923186D01*
X207360780Y-66923186D02*
X207265542Y-66923186D01*
X207265542Y-66923186D02*
X207122685Y-66875567D01*
X207122685Y-66875567D02*
X207075066Y-66827947D01*
X207075066Y-66827947D02*
X207075066Y-66494614D01*
X207075066Y-66494614D02*
X207265542Y-66494614D01*
X206741732Y-65923186D02*
X206122685Y-65923186D01*
X206122685Y-65923186D02*
X206456018Y-66304138D01*
X206456018Y-66304138D02*
X206313161Y-66304138D01*
X206313161Y-66304138D02*
X206217923Y-66351757D01*
X206217923Y-66351757D02*
X206170304Y-66399376D01*
X206170304Y-66399376D02*
X206122685Y-66494614D01*
X206122685Y-66494614D02*
X206122685Y-66732709D01*
X206122685Y-66732709D02*
X206170304Y-66827947D01*
X206170304Y-66827947D02*
X206217923Y-66875567D01*
X206217923Y-66875567D02*
X206313161Y-66923186D01*
X206313161Y-66923186D02*
X206598875Y-66923186D01*
X206598875Y-66923186D02*
X206694113Y-66875567D01*
X206694113Y-66875567D02*
X206741732Y-66827947D01*
G36*
X147777852Y-53554316D02*
G01*
X147789908Y-53560987D01*
X147874661Y-53607965D01*
X147954462Y-53652346D01*
X148025885Y-53692212D01*
X148085502Y-53725649D01*
X148129887Y-53750737D01*
X148155611Y-53765563D01*
X148212363Y-53799255D01*
X147228649Y-53805912D01*
X147119881Y-53806636D01*
X146948401Y-53807773D01*
X146799167Y-53808868D01*
X146670287Y-53810063D01*
X146559868Y-53811501D01*
X146466016Y-53813325D01*
X146386839Y-53815679D01*
X146320444Y-53818706D01*
X146264938Y-53822547D01*
X146218427Y-53827347D01*
X146179019Y-53833247D01*
X146144820Y-53840392D01*
X146113938Y-53848924D01*
X146084480Y-53858986D01*
X146054552Y-53870721D01*
X146022262Y-53884272D01*
X145985717Y-53899782D01*
X145885551Y-53948040D01*
X145748005Y-54035982D01*
X145622973Y-54142087D01*
X145512565Y-54263600D01*
X145418889Y-54397763D01*
X145344056Y-54541823D01*
X145290175Y-54693024D01*
X145259355Y-54848609D01*
X145257176Y-54865354D01*
X145248964Y-54900137D01*
X145233283Y-54923456D01*
X145204349Y-54945503D01*
X145166154Y-54979646D01*
X145127271Y-55036877D01*
X145100763Y-55103272D01*
X145090963Y-55170240D01*
X145091241Y-55181632D01*
X145106378Y-55257685D01*
X145141817Y-55328197D01*
X145193640Y-55384975D01*
X145242304Y-55424082D01*
X145242304Y-55712041D01*
X145242304Y-56000000D01*
X145343197Y-56000000D01*
X145444091Y-56000000D01*
X145444273Y-55719389D01*
X145444455Y-55438778D01*
X145506538Y-55404543D01*
X145565591Y-55359420D01*
X145610854Y-55297497D01*
X145637655Y-55225645D01*
X145644007Y-55149277D01*
X145627924Y-55073806D01*
X145607569Y-55036147D01*
X145569394Y-54987724D01*
X145522843Y-54942334D01*
X145475367Y-54908074D01*
X145474208Y-54907408D01*
X145463697Y-54899840D01*
X145458765Y-54888933D01*
X145459564Y-54869408D01*
X145466246Y-54835988D01*
X145478963Y-54783393D01*
X145494387Y-54727493D01*
X145551745Y-54580285D01*
X145629142Y-54445693D01*
X145724704Y-54325556D01*
X145836559Y-54221709D01*
X145847666Y-54214169D01*
X145962831Y-54135991D01*
X146101648Y-54070238D01*
X146251136Y-54026288D01*
X146257765Y-54024980D01*
X146278707Y-54021759D01*
X146305508Y-54018943D01*
X146339780Y-54016505D01*
X146383138Y-54014421D01*
X146437195Y-54012664D01*
X146503565Y-54011210D01*
X146583862Y-54010032D01*
X146679699Y-54009106D01*
X146792691Y-54008405D01*
X146924451Y-54007904D01*
X147076593Y-54007578D01*
X147250731Y-54007402D01*
X147448478Y-54007348D01*
X147637834Y-54007358D01*
X147807003Y-54007412D01*
X147954122Y-54007546D01*
X148080790Y-54007794D01*
X148188609Y-54008194D01*
X148279176Y-54008780D01*
X148354093Y-54009589D01*
X148414960Y-54010655D01*
X148463377Y-54012016D01*
X148500943Y-54013705D01*
X148529259Y-54015759D01*
X148549924Y-54018214D01*
X148564539Y-54021106D01*
X148574704Y-54024469D01*
X148582018Y-54028340D01*
X148588082Y-54032754D01*
X148592317Y-54036203D01*
X148631077Y-54075594D01*
X148674946Y-54130937D01*
X148719695Y-54195767D01*
X148761095Y-54263622D01*
X148794916Y-54328036D01*
X148816931Y-54382547D01*
X148825731Y-54410923D01*
X148247895Y-54410445D01*
X147670059Y-54409966D01*
X147635356Y-54359799D01*
X147587357Y-54305685D01*
X147521931Y-54263102D01*
X147449401Y-54241863D01*
X147373884Y-54242463D01*
X147299498Y-54265397D01*
X147230360Y-54311159D01*
X147205351Y-54334784D01*
X147179042Y-54364053D01*
X147165899Y-54384727D01*
X147162712Y-54391213D01*
X147155030Y-54397162D01*
X147140176Y-54401756D01*
X147115143Y-54405282D01*
X147076923Y-54408023D01*
X147022506Y-54410266D01*
X146948886Y-54412297D01*
X146853052Y-54414399D01*
X146793316Y-54415716D01*
X146696442Y-54418586D01*
X146618300Y-54422564D01*
X146554634Y-54428410D01*
X146501186Y-54436884D01*
X146453699Y-54448744D01*
X146407915Y-54464750D01*
X146359577Y-54485660D01*
X146304428Y-54512235D01*
X146240986Y-54547692D01*
X146133036Y-54629559D01*
X146038897Y-54730597D01*
X145960649Y-54848393D01*
X145900373Y-54980537D01*
X145866584Y-55073039D01*
X145862719Y-55536519D01*
X145858855Y-56000000D01*
X145960460Y-56000000D01*
X146062065Y-56000000D01*
X146062065Y-55580157D01*
X146062126Y-55512371D01*
X146062607Y-55402746D01*
X146063663Y-55314042D01*
X146065403Y-55243451D01*
X146067937Y-55188168D01*
X146071374Y-55145385D01*
X146075824Y-55112295D01*
X146081398Y-55086091D01*
X146093403Y-55045637D01*
X146143599Y-54933978D01*
X146214596Y-54835359D01*
X146304770Y-54751749D01*
X146412497Y-54685113D01*
X146520376Y-54631628D01*
X146839830Y-54627688D01*
X146844812Y-54627628D01*
X146957973Y-54626783D01*
X147046019Y-54627270D01*
X147108932Y-54629086D01*
X147146694Y-54632233D01*
X147159285Y-54636708D01*
X147165345Y-54652917D01*
X147187114Y-54681594D01*
X147219158Y-54714024D01*
X147255587Y-54744369D01*
X147290514Y-54766792D01*
X147326811Y-54781740D01*
X147400142Y-54793905D01*
X147474351Y-54786136D01*
X147543850Y-54760112D01*
X147603049Y-54717509D01*
X147646358Y-54660005D01*
X147664401Y-54625323D01*
X148271313Y-54625323D01*
X148878225Y-54625323D01*
X148870760Y-54731097D01*
X148869958Y-54741660D01*
X148859949Y-54825334D01*
X148844451Y-54906600D01*
X148825161Y-54977854D01*
X148803773Y-55031491D01*
X148785549Y-55066733D01*
X147771102Y-55066733D01*
X147744407Y-55066733D01*
X147563913Y-55066753D01*
X147406667Y-55066837D01*
X147270934Y-55067025D01*
X147154976Y-55067359D01*
X147057057Y-55067880D01*
X146975441Y-55068629D01*
X146908391Y-55069646D01*
X146854171Y-55070975D01*
X146811044Y-55072654D01*
X146777273Y-55074727D01*
X146751123Y-55077233D01*
X146730857Y-55080215D01*
X146714738Y-55083713D01*
X146701029Y-55087768D01*
X146687995Y-55092422D01*
X146635950Y-55117837D01*
X146568236Y-55173547D01*
X146557707Y-55185026D01*
X146533113Y-55213253D01*
X146513784Y-55239862D01*
X146499035Y-55268208D01*
X146488183Y-55301645D01*
X146480541Y-55343529D01*
X146475425Y-55397215D01*
X146472149Y-55466058D01*
X146470029Y-55553413D01*
X146468379Y-55662636D01*
X146463810Y-56000000D01*
X146465640Y-56000000D01*
X146571925Y-56000000D01*
X146680040Y-56000000D01*
X146680441Y-55675248D01*
X146680447Y-55670343D01*
X146680662Y-55569615D01*
X146681369Y-55490833D01*
X146683076Y-55430857D01*
X146686290Y-55386544D01*
X146691519Y-55354756D01*
X146699271Y-55332349D01*
X146710056Y-55316184D01*
X146724380Y-55303118D01*
X146742751Y-55290012D01*
X146747346Y-55287264D01*
X146756704Y-55283568D01*
X146770502Y-55280389D01*
X146790473Y-55277688D01*
X146818349Y-55275427D01*
X146855861Y-55273567D01*
X146904742Y-55272070D01*
X146966723Y-55270898D01*
X147043536Y-55270011D01*
X147136914Y-55269372D01*
X147248587Y-55268942D01*
X147380288Y-55268682D01*
X147533749Y-55268554D01*
X147710701Y-55268520D01*
X147850487Y-55268637D01*
X147998040Y-55269029D01*
X148135155Y-55269676D01*
X148259985Y-55270557D01*
X148370682Y-55271649D01*
X148465396Y-55272931D01*
X148542280Y-55274382D01*
X148599485Y-55275979D01*
X148635164Y-55277701D01*
X148647468Y-55279526D01*
X148646446Y-55283048D01*
X148631674Y-55302355D01*
X148603124Y-55330911D01*
X148565666Y-55364306D01*
X148524173Y-55398129D01*
X148483515Y-55427969D01*
X148472128Y-55435231D01*
X148437110Y-55456152D01*
X148384168Y-55486902D01*
X148315889Y-55526008D01*
X148234865Y-55571996D01*
X148143684Y-55623393D01*
X148044937Y-55678726D01*
X147941211Y-55736522D01*
X147455660Y-56006306D01*
X147067850Y-56010280D01*
X146680040Y-56014254D01*
X146680040Y-56794739D01*
X146679901Y-56939572D01*
X146679311Y-57108222D01*
X146678266Y-57254801D01*
X146676776Y-57378785D01*
X146674847Y-57479648D01*
X146672490Y-57556865D01*
X146669711Y-57609912D01*
X146666520Y-57638264D01*
X146661988Y-57655686D01*
X146642457Y-57706302D01*
X146618095Y-57749237D01*
X146613308Y-57754859D01*
X146587586Y-57778930D01*
X146545402Y-57814441D01*
X146489774Y-57859138D01*
X146423722Y-57910770D01*
X146350264Y-57967086D01*
X146272418Y-58025833D01*
X146193205Y-58084760D01*
X146115643Y-58141615D01*
X146042750Y-58194147D01*
X145977546Y-58240103D01*
X145923049Y-58277231D01*
X145882279Y-58303281D01*
X145858254Y-58316000D01*
X145844371Y-58319168D01*
X145812990Y-58322614D01*
X145764843Y-58325472D01*
X145698523Y-58327779D01*
X145612620Y-58329570D01*
X145505724Y-58330881D01*
X145376426Y-58331748D01*
X145223317Y-58332208D01*
X144630496Y-58333168D01*
X144428774Y-58131380D01*
X144432115Y-58131380D01*
X145098903Y-58131333D01*
X145104760Y-58131333D01*
X145250819Y-58131286D01*
X145373860Y-58131121D01*
X145476008Y-58130764D01*
X145559390Y-58130142D01*
X145626133Y-58129179D01*
X145678361Y-58127802D01*
X145718202Y-58125938D01*
X145747782Y-58123511D01*
X145769226Y-58120448D01*
X145784662Y-58116674D01*
X145796216Y-58112116D01*
X145806013Y-58106700D01*
X145818693Y-58098615D01*
X145856350Y-58072833D01*
X145906797Y-58036805D01*
X145967020Y-57992819D01*
X146034009Y-57943161D01*
X146104751Y-57890120D01*
X146176235Y-57835981D01*
X146245447Y-57783031D01*
X146309376Y-57733559D01*
X146365010Y-57689851D01*
X146409337Y-57654193D01*
X146439345Y-57628874D01*
X146452022Y-57616180D01*
X146452784Y-57614187D01*
X146455865Y-57592280D01*
X146458508Y-57548599D01*
X146460721Y-57482650D01*
X146462514Y-57393943D01*
X146463894Y-57281983D01*
X146464870Y-57146280D01*
X146465449Y-56986341D01*
X146465640Y-56801673D01*
X146465640Y-56012612D01*
X146263853Y-56012612D01*
X146062065Y-56012612D01*
X146061788Y-56602209D01*
X146061744Y-56723442D01*
X146061555Y-56848031D01*
X146060917Y-56951650D01*
X146059509Y-57036619D01*
X146057013Y-57105262D01*
X146053109Y-57159899D01*
X146047477Y-57202852D01*
X146039797Y-57236444D01*
X146029749Y-57262996D01*
X146017015Y-57284830D01*
X146001274Y-57304267D01*
X145982207Y-57323630D01*
X145959494Y-57345240D01*
X145934103Y-57368874D01*
X145882770Y-57414470D01*
X145824301Y-57464414D01*
X145763027Y-57515188D01*
X145703280Y-57563275D01*
X145649391Y-57605157D01*
X145605692Y-57637318D01*
X145576514Y-57656240D01*
X145570502Y-57659446D01*
X145555574Y-57666402D01*
X145538601Y-57671937D01*
X145516686Y-57676246D01*
X145486933Y-57679529D01*
X145446442Y-57681983D01*
X145392319Y-57683805D01*
X145321664Y-57685195D01*
X145231581Y-57686349D01*
X145119172Y-57687465D01*
X144712276Y-57691266D01*
X144666591Y-57782053D01*
X144630986Y-57848328D01*
X144556397Y-57968145D01*
X144475571Y-58077780D01*
X144432115Y-58131380D01*
X144428774Y-58131380D01*
X144201837Y-57904369D01*
X143774336Y-57476729D01*
X144784794Y-57476729D01*
X145131147Y-57472997D01*
X145477500Y-57469265D01*
X145655263Y-57320205D01*
X145709079Y-57274476D01*
X145759840Y-57230093D01*
X145800787Y-57192945D01*
X145828696Y-57165961D01*
X145840346Y-57152068D01*
X145841443Y-57142879D01*
X145842893Y-57110233D01*
X145844212Y-57056906D01*
X145845366Y-56985549D01*
X145846322Y-56898809D01*
X145847047Y-56799339D01*
X145847506Y-56689786D01*
X145847666Y-56572802D01*
X145847666Y-56012612D01*
X145652185Y-56012612D01*
X145456703Y-56012612D01*
X145456703Y-56451775D01*
X145456683Y-56505681D01*
X145456352Y-56623262D01*
X145455338Y-56719472D01*
X145453291Y-56797059D01*
X145449861Y-56858769D01*
X145444701Y-56907351D01*
X145437460Y-56945552D01*
X145427788Y-56976119D01*
X145415338Y-57001800D01*
X145399758Y-57025343D01*
X145380701Y-57049494D01*
X145363690Y-57067228D01*
X145322393Y-57100395D01*
X145277682Y-57127611D01*
X145269471Y-57131661D01*
X145243806Y-57143137D01*
X145218703Y-57151056D01*
X145189005Y-57156074D01*
X145149555Y-57158847D01*
X145095196Y-57160029D01*
X145020772Y-57160278D01*
X144829417Y-57160278D01*
X144815070Y-57270630D01*
X144813008Y-57286368D01*
X144805315Y-57343196D01*
X144798122Y-57393830D01*
X144792759Y-57428856D01*
X144784794Y-57476729D01*
X143774336Y-57476729D01*
X143773178Y-57475571D01*
X143333881Y-57475571D01*
X142894584Y-57475571D01*
X142857719Y-57438706D01*
X142838846Y-57417746D01*
X142827098Y-57395309D01*
X142821977Y-57364905D01*
X142820854Y-57317924D01*
X142821771Y-57274046D01*
X142826466Y-57242610D01*
X142837573Y-57219845D01*
X142857719Y-57197143D01*
X142894584Y-57160278D01*
X143854045Y-57160278D01*
X144813505Y-57160278D01*
X144813505Y-57059384D01*
X144813505Y-56958490D01*
X143838573Y-56958490D01*
X142863641Y-56958490D01*
X142798087Y-56991158D01*
X142768793Y-57007388D01*
X142702644Y-57061480D01*
X142655926Y-57130745D01*
X142628210Y-57215965D01*
X142619066Y-57317924D01*
X142620296Y-57357410D01*
X142636219Y-57453123D01*
X142670872Y-57532386D01*
X142724685Y-57595980D01*
X142798087Y-57644691D01*
X142863641Y-57677358D01*
X143274300Y-57677358D01*
X143684958Y-57677358D01*
X143980308Y-57972909D01*
X143981633Y-57974235D01*
X144062028Y-58054864D01*
X144126136Y-58119704D01*
X144175611Y-58170648D01*
X144212104Y-58209585D01*
X144237266Y-58238408D01*
X144252752Y-58259007D01*
X144260212Y-58273273D01*
X144261299Y-58283097D01*
X144257665Y-58290371D01*
X144255807Y-58292478D01*
X144232387Y-58312711D01*
X144194061Y-58340879D01*
X144146705Y-58373175D01*
X144096193Y-58405789D01*
X144048400Y-58434913D01*
X144009199Y-58456741D01*
X143984467Y-58467463D01*
X143976358Y-58468387D01*
X143963386Y-58465339D01*
X143946139Y-58455603D01*
X143922394Y-58437284D01*
X143889930Y-58408487D01*
X143846522Y-58367317D01*
X143789950Y-58311880D01*
X143717988Y-58240281D01*
X143482726Y-58005263D01*
X143180166Y-58005077D01*
X143072951Y-58004508D01*
X142976509Y-58002416D01*
X142898004Y-57998255D01*
X142833642Y-57991478D01*
X142779630Y-57981534D01*
X142732173Y-57967876D01*
X142687478Y-57949955D01*
X142641751Y-57927222D01*
X142640391Y-57926495D01*
X142534626Y-57855886D01*
X142445563Y-57767322D01*
X142375299Y-57663334D01*
X142325933Y-57546449D01*
X142307073Y-57462000D01*
X142297533Y-57363522D01*
X142297732Y-57261412D01*
X142307647Y-57164648D01*
X142327250Y-57082206D01*
X142329153Y-57076665D01*
X142375980Y-56971997D01*
X142438941Y-56875682D01*
X142512775Y-56795837D01*
X142513479Y-56795213D01*
X142579440Y-56746260D01*
X142659148Y-56701292D01*
X142742507Y-56665329D01*
X142819422Y-56643389D01*
X142823815Y-56642690D01*
X142857896Y-56639793D01*
X142914204Y-56637223D01*
X142990297Y-56635029D01*
X143083735Y-56633260D01*
X143192075Y-56631963D01*
X143312878Y-56631189D01*
X143443702Y-56630984D01*
X144000049Y-56631383D01*
X144033203Y-56686062D01*
X144070048Y-56731360D01*
X144130367Y-56774024D01*
X144201179Y-56799542D01*
X144275828Y-56804660D01*
X144344094Y-56790716D01*
X144413409Y-56756362D01*
X144469267Y-56706126D01*
X144509349Y-56643772D01*
X144531336Y-56573065D01*
X144532910Y-56497769D01*
X144511751Y-56421650D01*
X144501484Y-56399845D01*
X144480717Y-56361726D01*
X144463048Y-56336037D01*
X144459356Y-56332121D01*
X144420104Y-56303336D01*
X144366867Y-56277763D01*
X144309513Y-56259429D01*
X144257913Y-56252357D01*
X144205798Y-56258367D01*
X144137245Y-56283105D01*
X144076963Y-56322976D01*
X144033010Y-56373633D01*
X144000049Y-56428001D01*
X143426216Y-56428619D01*
X143286097Y-56428875D01*
X143158979Y-56429511D01*
X143052147Y-56430764D01*
X142963052Y-56432883D01*
X142889150Y-56436115D01*
X142827893Y-56440709D01*
X142776735Y-56446912D01*
X142733129Y-56454974D01*
X142694529Y-56465142D01*
X142658389Y-56477664D01*
X142622161Y-56492789D01*
X142583299Y-56510765D01*
X142545103Y-56530057D01*
X142424126Y-56608584D01*
X142319943Y-56704452D01*
X142233785Y-56815502D01*
X142166882Y-56939576D01*
X142120467Y-57074518D01*
X142095769Y-57218169D01*
X142094019Y-57368371D01*
X142095215Y-57385633D01*
X142099947Y-57444549D01*
X142105108Y-57497859D01*
X142109774Y-57535774D01*
X142117999Y-57589672D01*
X141892440Y-57586221D01*
X141666882Y-57582770D01*
X141659553Y-57444042D01*
X141656070Y-57391963D01*
X141646475Y-57315507D01*
X141630772Y-57253104D01*
X141606944Y-57197727D01*
X141572975Y-57142351D01*
X141507175Y-57063871D01*
X141419498Y-56995692D01*
X141316246Y-56947297D01*
X141197280Y-56918604D01*
X141160499Y-56913283D01*
X141125665Y-56909710D01*
X141104734Y-56911487D01*
X141091264Y-56919483D01*
X141078813Y-56934565D01*
X141058952Y-56960953D01*
X141028097Y-56999401D01*
X141002967Y-57025105D01*
X140977946Y-57043413D01*
X140947416Y-57059673D01*
X140879967Y-57080513D01*
X140804130Y-57084526D01*
X140729786Y-57071909D01*
X140666117Y-57043199D01*
X140625738Y-57011156D01*
X140576251Y-56949068D01*
X140546654Y-56878179D01*
X140537684Y-56806249D01*
X140752532Y-56806249D01*
X140754966Y-56823298D01*
X140773698Y-56851743D01*
X140804410Y-56867013D01*
X140839256Y-56866388D01*
X140870389Y-56847145D01*
X140883218Y-56828487D01*
X140891261Y-56803004D01*
X140889445Y-56792775D01*
X140873104Y-56765206D01*
X140847444Y-56741532D01*
X140821897Y-56731479D01*
X140811936Y-56733264D01*
X140784885Y-56750397D01*
X140762108Y-56777933D01*
X140752532Y-56806249D01*
X140537684Y-56806249D01*
X140537265Y-56802891D01*
X140548405Y-56727607D01*
X140580393Y-56656728D01*
X140633549Y-56594657D01*
X140642350Y-56587190D01*
X140712951Y-56544079D01*
X140788775Y-56523175D01*
X140821897Y-56523497D01*
X140865555Y-56523921D01*
X140939026Y-56545755D01*
X141004922Y-56588120D01*
X141058976Y-56650454D01*
X141086743Y-56693332D01*
X141409322Y-56693488D01*
X141731901Y-56693644D01*
X141945320Y-56375761D01*
X141963358Y-56348988D01*
X142017585Y-56269649D01*
X142068275Y-56197115D01*
X142113362Y-56134241D01*
X142150779Y-56083877D01*
X142178460Y-56048876D01*
X142194337Y-56032091D01*
X142200096Y-56028152D01*
X142207732Y-56024118D01*
X142217972Y-56020592D01*
X142232429Y-56017526D01*
X142252721Y-56014876D01*
X142280268Y-56012612D01*
X144826117Y-56012612D01*
X144826117Y-56479245D01*
X144826117Y-56945879D01*
X144997345Y-56945879D01*
X145168574Y-56945879D01*
X145205439Y-56909014D01*
X145242304Y-56872149D01*
X145242304Y-56442380D01*
X145242304Y-56012612D01*
X145034210Y-56012612D01*
X144826117Y-56012612D01*
X142280268Y-56012612D01*
X142280463Y-56012596D01*
X142317270Y-56010639D01*
X142364758Y-56008959D01*
X142424544Y-56007511D01*
X142498243Y-56006248D01*
X142587470Y-56005126D01*
X142693841Y-56004097D01*
X142818973Y-56003116D01*
X142964480Y-56002136D01*
X143131979Y-56001113D01*
X143323085Y-56000000D01*
X144416236Y-55993694D01*
X144485601Y-55965333D01*
X144540711Y-55939003D01*
X144634275Y-55873553D01*
X144712438Y-55789395D01*
X144772672Y-55688963D01*
X144807124Y-55615342D01*
X144815438Y-55173932D01*
X144817231Y-55083371D01*
X144819970Y-54968341D01*
X144823103Y-54872852D01*
X144826117Y-54810789D01*
X144826956Y-54793513D01*
X144831856Y-54726936D01*
X144838129Y-54669730D01*
X144846101Y-54618505D01*
X144856098Y-54569871D01*
X144868447Y-54520438D01*
X144883473Y-54466816D01*
X144938433Y-54312062D01*
X145021608Y-54145410D01*
X145125109Y-53989538D01*
X145246814Y-53846630D01*
X145384600Y-53718870D01*
X145536345Y-53608442D01*
X145699927Y-53517530D01*
X145873222Y-53448319D01*
X145918555Y-53434039D01*
X145964679Y-53420922D01*
X146010516Y-53409959D01*
X146058617Y-53400959D01*
X146111533Y-53393732D01*
X146171815Y-53388086D01*
X146242014Y-53383832D01*
X146324681Y-53380779D01*
X146422366Y-53378736D01*
X146537621Y-53377512D01*
X146672996Y-53376918D01*
X146831042Y-53376762D01*
X147456846Y-53376762D01*
X147777852Y-53554316D01*
G37*
G36*
X147463384Y-54403876D02*
G01*
X147505766Y-54438042D01*
X147525986Y-54469484D01*
X147537636Y-54518123D01*
X147534594Y-54541511D01*
X147513990Y-54586387D01*
X147479712Y-54623385D01*
X147438593Y-54643834D01*
X147421187Y-54646416D01*
X147369570Y-54639418D01*
X147326272Y-54612862D01*
X147296485Y-54571010D01*
X147285402Y-54518123D01*
X147285613Y-54510110D01*
X147298744Y-54458417D01*
X147328448Y-54419998D01*
X147369363Y-54396803D01*
X147416129Y-54390779D01*
X147463384Y-54403876D01*
G37*
G36*
X145400273Y-55046224D02*
G01*
X145443139Y-55066521D01*
X145476938Y-55105956D01*
X145488649Y-55133080D01*
X145493851Y-55182469D01*
X145480375Y-55226608D01*
X145452402Y-55262307D01*
X145414114Y-55286374D01*
X145369691Y-55295619D01*
X145323315Y-55286851D01*
X145279169Y-55256879D01*
X145267122Y-55243941D01*
X145247515Y-55210299D01*
X145242304Y-55167351D01*
X145248445Y-55127552D01*
X145272426Y-55085729D01*
X145309401Y-55057271D01*
X145353855Y-55043622D01*
X145400273Y-55046224D01*
G37*
G36*
X144275636Y-56404150D02*
G01*
X144313767Y-56413921D01*
X144347842Y-56440440D01*
X144359433Y-56452848D01*
X144379389Y-56486690D01*
X144384707Y-56529692D01*
X144384132Y-56546738D01*
X144374360Y-56584869D01*
X144347842Y-56618944D01*
X144335434Y-56630535D01*
X144301591Y-56650492D01*
X144258590Y-56655809D01*
X144210131Y-56646997D01*
X144168455Y-56620160D01*
X144141282Y-56580642D01*
X144130867Y-56533887D01*
X144139467Y-56485338D01*
X144169338Y-56440440D01*
X144181746Y-56428849D01*
X144215588Y-56408892D01*
X144258590Y-56403575D01*
X144275636Y-56404150D01*
G37*
G36*
X140805795Y-57616218D02*
G01*
X140870991Y-57619582D01*
X140949478Y-57645993D01*
X140975461Y-57659738D01*
X141020547Y-57692996D01*
X141053589Y-57735388D01*
X141086743Y-57790066D01*
X141649441Y-57790465D01*
X142212140Y-57790864D01*
X142244699Y-57840064D01*
X142300076Y-57911686D01*
X142388148Y-57997189D01*
X142491082Y-58072747D01*
X142603121Y-58133644D01*
X142620192Y-58141235D01*
X142672551Y-58162090D01*
X142724647Y-58178135D01*
X142780724Y-58189958D01*
X142845023Y-58198150D01*
X142921787Y-58203300D01*
X143015258Y-58205997D01*
X143129678Y-58206831D01*
X143406972Y-58207050D01*
X143580547Y-58380293D01*
X143586772Y-58386511D01*
X143639740Y-58439814D01*
X143685688Y-58486739D01*
X143721887Y-58524447D01*
X143745608Y-58550099D01*
X143754121Y-58560857D01*
X143751883Y-58563492D01*
X143731102Y-58571818D01*
X143692658Y-58582316D01*
X143641640Y-58593882D01*
X143583140Y-58605408D01*
X143522247Y-58615788D01*
X143464051Y-58623914D01*
X143459941Y-58624372D01*
X143417936Y-58627253D01*
X143353759Y-58629653D01*
X143270070Y-58631538D01*
X143169529Y-58632868D01*
X143054795Y-58633609D01*
X142928528Y-58633723D01*
X142793389Y-58633174D01*
X142767497Y-58633006D01*
X142637757Y-58632116D01*
X142530504Y-58631213D01*
X142443416Y-58630183D01*
X142374176Y-58628913D01*
X142320462Y-58627288D01*
X142279955Y-58625194D01*
X142250336Y-58622517D01*
X142229283Y-58619142D01*
X142214479Y-58614956D01*
X142203601Y-58609844D01*
X142194332Y-58603692D01*
X142178058Y-58586652D01*
X142150091Y-58551547D01*
X142112690Y-58501444D01*
X142068080Y-58439383D01*
X142018482Y-58368406D01*
X141966120Y-58291552D01*
X141773501Y-58005263D01*
X141427819Y-58005263D01*
X141371731Y-58005282D01*
X141281164Y-58005502D01*
X141211524Y-58006119D01*
X141159983Y-58007320D01*
X141123710Y-58009293D01*
X141099876Y-58012225D01*
X141085652Y-58016304D01*
X141078207Y-58021717D01*
X141074713Y-58028652D01*
X141069742Y-58038862D01*
X141049742Y-58066562D01*
X141021703Y-58097628D01*
X140972227Y-58137365D01*
X140901086Y-58169720D01*
X140825916Y-58181247D01*
X140751140Y-58172592D01*
X140681177Y-58144402D01*
X140620448Y-58097324D01*
X140573373Y-58032004D01*
X140554542Y-57988526D01*
X140539405Y-57913511D01*
X140755170Y-57913511D01*
X140775596Y-57946556D01*
X140797695Y-57961606D01*
X140831695Y-57964474D01*
X140866038Y-57942204D01*
X140885024Y-57918343D01*
X140888940Y-57890520D01*
X140871628Y-57856729D01*
X140870829Y-57855610D01*
X140841127Y-57833088D01*
X140805795Y-57831661D01*
X140773404Y-57851762D01*
X140757858Y-57876459D01*
X140755170Y-57913511D01*
X140539405Y-57913511D01*
X140538994Y-57911475D01*
X140544510Y-57837802D01*
X140568430Y-57770238D01*
X140608093Y-57711511D01*
X140660841Y-57664353D01*
X140724013Y-57631492D01*
X140794950Y-57615658D01*
X140805795Y-57616218D01*
G37*
D13*
X237794800Y-77068860D02*
X235254800Y-77068860D01*
X236524800Y-75798860D02*
X236524800Y-78338860D01*
X234238800Y-71480860D02*
X234238800Y-82656860D01*
X234238800Y-82656860D02*
X179882800Y-82656860D01*
X179882800Y-71480860D02*
X234238800Y-71480860D01*
X179882800Y-82656860D02*
X179882800Y-71480860D01*
D14*
X178104800Y-77068860D02*
X175564800Y-77068860D01*
D13*
X237947669Y-53327873D02*
X235407669Y-53327873D01*
X236677669Y-52057873D02*
X236677669Y-54597873D01*
X234391669Y-47739873D02*
X234391669Y-58915873D01*
X234391669Y-58915873D02*
X180035669Y-58915873D01*
X180035669Y-47739873D02*
X234391669Y-47739873D01*
X180035669Y-58915873D02*
X180035669Y-47739873D01*
D14*
X178257669Y-53327873D02*
X175717669Y-53327873D01*
D13*
X176440882Y-88939353D02*
X178980882Y-88939353D01*
X177710882Y-90209353D02*
X177710882Y-87669353D01*
X179996882Y-94527353D02*
X179996882Y-83351353D01*
X179996882Y-83351353D02*
X234352882Y-83351353D01*
X234352882Y-94527353D02*
X179996882Y-94527353D01*
X234352882Y-83351353D02*
X234352882Y-94527353D01*
D14*
X236130882Y-88939353D02*
X238670882Y-88939353D01*
D13*
X176428400Y-65198367D02*
X178968400Y-65198367D01*
X177698400Y-66468367D02*
X177698400Y-63928367D01*
X179984400Y-70786367D02*
X179984400Y-59610367D01*
X179984400Y-59610367D02*
X234340400Y-59610367D01*
X234340400Y-70786367D02*
X179984400Y-70786367D01*
X234340400Y-59610367D02*
X234340400Y-70786367D01*
D14*
X236118400Y-65198367D02*
X238658400Y-65198367D01*
%LPC*%
D15*
X134620000Y-82550000D03*
D16*
X134620000Y-87550000D03*
D17*
X157480000Y-87630000D03*
D18*
X154940000Y-87630000D03*
D17*
X157540000Y-82550000D03*
D18*
X155000000Y-82550000D03*
D15*
X134620000Y-53340000D03*
D16*
X134620000Y-58340000D03*
D17*
X146000000Y-78000000D03*
D18*
X148540000Y-78000000D03*
D19*
X177640000Y-55880000D03*
D20*
X172640000Y-55880000D03*
X167640000Y-55880000D03*
D15*
X134620000Y-67310000D03*
D16*
X134620000Y-72310000D03*
D17*
X202692000Y-58420000D03*
D18*
X205232000Y-58420000D03*
X207772000Y-58420000D03*
D17*
X146045000Y-82565000D03*
D18*
X148585000Y-82565000D03*
X146045000Y-85105000D03*
X148585000Y-85105000D03*
X146045000Y-87645000D03*
X148585000Y-87645000D03*
D21*
X231444800Y-77068860D03*
D22*
X218363800Y-77068860D03*
X195859400Y-77068860D03*
D21*
X182778400Y-77068860D03*
X231597669Y-53327873D03*
D22*
X218516669Y-53327873D03*
X196012269Y-53327873D03*
D21*
X182931269Y-53327873D03*
D23*
X182790882Y-88939353D03*
D24*
X195871882Y-88939353D03*
X218376282Y-88939353D03*
D23*
X231457282Y-88939353D03*
X182778400Y-65198367D03*
D24*
X195859400Y-65198367D03*
X218363800Y-65198367D03*
D23*
X231444800Y-65198367D03*
%LPD*%
M02*
