G04 #@! TF.GenerationSoftware,KiCad,Pcbnew,7.0.7*
G04 #@! TF.CreationDate,2023-10-16T09:33:33-07:00*
G04 #@! TF.ProjectId,Soil Power Sensor,536f696c-2050-46f7-9765-722053656e73,2.1.0*
G04 #@! TF.SameCoordinates,Original*
G04 #@! TF.FileFunction,Copper,L2,Bot*
G04 #@! TF.FilePolarity,Positive*
%FSLAX46Y46*%
G04 Gerber Fmt 4.6, Leading zero omitted, Abs format (unit mm)*
G04 Created by KiCad (PCBNEW 7.0.7) date 2023-10-16 09:33:33*
%MOMM*%
%LPD*%
G01*
G04 APERTURE LIST*
G04 #@! TA.AperFunction,ComponentPad*
%ADD10R,3.000000X1.500000*%
G04 #@! TD*
G04 #@! TA.AperFunction,ComponentPad*
%ADD11O,3.000000X1.500000*%
G04 #@! TD*
G04 #@! TA.AperFunction,ComponentPad*
%ADD12R,1.700000X1.700000*%
G04 #@! TD*
G04 #@! TA.AperFunction,ComponentPad*
%ADD13O,1.700000X1.700000*%
G04 #@! TD*
G04 #@! TA.AperFunction,ComponentPad*
%ADD14R,1.500000X3.000000*%
G04 #@! TD*
G04 #@! TA.AperFunction,ComponentPad*
%ADD15O,1.500000X3.000000*%
G04 #@! TD*
G04 #@! TA.AperFunction,SMDPad,CuDef*
%ADD16R,3.962400X2.336800*%
G04 #@! TD*
G04 #@! TA.AperFunction,SMDPad,CuDef*
%ADD17R,3.962400X5.080000*%
G04 #@! TD*
G04 #@! TA.AperFunction,ViaPad*
%ADD18C,0.600000*%
G04 #@! TD*
G04 #@! TA.AperFunction,Conductor*
%ADD19C,0.200000*%
G04 #@! TD*
G04 APERTURE END LIST*
D10*
X134620000Y-82550000D03*
D11*
X134620000Y-87550000D03*
D12*
X157480000Y-87630000D03*
D13*
X154940000Y-87630000D03*
D12*
X157540000Y-82550000D03*
D13*
X155000000Y-82550000D03*
D10*
X134620000Y-53340000D03*
D11*
X134620000Y-58340000D03*
D12*
X146000000Y-78000000D03*
D13*
X148540000Y-78000000D03*
D14*
X177640000Y-55880000D03*
D15*
X172640000Y-55880000D03*
X167640000Y-55880000D03*
D10*
X134620000Y-67310000D03*
D11*
X134620000Y-72310000D03*
D12*
X202692000Y-58420000D03*
D13*
X205232000Y-58420000D03*
X207772000Y-58420000D03*
D12*
X146045000Y-82565000D03*
D13*
X148585000Y-82565000D03*
X146045000Y-85105000D03*
X148585000Y-85105000D03*
X146045000Y-87645000D03*
X148585000Y-87645000D03*
D16*
X231444800Y-77068860D03*
D17*
X218363800Y-77068860D03*
X195859400Y-77068860D03*
D16*
X182778400Y-77068860D03*
X231597669Y-53327873D03*
D17*
X218516669Y-53327873D03*
X196012269Y-53327873D03*
D16*
X182931269Y-53327873D03*
X182790882Y-88939353D03*
D17*
X195871882Y-88939353D03*
X218376282Y-88939353D03*
D16*
X231457282Y-88939353D03*
X182778400Y-65198367D03*
D17*
X195859400Y-65198367D03*
X218363800Y-65198367D03*
D16*
X231444800Y-65198367D03*
D18*
X151790000Y-51410000D03*
X198380000Y-71392500D03*
X160710000Y-66480000D03*
X200980000Y-71392500D03*
X208540000Y-79690000D03*
X157871500Y-61800000D03*
X167400000Y-63830000D03*
X208540000Y-72770000D03*
X173740000Y-63830000D03*
X146340000Y-57000000D03*
X172290000Y-80120000D03*
X239640000Y-76200000D03*
X209170000Y-63500000D03*
X202190000Y-63280000D03*
X162620000Y-57570000D03*
X143530000Y-65760000D03*
X150990000Y-77120000D03*
X201730000Y-61180000D03*
X144890000Y-60420000D03*
X144250000Y-75710000D03*
X153160000Y-53310000D03*
X173040000Y-81950000D03*
X162650000Y-63610000D03*
X178170000Y-62870000D03*
X188860000Y-62054500D03*
X204510000Y-91430000D03*
X159790000Y-58670000D03*
X204520000Y-87620000D03*
X178230000Y-92000000D03*
X189720000Y-59900000D03*
X172780000Y-90430000D03*
X171110000Y-78850000D03*
X149030000Y-69230000D03*
X153210000Y-69230000D03*
X175370000Y-62740000D03*
X146540000Y-55245000D03*
X203410000Y-71392500D03*
X183500000Y-80099000D03*
X203400000Y-70339500D03*
X202320000Y-65780000D03*
X203250000Y-63640000D03*
X200620000Y-78200000D03*
X205410000Y-60150000D03*
X161270000Y-74430000D03*
X163400000Y-72300000D03*
X167640000Y-69850000D03*
X160870000Y-71120000D03*
X162050000Y-67460000D03*
X168275000Y-67945000D03*
X209250000Y-82580000D03*
X207720000Y-82580000D03*
X155575000Y-61595000D03*
X156845000Y-52070000D03*
X233500000Y-91440000D03*
X151520000Y-69900000D03*
X174220000Y-80820000D03*
X202419000Y-69869000D03*
X179070000Y-66040000D03*
X178308000Y-65278000D03*
X200660000Y-69342000D03*
X189230000Y-83566000D03*
X208280000Y-90170000D03*
X184404000Y-85852000D03*
X190987208Y-81152500D03*
X199390000Y-77090000D03*
X199870000Y-84320000D03*
X178308000Y-66548000D03*
X209804000Y-87884000D03*
X210312000Y-89916000D03*
X188468000Y-83566000D03*
X161290000Y-90170000D03*
D19*
X164750000Y-66480000D02*
X167400000Y-63830000D01*
X208540000Y-79690000D02*
X208540000Y-72770000D01*
X160710000Y-66480000D02*
X164750000Y-66480000D01*
X157890000Y-61550000D02*
X157890000Y-61781500D01*
X167400000Y-63830000D02*
X173740000Y-63830000D01*
X157890000Y-61550000D02*
X157890000Y-52369709D01*
X156930291Y-51410000D02*
X151790000Y-51410000D01*
X157890000Y-52369709D02*
X156930291Y-51410000D01*
X157890000Y-61781500D02*
X157871500Y-61800000D01*
X200980000Y-71392500D02*
X198380000Y-71392500D01*
X231457282Y-88939353D02*
X235630647Y-88939353D01*
X188860000Y-60760000D02*
X189720000Y-59900000D01*
X217640000Y-70440000D02*
X216110000Y-70440000D01*
X202190000Y-63280000D02*
X202190000Y-61640000D01*
X239640000Y-74350000D02*
X238280000Y-72990000D01*
X239640000Y-76200000D02*
X239640000Y-74350000D01*
X178230000Y-92000000D02*
X174350000Y-92000000D01*
X174350000Y-92000000D02*
X172780000Y-90430000D01*
X188860000Y-62054500D02*
X188860000Y-60760000D01*
X218376282Y-88939353D02*
X231457282Y-88939353D01*
X235730000Y-70440000D02*
X217640000Y-70440000D01*
X204510000Y-91430000D02*
X204510000Y-87630000D01*
X239640000Y-84930000D02*
X239640000Y-76200000D01*
X238280000Y-72990000D02*
X235730000Y-70440000D01*
X204510000Y-87630000D02*
X204520000Y-87620000D01*
X160890000Y-57570000D02*
X159790000Y-58670000D01*
X235630647Y-88939353D02*
X239640000Y-84930000D01*
X162620000Y-57570000D02*
X160890000Y-57570000D01*
X216110000Y-70440000D02*
X209170000Y-63500000D01*
X202190000Y-61640000D02*
X201730000Y-61180000D01*
X162840000Y-78850000D02*
X171110000Y-78850000D01*
X153220000Y-69230000D02*
X162840000Y-78850000D01*
X149030000Y-69230000D02*
X153210000Y-69230000D01*
X153210000Y-69230000D02*
X153220000Y-69230000D01*
X154730000Y-62740000D02*
X175370000Y-62740000D01*
X146540000Y-55245000D02*
X147235000Y-55245000D01*
X147235000Y-55245000D02*
X154730000Y-62740000D01*
X205410000Y-60150000D02*
X203250000Y-62310000D01*
X198721000Y-80099000D02*
X200620000Y-78200000D01*
X203410000Y-71392500D02*
X203410000Y-75410000D01*
X202320000Y-68070000D02*
X203400000Y-69150000D01*
X203410000Y-75410000D02*
X200620000Y-78200000D01*
X202320000Y-65780000D02*
X202320000Y-68070000D01*
X178440000Y-56680000D02*
X177640000Y-55880000D01*
X205232000Y-58420000D02*
X203492000Y-56680000D01*
X203400000Y-69150000D02*
X203400000Y-70339500D01*
X203492000Y-56680000D02*
X178440000Y-56680000D01*
X183500000Y-80099000D02*
X198721000Y-80099000D01*
X203250000Y-62310000D02*
X203250000Y-63640000D01*
X161270000Y-74430000D02*
X163400000Y-72300000D01*
X160870000Y-71120000D02*
X162050000Y-69940000D01*
X160870000Y-71120000D02*
X160880000Y-71130000D01*
X160880000Y-71130000D02*
X166360000Y-71130000D01*
X166360000Y-71130000D02*
X167640000Y-69850000D01*
X168275000Y-67945000D02*
X167640000Y-68580000D01*
X162050000Y-69940000D02*
X162050000Y-67460000D01*
X167640000Y-68580000D02*
X167640000Y-69850000D01*
X207720000Y-82580000D02*
X209250000Y-82580000D01*
X231597669Y-53327873D02*
X218516669Y-53327873D01*
X207772000Y-58420000D02*
X213424542Y-58420000D01*
X213424542Y-58420000D02*
X218516669Y-53327873D01*
X155575000Y-53340000D02*
X156845000Y-52070000D01*
X155575000Y-61595000D02*
X155575000Y-53340000D01*
X200276209Y-80625500D02*
X212390709Y-92740000D01*
X174414500Y-80625500D02*
X200276209Y-80625500D01*
X174220000Y-80820000D02*
X173690000Y-81350000D01*
X232200000Y-92740000D02*
X233500000Y-91440000D01*
X212390709Y-92740000D02*
X232200000Y-92740000D01*
X173690000Y-81350000D02*
X162970000Y-81350000D01*
X174220000Y-80820000D02*
X174414500Y-80625500D01*
X162970000Y-81350000D02*
X151520000Y-69900000D01*
X183896000Y-69850000D02*
X183915000Y-69869000D01*
X202438000Y-69850000D02*
X202419000Y-69869000D01*
X179070000Y-66040000D02*
X182880000Y-69850000D01*
X183915000Y-69869000D02*
X202419000Y-69869000D01*
X182880000Y-69850000D02*
X183896000Y-69850000D01*
X178308000Y-65278000D02*
X179053291Y-65278000D01*
X179597000Y-65827000D02*
X183112000Y-69342000D01*
X183112000Y-69342000D02*
X200660000Y-69342000D01*
X179053291Y-65278000D02*
X179597000Y-65821709D01*
X179597000Y-65821709D02*
X179597000Y-65827000D01*
X189230000Y-83566000D02*
X201676000Y-83566000D01*
X201676000Y-83566000D02*
X208280000Y-90170000D01*
X188507500Y-81152500D02*
X184404000Y-85256000D01*
X190987208Y-81152500D02*
X188507500Y-81152500D01*
X184404000Y-85256000D02*
X184404000Y-85852000D01*
X182790882Y-88939353D02*
X195871882Y-88939353D01*
X199390000Y-77090000D02*
X199368860Y-77068860D01*
X195859400Y-77068860D02*
X182778400Y-77068860D01*
X195871882Y-88939353D02*
X195871882Y-88318118D01*
X195871882Y-88318118D02*
X199870000Y-84320000D01*
X199368860Y-77068860D02*
X195859400Y-77068860D01*
X218363800Y-65198367D02*
X218363800Y-64639567D01*
X218363800Y-64639567D02*
X216697233Y-62973000D01*
X216697233Y-62973000D02*
X208951709Y-62973000D01*
X218363800Y-65198367D02*
X231444800Y-65198367D01*
X208610000Y-67315060D02*
X218363800Y-77068860D01*
X218363800Y-77068860D02*
X231444800Y-77068860D01*
X208951709Y-62973000D02*
X208610000Y-63314709D01*
X208610000Y-63314709D02*
X208610000Y-67315060D01*
X176327033Y-58747000D02*
X168375313Y-58747000D01*
X168060440Y-53327873D02*
X182931269Y-53327873D01*
X182931269Y-53327873D02*
X196012269Y-53327873D01*
X166663000Y-54725313D02*
X168060440Y-53327873D01*
X182778400Y-65198367D02*
X176327033Y-58747000D01*
X166663000Y-57034687D02*
X166663000Y-54725313D01*
X168375313Y-58747000D02*
X166663000Y-57034687D01*
X182778400Y-65198367D02*
X195859400Y-65198367D01*
X208114805Y-70866000D02*
X182626000Y-70866000D01*
X210004000Y-72755195D02*
X208114805Y-70866000D01*
X182626000Y-70866000D02*
X178308000Y-66548000D01*
X209804000Y-87884000D02*
X210004000Y-87684000D01*
X210004000Y-87684000D02*
X210004000Y-72755195D01*
X196342000Y-58420000D02*
X170180000Y-58420000D01*
X210331000Y-89897000D02*
X210331000Y-72409000D01*
X210312000Y-89916000D02*
X210331000Y-89897000D01*
X170180000Y-58420000D02*
X167640000Y-55880000D01*
X210331000Y-72409000D02*
X196342000Y-58420000D01*
X165081000Y-86379000D02*
X185655000Y-86379000D01*
X161290000Y-90170000D02*
X165081000Y-86379000D01*
X185655000Y-86379000D02*
X188468000Y-83566000D01*
G04 #@! TA.AperFunction,Conductor*
G36*
X161495203Y-80724883D02*
G01*
X161501666Y-80730901D01*
X162008502Y-81237737D01*
X162514669Y-81743904D01*
X162520020Y-81750005D01*
X162541718Y-81778282D01*
X162644480Y-81857134D01*
X162667159Y-81874536D01*
X162813238Y-81935044D01*
X162891618Y-81945363D01*
X162969999Y-81955682D01*
X162970000Y-81955682D01*
X163005329Y-81951030D01*
X163013428Y-81950500D01*
X173646572Y-81950500D01*
X173654670Y-81951030D01*
X173690000Y-81955682D01*
X173690001Y-81955682D01*
X173742253Y-81948802D01*
X173846762Y-81935044D01*
X173992841Y-81874536D01*
X174015520Y-81857134D01*
X174118282Y-81778282D01*
X174139983Y-81749999D01*
X174145311Y-81743922D01*
X174238535Y-81650698D01*
X174299856Y-81617215D01*
X174312311Y-81615163D01*
X174399255Y-81605368D01*
X174569522Y-81545789D01*
X174722262Y-81449816D01*
X174849816Y-81322262D01*
X174849820Y-81322256D01*
X174873841Y-81284028D01*
X174926175Y-81237737D01*
X174978834Y-81226000D01*
X178946000Y-81226000D01*
X179013039Y-81245685D01*
X179058794Y-81298489D01*
X179070000Y-81350000D01*
X179070000Y-82426000D01*
X179050315Y-82493039D01*
X178997511Y-82538794D01*
X178946000Y-82550000D01*
X161414000Y-82550000D01*
X161346961Y-82530315D01*
X161301206Y-82477511D01*
X161290000Y-82426000D01*
X161290000Y-80818596D01*
X161309685Y-80751557D01*
X161362489Y-80705802D01*
X161431647Y-80695858D01*
X161495203Y-80724883D01*
G37*
G04 #@! TD.AperFunction*
G04 #@! TA.AperFunction,Conductor*
G36*
X162503039Y-49549685D02*
G01*
X162548794Y-49602489D01*
X162560000Y-49654000D01*
X162560000Y-62015500D01*
X162540315Y-62082539D01*
X162487511Y-62128294D01*
X162436000Y-62139500D01*
X158775558Y-62139500D01*
X158708519Y-62119815D01*
X158662764Y-62067011D01*
X158652820Y-61997853D01*
X158655685Y-61986130D01*
X158655318Y-61986047D01*
X158656869Y-61979249D01*
X158677065Y-61800003D01*
X158677065Y-61799996D01*
X158656869Y-61620750D01*
X158656868Y-61620745D01*
X158597288Y-61450476D01*
X158509506Y-61310772D01*
X158490500Y-61244800D01*
X158490500Y-52413136D01*
X158491031Y-52405035D01*
X158495682Y-52369709D01*
X158495682Y-52369707D01*
X158475044Y-52212948D01*
X158475044Y-52212947D01*
X158414536Y-52066868D01*
X158414535Y-52066867D01*
X158414535Y-52066866D01*
X158341463Y-51971636D01*
X158341448Y-51971618D01*
X158318281Y-51941426D01*
X158290013Y-51919735D01*
X158283917Y-51914390D01*
X157385611Y-51016085D01*
X157380271Y-51009995D01*
X157358573Y-50981718D01*
X157233132Y-50885464D01*
X157087053Y-50824956D01*
X157087051Y-50824955D01*
X156969652Y-50809500D01*
X156930291Y-50804318D01*
X156894961Y-50808969D01*
X156886863Y-50809500D01*
X152372412Y-50809500D01*
X152305373Y-50789815D01*
X152295097Y-50782445D01*
X152292263Y-50780185D01*
X152292263Y-50780184D01*
X152292262Y-50780184D01*
X152235496Y-50744515D01*
X152139523Y-50684211D01*
X151969254Y-50624631D01*
X151969249Y-50624630D01*
X151790004Y-50604435D01*
X151789996Y-50604435D01*
X151610750Y-50624630D01*
X151610745Y-50624631D01*
X151440476Y-50684211D01*
X151287737Y-50780184D01*
X151160184Y-50907737D01*
X151064211Y-51060476D01*
X151004631Y-51230745D01*
X151004630Y-51230750D01*
X150984435Y-51409996D01*
X150984435Y-51410003D01*
X151004630Y-51589249D01*
X151004631Y-51589254D01*
X151064211Y-51759523D01*
X151160183Y-51912261D01*
X151160184Y-51912262D01*
X151287738Y-52039816D01*
X151440478Y-52135789D01*
X151610744Y-52195368D01*
X151610745Y-52195368D01*
X151610750Y-52195369D01*
X151789996Y-52215565D01*
X151790000Y-52215565D01*
X151790004Y-52215565D01*
X151969249Y-52195369D01*
X151969252Y-52195368D01*
X151969255Y-52195368D01*
X152139522Y-52135789D01*
X152292262Y-52039816D01*
X152292267Y-52039810D01*
X152295097Y-52037555D01*
X152297275Y-52036665D01*
X152298158Y-52036111D01*
X152298255Y-52036265D01*
X152359783Y-52011145D01*
X152372412Y-52010500D01*
X155755902Y-52010500D01*
X155822941Y-52030185D01*
X155868696Y-52082989D01*
X155878640Y-52152147D01*
X155849615Y-52215703D01*
X155843583Y-52222181D01*
X155181096Y-52884668D01*
X155174994Y-52890019D01*
X155146720Y-52911715D01*
X155146717Y-52911718D01*
X155146718Y-52911718D01*
X155097860Y-52975391D01*
X155074161Y-53006275D01*
X155050464Y-53037158D01*
X154989956Y-53183237D01*
X154989955Y-53183239D01*
X154969318Y-53339998D01*
X154969318Y-53340000D01*
X154973969Y-53375326D01*
X154974500Y-53383427D01*
X154974500Y-61012587D01*
X154954815Y-61079626D01*
X154947450Y-61089896D01*
X154945186Y-61092734D01*
X154849211Y-61245476D01*
X154789631Y-61415745D01*
X154789630Y-61415750D01*
X154769435Y-61594996D01*
X154769435Y-61595005D01*
X154772321Y-61620622D01*
X154760266Y-61689444D01*
X154712916Y-61740822D01*
X154645306Y-61758446D01*
X154578900Y-61736719D01*
X154561420Y-61722185D01*
X151259235Y-58420000D01*
X147690320Y-54851085D01*
X147684980Y-54844995D01*
X147663282Y-54816718D01*
X147537841Y-54720464D01*
X147391762Y-54659956D01*
X147391760Y-54659955D01*
X147274361Y-54644500D01*
X147235000Y-54639318D01*
X147199670Y-54643969D01*
X147191572Y-54644500D01*
X147122412Y-54644500D01*
X147055373Y-54624815D01*
X147045097Y-54617445D01*
X147042263Y-54615185D01*
X147042263Y-54615184D01*
X147042262Y-54615184D01*
X146968046Y-54568551D01*
X146889523Y-54519211D01*
X146719254Y-54459631D01*
X146719249Y-54459630D01*
X146540004Y-54439435D01*
X146539996Y-54439435D01*
X146360750Y-54459630D01*
X146360745Y-54459631D01*
X146190476Y-54519211D01*
X146037737Y-54615184D01*
X145910184Y-54742737D01*
X145814211Y-54895476D01*
X145754631Y-55065745D01*
X145754630Y-55065750D01*
X145734435Y-55244996D01*
X145734435Y-55245003D01*
X145754630Y-55424249D01*
X145754631Y-55424254D01*
X145814211Y-55594523D01*
X145899272Y-55729895D01*
X145910184Y-55747262D01*
X146037738Y-55874816D01*
X146190478Y-55970789D01*
X146359993Y-56030105D01*
X146360745Y-56030368D01*
X146360750Y-56030369D01*
X146539996Y-56050565D01*
X146540000Y-56050565D01*
X146540004Y-56050565D01*
X146719249Y-56030369D01*
X146719252Y-56030368D01*
X146719255Y-56030368D01*
X146889522Y-55970789D01*
X146942149Y-55937720D01*
X147009381Y-55918721D01*
X147076216Y-55939088D01*
X147095799Y-55955034D01*
X154274669Y-63133904D01*
X154280022Y-63140007D01*
X154301718Y-63168283D01*
X154343294Y-63200184D01*
X154427159Y-63264536D01*
X154427162Y-63264537D01*
X154427163Y-63264538D01*
X154500198Y-63294790D01*
X154573238Y-63325044D01*
X154651619Y-63335363D01*
X154729999Y-63345682D01*
X154730000Y-63345682D01*
X154765329Y-63341030D01*
X154773428Y-63340500D01*
X166548429Y-63340500D01*
X166615468Y-63360185D01*
X166661223Y-63412989D01*
X166671167Y-63482147D01*
X166665471Y-63505454D01*
X166614630Y-63650750D01*
X166604837Y-63737668D01*
X166577770Y-63802082D01*
X166569298Y-63811465D01*
X164537584Y-65843181D01*
X164476261Y-65876666D01*
X164449903Y-65879500D01*
X161292412Y-65879500D01*
X161225373Y-65859815D01*
X161215097Y-65852445D01*
X161212263Y-65850185D01*
X161212263Y-65850184D01*
X161212262Y-65850184D01*
X161138839Y-65804049D01*
X161059523Y-65754211D01*
X160889254Y-65694631D01*
X160889249Y-65694630D01*
X160710004Y-65674435D01*
X160709996Y-65674435D01*
X160530750Y-65694630D01*
X160530745Y-65694631D01*
X160360476Y-65754211D01*
X160207737Y-65850184D01*
X160080184Y-65977737D01*
X159984211Y-66130476D01*
X159924631Y-66300745D01*
X159924630Y-66300750D01*
X159904435Y-66479996D01*
X159904435Y-66480003D01*
X159924630Y-66659249D01*
X159924631Y-66659254D01*
X159984211Y-66829523D01*
X160012099Y-66873906D01*
X160080184Y-66982262D01*
X160207738Y-67109816D01*
X160287018Y-67159631D01*
X160348675Y-67198373D01*
X160360478Y-67205789D01*
X160530745Y-67265368D01*
X160530750Y-67265369D01*
X160709996Y-67285565D01*
X160710000Y-67285565D01*
X160710004Y-67285565D01*
X160889249Y-67265369D01*
X160889252Y-67265368D01*
X160889255Y-67265368D01*
X161059522Y-67205789D01*
X161069151Y-67199739D01*
X161071325Y-67198373D01*
X161138561Y-67179372D01*
X161205396Y-67199739D01*
X161250611Y-67253006D01*
X161260518Y-67317249D01*
X161244435Y-67459995D01*
X161244435Y-67460003D01*
X161264630Y-67639249D01*
X161264631Y-67639254D01*
X161324211Y-67809523D01*
X161351321Y-67852668D01*
X161409339Y-67945003D01*
X161420185Y-67962263D01*
X161422445Y-67965097D01*
X161423334Y-67967275D01*
X161423889Y-67968158D01*
X161423734Y-67968255D01*
X161448855Y-68029783D01*
X161449500Y-68042412D01*
X161449500Y-69639902D01*
X161429815Y-69706941D01*
X161413181Y-69727583D01*
X160851465Y-70289298D01*
X160790142Y-70322783D01*
X160777668Y-70324837D01*
X160690750Y-70334630D01*
X160520478Y-70394210D01*
X160367737Y-70490184D01*
X160240184Y-70617737D01*
X160144211Y-70770476D01*
X160084631Y-70940745D01*
X160084630Y-70940750D01*
X160064435Y-71119996D01*
X160064435Y-71120003D01*
X160084630Y-71299249D01*
X160084631Y-71299254D01*
X160144211Y-71469523D01*
X160199983Y-71558283D01*
X160240184Y-71622262D01*
X160367738Y-71749816D01*
X160520478Y-71845789D01*
X160595805Y-71872147D01*
X160690745Y-71905368D01*
X160690750Y-71905369D01*
X160869996Y-71925565D01*
X160870000Y-71925565D01*
X160870004Y-71925565D01*
X161049249Y-71905369D01*
X161049252Y-71905368D01*
X161049255Y-71905368D01*
X161219522Y-71845789D01*
X161372262Y-71749816D01*
X161372262Y-71749815D01*
X161372755Y-71749506D01*
X161438727Y-71730500D01*
X162588071Y-71730500D01*
X162655110Y-71750185D01*
X162700865Y-71802989D01*
X162710809Y-71872147D01*
X162693064Y-71920473D01*
X162674211Y-71950476D01*
X162614630Y-72120750D01*
X162604837Y-72207668D01*
X162577770Y-72272082D01*
X162569298Y-72281465D01*
X161251465Y-73599298D01*
X161190142Y-73632783D01*
X161177668Y-73634837D01*
X161090750Y-73644630D01*
X160920478Y-73704210D01*
X160767737Y-73800184D01*
X160640184Y-73927737D01*
X160544211Y-74080476D01*
X160484631Y-74250745D01*
X160484630Y-74250750D01*
X160464435Y-74429996D01*
X160464435Y-74430003D01*
X160484630Y-74609249D01*
X160484631Y-74609254D01*
X160544211Y-74779523D01*
X160640183Y-74932262D01*
X160640184Y-74932262D01*
X160767738Y-75059816D01*
X160920478Y-75155789D01*
X161090745Y-75215367D01*
X161090745Y-75215368D01*
X161090750Y-75215369D01*
X161269996Y-75235565D01*
X161270000Y-75235565D01*
X161270004Y-75235565D01*
X161449249Y-75215369D01*
X161449252Y-75215368D01*
X161449255Y-75215368D01*
X161619522Y-75155789D01*
X161772262Y-75059816D01*
X161899816Y-74932262D01*
X161995789Y-74779522D01*
X162055368Y-74609255D01*
X162065161Y-74522329D01*
X162092226Y-74457918D01*
X162100690Y-74448543D01*
X163418535Y-73130698D01*
X163479856Y-73097215D01*
X163492311Y-73095163D01*
X163579255Y-73085368D01*
X163749522Y-73025789D01*
X163902262Y-72929816D01*
X164029816Y-72802262D01*
X164125789Y-72649522D01*
X164185368Y-72479255D01*
X164205565Y-72300000D01*
X164202419Y-72272082D01*
X164185369Y-72120750D01*
X164185368Y-72120745D01*
X164125788Y-71950475D01*
X164106936Y-71920473D01*
X164087935Y-71853236D01*
X164108302Y-71786401D01*
X164161570Y-71741186D01*
X164211929Y-71730500D01*
X166316572Y-71730500D01*
X166324670Y-71731030D01*
X166360000Y-71735682D01*
X166360001Y-71735682D01*
X166412253Y-71728802D01*
X166516762Y-71715044D01*
X166662841Y-71654536D01*
X166704901Y-71622262D01*
X166788282Y-71558282D01*
X166809983Y-71529999D01*
X166815311Y-71523922D01*
X167658535Y-70680698D01*
X167719856Y-70647215D01*
X167732311Y-70645163D01*
X167819255Y-70635368D01*
X167989522Y-70575789D01*
X168142262Y-70479816D01*
X168269816Y-70352262D01*
X168365789Y-70199522D01*
X168425368Y-70029255D01*
X168425369Y-70029249D01*
X168445565Y-69850003D01*
X168445565Y-69849996D01*
X168425369Y-69670750D01*
X168425368Y-69670745D01*
X168365788Y-69500476D01*
X168269813Y-69347734D01*
X168267550Y-69344896D01*
X168266659Y-69342715D01*
X168266111Y-69341842D01*
X168266264Y-69341745D01*
X168241144Y-69280209D01*
X168240500Y-69267587D01*
X168240500Y-68880097D01*
X168260185Y-68813058D01*
X168276819Y-68792416D01*
X168293535Y-68775700D01*
X168354858Y-68742215D01*
X168367315Y-68740163D01*
X168454255Y-68730368D01*
X168624522Y-68670789D01*
X168777262Y-68574816D01*
X168904816Y-68447262D01*
X169000789Y-68294522D01*
X169060368Y-68124255D01*
X169060519Y-68122916D01*
X169080565Y-67945003D01*
X169080565Y-67944996D01*
X169060369Y-67765750D01*
X169060368Y-67765745D01*
X169000788Y-67595476D01*
X168904815Y-67442737D01*
X168777262Y-67315184D01*
X168624523Y-67219211D01*
X168454254Y-67159631D01*
X168454249Y-67159630D01*
X168275004Y-67139435D01*
X168274996Y-67139435D01*
X168095750Y-67159630D01*
X168095745Y-67159631D01*
X167925476Y-67219211D01*
X167772737Y-67315184D01*
X167645184Y-67442737D01*
X167549210Y-67595478D01*
X167489630Y-67765750D01*
X167479837Y-67852668D01*
X167452770Y-67917082D01*
X167444298Y-67926465D01*
X167246096Y-68124668D01*
X167239994Y-68130019D01*
X167211716Y-68151718D01*
X167136670Y-68249523D01*
X167115462Y-68277162D01*
X167115461Y-68277163D01*
X167054957Y-68423234D01*
X167054955Y-68423239D01*
X167035000Y-68574816D01*
X167034318Y-68580000D01*
X167036975Y-68600185D01*
X167038969Y-68615326D01*
X167039500Y-68623427D01*
X167039500Y-69267587D01*
X167019815Y-69334626D01*
X167012450Y-69344896D01*
X167010186Y-69347734D01*
X166914210Y-69500478D01*
X166854630Y-69670750D01*
X166844837Y-69757668D01*
X166817770Y-69822082D01*
X166809298Y-69831465D01*
X166147584Y-70493181D01*
X166086261Y-70526666D01*
X166059903Y-70529500D01*
X162606022Y-70529500D01*
X162538983Y-70509815D01*
X162493228Y-70457011D01*
X162483284Y-70387853D01*
X162507646Y-70330014D01*
X162569409Y-70249523D01*
X162574536Y-70242841D01*
X162635044Y-70096762D01*
X162650500Y-69979361D01*
X162655682Y-69940000D01*
X162651030Y-69904669D01*
X162650500Y-69896571D01*
X162650500Y-68042412D01*
X162670185Y-67975373D01*
X162677555Y-67965097D01*
X162679810Y-67962267D01*
X162679816Y-67962262D01*
X162775789Y-67809522D01*
X162835368Y-67639255D01*
X162835369Y-67639249D01*
X162855565Y-67460003D01*
X162855565Y-67459996D01*
X162835369Y-67280750D01*
X162835367Y-67280740D01*
X162823020Y-67245456D01*
X162819457Y-67175677D01*
X162854186Y-67115049D01*
X162916179Y-67082822D01*
X162940061Y-67080500D01*
X164706572Y-67080500D01*
X164714670Y-67081030D01*
X164750000Y-67085682D01*
X164750001Y-67085682D01*
X164802254Y-67078802D01*
X164906762Y-67065044D01*
X165052841Y-67004536D01*
X165081869Y-66982262D01*
X165178282Y-66908282D01*
X165199983Y-66879999D01*
X165205311Y-66873922D01*
X167418535Y-64660698D01*
X167479856Y-64627215D01*
X167492311Y-64625163D01*
X167579255Y-64615368D01*
X167749522Y-64555789D01*
X167902262Y-64459816D01*
X167902267Y-64459810D01*
X167905097Y-64457555D01*
X167907275Y-64456665D01*
X167908158Y-64456111D01*
X167908255Y-64456265D01*
X167969783Y-64431145D01*
X167982412Y-64430500D01*
X173157588Y-64430500D01*
X173224627Y-64450185D01*
X173234903Y-64457555D01*
X173237736Y-64459814D01*
X173237738Y-64459816D01*
X173351270Y-64531152D01*
X173384783Y-64552211D01*
X173390478Y-64555789D01*
X173560742Y-64615367D01*
X173560745Y-64615368D01*
X173560750Y-64615369D01*
X173739996Y-64635565D01*
X173740000Y-64635565D01*
X173740004Y-64635565D01*
X173919249Y-64615369D01*
X173919252Y-64615368D01*
X173919255Y-64615368D01*
X174089522Y-64555789D01*
X174242262Y-64459816D01*
X174369816Y-64332262D01*
X174465789Y-64179522D01*
X174525368Y-64009255D01*
X174545565Y-63830000D01*
X174542419Y-63802082D01*
X174525369Y-63650750D01*
X174525367Y-63650742D01*
X174474529Y-63505454D01*
X174470968Y-63435676D01*
X174505697Y-63375048D01*
X174567690Y-63342821D01*
X174591571Y-63340500D01*
X174787588Y-63340500D01*
X174854627Y-63360185D01*
X174864903Y-63367555D01*
X174867736Y-63369814D01*
X174867738Y-63369816D01*
X175020478Y-63465789D01*
X175133834Y-63505454D01*
X175190745Y-63525368D01*
X175190750Y-63525369D01*
X175369996Y-63545565D01*
X175370000Y-63545565D01*
X175370004Y-63545565D01*
X175549249Y-63525369D01*
X175549252Y-63525368D01*
X175549255Y-63525368D01*
X175719522Y-63465789D01*
X175872262Y-63369816D01*
X175999816Y-63242262D01*
X176095789Y-63089522D01*
X176155368Y-62919255D01*
X176175565Y-62740000D01*
X176155368Y-62560745D01*
X176155367Y-62560742D01*
X176097356Y-62394954D01*
X176093795Y-62325176D01*
X176128524Y-62264548D01*
X176190517Y-62232321D01*
X176214398Y-62230000D01*
X178909436Y-62230000D01*
X178976475Y-62249685D01*
X178997116Y-62266318D01*
X179033681Y-62302883D01*
X179067166Y-62364203D01*
X179070000Y-62390563D01*
X179070000Y-64553500D01*
X179050315Y-64620539D01*
X178997511Y-64666294D01*
X178946000Y-64677500D01*
X178890412Y-64677500D01*
X178823373Y-64657815D01*
X178813097Y-64650445D01*
X178810263Y-64648185D01*
X178810263Y-64648184D01*
X178810262Y-64648184D01*
X178753496Y-64612515D01*
X178657523Y-64552211D01*
X178487254Y-64492631D01*
X178487249Y-64492630D01*
X178308004Y-64472435D01*
X178307996Y-64472435D01*
X178128750Y-64492630D01*
X178128745Y-64492631D01*
X177958476Y-64552211D01*
X177805737Y-64648184D01*
X177678184Y-64775737D01*
X177582211Y-64928476D01*
X177522631Y-65098745D01*
X177522630Y-65098750D01*
X177502435Y-65277996D01*
X177502435Y-65278003D01*
X177522630Y-65457249D01*
X177522631Y-65457254D01*
X177582211Y-65627523D01*
X177678184Y-65780262D01*
X177678185Y-65780263D01*
X177723241Y-65825320D01*
X177756725Y-65886643D01*
X177751740Y-65956335D01*
X177723241Y-66000680D01*
X177678184Y-66045737D01*
X177582211Y-66198476D01*
X177522631Y-66368745D01*
X177522630Y-66368750D01*
X177502435Y-66547996D01*
X177502435Y-66548003D01*
X177522630Y-66727249D01*
X177522631Y-66727254D01*
X177582211Y-66897523D01*
X177678183Y-67050262D01*
X177678184Y-67050262D01*
X177805738Y-67177816D01*
X177958478Y-67273789D01*
X178128745Y-67333368D01*
X178215669Y-67343161D01*
X178280080Y-67370226D01*
X178289465Y-67378700D01*
X179033681Y-68122916D01*
X179067166Y-68184239D01*
X179070000Y-68210597D01*
X179070000Y-79901000D01*
X179050315Y-79968039D01*
X178997511Y-80013794D01*
X178946000Y-80025000D01*
X174457934Y-80025000D01*
X174449834Y-80024469D01*
X174414500Y-80019817D01*
X174414499Y-80019817D01*
X174361850Y-80026748D01*
X174331782Y-80027029D01*
X174220003Y-80014435D01*
X174219996Y-80014435D01*
X174040750Y-80034630D01*
X174040745Y-80034631D01*
X173870476Y-80094211D01*
X173717737Y-80190184D01*
X173590184Y-80317737D01*
X173494210Y-80470478D01*
X173434629Y-80640753D01*
X173433080Y-80647541D01*
X173431506Y-80647181D01*
X173407723Y-80703792D01*
X173350131Y-80743350D01*
X173311565Y-80749500D01*
X163270097Y-80749500D01*
X163203058Y-80729815D01*
X163182416Y-80713181D01*
X152511416Y-70042181D01*
X152477931Y-69980858D01*
X152482915Y-69911166D01*
X152524787Y-69855233D01*
X152590251Y-69830816D01*
X152599097Y-69830500D01*
X152627588Y-69830500D01*
X152694627Y-69850185D01*
X152704903Y-69857555D01*
X152707736Y-69859814D01*
X152707738Y-69859816D01*
X152860478Y-69955789D01*
X153030745Y-70015367D01*
X153030745Y-70015368D01*
X153030750Y-70015369D01*
X153128936Y-70026431D01*
X153193350Y-70053497D01*
X153202734Y-70061969D01*
X162384681Y-79243917D01*
X162390026Y-79250013D01*
X162411718Y-79278282D01*
X162431938Y-79293797D01*
X162441909Y-79301448D01*
X162441927Y-79301463D01*
X162537157Y-79374535D01*
X162537158Y-79374535D01*
X162537159Y-79374536D01*
X162683238Y-79435044D01*
X162761619Y-79445363D01*
X162839999Y-79455682D01*
X162840000Y-79455682D01*
X162875329Y-79451030D01*
X162883428Y-79450500D01*
X170527588Y-79450500D01*
X170594627Y-79470185D01*
X170604903Y-79477555D01*
X170607736Y-79479814D01*
X170607738Y-79479816D01*
X170760478Y-79575789D01*
X170930745Y-79635367D01*
X170930745Y-79635368D01*
X170930750Y-79635369D01*
X171109996Y-79655565D01*
X171110000Y-79655565D01*
X171110004Y-79655565D01*
X171289249Y-79635369D01*
X171289252Y-79635368D01*
X171289255Y-79635368D01*
X171459522Y-79575789D01*
X171612262Y-79479816D01*
X171739816Y-79352262D01*
X171835789Y-79199522D01*
X171895368Y-79029255D01*
X171910171Y-78897873D01*
X171915565Y-78850003D01*
X171915565Y-78849996D01*
X171895369Y-78670750D01*
X171895368Y-78670745D01*
X171835788Y-78500476D01*
X171739815Y-78347737D01*
X171612262Y-78220184D01*
X171459523Y-78124211D01*
X171289254Y-78064631D01*
X171289249Y-78064630D01*
X171110004Y-78044435D01*
X171109996Y-78044435D01*
X170930750Y-78064630D01*
X170930745Y-78064631D01*
X170760476Y-78124211D01*
X170607736Y-78220185D01*
X170604903Y-78222445D01*
X170602724Y-78223334D01*
X170601842Y-78223889D01*
X170601744Y-78223734D01*
X170540217Y-78248855D01*
X170527588Y-78249500D01*
X163140098Y-78249500D01*
X163073059Y-78229815D01*
X163052417Y-78213181D01*
X154039431Y-69200196D01*
X154005946Y-69138873D01*
X154003892Y-69126398D01*
X153995369Y-69050749D01*
X153995368Y-69050745D01*
X153935788Y-68880476D01*
X153880456Y-68792416D01*
X153839816Y-68727738D01*
X153712262Y-68600184D01*
X153712262Y-68600183D01*
X153559523Y-68504211D01*
X153389254Y-68444631D01*
X153389249Y-68444630D01*
X153210004Y-68424435D01*
X153209996Y-68424435D01*
X153030750Y-68444630D01*
X153030745Y-68444631D01*
X152860476Y-68504211D01*
X152707736Y-68600185D01*
X152704903Y-68602445D01*
X152702724Y-68603334D01*
X152701842Y-68603889D01*
X152701744Y-68603734D01*
X152640217Y-68628855D01*
X152627588Y-68629500D01*
X149612412Y-68629500D01*
X149545373Y-68609815D01*
X149535097Y-68602445D01*
X149532263Y-68600185D01*
X149532263Y-68600184D01*
X149532262Y-68600184D01*
X149475496Y-68564515D01*
X149379523Y-68504211D01*
X149209254Y-68444631D01*
X149209249Y-68444630D01*
X149030004Y-68424435D01*
X149029996Y-68424435D01*
X148850750Y-68444630D01*
X148850745Y-68444631D01*
X148680476Y-68504211D01*
X148527737Y-68600184D01*
X148400184Y-68727737D01*
X148304211Y-68880476D01*
X148244631Y-69050745D01*
X148244630Y-69050750D01*
X148224435Y-69229996D01*
X148224435Y-69230003D01*
X148244630Y-69409249D01*
X148244631Y-69409254D01*
X148304211Y-69579523D01*
X148361530Y-69670745D01*
X148400184Y-69732262D01*
X148527738Y-69859816D01*
X148680478Y-69955789D01*
X148850745Y-70015367D01*
X148850745Y-70015368D01*
X148850750Y-70015369D01*
X149029996Y-70035565D01*
X149030000Y-70035565D01*
X149030004Y-70035565D01*
X149209249Y-70015369D01*
X149209252Y-70015368D01*
X149209255Y-70015368D01*
X149379522Y-69955789D01*
X149532262Y-69859816D01*
X149532267Y-69859810D01*
X149535097Y-69857555D01*
X149537275Y-69856665D01*
X149538158Y-69856111D01*
X149538255Y-69856265D01*
X149599783Y-69831145D01*
X149612412Y-69830500D01*
X150595791Y-69830500D01*
X150662830Y-69850185D01*
X150708585Y-69902989D01*
X150719011Y-69940617D01*
X150734630Y-70079249D01*
X150734631Y-70079254D01*
X150794211Y-70249523D01*
X150881130Y-70387853D01*
X150890184Y-70402262D01*
X151017738Y-70529816D01*
X151170478Y-70625789D01*
X151340745Y-70685368D01*
X151427669Y-70695161D01*
X151492080Y-70722226D01*
X151501465Y-70730700D01*
X160569084Y-79798319D01*
X160602569Y-79859642D01*
X160597585Y-79929334D01*
X160555713Y-79985267D01*
X160490249Y-80009684D01*
X160481403Y-80010000D01*
X142364000Y-80010000D01*
X142296961Y-79990315D01*
X142251206Y-79937511D01*
X142240000Y-79886000D01*
X142240000Y-78897870D01*
X144649500Y-78897870D01*
X144649501Y-78897876D01*
X144655908Y-78957483D01*
X144706202Y-79092328D01*
X144706206Y-79092335D01*
X144792452Y-79207544D01*
X144792455Y-79207547D01*
X144907664Y-79293793D01*
X144907671Y-79293797D01*
X145042517Y-79344091D01*
X145042516Y-79344091D01*
X145049444Y-79344835D01*
X145102127Y-79350500D01*
X146897872Y-79350499D01*
X146957483Y-79344091D01*
X147092331Y-79293796D01*
X147207546Y-79207546D01*
X147293796Y-79092331D01*
X147342810Y-78960916D01*
X147384681Y-78904984D01*
X147450145Y-78880566D01*
X147518418Y-78895417D01*
X147546673Y-78916569D01*
X147668599Y-79038495D01*
X147765384Y-79106265D01*
X147862165Y-79174032D01*
X147862167Y-79174033D01*
X147862170Y-79174035D01*
X148076337Y-79273903D01*
X148304592Y-79335063D01*
X148481034Y-79350500D01*
X148539999Y-79355659D01*
X148540000Y-79355659D01*
X148540001Y-79355659D01*
X148598966Y-79350500D01*
X148775408Y-79335063D01*
X149003663Y-79273903D01*
X149217830Y-79174035D01*
X149411401Y-79038495D01*
X149578495Y-78871401D01*
X149714035Y-78677830D01*
X149813903Y-78463663D01*
X149875063Y-78235408D01*
X149895659Y-78000000D01*
X149875063Y-77764592D01*
X149813903Y-77536337D01*
X149714035Y-77322171D01*
X149578495Y-77128599D01*
X149578494Y-77128597D01*
X149411402Y-76961506D01*
X149411395Y-76961501D01*
X149217834Y-76825967D01*
X149217830Y-76825965D01*
X149217829Y-76825964D01*
X149003663Y-76726097D01*
X149003659Y-76726096D01*
X149003655Y-76726094D01*
X148775413Y-76664938D01*
X148775403Y-76664936D01*
X148540001Y-76644341D01*
X148539999Y-76644341D01*
X148304596Y-76664936D01*
X148304586Y-76664938D01*
X148076344Y-76726094D01*
X148076335Y-76726098D01*
X147862171Y-76825964D01*
X147862169Y-76825965D01*
X147668600Y-76961503D01*
X147546673Y-77083430D01*
X147485350Y-77116914D01*
X147415658Y-77111930D01*
X147359725Y-77070058D01*
X147342810Y-77039081D01*
X147293797Y-76907671D01*
X147293793Y-76907664D01*
X147207547Y-76792455D01*
X147207544Y-76792452D01*
X147092335Y-76706206D01*
X147092328Y-76706202D01*
X146957482Y-76655908D01*
X146957483Y-76655908D01*
X146897883Y-76649501D01*
X146897881Y-76649500D01*
X146897873Y-76649500D01*
X146897864Y-76649500D01*
X145102129Y-76649500D01*
X145102123Y-76649501D01*
X145042516Y-76655908D01*
X144907671Y-76706202D01*
X144907664Y-76706206D01*
X144792455Y-76792452D01*
X144792452Y-76792455D01*
X144706206Y-76907664D01*
X144706202Y-76907671D01*
X144655908Y-77042517D01*
X144649501Y-77102116D01*
X144649500Y-77102135D01*
X144649500Y-78897870D01*
X142240000Y-78897870D01*
X142240000Y-49654000D01*
X142259685Y-49586961D01*
X142312489Y-49541206D01*
X142364000Y-49530000D01*
X162436000Y-49530000D01*
X162503039Y-49549685D01*
G37*
G04 #@! TD.AperFunction*
M02*
