G04 #@! TF.GenerationSoftware,KiCad,Pcbnew,7.0.7*
G04 #@! TF.CreationDate,2023-10-14T20:38:56-07:00*
G04 #@! TF.ProjectId,Soil Power Sensor,536f696c-2050-46f7-9765-722053656e73,2.1.0*
G04 #@! TF.SameCoordinates,Original*
G04 #@! TF.FileFunction,Legend,Bot*
G04 #@! TF.FilePolarity,Positive*
%FSLAX46Y46*%
G04 Gerber Fmt 4.6, Leading zero omitted, Abs format (unit mm)*
G04 Created by KiCad (PCBNEW 7.0.7) date 2023-10-14 20:38:56*
%MOMM*%
%LPD*%
G01*
G04 APERTURE LIST*
G04 Aperture macros list*
%AMRoundRect*
0 Rectangle with rounded corners*
0 $1 Rounding radius*
0 $2 $3 $4 $5 $6 $7 $8 $9 X,Y pos of 4 corners*
0 Add a 4 corners polygon primitive as box body*
4,1,4,$2,$3,$4,$5,$6,$7,$8,$9,$2,$3,0*
0 Add four circle primitives for the rounded corners*
1,1,$1+$1,$2,$3*
1,1,$1+$1,$4,$5*
1,1,$1+$1,$6,$7*
1,1,$1+$1,$8,$9*
0 Add four rect primitives between the rounded corners*
20,1,$1+$1,$2,$3,$4,$5,0*
20,1,$1+$1,$4,$5,$6,$7,0*
20,1,$1+$1,$6,$7,$8,$9,0*
20,1,$1+$1,$8,$9,$2,$3,0*%
G04 Aperture macros list end*
%ADD10C,0.100000*%
%ADD11C,0.300000*%
%ADD12C,0.150000*%
%ADD13C,0.152400*%
%ADD14C,0.076200*%
%ADD15R,1.700000X1.700000*%
%ADD16O,1.700000X1.700000*%
%ADD17O,3.000000X1.500000*%
%ADD18R,3.000000X1.500000*%
%ADD19R,1.500000X3.000000*%
%ADD20O,1.500000X3.000000*%
%ADD21RoundRect,0.101600X1.981200X1.168400X-1.981200X1.168400X-1.981200X-1.168400X1.981200X-1.168400X0*%
%ADD22RoundRect,0.101600X1.981200X2.540000X-1.981200X2.540000X-1.981200X-2.540000X1.981200X-2.540000X0*%
%ADD23RoundRect,0.101600X-1.981200X-1.168400X1.981200X-1.168400X1.981200X1.168400X-1.981200X1.168400X0*%
%ADD24RoundRect,0.101600X-1.981200X-2.540000X1.981200X-2.540000X1.981200X2.540000X-1.981200X2.540000X0*%
G04 APERTURE END LIST*
D10*
X154562419Y-61161027D02*
X155562419Y-61494360D01*
X155562419Y-61494360D02*
X154562419Y-61827693D01*
X155562419Y-62303884D02*
X155514800Y-62208646D01*
X155514800Y-62208646D02*
X155467180Y-62161027D01*
X155467180Y-62161027D02*
X155371942Y-62113408D01*
X155371942Y-62113408D02*
X155086228Y-62113408D01*
X155086228Y-62113408D02*
X154990990Y-62161027D01*
X154990990Y-62161027D02*
X154943371Y-62208646D01*
X154943371Y-62208646D02*
X154895752Y-62303884D01*
X154895752Y-62303884D02*
X154895752Y-62446741D01*
X154895752Y-62446741D02*
X154943371Y-62541979D01*
X154943371Y-62541979D02*
X154990990Y-62589598D01*
X154990990Y-62589598D02*
X155086228Y-62637217D01*
X155086228Y-62637217D02*
X155371942Y-62637217D01*
X155371942Y-62637217D02*
X155467180Y-62589598D01*
X155467180Y-62589598D02*
X155514800Y-62541979D01*
X155514800Y-62541979D02*
X155562419Y-62446741D01*
X155562419Y-62446741D02*
X155562419Y-62303884D01*
X155562419Y-63208646D02*
X155514800Y-63113408D01*
X155514800Y-63113408D02*
X155419561Y-63065789D01*
X155419561Y-63065789D02*
X154562419Y-63065789D01*
X154895752Y-63446742D02*
X154895752Y-63827694D01*
X154562419Y-63589599D02*
X155419561Y-63589599D01*
X155419561Y-63589599D02*
X155514800Y-63637218D01*
X155514800Y-63637218D02*
X155562419Y-63732456D01*
X155562419Y-63732456D02*
X155562419Y-63827694D01*
X155562419Y-64589599D02*
X155038609Y-64589599D01*
X155038609Y-64589599D02*
X154943371Y-64541980D01*
X154943371Y-64541980D02*
X154895752Y-64446742D01*
X154895752Y-64446742D02*
X154895752Y-64256266D01*
X154895752Y-64256266D02*
X154943371Y-64161028D01*
X155514800Y-64589599D02*
X155562419Y-64494361D01*
X155562419Y-64494361D02*
X155562419Y-64256266D01*
X155562419Y-64256266D02*
X155514800Y-64161028D01*
X155514800Y-64161028D02*
X155419561Y-64113409D01*
X155419561Y-64113409D02*
X155324323Y-64113409D01*
X155324323Y-64113409D02*
X155229085Y-64161028D01*
X155229085Y-64161028D02*
X155181466Y-64256266D01*
X155181466Y-64256266D02*
X155181466Y-64494361D01*
X155181466Y-64494361D02*
X155133847Y-64589599D01*
X154895752Y-65494361D02*
X155705276Y-65494361D01*
X155705276Y-65494361D02*
X155800514Y-65446742D01*
X155800514Y-65446742D02*
X155848133Y-65399123D01*
X155848133Y-65399123D02*
X155895752Y-65303885D01*
X155895752Y-65303885D02*
X155895752Y-65161028D01*
X155895752Y-65161028D02*
X155848133Y-65065790D01*
X155514800Y-65494361D02*
X155562419Y-65399123D01*
X155562419Y-65399123D02*
X155562419Y-65208647D01*
X155562419Y-65208647D02*
X155514800Y-65113409D01*
X155514800Y-65113409D02*
X155467180Y-65065790D01*
X155467180Y-65065790D02*
X155371942Y-65018171D01*
X155371942Y-65018171D02*
X155086228Y-65018171D01*
X155086228Y-65018171D02*
X154990990Y-65065790D01*
X154990990Y-65065790D02*
X154943371Y-65113409D01*
X154943371Y-65113409D02*
X154895752Y-65208647D01*
X154895752Y-65208647D02*
X154895752Y-65399123D01*
X154895752Y-65399123D02*
X154943371Y-65494361D01*
X155514800Y-66351504D02*
X155562419Y-66256266D01*
X155562419Y-66256266D02*
X155562419Y-66065790D01*
X155562419Y-66065790D02*
X155514800Y-65970552D01*
X155514800Y-65970552D02*
X155419561Y-65922933D01*
X155419561Y-65922933D02*
X155038609Y-65922933D01*
X155038609Y-65922933D02*
X154943371Y-65970552D01*
X154943371Y-65970552D02*
X154895752Y-66065790D01*
X154895752Y-66065790D02*
X154895752Y-66256266D01*
X154895752Y-66256266D02*
X154943371Y-66351504D01*
X154943371Y-66351504D02*
X155038609Y-66399123D01*
X155038609Y-66399123D02*
X155133847Y-66399123D01*
X155133847Y-66399123D02*
X155229085Y-65922933D01*
X155467180Y-66827695D02*
X155514800Y-66875314D01*
X155514800Y-66875314D02*
X155562419Y-66827695D01*
X155562419Y-66827695D02*
X155514800Y-66780076D01*
X155514800Y-66780076D02*
X155467180Y-66827695D01*
X155467180Y-66827695D02*
X155562419Y-66827695D01*
X154943371Y-66827695D02*
X154990990Y-66875314D01*
X154990990Y-66875314D02*
X155038609Y-66827695D01*
X155038609Y-66827695D02*
X154990990Y-66780076D01*
X154990990Y-66780076D02*
X154943371Y-66827695D01*
X154943371Y-66827695D02*
X155038609Y-66827695D01*
X156172419Y-61161027D02*
X157172419Y-61494360D01*
X157172419Y-61494360D02*
X156172419Y-61827693D01*
X157172419Y-62303884D02*
X157124800Y-62208646D01*
X157124800Y-62208646D02*
X157077180Y-62161027D01*
X157077180Y-62161027D02*
X156981942Y-62113408D01*
X156981942Y-62113408D02*
X156696228Y-62113408D01*
X156696228Y-62113408D02*
X156600990Y-62161027D01*
X156600990Y-62161027D02*
X156553371Y-62208646D01*
X156553371Y-62208646D02*
X156505752Y-62303884D01*
X156505752Y-62303884D02*
X156505752Y-62446741D01*
X156505752Y-62446741D02*
X156553371Y-62541979D01*
X156553371Y-62541979D02*
X156600990Y-62589598D01*
X156600990Y-62589598D02*
X156696228Y-62637217D01*
X156696228Y-62637217D02*
X156981942Y-62637217D01*
X156981942Y-62637217D02*
X157077180Y-62589598D01*
X157077180Y-62589598D02*
X157124800Y-62541979D01*
X157124800Y-62541979D02*
X157172419Y-62446741D01*
X157172419Y-62446741D02*
X157172419Y-62303884D01*
X156505752Y-63494360D02*
X157172419Y-63494360D01*
X156505752Y-63065789D02*
X157029561Y-63065789D01*
X157029561Y-63065789D02*
X157124800Y-63113408D01*
X157124800Y-63113408D02*
X157172419Y-63208646D01*
X157172419Y-63208646D02*
X157172419Y-63351503D01*
X157172419Y-63351503D02*
X157124800Y-63446741D01*
X157124800Y-63446741D02*
X157077180Y-63494360D01*
X156505752Y-63827694D02*
X156505752Y-64208646D01*
X156172419Y-63970551D02*
X157029561Y-63970551D01*
X157029561Y-63970551D02*
X157124800Y-64018170D01*
X157124800Y-64018170D02*
X157172419Y-64113408D01*
X157172419Y-64113408D02*
X157172419Y-64208646D01*
X156648609Y-65303885D02*
X156648609Y-66065790D01*
X156934323Y-66065790D02*
X156934323Y-65303885D01*
X156172419Y-67161028D02*
X157172419Y-67494361D01*
X157172419Y-67494361D02*
X156172419Y-67827694D01*
X157172419Y-68161028D02*
X156505752Y-68161028D01*
X156172419Y-68161028D02*
X156220038Y-68113409D01*
X156220038Y-68113409D02*
X156267657Y-68161028D01*
X156267657Y-68161028D02*
X156220038Y-68208647D01*
X156220038Y-68208647D02*
X156172419Y-68161028D01*
X156172419Y-68161028D02*
X156267657Y-68161028D01*
X156505752Y-68637218D02*
X157172419Y-68637218D01*
X156600990Y-68637218D02*
X156553371Y-68684837D01*
X156553371Y-68684837D02*
X156505752Y-68780075D01*
X156505752Y-68780075D02*
X156505752Y-68922932D01*
X156505752Y-68922932D02*
X156553371Y-69018170D01*
X156553371Y-69018170D02*
X156648609Y-69065789D01*
X156648609Y-69065789D02*
X157172419Y-69065789D01*
X157553371Y-70589599D02*
X157505752Y-70541980D01*
X157505752Y-70541980D02*
X157362895Y-70446742D01*
X157362895Y-70446742D02*
X157267657Y-70399123D01*
X157267657Y-70399123D02*
X157124800Y-70351504D01*
X157124800Y-70351504D02*
X156886704Y-70303885D01*
X156886704Y-70303885D02*
X156696228Y-70303885D01*
X156696228Y-70303885D02*
X156458133Y-70351504D01*
X156458133Y-70351504D02*
X156315276Y-70399123D01*
X156315276Y-70399123D02*
X156220038Y-70446742D01*
X156220038Y-70446742D02*
X156077180Y-70541980D01*
X156077180Y-70541980D02*
X156029561Y-70589599D01*
X157172419Y-71541980D02*
X156696228Y-71208647D01*
X157172419Y-70970552D02*
X156172419Y-70970552D01*
X156172419Y-70970552D02*
X156172419Y-71351504D01*
X156172419Y-71351504D02*
X156220038Y-71446742D01*
X156220038Y-71446742D02*
X156267657Y-71494361D01*
X156267657Y-71494361D02*
X156362895Y-71541980D01*
X156362895Y-71541980D02*
X156505752Y-71541980D01*
X156505752Y-71541980D02*
X156600990Y-71494361D01*
X156600990Y-71494361D02*
X156648609Y-71446742D01*
X156648609Y-71446742D02*
X156696228Y-71351504D01*
X156696228Y-71351504D02*
X156696228Y-70970552D01*
X156172419Y-72446742D02*
X156172419Y-71970552D01*
X156172419Y-71970552D02*
X156648609Y-71922933D01*
X156648609Y-71922933D02*
X156600990Y-71970552D01*
X156600990Y-71970552D02*
X156553371Y-72065790D01*
X156553371Y-72065790D02*
X156553371Y-72303885D01*
X156553371Y-72303885D02*
X156600990Y-72399123D01*
X156600990Y-72399123D02*
X156648609Y-72446742D01*
X156648609Y-72446742D02*
X156743847Y-72494361D01*
X156743847Y-72494361D02*
X156981942Y-72494361D01*
X156981942Y-72494361D02*
X157077180Y-72446742D01*
X157077180Y-72446742D02*
X157124800Y-72399123D01*
X157124800Y-72399123D02*
X157172419Y-72303885D01*
X157172419Y-72303885D02*
X157172419Y-72065790D01*
X157172419Y-72065790D02*
X157124800Y-71970552D01*
X157124800Y-71970552D02*
X157077180Y-71922933D01*
X156124800Y-74399123D02*
X157410514Y-73541981D01*
X157172419Y-76065790D02*
X156696228Y-75732457D01*
X157172419Y-75494362D02*
X156172419Y-75494362D01*
X156172419Y-75494362D02*
X156172419Y-75875314D01*
X156172419Y-75875314D02*
X156220038Y-75970552D01*
X156220038Y-75970552D02*
X156267657Y-76018171D01*
X156267657Y-76018171D02*
X156362895Y-76065790D01*
X156362895Y-76065790D02*
X156505752Y-76065790D01*
X156505752Y-76065790D02*
X156600990Y-76018171D01*
X156600990Y-76018171D02*
X156648609Y-75970552D01*
X156648609Y-75970552D02*
X156696228Y-75875314D01*
X156696228Y-75875314D02*
X156696228Y-75494362D01*
X156172419Y-76399124D02*
X156172419Y-77018171D01*
X156172419Y-77018171D02*
X156553371Y-76684838D01*
X156553371Y-76684838D02*
X156553371Y-76827695D01*
X156553371Y-76827695D02*
X156600990Y-76922933D01*
X156600990Y-76922933D02*
X156648609Y-76970552D01*
X156648609Y-76970552D02*
X156743847Y-77018171D01*
X156743847Y-77018171D02*
X156981942Y-77018171D01*
X156981942Y-77018171D02*
X157077180Y-76970552D01*
X157077180Y-76970552D02*
X157124800Y-76922933D01*
X157124800Y-76922933D02*
X157172419Y-76827695D01*
X157172419Y-76827695D02*
X157172419Y-76541981D01*
X157172419Y-76541981D02*
X157124800Y-76446743D01*
X157124800Y-76446743D02*
X157077180Y-76399124D01*
X157553371Y-77351505D02*
X157505752Y-77399124D01*
X157505752Y-77399124D02*
X157362895Y-77494362D01*
X157362895Y-77494362D02*
X157267657Y-77541981D01*
X157267657Y-77541981D02*
X157124800Y-77589600D01*
X157124800Y-77589600D02*
X156886704Y-77637219D01*
X156886704Y-77637219D02*
X156696228Y-77637219D01*
X156696228Y-77637219D02*
X156458133Y-77589600D01*
X156458133Y-77589600D02*
X156315276Y-77541981D01*
X156315276Y-77541981D02*
X156220038Y-77494362D01*
X156220038Y-77494362D02*
X156077180Y-77399124D01*
X156077180Y-77399124D02*
X156029561Y-77351505D01*
X158782419Y-61875312D02*
X158306228Y-61541979D01*
X158782419Y-61303884D02*
X157782419Y-61303884D01*
X157782419Y-61303884D02*
X157782419Y-61684836D01*
X157782419Y-61684836D02*
X157830038Y-61780074D01*
X157830038Y-61780074D02*
X157877657Y-61827693D01*
X157877657Y-61827693D02*
X157972895Y-61875312D01*
X157972895Y-61875312D02*
X158115752Y-61875312D01*
X158115752Y-61875312D02*
X158210990Y-61827693D01*
X158210990Y-61827693D02*
X158258609Y-61780074D01*
X158258609Y-61780074D02*
X158306228Y-61684836D01*
X158306228Y-61684836D02*
X158306228Y-61303884D01*
X157782419Y-62780074D02*
X157782419Y-62303884D01*
X157782419Y-62303884D02*
X158258609Y-62256265D01*
X158258609Y-62256265D02*
X158210990Y-62303884D01*
X158210990Y-62303884D02*
X158163371Y-62399122D01*
X158163371Y-62399122D02*
X158163371Y-62637217D01*
X158163371Y-62637217D02*
X158210990Y-62732455D01*
X158210990Y-62732455D02*
X158258609Y-62780074D01*
X158258609Y-62780074D02*
X158353847Y-62827693D01*
X158353847Y-62827693D02*
X158591942Y-62827693D01*
X158591942Y-62827693D02*
X158687180Y-62780074D01*
X158687180Y-62780074D02*
X158734800Y-62732455D01*
X158734800Y-62732455D02*
X158782419Y-62637217D01*
X158782419Y-62637217D02*
X158782419Y-62399122D01*
X158782419Y-62399122D02*
X158734800Y-62303884D01*
X158734800Y-62303884D02*
X158687180Y-62256265D01*
X158258609Y-64018170D02*
X158258609Y-64780075D01*
X158544323Y-64780075D02*
X158544323Y-64018170D01*
X158782419Y-66589598D02*
X158306228Y-66256265D01*
X158782419Y-66018170D02*
X157782419Y-66018170D01*
X157782419Y-66018170D02*
X157782419Y-66399122D01*
X157782419Y-66399122D02*
X157830038Y-66494360D01*
X157830038Y-66494360D02*
X157877657Y-66541979D01*
X157877657Y-66541979D02*
X157972895Y-66589598D01*
X157972895Y-66589598D02*
X158115752Y-66589598D01*
X158115752Y-66589598D02*
X158210990Y-66541979D01*
X158210990Y-66541979D02*
X158258609Y-66494360D01*
X158258609Y-66494360D02*
X158306228Y-66399122D01*
X158306228Y-66399122D02*
X158306228Y-66018170D01*
X158782419Y-67541979D02*
X158782419Y-66970551D01*
X158782419Y-67256265D02*
X157782419Y-67256265D01*
X157782419Y-67256265D02*
X157925276Y-67161027D01*
X157925276Y-67161027D02*
X158020514Y-67065789D01*
X158020514Y-67065789D02*
X158068133Y-66970551D01*
X160392419Y-61875312D02*
X159916228Y-61541979D01*
X160392419Y-61303884D02*
X159392419Y-61303884D01*
X159392419Y-61303884D02*
X159392419Y-61684836D01*
X159392419Y-61684836D02*
X159440038Y-61780074D01*
X159440038Y-61780074D02*
X159487657Y-61827693D01*
X159487657Y-61827693D02*
X159582895Y-61875312D01*
X159582895Y-61875312D02*
X159725752Y-61875312D01*
X159725752Y-61875312D02*
X159820990Y-61827693D01*
X159820990Y-61827693D02*
X159868609Y-61780074D01*
X159868609Y-61780074D02*
X159916228Y-61684836D01*
X159916228Y-61684836D02*
X159916228Y-61303884D01*
X159392419Y-62208646D02*
X159392419Y-62827693D01*
X159392419Y-62827693D02*
X159773371Y-62494360D01*
X159773371Y-62494360D02*
X159773371Y-62637217D01*
X159773371Y-62637217D02*
X159820990Y-62732455D01*
X159820990Y-62732455D02*
X159868609Y-62780074D01*
X159868609Y-62780074D02*
X159963847Y-62827693D01*
X159963847Y-62827693D02*
X160201942Y-62827693D01*
X160201942Y-62827693D02*
X160297180Y-62780074D01*
X160297180Y-62780074D02*
X160344800Y-62732455D01*
X160344800Y-62732455D02*
X160392419Y-62637217D01*
X160392419Y-62637217D02*
X160392419Y-62351503D01*
X160392419Y-62351503D02*
X160344800Y-62256265D01*
X160344800Y-62256265D02*
X160297180Y-62208646D01*
X159868609Y-64018170D02*
X159868609Y-64780075D01*
X160154323Y-64780075D02*
X160154323Y-64018170D01*
X160392419Y-66589598D02*
X159916228Y-66256265D01*
X160392419Y-66018170D02*
X159392419Y-66018170D01*
X159392419Y-66018170D02*
X159392419Y-66399122D01*
X159392419Y-66399122D02*
X159440038Y-66494360D01*
X159440038Y-66494360D02*
X159487657Y-66541979D01*
X159487657Y-66541979D02*
X159582895Y-66589598D01*
X159582895Y-66589598D02*
X159725752Y-66589598D01*
X159725752Y-66589598D02*
X159820990Y-66541979D01*
X159820990Y-66541979D02*
X159868609Y-66494360D01*
X159868609Y-66494360D02*
X159916228Y-66399122D01*
X159916228Y-66399122D02*
X159916228Y-66018170D01*
X159487657Y-66970551D02*
X159440038Y-67018170D01*
X159440038Y-67018170D02*
X159392419Y-67113408D01*
X159392419Y-67113408D02*
X159392419Y-67351503D01*
X159392419Y-67351503D02*
X159440038Y-67446741D01*
X159440038Y-67446741D02*
X159487657Y-67494360D01*
X159487657Y-67494360D02*
X159582895Y-67541979D01*
X159582895Y-67541979D02*
X159678133Y-67541979D01*
X159678133Y-67541979D02*
X159820990Y-67494360D01*
X159820990Y-67494360D02*
X160392419Y-66922932D01*
X160392419Y-66922932D02*
X160392419Y-67541979D01*
X163517180Y-61875312D02*
X163564800Y-61827693D01*
X163564800Y-61827693D02*
X163612419Y-61684836D01*
X163612419Y-61684836D02*
X163612419Y-61589598D01*
X163612419Y-61589598D02*
X163564800Y-61446741D01*
X163564800Y-61446741D02*
X163469561Y-61351503D01*
X163469561Y-61351503D02*
X163374323Y-61303884D01*
X163374323Y-61303884D02*
X163183847Y-61256265D01*
X163183847Y-61256265D02*
X163040990Y-61256265D01*
X163040990Y-61256265D02*
X162850514Y-61303884D01*
X162850514Y-61303884D02*
X162755276Y-61351503D01*
X162755276Y-61351503D02*
X162660038Y-61446741D01*
X162660038Y-61446741D02*
X162612419Y-61589598D01*
X162612419Y-61589598D02*
X162612419Y-61684836D01*
X162612419Y-61684836D02*
X162660038Y-61827693D01*
X162660038Y-61827693D02*
X162707657Y-61875312D01*
X162945752Y-62732455D02*
X163612419Y-62732455D01*
X162945752Y-62303884D02*
X163469561Y-62303884D01*
X163469561Y-62303884D02*
X163564800Y-62351503D01*
X163564800Y-62351503D02*
X163612419Y-62446741D01*
X163612419Y-62446741D02*
X163612419Y-62589598D01*
X163612419Y-62589598D02*
X163564800Y-62684836D01*
X163564800Y-62684836D02*
X163517180Y-62732455D01*
X163612419Y-63208646D02*
X162945752Y-63208646D01*
X163136228Y-63208646D02*
X163040990Y-63256265D01*
X163040990Y-63256265D02*
X162993371Y-63303884D01*
X162993371Y-63303884D02*
X162945752Y-63399122D01*
X162945752Y-63399122D02*
X162945752Y-63494360D01*
X163612419Y-63827694D02*
X162945752Y-63827694D01*
X163136228Y-63827694D02*
X163040990Y-63875313D01*
X163040990Y-63875313D02*
X162993371Y-63922932D01*
X162993371Y-63922932D02*
X162945752Y-64018170D01*
X162945752Y-64018170D02*
X162945752Y-64113408D01*
X163564800Y-64827694D02*
X163612419Y-64732456D01*
X163612419Y-64732456D02*
X163612419Y-64541980D01*
X163612419Y-64541980D02*
X163564800Y-64446742D01*
X163564800Y-64446742D02*
X163469561Y-64399123D01*
X163469561Y-64399123D02*
X163088609Y-64399123D01*
X163088609Y-64399123D02*
X162993371Y-64446742D01*
X162993371Y-64446742D02*
X162945752Y-64541980D01*
X162945752Y-64541980D02*
X162945752Y-64732456D01*
X162945752Y-64732456D02*
X162993371Y-64827694D01*
X162993371Y-64827694D02*
X163088609Y-64875313D01*
X163088609Y-64875313D02*
X163183847Y-64875313D01*
X163183847Y-64875313D02*
X163279085Y-64399123D01*
X162945752Y-65303885D02*
X163612419Y-65303885D01*
X163040990Y-65303885D02*
X162993371Y-65351504D01*
X162993371Y-65351504D02*
X162945752Y-65446742D01*
X162945752Y-65446742D02*
X162945752Y-65589599D01*
X162945752Y-65589599D02*
X162993371Y-65684837D01*
X162993371Y-65684837D02*
X163088609Y-65732456D01*
X163088609Y-65732456D02*
X163612419Y-65732456D01*
X162945752Y-66065790D02*
X162945752Y-66446742D01*
X162612419Y-66208647D02*
X163469561Y-66208647D01*
X163469561Y-66208647D02*
X163564800Y-66256266D01*
X163564800Y-66256266D02*
X163612419Y-66351504D01*
X163612419Y-66351504D02*
X163612419Y-66446742D01*
X163517180Y-66780076D02*
X163564800Y-66827695D01*
X163564800Y-66827695D02*
X163612419Y-66780076D01*
X163612419Y-66780076D02*
X163564800Y-66732457D01*
X163564800Y-66732457D02*
X163517180Y-66780076D01*
X163517180Y-66780076D02*
X163612419Y-66780076D01*
X162993371Y-66780076D02*
X163040990Y-66827695D01*
X163040990Y-66827695D02*
X163088609Y-66780076D01*
X163088609Y-66780076D02*
X163040990Y-66732457D01*
X163040990Y-66732457D02*
X162993371Y-66780076D01*
X162993371Y-66780076D02*
X163088609Y-66780076D01*
X164222419Y-61161027D02*
X165222419Y-61494360D01*
X165222419Y-61494360D02*
X164222419Y-61827693D01*
X165222419Y-62303884D02*
X165174800Y-62208646D01*
X165174800Y-62208646D02*
X165127180Y-62161027D01*
X165127180Y-62161027D02*
X165031942Y-62113408D01*
X165031942Y-62113408D02*
X164746228Y-62113408D01*
X164746228Y-62113408D02*
X164650990Y-62161027D01*
X164650990Y-62161027D02*
X164603371Y-62208646D01*
X164603371Y-62208646D02*
X164555752Y-62303884D01*
X164555752Y-62303884D02*
X164555752Y-62446741D01*
X164555752Y-62446741D02*
X164603371Y-62541979D01*
X164603371Y-62541979D02*
X164650990Y-62589598D01*
X164650990Y-62589598D02*
X164746228Y-62637217D01*
X164746228Y-62637217D02*
X165031942Y-62637217D01*
X165031942Y-62637217D02*
X165127180Y-62589598D01*
X165127180Y-62589598D02*
X165174800Y-62541979D01*
X165174800Y-62541979D02*
X165222419Y-62446741D01*
X165222419Y-62446741D02*
X165222419Y-62303884D01*
X164555752Y-63494360D02*
X165222419Y-63494360D01*
X164555752Y-63065789D02*
X165079561Y-63065789D01*
X165079561Y-63065789D02*
X165174800Y-63113408D01*
X165174800Y-63113408D02*
X165222419Y-63208646D01*
X165222419Y-63208646D02*
X165222419Y-63351503D01*
X165222419Y-63351503D02*
X165174800Y-63446741D01*
X165174800Y-63446741D02*
X165127180Y-63494360D01*
X164555752Y-63827694D02*
X164555752Y-64208646D01*
X164222419Y-63970551D02*
X165079561Y-63970551D01*
X165079561Y-63970551D02*
X165174800Y-64018170D01*
X165174800Y-64018170D02*
X165222419Y-64113408D01*
X165222419Y-64113408D02*
X165222419Y-64208646D01*
X164698609Y-65303885D02*
X164698609Y-66065790D01*
X164984323Y-66065790D02*
X164984323Y-65303885D01*
X165603371Y-67589599D02*
X165555752Y-67541980D01*
X165555752Y-67541980D02*
X165412895Y-67446742D01*
X165412895Y-67446742D02*
X165317657Y-67399123D01*
X165317657Y-67399123D02*
X165174800Y-67351504D01*
X165174800Y-67351504D02*
X164936704Y-67303885D01*
X164936704Y-67303885D02*
X164746228Y-67303885D01*
X164746228Y-67303885D02*
X164508133Y-67351504D01*
X164508133Y-67351504D02*
X164365276Y-67399123D01*
X164365276Y-67399123D02*
X164270038Y-67446742D01*
X164270038Y-67446742D02*
X164127180Y-67541980D01*
X164127180Y-67541980D02*
X164079561Y-67589599D01*
X164317657Y-67922933D02*
X164270038Y-67970552D01*
X164270038Y-67970552D02*
X164222419Y-68065790D01*
X164222419Y-68065790D02*
X164222419Y-68303885D01*
X164222419Y-68303885D02*
X164270038Y-68399123D01*
X164270038Y-68399123D02*
X164317657Y-68446742D01*
X164317657Y-68446742D02*
X164412895Y-68494361D01*
X164412895Y-68494361D02*
X164508133Y-68494361D01*
X164508133Y-68494361D02*
X164650990Y-68446742D01*
X164650990Y-68446742D02*
X165222419Y-67875314D01*
X165222419Y-67875314D02*
X165222419Y-68494361D01*
X164222419Y-69113409D02*
X164222419Y-69208647D01*
X164222419Y-69208647D02*
X164270038Y-69303885D01*
X164270038Y-69303885D02*
X164317657Y-69351504D01*
X164317657Y-69351504D02*
X164412895Y-69399123D01*
X164412895Y-69399123D02*
X164603371Y-69446742D01*
X164603371Y-69446742D02*
X164841466Y-69446742D01*
X164841466Y-69446742D02*
X165031942Y-69399123D01*
X165031942Y-69399123D02*
X165127180Y-69351504D01*
X165127180Y-69351504D02*
X165174800Y-69303885D01*
X165174800Y-69303885D02*
X165222419Y-69208647D01*
X165222419Y-69208647D02*
X165222419Y-69113409D01*
X165222419Y-69113409D02*
X165174800Y-69018171D01*
X165174800Y-69018171D02*
X165127180Y-68970552D01*
X165127180Y-68970552D02*
X165031942Y-68922933D01*
X165031942Y-68922933D02*
X164841466Y-68875314D01*
X164841466Y-68875314D02*
X164603371Y-68875314D01*
X164603371Y-68875314D02*
X164412895Y-68922933D01*
X164412895Y-68922933D02*
X164317657Y-68970552D01*
X164317657Y-68970552D02*
X164270038Y-69018171D01*
X164270038Y-69018171D02*
X164222419Y-69113409D01*
X164222419Y-70065790D02*
X164222419Y-70161028D01*
X164222419Y-70161028D02*
X164270038Y-70256266D01*
X164270038Y-70256266D02*
X164317657Y-70303885D01*
X164317657Y-70303885D02*
X164412895Y-70351504D01*
X164412895Y-70351504D02*
X164603371Y-70399123D01*
X164603371Y-70399123D02*
X164841466Y-70399123D01*
X164841466Y-70399123D02*
X165031942Y-70351504D01*
X165031942Y-70351504D02*
X165127180Y-70303885D01*
X165127180Y-70303885D02*
X165174800Y-70256266D01*
X165174800Y-70256266D02*
X165222419Y-70161028D01*
X165222419Y-70161028D02*
X165222419Y-70065790D01*
X165222419Y-70065790D02*
X165174800Y-69970552D01*
X165174800Y-69970552D02*
X165127180Y-69922933D01*
X165127180Y-69922933D02*
X165031942Y-69875314D01*
X165031942Y-69875314D02*
X164841466Y-69827695D01*
X164841466Y-69827695D02*
X164603371Y-69827695D01*
X164603371Y-69827695D02*
X164412895Y-69875314D01*
X164412895Y-69875314D02*
X164317657Y-69922933D01*
X164317657Y-69922933D02*
X164270038Y-69970552D01*
X164270038Y-69970552D02*
X164222419Y-70065790D01*
X165603371Y-70732457D02*
X165555752Y-70780076D01*
X165555752Y-70780076D02*
X165412895Y-70875314D01*
X165412895Y-70875314D02*
X165317657Y-70922933D01*
X165317657Y-70922933D02*
X165174800Y-70970552D01*
X165174800Y-70970552D02*
X164936704Y-71018171D01*
X164936704Y-71018171D02*
X164746228Y-71018171D01*
X164746228Y-71018171D02*
X164508133Y-70970552D01*
X164508133Y-70970552D02*
X164365276Y-70922933D01*
X164365276Y-70922933D02*
X164270038Y-70875314D01*
X164270038Y-70875314D02*
X164127180Y-70780076D01*
X164127180Y-70780076D02*
X164079561Y-70732457D01*
X165603371Y-71780076D02*
X165555752Y-71732457D01*
X165555752Y-71732457D02*
X165412895Y-71637219D01*
X165412895Y-71637219D02*
X165317657Y-71589600D01*
X165317657Y-71589600D02*
X165174800Y-71541981D01*
X165174800Y-71541981D02*
X164936704Y-71494362D01*
X164936704Y-71494362D02*
X164746228Y-71494362D01*
X164746228Y-71494362D02*
X164508133Y-71541981D01*
X164508133Y-71541981D02*
X164365276Y-71589600D01*
X164365276Y-71589600D02*
X164270038Y-71637219D01*
X164270038Y-71637219D02*
X164127180Y-71732457D01*
X164127180Y-71732457D02*
X164079561Y-71780076D01*
X164270038Y-72684838D02*
X164222419Y-72589600D01*
X164222419Y-72589600D02*
X164222419Y-72446743D01*
X164222419Y-72446743D02*
X164270038Y-72303886D01*
X164270038Y-72303886D02*
X164365276Y-72208648D01*
X164365276Y-72208648D02*
X164460514Y-72161029D01*
X164460514Y-72161029D02*
X164650990Y-72113410D01*
X164650990Y-72113410D02*
X164793847Y-72113410D01*
X164793847Y-72113410D02*
X164984323Y-72161029D01*
X164984323Y-72161029D02*
X165079561Y-72208648D01*
X165079561Y-72208648D02*
X165174800Y-72303886D01*
X165174800Y-72303886D02*
X165222419Y-72446743D01*
X165222419Y-72446743D02*
X165222419Y-72541981D01*
X165222419Y-72541981D02*
X165174800Y-72684838D01*
X165174800Y-72684838D02*
X165127180Y-72732457D01*
X165127180Y-72732457D02*
X164793847Y-72732457D01*
X164793847Y-72732457D02*
X164793847Y-72541981D01*
X165603371Y-73065791D02*
X165555752Y-73113410D01*
X165555752Y-73113410D02*
X165412895Y-73208648D01*
X165412895Y-73208648D02*
X165317657Y-73256267D01*
X165317657Y-73256267D02*
X165174800Y-73303886D01*
X165174800Y-73303886D02*
X164936704Y-73351505D01*
X164936704Y-73351505D02*
X164746228Y-73351505D01*
X164746228Y-73351505D02*
X164508133Y-73303886D01*
X164508133Y-73303886D02*
X164365276Y-73256267D01*
X164365276Y-73256267D02*
X164270038Y-73208648D01*
X164270038Y-73208648D02*
X164127180Y-73113410D01*
X164127180Y-73113410D02*
X164079561Y-73065791D01*
X165603371Y-74113410D02*
X165555752Y-74065791D01*
X165555752Y-74065791D02*
X165412895Y-73970553D01*
X165412895Y-73970553D02*
X165317657Y-73922934D01*
X165317657Y-73922934D02*
X165174800Y-73875315D01*
X165174800Y-73875315D02*
X164936704Y-73827696D01*
X164936704Y-73827696D02*
X164746228Y-73827696D01*
X164746228Y-73827696D02*
X164508133Y-73875315D01*
X164508133Y-73875315D02*
X164365276Y-73922934D01*
X164365276Y-73922934D02*
X164270038Y-73970553D01*
X164270038Y-73970553D02*
X164127180Y-74065791D01*
X164127180Y-74065791D02*
X164079561Y-74113410D01*
X165222419Y-75065791D02*
X164746228Y-74732458D01*
X165222419Y-74494363D02*
X164222419Y-74494363D01*
X164222419Y-74494363D02*
X164222419Y-74875315D01*
X164222419Y-74875315D02*
X164270038Y-74970553D01*
X164270038Y-74970553D02*
X164317657Y-75018172D01*
X164317657Y-75018172D02*
X164412895Y-75065791D01*
X164412895Y-75065791D02*
X164555752Y-75065791D01*
X164555752Y-75065791D02*
X164650990Y-75018172D01*
X164650990Y-75018172D02*
X164698609Y-74970553D01*
X164698609Y-74970553D02*
X164746228Y-74875315D01*
X164746228Y-74875315D02*
X164746228Y-74494363D01*
X165174800Y-75446744D02*
X165222419Y-75541982D01*
X165222419Y-75541982D02*
X165222419Y-75732458D01*
X165222419Y-75732458D02*
X165174800Y-75827696D01*
X165174800Y-75827696D02*
X165079561Y-75875315D01*
X165079561Y-75875315D02*
X165031942Y-75875315D01*
X165031942Y-75875315D02*
X164936704Y-75827696D01*
X164936704Y-75827696D02*
X164889085Y-75732458D01*
X164889085Y-75732458D02*
X164889085Y-75589601D01*
X164889085Y-75589601D02*
X164841466Y-75494363D01*
X164841466Y-75494363D02*
X164746228Y-75446744D01*
X164746228Y-75446744D02*
X164698609Y-75446744D01*
X164698609Y-75446744D02*
X164603371Y-75494363D01*
X164603371Y-75494363D02*
X164555752Y-75589601D01*
X164555752Y-75589601D02*
X164555752Y-75732458D01*
X164555752Y-75732458D02*
X164603371Y-75827696D01*
X165174800Y-76684839D02*
X165222419Y-76589601D01*
X165222419Y-76589601D02*
X165222419Y-76399125D01*
X165222419Y-76399125D02*
X165174800Y-76303887D01*
X165174800Y-76303887D02*
X165079561Y-76256268D01*
X165079561Y-76256268D02*
X164698609Y-76256268D01*
X164698609Y-76256268D02*
X164603371Y-76303887D01*
X164603371Y-76303887D02*
X164555752Y-76399125D01*
X164555752Y-76399125D02*
X164555752Y-76589601D01*
X164555752Y-76589601D02*
X164603371Y-76684839D01*
X164603371Y-76684839D02*
X164698609Y-76732458D01*
X164698609Y-76732458D02*
X164793847Y-76732458D01*
X164793847Y-76732458D02*
X164889085Y-76256268D01*
X164555752Y-77161030D02*
X165222419Y-77161030D01*
X164650990Y-77161030D02*
X164603371Y-77208649D01*
X164603371Y-77208649D02*
X164555752Y-77303887D01*
X164555752Y-77303887D02*
X164555752Y-77446744D01*
X164555752Y-77446744D02*
X164603371Y-77541982D01*
X164603371Y-77541982D02*
X164698609Y-77589601D01*
X164698609Y-77589601D02*
X165222419Y-77589601D01*
X165174800Y-78018173D02*
X165222419Y-78113411D01*
X165222419Y-78113411D02*
X165222419Y-78303887D01*
X165222419Y-78303887D02*
X165174800Y-78399125D01*
X165174800Y-78399125D02*
X165079561Y-78446744D01*
X165079561Y-78446744D02*
X165031942Y-78446744D01*
X165031942Y-78446744D02*
X164936704Y-78399125D01*
X164936704Y-78399125D02*
X164889085Y-78303887D01*
X164889085Y-78303887D02*
X164889085Y-78161030D01*
X164889085Y-78161030D02*
X164841466Y-78065792D01*
X164841466Y-78065792D02*
X164746228Y-78018173D01*
X164746228Y-78018173D02*
X164698609Y-78018173D01*
X164698609Y-78018173D02*
X164603371Y-78065792D01*
X164603371Y-78065792D02*
X164555752Y-78161030D01*
X164555752Y-78161030D02*
X164555752Y-78303887D01*
X164555752Y-78303887D02*
X164603371Y-78399125D01*
X165174800Y-79256268D02*
X165222419Y-79161030D01*
X165222419Y-79161030D02*
X165222419Y-78970554D01*
X165222419Y-78970554D02*
X165174800Y-78875316D01*
X165174800Y-78875316D02*
X165079561Y-78827697D01*
X165079561Y-78827697D02*
X164698609Y-78827697D01*
X164698609Y-78827697D02*
X164603371Y-78875316D01*
X164603371Y-78875316D02*
X164555752Y-78970554D01*
X164555752Y-78970554D02*
X164555752Y-79161030D01*
X164555752Y-79161030D02*
X164603371Y-79256268D01*
X164603371Y-79256268D02*
X164698609Y-79303887D01*
X164698609Y-79303887D02*
X164793847Y-79303887D01*
X164793847Y-79303887D02*
X164889085Y-78827697D01*
X165603371Y-79637221D02*
X165555752Y-79684840D01*
X165555752Y-79684840D02*
X165412895Y-79780078D01*
X165412895Y-79780078D02*
X165317657Y-79827697D01*
X165317657Y-79827697D02*
X165174800Y-79875316D01*
X165174800Y-79875316D02*
X164936704Y-79922935D01*
X164936704Y-79922935D02*
X164746228Y-79922935D01*
X164746228Y-79922935D02*
X164508133Y-79875316D01*
X164508133Y-79875316D02*
X164365276Y-79827697D01*
X164365276Y-79827697D02*
X164270038Y-79780078D01*
X164270038Y-79780078D02*
X164127180Y-79684840D01*
X164127180Y-79684840D02*
X164079561Y-79637221D01*
X165603371Y-80684840D02*
X165555752Y-80637221D01*
X165555752Y-80637221D02*
X165412895Y-80541983D01*
X165412895Y-80541983D02*
X165317657Y-80494364D01*
X165317657Y-80494364D02*
X165174800Y-80446745D01*
X165174800Y-80446745D02*
X164936704Y-80399126D01*
X164936704Y-80399126D02*
X164746228Y-80399126D01*
X164746228Y-80399126D02*
X164508133Y-80446745D01*
X164508133Y-80446745D02*
X164365276Y-80494364D01*
X164365276Y-80494364D02*
X164270038Y-80541983D01*
X164270038Y-80541983D02*
X164127180Y-80637221D01*
X164127180Y-80637221D02*
X164079561Y-80684840D01*
X165222419Y-81065793D02*
X164222419Y-81065793D01*
X165222419Y-81541983D02*
X164555752Y-81541983D01*
X164222419Y-81541983D02*
X164270038Y-81494364D01*
X164270038Y-81494364D02*
X164317657Y-81541983D01*
X164317657Y-81541983D02*
X164270038Y-81589602D01*
X164270038Y-81589602D02*
X164222419Y-81541983D01*
X164222419Y-81541983D02*
X164317657Y-81541983D01*
X164555752Y-82018173D02*
X165222419Y-82018173D01*
X164650990Y-82018173D02*
X164603371Y-82065792D01*
X164603371Y-82065792D02*
X164555752Y-82161030D01*
X164555752Y-82161030D02*
X164555752Y-82303887D01*
X164555752Y-82303887D02*
X164603371Y-82399125D01*
X164603371Y-82399125D02*
X164698609Y-82446744D01*
X164698609Y-82446744D02*
X165222419Y-82446744D01*
X165603371Y-82827697D02*
X165555752Y-82875316D01*
X165555752Y-82875316D02*
X165412895Y-82970554D01*
X165412895Y-82970554D02*
X165317657Y-83018173D01*
X165317657Y-83018173D02*
X165174800Y-83065792D01*
X165174800Y-83065792D02*
X164936704Y-83113411D01*
X164936704Y-83113411D02*
X164746228Y-83113411D01*
X164746228Y-83113411D02*
X164508133Y-83065792D01*
X164508133Y-83065792D02*
X164365276Y-83018173D01*
X164365276Y-83018173D02*
X164270038Y-82970554D01*
X164270038Y-82970554D02*
X164127180Y-82875316D01*
X164127180Y-82875316D02*
X164079561Y-82827697D01*
X165880038Y-61827693D02*
X165832419Y-61732455D01*
X165832419Y-61732455D02*
X165832419Y-61589598D01*
X165832419Y-61589598D02*
X165880038Y-61446741D01*
X165880038Y-61446741D02*
X165975276Y-61351503D01*
X165975276Y-61351503D02*
X166070514Y-61303884D01*
X166070514Y-61303884D02*
X166260990Y-61256265D01*
X166260990Y-61256265D02*
X166403847Y-61256265D01*
X166403847Y-61256265D02*
X166594323Y-61303884D01*
X166594323Y-61303884D02*
X166689561Y-61351503D01*
X166689561Y-61351503D02*
X166784800Y-61446741D01*
X166784800Y-61446741D02*
X166832419Y-61589598D01*
X166832419Y-61589598D02*
X166832419Y-61684836D01*
X166832419Y-61684836D02*
X166784800Y-61827693D01*
X166784800Y-61827693D02*
X166737180Y-61875312D01*
X166737180Y-61875312D02*
X166403847Y-61875312D01*
X166403847Y-61875312D02*
X166403847Y-61684836D01*
X166308609Y-63065789D02*
X166308609Y-63827694D01*
X166594323Y-63827694D02*
X166594323Y-63065789D01*
X166832419Y-65637217D02*
X166356228Y-65303884D01*
X166832419Y-65065789D02*
X165832419Y-65065789D01*
X165832419Y-65065789D02*
X165832419Y-65446741D01*
X165832419Y-65446741D02*
X165880038Y-65541979D01*
X165880038Y-65541979D02*
X165927657Y-65589598D01*
X165927657Y-65589598D02*
X166022895Y-65637217D01*
X166022895Y-65637217D02*
X166165752Y-65637217D01*
X166165752Y-65637217D02*
X166260990Y-65589598D01*
X166260990Y-65589598D02*
X166308609Y-65541979D01*
X166308609Y-65541979D02*
X166356228Y-65446741D01*
X166356228Y-65446741D02*
X166356228Y-65065789D01*
X166832419Y-66113408D02*
X166832419Y-66303884D01*
X166832419Y-66303884D02*
X166784800Y-66399122D01*
X166784800Y-66399122D02*
X166737180Y-66446741D01*
X166737180Y-66446741D02*
X166594323Y-66541979D01*
X166594323Y-66541979D02*
X166403847Y-66589598D01*
X166403847Y-66589598D02*
X166022895Y-66589598D01*
X166022895Y-66589598D02*
X165927657Y-66541979D01*
X165927657Y-66541979D02*
X165880038Y-66494360D01*
X165880038Y-66494360D02*
X165832419Y-66399122D01*
X165832419Y-66399122D02*
X165832419Y-66208646D01*
X165832419Y-66208646D02*
X165880038Y-66113408D01*
X165880038Y-66113408D02*
X165927657Y-66065789D01*
X165927657Y-66065789D02*
X166022895Y-66018170D01*
X166022895Y-66018170D02*
X166260990Y-66018170D01*
X166260990Y-66018170D02*
X166356228Y-66065789D01*
X166356228Y-66065789D02*
X166403847Y-66113408D01*
X166403847Y-66113408D02*
X166451466Y-66208646D01*
X166451466Y-66208646D02*
X166451466Y-66399122D01*
X166451466Y-66399122D02*
X166403847Y-66494360D01*
X166403847Y-66494360D02*
X166356228Y-66541979D01*
X166356228Y-66541979D02*
X166260990Y-66589598D01*
X165784800Y-68494360D02*
X167070514Y-67637218D01*
X166832419Y-70161027D02*
X166356228Y-69827694D01*
X166832419Y-69589599D02*
X165832419Y-69589599D01*
X165832419Y-69589599D02*
X165832419Y-69970551D01*
X165832419Y-69970551D02*
X165880038Y-70065789D01*
X165880038Y-70065789D02*
X165927657Y-70113408D01*
X165927657Y-70113408D02*
X166022895Y-70161027D01*
X166022895Y-70161027D02*
X166165752Y-70161027D01*
X166165752Y-70161027D02*
X166260990Y-70113408D01*
X166260990Y-70113408D02*
X166308609Y-70065789D01*
X166308609Y-70065789D02*
X166356228Y-69970551D01*
X166356228Y-69970551D02*
X166356228Y-69589599D01*
X165832419Y-70494361D02*
X165832419Y-71161027D01*
X165832419Y-71161027D02*
X166832419Y-70732456D01*
X168442419Y-61875312D02*
X167966228Y-61541979D01*
X168442419Y-61303884D02*
X167442419Y-61303884D01*
X167442419Y-61303884D02*
X167442419Y-61684836D01*
X167442419Y-61684836D02*
X167490038Y-61780074D01*
X167490038Y-61780074D02*
X167537657Y-61827693D01*
X167537657Y-61827693D02*
X167632895Y-61875312D01*
X167632895Y-61875312D02*
X167775752Y-61875312D01*
X167775752Y-61875312D02*
X167870990Y-61827693D01*
X167870990Y-61827693D02*
X167918609Y-61780074D01*
X167918609Y-61780074D02*
X167966228Y-61684836D01*
X167966228Y-61684836D02*
X167966228Y-61303884D01*
X168442419Y-62351503D02*
X168442419Y-62541979D01*
X168442419Y-62541979D02*
X168394800Y-62637217D01*
X168394800Y-62637217D02*
X168347180Y-62684836D01*
X168347180Y-62684836D02*
X168204323Y-62780074D01*
X168204323Y-62780074D02*
X168013847Y-62827693D01*
X168013847Y-62827693D02*
X167632895Y-62827693D01*
X167632895Y-62827693D02*
X167537657Y-62780074D01*
X167537657Y-62780074D02*
X167490038Y-62732455D01*
X167490038Y-62732455D02*
X167442419Y-62637217D01*
X167442419Y-62637217D02*
X167442419Y-62446741D01*
X167442419Y-62446741D02*
X167490038Y-62351503D01*
X167490038Y-62351503D02*
X167537657Y-62303884D01*
X167537657Y-62303884D02*
X167632895Y-62256265D01*
X167632895Y-62256265D02*
X167870990Y-62256265D01*
X167870990Y-62256265D02*
X167966228Y-62303884D01*
X167966228Y-62303884D02*
X168013847Y-62351503D01*
X168013847Y-62351503D02*
X168061466Y-62446741D01*
X168061466Y-62446741D02*
X168061466Y-62637217D01*
X168061466Y-62637217D02*
X168013847Y-62732455D01*
X168013847Y-62732455D02*
X167966228Y-62780074D01*
X167966228Y-62780074D02*
X167870990Y-62827693D01*
X167918609Y-64018170D02*
X167918609Y-64780075D01*
X168204323Y-64780075D02*
X168204323Y-64018170D01*
X168442419Y-66589598D02*
X167966228Y-66256265D01*
X168442419Y-66018170D02*
X167442419Y-66018170D01*
X167442419Y-66018170D02*
X167442419Y-66399122D01*
X167442419Y-66399122D02*
X167490038Y-66494360D01*
X167490038Y-66494360D02*
X167537657Y-66541979D01*
X167537657Y-66541979D02*
X167632895Y-66589598D01*
X167632895Y-66589598D02*
X167775752Y-66589598D01*
X167775752Y-66589598D02*
X167870990Y-66541979D01*
X167870990Y-66541979D02*
X167918609Y-66494360D01*
X167918609Y-66494360D02*
X167966228Y-66399122D01*
X167966228Y-66399122D02*
X167966228Y-66018170D01*
X167442419Y-67446741D02*
X167442419Y-67256265D01*
X167442419Y-67256265D02*
X167490038Y-67161027D01*
X167490038Y-67161027D02*
X167537657Y-67113408D01*
X167537657Y-67113408D02*
X167680514Y-67018170D01*
X167680514Y-67018170D02*
X167870990Y-66970551D01*
X167870990Y-66970551D02*
X168251942Y-66970551D01*
X168251942Y-66970551D02*
X168347180Y-67018170D01*
X168347180Y-67018170D02*
X168394800Y-67065789D01*
X168394800Y-67065789D02*
X168442419Y-67161027D01*
X168442419Y-67161027D02*
X168442419Y-67351503D01*
X168442419Y-67351503D02*
X168394800Y-67446741D01*
X168394800Y-67446741D02*
X168347180Y-67494360D01*
X168347180Y-67494360D02*
X168251942Y-67541979D01*
X168251942Y-67541979D02*
X168013847Y-67541979D01*
X168013847Y-67541979D02*
X167918609Y-67494360D01*
X167918609Y-67494360D02*
X167870990Y-67446741D01*
X167870990Y-67446741D02*
X167823371Y-67351503D01*
X167823371Y-67351503D02*
X167823371Y-67161027D01*
X167823371Y-67161027D02*
X167870990Y-67065789D01*
X167870990Y-67065789D02*
X167918609Y-67018170D01*
X167918609Y-67018170D02*
X168013847Y-66970551D01*
X170052419Y-61875312D02*
X169576228Y-61541979D01*
X170052419Y-61303884D02*
X169052419Y-61303884D01*
X169052419Y-61303884D02*
X169052419Y-61684836D01*
X169052419Y-61684836D02*
X169100038Y-61780074D01*
X169100038Y-61780074D02*
X169147657Y-61827693D01*
X169147657Y-61827693D02*
X169242895Y-61875312D01*
X169242895Y-61875312D02*
X169385752Y-61875312D01*
X169385752Y-61875312D02*
X169480990Y-61827693D01*
X169480990Y-61827693D02*
X169528609Y-61780074D01*
X169528609Y-61780074D02*
X169576228Y-61684836D01*
X169576228Y-61684836D02*
X169576228Y-61303884D01*
X169052419Y-62208646D02*
X169052419Y-62875312D01*
X169052419Y-62875312D02*
X170052419Y-62446741D01*
X169528609Y-64018170D02*
X169528609Y-64780075D01*
X169814323Y-64780075D02*
X169814323Y-64018170D01*
X170052419Y-66589598D02*
X169576228Y-66256265D01*
X170052419Y-66018170D02*
X169052419Y-66018170D01*
X169052419Y-66018170D02*
X169052419Y-66399122D01*
X169052419Y-66399122D02*
X169100038Y-66494360D01*
X169100038Y-66494360D02*
X169147657Y-66541979D01*
X169147657Y-66541979D02*
X169242895Y-66589598D01*
X169242895Y-66589598D02*
X169385752Y-66589598D01*
X169385752Y-66589598D02*
X169480990Y-66541979D01*
X169480990Y-66541979D02*
X169528609Y-66494360D01*
X169528609Y-66494360D02*
X169576228Y-66399122D01*
X169576228Y-66399122D02*
X169576228Y-66018170D01*
X169480990Y-67161027D02*
X169433371Y-67065789D01*
X169433371Y-67065789D02*
X169385752Y-67018170D01*
X169385752Y-67018170D02*
X169290514Y-66970551D01*
X169290514Y-66970551D02*
X169242895Y-66970551D01*
X169242895Y-66970551D02*
X169147657Y-67018170D01*
X169147657Y-67018170D02*
X169100038Y-67065789D01*
X169100038Y-67065789D02*
X169052419Y-67161027D01*
X169052419Y-67161027D02*
X169052419Y-67351503D01*
X169052419Y-67351503D02*
X169100038Y-67446741D01*
X169100038Y-67446741D02*
X169147657Y-67494360D01*
X169147657Y-67494360D02*
X169242895Y-67541979D01*
X169242895Y-67541979D02*
X169290514Y-67541979D01*
X169290514Y-67541979D02*
X169385752Y-67494360D01*
X169385752Y-67494360D02*
X169433371Y-67446741D01*
X169433371Y-67446741D02*
X169480990Y-67351503D01*
X169480990Y-67351503D02*
X169480990Y-67161027D01*
X169480990Y-67161027D02*
X169528609Y-67065789D01*
X169528609Y-67065789D02*
X169576228Y-67018170D01*
X169576228Y-67018170D02*
X169671466Y-66970551D01*
X169671466Y-66970551D02*
X169861942Y-66970551D01*
X169861942Y-66970551D02*
X169957180Y-67018170D01*
X169957180Y-67018170D02*
X170004800Y-67065789D01*
X170004800Y-67065789D02*
X170052419Y-67161027D01*
X170052419Y-67161027D02*
X170052419Y-67351503D01*
X170052419Y-67351503D02*
X170004800Y-67446741D01*
X170004800Y-67446741D02*
X169957180Y-67494360D01*
X169957180Y-67494360D02*
X169861942Y-67541979D01*
X169861942Y-67541979D02*
X169671466Y-67541979D01*
X169671466Y-67541979D02*
X169576228Y-67494360D01*
X169576228Y-67494360D02*
X169528609Y-67446741D01*
X169528609Y-67446741D02*
X169480990Y-67351503D01*
D11*
X142659400Y-54498082D02*
X142730828Y-54712368D01*
X142730828Y-54712368D02*
X142730828Y-55069510D01*
X142730828Y-55069510D02*
X142659400Y-55212368D01*
X142659400Y-55212368D02*
X142587971Y-55283796D01*
X142587971Y-55283796D02*
X142445114Y-55355225D01*
X142445114Y-55355225D02*
X142302257Y-55355225D01*
X142302257Y-55355225D02*
X142159400Y-55283796D01*
X142159400Y-55283796D02*
X142087971Y-55212368D01*
X142087971Y-55212368D02*
X142016542Y-55069510D01*
X142016542Y-55069510D02*
X141945114Y-54783796D01*
X141945114Y-54783796D02*
X141873685Y-54640939D01*
X141873685Y-54640939D02*
X141802257Y-54569510D01*
X141802257Y-54569510D02*
X141659400Y-54498082D01*
X141659400Y-54498082D02*
X141516542Y-54498082D01*
X141516542Y-54498082D02*
X141373685Y-54569510D01*
X141373685Y-54569510D02*
X141302257Y-54640939D01*
X141302257Y-54640939D02*
X141230828Y-54783796D01*
X141230828Y-54783796D02*
X141230828Y-55140939D01*
X141230828Y-55140939D02*
X141302257Y-55355225D01*
X142730828Y-56212367D02*
X142659400Y-56069510D01*
X142659400Y-56069510D02*
X142587971Y-55998081D01*
X142587971Y-55998081D02*
X142445114Y-55926653D01*
X142445114Y-55926653D02*
X142016542Y-55926653D01*
X142016542Y-55926653D02*
X141873685Y-55998081D01*
X141873685Y-55998081D02*
X141802257Y-56069510D01*
X141802257Y-56069510D02*
X141730828Y-56212367D01*
X141730828Y-56212367D02*
X141730828Y-56426653D01*
X141730828Y-56426653D02*
X141802257Y-56569510D01*
X141802257Y-56569510D02*
X141873685Y-56640939D01*
X141873685Y-56640939D02*
X142016542Y-56712367D01*
X142016542Y-56712367D02*
X142445114Y-56712367D01*
X142445114Y-56712367D02*
X142587971Y-56640939D01*
X142587971Y-56640939D02*
X142659400Y-56569510D01*
X142659400Y-56569510D02*
X142730828Y-56426653D01*
X142730828Y-56426653D02*
X142730828Y-56212367D01*
X142730828Y-57355224D02*
X141730828Y-57355224D01*
X141230828Y-57355224D02*
X141302257Y-57283796D01*
X141302257Y-57283796D02*
X141373685Y-57355224D01*
X141373685Y-57355224D02*
X141302257Y-57426653D01*
X141302257Y-57426653D02*
X141230828Y-57355224D01*
X141230828Y-57355224D02*
X141373685Y-57355224D01*
X142730828Y-58283796D02*
X142659400Y-58140939D01*
X142659400Y-58140939D02*
X142516542Y-58069510D01*
X142516542Y-58069510D02*
X141230828Y-58069510D01*
X142730828Y-59998081D02*
X141230828Y-59998081D01*
X141230828Y-59998081D02*
X141230828Y-60569510D01*
X141230828Y-60569510D02*
X141302257Y-60712367D01*
X141302257Y-60712367D02*
X141373685Y-60783796D01*
X141373685Y-60783796D02*
X141516542Y-60855224D01*
X141516542Y-60855224D02*
X141730828Y-60855224D01*
X141730828Y-60855224D02*
X141873685Y-60783796D01*
X141873685Y-60783796D02*
X141945114Y-60712367D01*
X141945114Y-60712367D02*
X142016542Y-60569510D01*
X142016542Y-60569510D02*
X142016542Y-59998081D01*
X142730828Y-61712367D02*
X142659400Y-61569510D01*
X142659400Y-61569510D02*
X142587971Y-61498081D01*
X142587971Y-61498081D02*
X142445114Y-61426653D01*
X142445114Y-61426653D02*
X142016542Y-61426653D01*
X142016542Y-61426653D02*
X141873685Y-61498081D01*
X141873685Y-61498081D02*
X141802257Y-61569510D01*
X141802257Y-61569510D02*
X141730828Y-61712367D01*
X141730828Y-61712367D02*
X141730828Y-61926653D01*
X141730828Y-61926653D02*
X141802257Y-62069510D01*
X141802257Y-62069510D02*
X141873685Y-62140939D01*
X141873685Y-62140939D02*
X142016542Y-62212367D01*
X142016542Y-62212367D02*
X142445114Y-62212367D01*
X142445114Y-62212367D02*
X142587971Y-62140939D01*
X142587971Y-62140939D02*
X142659400Y-62069510D01*
X142659400Y-62069510D02*
X142730828Y-61926653D01*
X142730828Y-61926653D02*
X142730828Y-61712367D01*
X141730828Y-62712367D02*
X142730828Y-62998082D01*
X142730828Y-62998082D02*
X142016542Y-63283796D01*
X142016542Y-63283796D02*
X142730828Y-63569510D01*
X142730828Y-63569510D02*
X141730828Y-63855224D01*
X142659400Y-64998082D02*
X142730828Y-64855225D01*
X142730828Y-64855225D02*
X142730828Y-64569511D01*
X142730828Y-64569511D02*
X142659400Y-64426653D01*
X142659400Y-64426653D02*
X142516542Y-64355225D01*
X142516542Y-64355225D02*
X141945114Y-64355225D01*
X141945114Y-64355225D02*
X141802257Y-64426653D01*
X141802257Y-64426653D02*
X141730828Y-64569511D01*
X141730828Y-64569511D02*
X141730828Y-64855225D01*
X141730828Y-64855225D02*
X141802257Y-64998082D01*
X141802257Y-64998082D02*
X141945114Y-65069511D01*
X141945114Y-65069511D02*
X142087971Y-65069511D01*
X142087971Y-65069511D02*
X142230828Y-64355225D01*
X142730828Y-65712367D02*
X141730828Y-65712367D01*
X142016542Y-65712367D02*
X141873685Y-65783796D01*
X141873685Y-65783796D02*
X141802257Y-65855225D01*
X141802257Y-65855225D02*
X141730828Y-65998082D01*
X141730828Y-65998082D02*
X141730828Y-66140939D01*
X142659400Y-67712367D02*
X142730828Y-67926653D01*
X142730828Y-67926653D02*
X142730828Y-68283795D01*
X142730828Y-68283795D02*
X142659400Y-68426653D01*
X142659400Y-68426653D02*
X142587971Y-68498081D01*
X142587971Y-68498081D02*
X142445114Y-68569510D01*
X142445114Y-68569510D02*
X142302257Y-68569510D01*
X142302257Y-68569510D02*
X142159400Y-68498081D01*
X142159400Y-68498081D02*
X142087971Y-68426653D01*
X142087971Y-68426653D02*
X142016542Y-68283795D01*
X142016542Y-68283795D02*
X141945114Y-67998081D01*
X141945114Y-67998081D02*
X141873685Y-67855224D01*
X141873685Y-67855224D02*
X141802257Y-67783795D01*
X141802257Y-67783795D02*
X141659400Y-67712367D01*
X141659400Y-67712367D02*
X141516542Y-67712367D01*
X141516542Y-67712367D02*
X141373685Y-67783795D01*
X141373685Y-67783795D02*
X141302257Y-67855224D01*
X141302257Y-67855224D02*
X141230828Y-67998081D01*
X141230828Y-67998081D02*
X141230828Y-68355224D01*
X141230828Y-68355224D02*
X141302257Y-68569510D01*
X142659400Y-69783795D02*
X142730828Y-69640938D01*
X142730828Y-69640938D02*
X142730828Y-69355224D01*
X142730828Y-69355224D02*
X142659400Y-69212366D01*
X142659400Y-69212366D02*
X142516542Y-69140938D01*
X142516542Y-69140938D02*
X141945114Y-69140938D01*
X141945114Y-69140938D02*
X141802257Y-69212366D01*
X141802257Y-69212366D02*
X141730828Y-69355224D01*
X141730828Y-69355224D02*
X141730828Y-69640938D01*
X141730828Y-69640938D02*
X141802257Y-69783795D01*
X141802257Y-69783795D02*
X141945114Y-69855224D01*
X141945114Y-69855224D02*
X142087971Y-69855224D01*
X142087971Y-69855224D02*
X142230828Y-69140938D01*
X141730828Y-70498080D02*
X142730828Y-70498080D01*
X141873685Y-70498080D02*
X141802257Y-70569509D01*
X141802257Y-70569509D02*
X141730828Y-70712366D01*
X141730828Y-70712366D02*
X141730828Y-70926652D01*
X141730828Y-70926652D02*
X141802257Y-71069509D01*
X141802257Y-71069509D02*
X141945114Y-71140938D01*
X141945114Y-71140938D02*
X142730828Y-71140938D01*
X142659400Y-71783795D02*
X142730828Y-71926652D01*
X142730828Y-71926652D02*
X142730828Y-72212366D01*
X142730828Y-72212366D02*
X142659400Y-72355223D01*
X142659400Y-72355223D02*
X142516542Y-72426652D01*
X142516542Y-72426652D02*
X142445114Y-72426652D01*
X142445114Y-72426652D02*
X142302257Y-72355223D01*
X142302257Y-72355223D02*
X142230828Y-72212366D01*
X142230828Y-72212366D02*
X142230828Y-71998081D01*
X142230828Y-71998081D02*
X142159400Y-71855223D01*
X142159400Y-71855223D02*
X142016542Y-71783795D01*
X142016542Y-71783795D02*
X141945114Y-71783795D01*
X141945114Y-71783795D02*
X141802257Y-71855223D01*
X141802257Y-71855223D02*
X141730828Y-71998081D01*
X141730828Y-71998081D02*
X141730828Y-72212366D01*
X141730828Y-72212366D02*
X141802257Y-72355223D01*
X142730828Y-73283795D02*
X142659400Y-73140938D01*
X142659400Y-73140938D02*
X142587971Y-73069509D01*
X142587971Y-73069509D02*
X142445114Y-72998081D01*
X142445114Y-72998081D02*
X142016542Y-72998081D01*
X142016542Y-72998081D02*
X141873685Y-73069509D01*
X141873685Y-73069509D02*
X141802257Y-73140938D01*
X141802257Y-73140938D02*
X141730828Y-73283795D01*
X141730828Y-73283795D02*
X141730828Y-73498081D01*
X141730828Y-73498081D02*
X141802257Y-73640938D01*
X141802257Y-73640938D02*
X141873685Y-73712367D01*
X141873685Y-73712367D02*
X142016542Y-73783795D01*
X142016542Y-73783795D02*
X142445114Y-73783795D01*
X142445114Y-73783795D02*
X142587971Y-73712367D01*
X142587971Y-73712367D02*
X142659400Y-73640938D01*
X142659400Y-73640938D02*
X142730828Y-73498081D01*
X142730828Y-73498081D02*
X142730828Y-73283795D01*
X142730828Y-74426652D02*
X141730828Y-74426652D01*
X142016542Y-74426652D02*
X141873685Y-74498081D01*
X141873685Y-74498081D02*
X141802257Y-74569510D01*
X141802257Y-74569510D02*
X141730828Y-74712367D01*
X141730828Y-74712367D02*
X141730828Y-74855224D01*
X143788685Y-54498082D02*
X143717257Y-54569510D01*
X143717257Y-54569510D02*
X143645828Y-54712368D01*
X143645828Y-54712368D02*
X143645828Y-55069510D01*
X143645828Y-55069510D02*
X143717257Y-55212368D01*
X143717257Y-55212368D02*
X143788685Y-55283796D01*
X143788685Y-55283796D02*
X143931542Y-55355225D01*
X143931542Y-55355225D02*
X144074400Y-55355225D01*
X144074400Y-55355225D02*
X144288685Y-55283796D01*
X144288685Y-55283796D02*
X145145828Y-54426653D01*
X145145828Y-54426653D02*
X145145828Y-55355225D01*
X143645828Y-56283796D02*
X143645828Y-56426653D01*
X143645828Y-56426653D02*
X143717257Y-56569510D01*
X143717257Y-56569510D02*
X143788685Y-56640939D01*
X143788685Y-56640939D02*
X143931542Y-56712367D01*
X143931542Y-56712367D02*
X144217257Y-56783796D01*
X144217257Y-56783796D02*
X144574400Y-56783796D01*
X144574400Y-56783796D02*
X144860114Y-56712367D01*
X144860114Y-56712367D02*
X145002971Y-56640939D01*
X145002971Y-56640939D02*
X145074400Y-56569510D01*
X145074400Y-56569510D02*
X145145828Y-56426653D01*
X145145828Y-56426653D02*
X145145828Y-56283796D01*
X145145828Y-56283796D02*
X145074400Y-56140939D01*
X145074400Y-56140939D02*
X145002971Y-56069510D01*
X145002971Y-56069510D02*
X144860114Y-55998081D01*
X144860114Y-55998081D02*
X144574400Y-55926653D01*
X144574400Y-55926653D02*
X144217257Y-55926653D01*
X144217257Y-55926653D02*
X143931542Y-55998081D01*
X143931542Y-55998081D02*
X143788685Y-56069510D01*
X143788685Y-56069510D02*
X143717257Y-56140939D01*
X143717257Y-56140939D02*
X143645828Y-56283796D01*
X143788685Y-57355224D02*
X143717257Y-57426652D01*
X143717257Y-57426652D02*
X143645828Y-57569510D01*
X143645828Y-57569510D02*
X143645828Y-57926652D01*
X143645828Y-57926652D02*
X143717257Y-58069510D01*
X143717257Y-58069510D02*
X143788685Y-58140938D01*
X143788685Y-58140938D02*
X143931542Y-58212367D01*
X143931542Y-58212367D02*
X144074400Y-58212367D01*
X144074400Y-58212367D02*
X144288685Y-58140938D01*
X144288685Y-58140938D02*
X145145828Y-57283795D01*
X145145828Y-57283795D02*
X145145828Y-58212367D01*
X143645828Y-58712366D02*
X143645828Y-59640938D01*
X143645828Y-59640938D02*
X144217257Y-59140938D01*
X144217257Y-59140938D02*
X144217257Y-59355223D01*
X144217257Y-59355223D02*
X144288685Y-59498081D01*
X144288685Y-59498081D02*
X144360114Y-59569509D01*
X144360114Y-59569509D02*
X144502971Y-59640938D01*
X144502971Y-59640938D02*
X144860114Y-59640938D01*
X144860114Y-59640938D02*
X145002971Y-59569509D01*
X145002971Y-59569509D02*
X145074400Y-59498081D01*
X145074400Y-59498081D02*
X145145828Y-59355223D01*
X145145828Y-59355223D02*
X145145828Y-58926652D01*
X145145828Y-58926652D02*
X145074400Y-58783795D01*
X145074400Y-58783795D02*
X145002971Y-58712366D01*
X144574400Y-60283794D02*
X144574400Y-61426652D01*
X145145828Y-62926652D02*
X145145828Y-62069509D01*
X145145828Y-62498080D02*
X143645828Y-62498080D01*
X143645828Y-62498080D02*
X143860114Y-62355223D01*
X143860114Y-62355223D02*
X144002971Y-62212366D01*
X144002971Y-62212366D02*
X144074400Y-62069509D01*
X143645828Y-63855223D02*
X143645828Y-63998080D01*
X143645828Y-63998080D02*
X143717257Y-64140937D01*
X143717257Y-64140937D02*
X143788685Y-64212366D01*
X143788685Y-64212366D02*
X143931542Y-64283794D01*
X143931542Y-64283794D02*
X144217257Y-64355223D01*
X144217257Y-64355223D02*
X144574400Y-64355223D01*
X144574400Y-64355223D02*
X144860114Y-64283794D01*
X144860114Y-64283794D02*
X145002971Y-64212366D01*
X145002971Y-64212366D02*
X145074400Y-64140937D01*
X145074400Y-64140937D02*
X145145828Y-63998080D01*
X145145828Y-63998080D02*
X145145828Y-63855223D01*
X145145828Y-63855223D02*
X145074400Y-63712366D01*
X145074400Y-63712366D02*
X145002971Y-63640937D01*
X145002971Y-63640937D02*
X144860114Y-63569508D01*
X144860114Y-63569508D02*
X144574400Y-63498080D01*
X144574400Y-63498080D02*
X144217257Y-63498080D01*
X144217257Y-63498080D02*
X143931542Y-63569508D01*
X143931542Y-63569508D02*
X143788685Y-63640937D01*
X143788685Y-63640937D02*
X143717257Y-63712366D01*
X143717257Y-63712366D02*
X143645828Y-63855223D01*
X144574400Y-64998079D02*
X144574400Y-66140937D01*
X143645828Y-67140937D02*
X143645828Y-67283794D01*
X143645828Y-67283794D02*
X143717257Y-67426651D01*
X143717257Y-67426651D02*
X143788685Y-67498080D01*
X143788685Y-67498080D02*
X143931542Y-67569508D01*
X143931542Y-67569508D02*
X144217257Y-67640937D01*
X144217257Y-67640937D02*
X144574400Y-67640937D01*
X144574400Y-67640937D02*
X144860114Y-67569508D01*
X144860114Y-67569508D02*
X145002971Y-67498080D01*
X145002971Y-67498080D02*
X145074400Y-67426651D01*
X145074400Y-67426651D02*
X145145828Y-67283794D01*
X145145828Y-67283794D02*
X145145828Y-67140937D01*
X145145828Y-67140937D02*
X145074400Y-66998080D01*
X145074400Y-66998080D02*
X145002971Y-66926651D01*
X145002971Y-66926651D02*
X144860114Y-66855222D01*
X144860114Y-66855222D02*
X144574400Y-66783794D01*
X144574400Y-66783794D02*
X144217257Y-66783794D01*
X144217257Y-66783794D02*
X143931542Y-66855222D01*
X143931542Y-66855222D02*
X143788685Y-66926651D01*
X143788685Y-66926651D02*
X143717257Y-66998080D01*
X143717257Y-66998080D02*
X143645828Y-67140937D01*
X145145828Y-68355222D02*
X145145828Y-68640936D01*
X145145828Y-68640936D02*
X145074400Y-68783793D01*
X145074400Y-68783793D02*
X145002971Y-68855222D01*
X145002971Y-68855222D02*
X144788685Y-68998079D01*
X144788685Y-68998079D02*
X144502971Y-69069508D01*
X144502971Y-69069508D02*
X143931542Y-69069508D01*
X143931542Y-69069508D02*
X143788685Y-68998079D01*
X143788685Y-68998079D02*
X143717257Y-68926651D01*
X143717257Y-68926651D02*
X143645828Y-68783793D01*
X143645828Y-68783793D02*
X143645828Y-68498079D01*
X143645828Y-68498079D02*
X143717257Y-68355222D01*
X143717257Y-68355222D02*
X143788685Y-68283793D01*
X143788685Y-68283793D02*
X143931542Y-68212365D01*
X143931542Y-68212365D02*
X144288685Y-68212365D01*
X144288685Y-68212365D02*
X144431542Y-68283793D01*
X144431542Y-68283793D02*
X144502971Y-68355222D01*
X144502971Y-68355222D02*
X144574400Y-68498079D01*
X144574400Y-68498079D02*
X144574400Y-68783793D01*
X144574400Y-68783793D02*
X144502971Y-68926651D01*
X144502971Y-68926651D02*
X144431542Y-68998079D01*
X144431542Y-68998079D02*
X144288685Y-69069508D01*
X146203685Y-54498082D02*
X146132257Y-54569510D01*
X146132257Y-54569510D02*
X146060828Y-54712368D01*
X146060828Y-54712368D02*
X146060828Y-55069510D01*
X146060828Y-55069510D02*
X146132257Y-55212368D01*
X146132257Y-55212368D02*
X146203685Y-55283796D01*
X146203685Y-55283796D02*
X146346542Y-55355225D01*
X146346542Y-55355225D02*
X146489400Y-55355225D01*
X146489400Y-55355225D02*
X146703685Y-55283796D01*
X146703685Y-55283796D02*
X147560828Y-54426653D01*
X147560828Y-54426653D02*
X147560828Y-55355225D01*
X147417971Y-55998081D02*
X147489400Y-56069510D01*
X147489400Y-56069510D02*
X147560828Y-55998081D01*
X147560828Y-55998081D02*
X147489400Y-55926653D01*
X147489400Y-55926653D02*
X147417971Y-55998081D01*
X147417971Y-55998081D02*
X147560828Y-55998081D01*
X147560828Y-57498082D02*
X147560828Y-56640939D01*
X147560828Y-57069510D02*
X146060828Y-57069510D01*
X146060828Y-57069510D02*
X146275114Y-56926653D01*
X146275114Y-56926653D02*
X146417971Y-56783796D01*
X146417971Y-56783796D02*
X146489400Y-56640939D01*
X147417971Y-58140938D02*
X147489400Y-58212367D01*
X147489400Y-58212367D02*
X147560828Y-58140938D01*
X147560828Y-58140938D02*
X147489400Y-58069510D01*
X147489400Y-58069510D02*
X147417971Y-58140938D01*
X147417971Y-58140938D02*
X147560828Y-58140938D01*
X146060828Y-59140939D02*
X146060828Y-59283796D01*
X146060828Y-59283796D02*
X146132257Y-59426653D01*
X146132257Y-59426653D02*
X146203685Y-59498082D01*
X146203685Y-59498082D02*
X146346542Y-59569510D01*
X146346542Y-59569510D02*
X146632257Y-59640939D01*
X146632257Y-59640939D02*
X146989400Y-59640939D01*
X146989400Y-59640939D02*
X147275114Y-59569510D01*
X147275114Y-59569510D02*
X147417971Y-59498082D01*
X147417971Y-59498082D02*
X147489400Y-59426653D01*
X147489400Y-59426653D02*
X147560828Y-59283796D01*
X147560828Y-59283796D02*
X147560828Y-59140939D01*
X147560828Y-59140939D02*
X147489400Y-58998082D01*
X147489400Y-58998082D02*
X147417971Y-58926653D01*
X147417971Y-58926653D02*
X147275114Y-58855224D01*
X147275114Y-58855224D02*
X146989400Y-58783796D01*
X146989400Y-58783796D02*
X146632257Y-58783796D01*
X146632257Y-58783796D02*
X146346542Y-58855224D01*
X146346542Y-58855224D02*
X146203685Y-58926653D01*
X146203685Y-58926653D02*
X146132257Y-58998082D01*
X146132257Y-58998082D02*
X146060828Y-59140939D01*
D10*
X140000000Y-88270000D02*
X153810000Y-88270000D01*
X153810000Y-52840000D01*
X140000000Y-52840000D01*
X140000000Y-88270000D01*
D12*
X207529085Y-75301298D02*
X207624323Y-75253679D01*
X207624323Y-75253679D02*
X207767180Y-75253679D01*
X207767180Y-75253679D02*
X207910037Y-75301298D01*
X207910037Y-75301298D02*
X208005275Y-75396536D01*
X208005275Y-75396536D02*
X208052894Y-75491774D01*
X208052894Y-75491774D02*
X208100513Y-75682250D01*
X208100513Y-75682250D02*
X208100513Y-75825107D01*
X208100513Y-75825107D02*
X208052894Y-76015583D01*
X208052894Y-76015583D02*
X208005275Y-76110821D01*
X208005275Y-76110821D02*
X207910037Y-76206060D01*
X207910037Y-76206060D02*
X207767180Y-76253679D01*
X207767180Y-76253679D02*
X207671942Y-76253679D01*
X207671942Y-76253679D02*
X207529085Y-76206060D01*
X207529085Y-76206060D02*
X207481466Y-76158440D01*
X207481466Y-76158440D02*
X207481466Y-75825107D01*
X207481466Y-75825107D02*
X207671942Y-75825107D01*
X207100513Y-75348917D02*
X207052894Y-75301298D01*
X207052894Y-75301298D02*
X206957656Y-75253679D01*
X206957656Y-75253679D02*
X206719561Y-75253679D01*
X206719561Y-75253679D02*
X206624323Y-75301298D01*
X206624323Y-75301298D02*
X206576704Y-75348917D01*
X206576704Y-75348917D02*
X206529085Y-75444155D01*
X206529085Y-75444155D02*
X206529085Y-75539393D01*
X206529085Y-75539393D02*
X206576704Y-75682250D01*
X206576704Y-75682250D02*
X207148132Y-76253679D01*
X207148132Y-76253679D02*
X206529085Y-76253679D01*
X207681954Y-51560311D02*
X207777192Y-51512692D01*
X207777192Y-51512692D02*
X207920049Y-51512692D01*
X207920049Y-51512692D02*
X208062906Y-51560311D01*
X208062906Y-51560311D02*
X208158144Y-51655549D01*
X208158144Y-51655549D02*
X208205763Y-51750787D01*
X208205763Y-51750787D02*
X208253382Y-51941263D01*
X208253382Y-51941263D02*
X208253382Y-52084120D01*
X208253382Y-52084120D02*
X208205763Y-52274596D01*
X208205763Y-52274596D02*
X208158144Y-52369834D01*
X208158144Y-52369834D02*
X208062906Y-52465073D01*
X208062906Y-52465073D02*
X207920049Y-52512692D01*
X207920049Y-52512692D02*
X207824811Y-52512692D01*
X207824811Y-52512692D02*
X207681954Y-52465073D01*
X207681954Y-52465073D02*
X207634335Y-52417453D01*
X207634335Y-52417453D02*
X207634335Y-52084120D01*
X207634335Y-52084120D02*
X207824811Y-52084120D01*
X206681954Y-52512692D02*
X207253382Y-52512692D01*
X206967668Y-52512692D02*
X206967668Y-51512692D01*
X206967668Y-51512692D02*
X207062906Y-51655549D01*
X207062906Y-51655549D02*
X207158144Y-51750787D01*
X207158144Y-51750787D02*
X207253382Y-51798406D01*
X207135167Y-89711791D02*
X207230405Y-89664172D01*
X207230405Y-89664172D02*
X207373262Y-89664172D01*
X207373262Y-89664172D02*
X207516119Y-89711791D01*
X207516119Y-89711791D02*
X207611357Y-89807029D01*
X207611357Y-89807029D02*
X207658976Y-89902267D01*
X207658976Y-89902267D02*
X207706595Y-90092743D01*
X207706595Y-90092743D02*
X207706595Y-90235600D01*
X207706595Y-90235600D02*
X207658976Y-90426076D01*
X207658976Y-90426076D02*
X207611357Y-90521314D01*
X207611357Y-90521314D02*
X207516119Y-90616553D01*
X207516119Y-90616553D02*
X207373262Y-90664172D01*
X207373262Y-90664172D02*
X207278024Y-90664172D01*
X207278024Y-90664172D02*
X207135167Y-90616553D01*
X207135167Y-90616553D02*
X207087548Y-90568933D01*
X207087548Y-90568933D02*
X207087548Y-90235600D01*
X207087548Y-90235600D02*
X207278024Y-90235600D01*
X206230405Y-89997505D02*
X206230405Y-90664172D01*
X206468500Y-89616553D02*
X206706595Y-90330838D01*
X206706595Y-90330838D02*
X206087548Y-90330838D01*
X207122685Y-65970805D02*
X207217923Y-65923186D01*
X207217923Y-65923186D02*
X207360780Y-65923186D01*
X207360780Y-65923186D02*
X207503637Y-65970805D01*
X207503637Y-65970805D02*
X207598875Y-66066043D01*
X207598875Y-66066043D02*
X207646494Y-66161281D01*
X207646494Y-66161281D02*
X207694113Y-66351757D01*
X207694113Y-66351757D02*
X207694113Y-66494614D01*
X207694113Y-66494614D02*
X207646494Y-66685090D01*
X207646494Y-66685090D02*
X207598875Y-66780328D01*
X207598875Y-66780328D02*
X207503637Y-66875567D01*
X207503637Y-66875567D02*
X207360780Y-66923186D01*
X207360780Y-66923186D02*
X207265542Y-66923186D01*
X207265542Y-66923186D02*
X207122685Y-66875567D01*
X207122685Y-66875567D02*
X207075066Y-66827947D01*
X207075066Y-66827947D02*
X207075066Y-66494614D01*
X207075066Y-66494614D02*
X207265542Y-66494614D01*
X206741732Y-65923186D02*
X206122685Y-65923186D01*
X206122685Y-65923186D02*
X206456018Y-66304138D01*
X206456018Y-66304138D02*
X206313161Y-66304138D01*
X206313161Y-66304138D02*
X206217923Y-66351757D01*
X206217923Y-66351757D02*
X206170304Y-66399376D01*
X206170304Y-66399376D02*
X206122685Y-66494614D01*
X206122685Y-66494614D02*
X206122685Y-66732709D01*
X206122685Y-66732709D02*
X206170304Y-66827947D01*
X206170304Y-66827947D02*
X206217923Y-66875567D01*
X206217923Y-66875567D02*
X206313161Y-66923186D01*
X206313161Y-66923186D02*
X206598875Y-66923186D01*
X206598875Y-66923186D02*
X206694113Y-66875567D01*
X206694113Y-66875567D02*
X206741732Y-66827947D01*
D13*
X237794800Y-77068860D02*
X235254800Y-77068860D01*
X236524800Y-75798860D02*
X236524800Y-78338860D01*
X234238800Y-82656860D02*
X179882800Y-82656860D01*
X234238800Y-71480860D02*
X234238800Y-82656860D01*
X179882800Y-82656860D02*
X179882800Y-71480860D01*
X179882800Y-71480860D02*
X234238800Y-71480860D01*
D14*
X178104800Y-77068860D02*
X175564800Y-77068860D01*
D13*
X237947669Y-53327873D02*
X235407669Y-53327873D01*
X236677669Y-52057873D02*
X236677669Y-54597873D01*
X234391669Y-58915873D02*
X180035669Y-58915873D01*
X234391669Y-47739873D02*
X234391669Y-58915873D01*
X180035669Y-58915873D02*
X180035669Y-47739873D01*
X180035669Y-47739873D02*
X234391669Y-47739873D01*
D14*
X178257669Y-53327873D02*
X175717669Y-53327873D01*
D13*
X176440882Y-88939353D02*
X178980882Y-88939353D01*
X177710882Y-90209353D02*
X177710882Y-87669353D01*
X179996882Y-83351353D02*
X234352882Y-83351353D01*
X179996882Y-94527353D02*
X179996882Y-83351353D01*
X234352882Y-83351353D02*
X234352882Y-94527353D01*
X234352882Y-94527353D02*
X179996882Y-94527353D01*
D14*
X236130882Y-88939353D02*
X238670882Y-88939353D01*
D13*
X176428400Y-65198367D02*
X178968400Y-65198367D01*
X177698400Y-66468367D02*
X177698400Y-63928367D01*
X179984400Y-59610367D02*
X234340400Y-59610367D01*
X179984400Y-70786367D02*
X179984400Y-59610367D01*
X234340400Y-59610367D02*
X234340400Y-70786367D01*
X234340400Y-70786367D02*
X179984400Y-70786367D01*
D14*
X236118400Y-65198367D02*
X238658400Y-65198367D01*
%LPC*%
D15*
X146045000Y-82565000D03*
D16*
X148585000Y-82565000D03*
X146045000Y-85105000D03*
X148585000Y-85105000D03*
X146045000Y-87645000D03*
X148585000Y-87645000D03*
D17*
X134620000Y-58340000D03*
D18*
X134620000Y-53340000D03*
D16*
X148540000Y-78000000D03*
D15*
X146000000Y-78000000D03*
D16*
X154940000Y-87630000D03*
D15*
X157480000Y-87630000D03*
D16*
X155000000Y-82550000D03*
D15*
X157540000Y-82550000D03*
D16*
X207772000Y-58420000D03*
X205232000Y-58420000D03*
D15*
X202692000Y-58420000D03*
D19*
X177640000Y-55880000D03*
D20*
X172640000Y-55880000D03*
X167640000Y-55880000D03*
D18*
X134620000Y-82550000D03*
D17*
X134620000Y-87550000D03*
D18*
X134620000Y-67310000D03*
D17*
X134620000Y-72310000D03*
D21*
X231444800Y-77068860D03*
D22*
X218363800Y-77068860D03*
X195859400Y-77068860D03*
D21*
X182778400Y-77068860D03*
X231597669Y-53327873D03*
D22*
X218516669Y-53327873D03*
X196012269Y-53327873D03*
D21*
X182931269Y-53327873D03*
D23*
X182790882Y-88939353D03*
D24*
X195871882Y-88939353D03*
X218376282Y-88939353D03*
D23*
X231457282Y-88939353D03*
X182778400Y-65198367D03*
D24*
X195859400Y-65198367D03*
X218363800Y-65198367D03*
D23*
X231444800Y-65198367D03*
%LPD*%
M02*
