%TF.GenerationSoftware,KiCad,Pcbnew,7.0.8*%
%TF.CreationDate,2023-10-10T11:55:11-07:00*%
%TF.ProjectId,Soil Power Sensor,536f696c-2050-46f7-9765-722053656e73,2.1.0*%
%TF.SameCoordinates,Original*%
%TF.FileFunction,Legend,Top*%
%TF.FilePolarity,Positive*%
%FSLAX46Y46*%
G04 Gerber Fmt 4.6, Leading zero omitted, Abs format (unit mm)*
G04 Created by KiCad (PCBNEW 7.0.8) date 2023-10-10 11:55:11*
%MOMM*%
%LPD*%
G01*
G04 APERTURE LIST*
G04 Aperture macros list*
%AMRoundRect*
0 Rectangle with rounded corners*
0 $1 Rounding radius*
0 $2 $3 $4 $5 $6 $7 $8 $9 X,Y pos of 4 corners*
0 Add a 4 corners polygon primitive as box body*
4,1,4,$2,$3,$4,$5,$6,$7,$8,$9,$2,$3,0*
0 Add four circle primitives for the rounded corners*
1,1,$1+$1,$2,$3*
1,1,$1+$1,$4,$5*
1,1,$1+$1,$6,$7*
1,1,$1+$1,$8,$9*
0 Add four rect primitives between the rounded corners*
20,1,$1+$1,$2,$3,$4,$5,0*
20,1,$1+$1,$4,$5,$6,$7,0*
20,1,$1+$1,$6,$7,$8,$9,0*
20,1,$1+$1,$8,$9,$2,$3,0*%
G04 Aperture macros list end*
%ADD10C,0.150000*%
%ADD11C,0.120000*%
%ADD12C,0.152400*%
%ADD13C,0.558000*%
%ADD14C,0.600000*%
%ADD15C,0.127000*%
%ADD16C,0.200000*%
%ADD17C,1.500000*%
%ADD18RoundRect,0.200000X-0.200000X-0.275000X0.200000X-0.275000X0.200000X0.275000X-0.200000X0.275000X0*%
%ADD19R,3.000000X1.500000*%
%ADD20O,3.000000X1.500000*%
%ADD21RoundRect,0.225000X-0.225000X-0.250000X0.225000X-0.250000X0.225000X0.250000X-0.225000X0.250000X0*%
%ADD22R,1.700000X1.700000*%
%ADD23O,1.700000X1.700000*%
%ADD24RoundRect,0.225000X0.225000X0.250000X-0.225000X0.250000X-0.225000X-0.250000X0.225000X-0.250000X0*%
%ADD25RoundRect,0.101600X-0.450000X-0.250000X0.450000X-0.250000X0.450000X0.250000X-0.450000X0.250000X0*%
%ADD26RoundRect,0.200000X0.200000X0.275000X-0.200000X0.275000X-0.200000X-0.275000X0.200000X-0.275000X0*%
%ADD27RoundRect,0.101600X-0.990000X-0.265000X0.990000X-0.265000X0.990000X0.265000X-0.990000X0.265000X0*%
%ADD28R,1.500000X3.000000*%
%ADD29O,1.500000X3.000000*%
%ADD30RoundRect,0.125000X-0.537500X-0.125000X0.537500X-0.125000X0.537500X0.125000X-0.537500X0.125000X0*%
%ADD31RoundRect,0.101600X-2.150000X-0.825000X2.150000X-0.825000X2.150000X0.825000X-2.150000X0.825000X0*%
%ADD32RoundRect,0.150000X-0.512500X-0.150000X0.512500X-0.150000X0.512500X0.150000X-0.512500X0.150000X0*%
%ADD33RoundRect,0.101600X0.400000X0.200000X-0.400000X0.200000X-0.400000X-0.200000X0.400000X-0.200000X0*%
%ADD34RoundRect,0.101600X0.200000X0.400000X-0.200000X0.400000X-0.200000X-0.400000X0.200000X-0.400000X0*%
%ADD35RoundRect,0.101600X0.725000X0.725000X-0.725000X0.725000X-0.725000X-0.725000X0.725000X-0.725000X0*%
%ADD36RoundRect,0.101600X0.350000X0.350000X-0.350000X0.350000X-0.350000X-0.350000X0.350000X-0.350000X0*%
%ADD37RoundRect,0.152850X-0.733750X-0.153750X0.733750X-0.153750X0.733750X0.153750X-0.733750X0.153750X0*%
%ADD38RoundRect,0.101600X-1.385000X-0.325000X1.385000X-0.325000X1.385000X0.325000X-1.385000X0.325000X0*%
%ADD39RoundRect,0.225000X-0.250000X0.225000X-0.250000X-0.225000X0.250000X-0.225000X0.250000X0.225000X0*%
%ADD40RoundRect,0.101600X-0.750000X-0.225000X0.750000X-0.225000X0.750000X0.225000X-0.750000X0.225000X0*%
G04 APERTURE END LIST*
D10*
X203716095Y-50638819D02*
X204287523Y-50638819D01*
X204001809Y-51638819D02*
X204001809Y-50638819D01*
X204620857Y-51638819D02*
X204620857Y-50638819D01*
X204620857Y-50638819D02*
X205001809Y-50638819D01*
X205001809Y-50638819D02*
X205097047Y-50686438D01*
X205097047Y-50686438D02*
X205144666Y-50734057D01*
X205144666Y-50734057D02*
X205192285Y-50829295D01*
X205192285Y-50829295D02*
X205192285Y-50972152D01*
X205192285Y-50972152D02*
X205144666Y-51067390D01*
X205144666Y-51067390D02*
X205097047Y-51115009D01*
X205097047Y-51115009D02*
X205001809Y-51162628D01*
X205001809Y-51162628D02*
X204620857Y-51162628D01*
X206097047Y-50638819D02*
X205620857Y-50638819D01*
X205620857Y-50638819D02*
X205573238Y-51115009D01*
X205573238Y-51115009D02*
X205620857Y-51067390D01*
X205620857Y-51067390D02*
X205716095Y-51019771D01*
X205716095Y-51019771D02*
X205954190Y-51019771D01*
X205954190Y-51019771D02*
X206049428Y-51067390D01*
X206049428Y-51067390D02*
X206097047Y-51115009D01*
X206097047Y-51115009D02*
X206144666Y-51210247D01*
X206144666Y-51210247D02*
X206144666Y-51448342D01*
X206144666Y-51448342D02*
X206097047Y-51543580D01*
X206097047Y-51543580D02*
X206049428Y-51591200D01*
X206049428Y-51591200D02*
X205954190Y-51638819D01*
X205954190Y-51638819D02*
X205716095Y-51638819D01*
X205716095Y-51638819D02*
X205620857Y-51591200D01*
X205620857Y-51591200D02*
X205573238Y-51543580D01*
X159408333Y-54904819D02*
X159075000Y-54428628D01*
X158836905Y-54904819D02*
X158836905Y-53904819D01*
X158836905Y-53904819D02*
X159217857Y-53904819D01*
X159217857Y-53904819D02*
X159313095Y-53952438D01*
X159313095Y-53952438D02*
X159360714Y-54000057D01*
X159360714Y-54000057D02*
X159408333Y-54095295D01*
X159408333Y-54095295D02*
X159408333Y-54238152D01*
X159408333Y-54238152D02*
X159360714Y-54333390D01*
X159360714Y-54333390D02*
X159313095Y-54381009D01*
X159313095Y-54381009D02*
X159217857Y-54428628D01*
X159217857Y-54428628D02*
X158836905Y-54428628D01*
X159884524Y-54904819D02*
X160075000Y-54904819D01*
X160075000Y-54904819D02*
X160170238Y-54857200D01*
X160170238Y-54857200D02*
X160217857Y-54809580D01*
X160217857Y-54809580D02*
X160313095Y-54666723D01*
X160313095Y-54666723D02*
X160360714Y-54476247D01*
X160360714Y-54476247D02*
X160360714Y-54095295D01*
X160360714Y-54095295D02*
X160313095Y-54000057D01*
X160313095Y-54000057D02*
X160265476Y-53952438D01*
X160265476Y-53952438D02*
X160170238Y-53904819D01*
X160170238Y-53904819D02*
X159979762Y-53904819D01*
X159979762Y-53904819D02*
X159884524Y-53952438D01*
X159884524Y-53952438D02*
X159836905Y-54000057D01*
X159836905Y-54000057D02*
X159789286Y-54095295D01*
X159789286Y-54095295D02*
X159789286Y-54333390D01*
X159789286Y-54333390D02*
X159836905Y-54428628D01*
X159836905Y-54428628D02*
X159884524Y-54476247D01*
X159884524Y-54476247D02*
X159979762Y-54523866D01*
X159979762Y-54523866D02*
X160170238Y-54523866D01*
X160170238Y-54523866D02*
X160265476Y-54476247D01*
X160265476Y-54476247D02*
X160313095Y-54428628D01*
X160313095Y-54428628D02*
X160360714Y-54333390D01*
X140194819Y-85533333D02*
X140909104Y-85533333D01*
X140909104Y-85533333D02*
X141051961Y-85580952D01*
X141051961Y-85580952D02*
X141147200Y-85676190D01*
X141147200Y-85676190D02*
X141194819Y-85819047D01*
X141194819Y-85819047D02*
X141194819Y-85914285D01*
X140194819Y-85152380D02*
X140194819Y-84533333D01*
X140194819Y-84533333D02*
X140575771Y-84866666D01*
X140575771Y-84866666D02*
X140575771Y-84723809D01*
X140575771Y-84723809D02*
X140623390Y-84628571D01*
X140623390Y-84628571D02*
X140671009Y-84580952D01*
X140671009Y-84580952D02*
X140766247Y-84533333D01*
X140766247Y-84533333D02*
X141004342Y-84533333D01*
X141004342Y-84533333D02*
X141099580Y-84580952D01*
X141099580Y-84580952D02*
X141147200Y-84628571D01*
X141147200Y-84628571D02*
X141194819Y-84723809D01*
X141194819Y-84723809D02*
X141194819Y-85009523D01*
X141194819Y-85009523D02*
X141147200Y-85104761D01*
X141147200Y-85104761D02*
X141099580Y-85152380D01*
X180948333Y-63699580D02*
X180900714Y-63747200D01*
X180900714Y-63747200D02*
X180757857Y-63794819D01*
X180757857Y-63794819D02*
X180662619Y-63794819D01*
X180662619Y-63794819D02*
X180519762Y-63747200D01*
X180519762Y-63747200D02*
X180424524Y-63651961D01*
X180424524Y-63651961D02*
X180376905Y-63556723D01*
X180376905Y-63556723D02*
X180329286Y-63366247D01*
X180329286Y-63366247D02*
X180329286Y-63223390D01*
X180329286Y-63223390D02*
X180376905Y-63032914D01*
X180376905Y-63032914D02*
X180424524Y-62937676D01*
X180424524Y-62937676D02*
X180519762Y-62842438D01*
X180519762Y-62842438D02*
X180662619Y-62794819D01*
X180662619Y-62794819D02*
X180757857Y-62794819D01*
X180757857Y-62794819D02*
X180900714Y-62842438D01*
X180900714Y-62842438D02*
X180948333Y-62890057D01*
X181805476Y-63128152D02*
X181805476Y-63794819D01*
X181567381Y-62747200D02*
X181329286Y-63461485D01*
X181329286Y-63461485D02*
X181948333Y-63461485D01*
X160534819Y-90503333D02*
X161249104Y-90503333D01*
X161249104Y-90503333D02*
X161391961Y-90550952D01*
X161391961Y-90550952D02*
X161487200Y-90646190D01*
X161487200Y-90646190D02*
X161534819Y-90789047D01*
X161534819Y-90789047D02*
X161534819Y-90884285D01*
X161534819Y-89979523D02*
X161534819Y-89789047D01*
X161534819Y-89789047D02*
X161487200Y-89693809D01*
X161487200Y-89693809D02*
X161439580Y-89646190D01*
X161439580Y-89646190D02*
X161296723Y-89550952D01*
X161296723Y-89550952D02*
X161106247Y-89503333D01*
X161106247Y-89503333D02*
X160725295Y-89503333D01*
X160725295Y-89503333D02*
X160630057Y-89550952D01*
X160630057Y-89550952D02*
X160582438Y-89598571D01*
X160582438Y-89598571D02*
X160534819Y-89693809D01*
X160534819Y-89693809D02*
X160534819Y-89884285D01*
X160534819Y-89884285D02*
X160582438Y-89979523D01*
X160582438Y-89979523D02*
X160630057Y-90027142D01*
X160630057Y-90027142D02*
X160725295Y-90074761D01*
X160725295Y-90074761D02*
X160963390Y-90074761D01*
X160963390Y-90074761D02*
X161058628Y-90027142D01*
X161058628Y-90027142D02*
X161106247Y-89979523D01*
X161106247Y-89979523D02*
X161153866Y-89884285D01*
X161153866Y-89884285D02*
X161153866Y-89693809D01*
X161153866Y-89693809D02*
X161106247Y-89598571D01*
X161106247Y-89598571D02*
X161058628Y-89550952D01*
X161058628Y-89550952D02*
X160963390Y-89503333D01*
X190352142Y-64019580D02*
X190304523Y-64067200D01*
X190304523Y-64067200D02*
X190161666Y-64114819D01*
X190161666Y-64114819D02*
X190066428Y-64114819D01*
X190066428Y-64114819D02*
X189923571Y-64067200D01*
X189923571Y-64067200D02*
X189828333Y-63971961D01*
X189828333Y-63971961D02*
X189780714Y-63876723D01*
X189780714Y-63876723D02*
X189733095Y-63686247D01*
X189733095Y-63686247D02*
X189733095Y-63543390D01*
X189733095Y-63543390D02*
X189780714Y-63352914D01*
X189780714Y-63352914D02*
X189828333Y-63257676D01*
X189828333Y-63257676D02*
X189923571Y-63162438D01*
X189923571Y-63162438D02*
X190066428Y-63114819D01*
X190066428Y-63114819D02*
X190161666Y-63114819D01*
X190161666Y-63114819D02*
X190304523Y-63162438D01*
X190304523Y-63162438D02*
X190352142Y-63210057D01*
X191304523Y-64114819D02*
X190733095Y-64114819D01*
X191018809Y-64114819D02*
X191018809Y-63114819D01*
X191018809Y-63114819D02*
X190923571Y-63257676D01*
X190923571Y-63257676D02*
X190828333Y-63352914D01*
X190828333Y-63352914D02*
X190733095Y-63400533D01*
X192256904Y-64114819D02*
X191685476Y-64114819D01*
X191971190Y-64114819D02*
X191971190Y-63114819D01*
X191971190Y-63114819D02*
X191875952Y-63257676D01*
X191875952Y-63257676D02*
X191780714Y-63352914D01*
X191780714Y-63352914D02*
X191685476Y-63400533D01*
X146076905Y-79689819D02*
X146076905Y-80499342D01*
X146076905Y-80499342D02*
X146124524Y-80594580D01*
X146124524Y-80594580D02*
X146172143Y-80642200D01*
X146172143Y-80642200D02*
X146267381Y-80689819D01*
X146267381Y-80689819D02*
X146457857Y-80689819D01*
X146457857Y-80689819D02*
X146553095Y-80642200D01*
X146553095Y-80642200D02*
X146600714Y-80594580D01*
X146600714Y-80594580D02*
X146648333Y-80499342D01*
X146648333Y-80499342D02*
X146648333Y-79689819D01*
X147648333Y-80689819D02*
X147076905Y-80689819D01*
X147362619Y-80689819D02*
X147362619Y-79689819D01*
X147362619Y-79689819D02*
X147267381Y-79832676D01*
X147267381Y-79832676D02*
X147172143Y-79927914D01*
X147172143Y-79927914D02*
X147076905Y-79975533D01*
X148267381Y-79689819D02*
X148362619Y-79689819D01*
X148362619Y-79689819D02*
X148457857Y-79737438D01*
X148457857Y-79737438D02*
X148505476Y-79785057D01*
X148505476Y-79785057D02*
X148553095Y-79880295D01*
X148553095Y-79880295D02*
X148600714Y-80070771D01*
X148600714Y-80070771D02*
X148600714Y-80308866D01*
X148600714Y-80308866D02*
X148553095Y-80499342D01*
X148553095Y-80499342D02*
X148505476Y-80594580D01*
X148505476Y-80594580D02*
X148457857Y-80642200D01*
X148457857Y-80642200D02*
X148362619Y-80689819D01*
X148362619Y-80689819D02*
X148267381Y-80689819D01*
X148267381Y-80689819D02*
X148172143Y-80642200D01*
X148172143Y-80642200D02*
X148124524Y-80594580D01*
X148124524Y-80594580D02*
X148076905Y-80499342D01*
X148076905Y-80499342D02*
X148029286Y-80308866D01*
X148029286Y-80308866D02*
X148029286Y-80070771D01*
X148029286Y-80070771D02*
X148076905Y-79880295D01*
X148076905Y-79880295D02*
X148124524Y-79785057D01*
X148124524Y-79785057D02*
X148172143Y-79737438D01*
X148172143Y-79737438D02*
X148267381Y-79689819D01*
X191108333Y-70369580D02*
X191060714Y-70417200D01*
X191060714Y-70417200D02*
X190917857Y-70464819D01*
X190917857Y-70464819D02*
X190822619Y-70464819D01*
X190822619Y-70464819D02*
X190679762Y-70417200D01*
X190679762Y-70417200D02*
X190584524Y-70321961D01*
X190584524Y-70321961D02*
X190536905Y-70226723D01*
X190536905Y-70226723D02*
X190489286Y-70036247D01*
X190489286Y-70036247D02*
X190489286Y-69893390D01*
X190489286Y-69893390D02*
X190536905Y-69702914D01*
X190536905Y-69702914D02*
X190584524Y-69607676D01*
X190584524Y-69607676D02*
X190679762Y-69512438D01*
X190679762Y-69512438D02*
X190822619Y-69464819D01*
X190822619Y-69464819D02*
X190917857Y-69464819D01*
X190917857Y-69464819D02*
X191060714Y-69512438D01*
X191060714Y-69512438D02*
X191108333Y-69560057D01*
X191584524Y-70464819D02*
X191775000Y-70464819D01*
X191775000Y-70464819D02*
X191870238Y-70417200D01*
X191870238Y-70417200D02*
X191917857Y-70369580D01*
X191917857Y-70369580D02*
X192013095Y-70226723D01*
X192013095Y-70226723D02*
X192060714Y-70036247D01*
X192060714Y-70036247D02*
X192060714Y-69655295D01*
X192060714Y-69655295D02*
X192013095Y-69560057D01*
X192013095Y-69560057D02*
X191965476Y-69512438D01*
X191965476Y-69512438D02*
X191870238Y-69464819D01*
X191870238Y-69464819D02*
X191679762Y-69464819D01*
X191679762Y-69464819D02*
X191584524Y-69512438D01*
X191584524Y-69512438D02*
X191536905Y-69560057D01*
X191536905Y-69560057D02*
X191489286Y-69655295D01*
X191489286Y-69655295D02*
X191489286Y-69893390D01*
X191489286Y-69893390D02*
X191536905Y-69988628D01*
X191536905Y-69988628D02*
X191584524Y-70036247D01*
X191584524Y-70036247D02*
X191679762Y-70083866D01*
X191679762Y-70083866D02*
X191870238Y-70083866D01*
X191870238Y-70083866D02*
X191965476Y-70036247D01*
X191965476Y-70036247D02*
X192013095Y-69988628D01*
X192013095Y-69988628D02*
X192060714Y-69893390D01*
X165428333Y-67149580D02*
X165380714Y-67197200D01*
X165380714Y-67197200D02*
X165237857Y-67244819D01*
X165237857Y-67244819D02*
X165142619Y-67244819D01*
X165142619Y-67244819D02*
X164999762Y-67197200D01*
X164999762Y-67197200D02*
X164904524Y-67101961D01*
X164904524Y-67101961D02*
X164856905Y-67006723D01*
X164856905Y-67006723D02*
X164809286Y-66816247D01*
X164809286Y-66816247D02*
X164809286Y-66673390D01*
X164809286Y-66673390D02*
X164856905Y-66482914D01*
X164856905Y-66482914D02*
X164904524Y-66387676D01*
X164904524Y-66387676D02*
X164999762Y-66292438D01*
X164999762Y-66292438D02*
X165142619Y-66244819D01*
X165142619Y-66244819D02*
X165237857Y-66244819D01*
X165237857Y-66244819D02*
X165380714Y-66292438D01*
X165380714Y-66292438D02*
X165428333Y-66340057D01*
X166333095Y-66244819D02*
X165856905Y-66244819D01*
X165856905Y-66244819D02*
X165809286Y-66721009D01*
X165809286Y-66721009D02*
X165856905Y-66673390D01*
X165856905Y-66673390D02*
X165952143Y-66625771D01*
X165952143Y-66625771D02*
X166190238Y-66625771D01*
X166190238Y-66625771D02*
X166285476Y-66673390D01*
X166285476Y-66673390D02*
X166333095Y-66721009D01*
X166333095Y-66721009D02*
X166380714Y-66816247D01*
X166380714Y-66816247D02*
X166380714Y-67054342D01*
X166380714Y-67054342D02*
X166333095Y-67149580D01*
X166333095Y-67149580D02*
X166285476Y-67197200D01*
X166285476Y-67197200D02*
X166190238Y-67244819D01*
X166190238Y-67244819D02*
X165952143Y-67244819D01*
X165952143Y-67244819D02*
X165856905Y-67197200D01*
X165856905Y-67197200D02*
X165809286Y-67149580D01*
X158518333Y-75224819D02*
X158185000Y-74748628D01*
X157946905Y-75224819D02*
X157946905Y-74224819D01*
X157946905Y-74224819D02*
X158327857Y-74224819D01*
X158327857Y-74224819D02*
X158423095Y-74272438D01*
X158423095Y-74272438D02*
X158470714Y-74320057D01*
X158470714Y-74320057D02*
X158518333Y-74415295D01*
X158518333Y-74415295D02*
X158518333Y-74558152D01*
X158518333Y-74558152D02*
X158470714Y-74653390D01*
X158470714Y-74653390D02*
X158423095Y-74701009D01*
X158423095Y-74701009D02*
X158327857Y-74748628D01*
X158327857Y-74748628D02*
X157946905Y-74748628D01*
X159375476Y-74224819D02*
X159185000Y-74224819D01*
X159185000Y-74224819D02*
X159089762Y-74272438D01*
X159089762Y-74272438D02*
X159042143Y-74320057D01*
X159042143Y-74320057D02*
X158946905Y-74462914D01*
X158946905Y-74462914D02*
X158899286Y-74653390D01*
X158899286Y-74653390D02*
X158899286Y-75034342D01*
X158899286Y-75034342D02*
X158946905Y-75129580D01*
X158946905Y-75129580D02*
X158994524Y-75177200D01*
X158994524Y-75177200D02*
X159089762Y-75224819D01*
X159089762Y-75224819D02*
X159280238Y-75224819D01*
X159280238Y-75224819D02*
X159375476Y-75177200D01*
X159375476Y-75177200D02*
X159423095Y-75129580D01*
X159423095Y-75129580D02*
X159470714Y-75034342D01*
X159470714Y-75034342D02*
X159470714Y-74796247D01*
X159470714Y-74796247D02*
X159423095Y-74701009D01*
X159423095Y-74701009D02*
X159375476Y-74653390D01*
X159375476Y-74653390D02*
X159280238Y-74605771D01*
X159280238Y-74605771D02*
X159089762Y-74605771D01*
X159089762Y-74605771D02*
X158994524Y-74653390D01*
X158994524Y-74653390D02*
X158946905Y-74701009D01*
X158946905Y-74701009D02*
X158899286Y-74796247D01*
X160534819Y-84629523D02*
X161249104Y-84629523D01*
X161249104Y-84629523D02*
X161391961Y-84677142D01*
X161391961Y-84677142D02*
X161487200Y-84772380D01*
X161487200Y-84772380D02*
X161534819Y-84915237D01*
X161534819Y-84915237D02*
X161534819Y-85010475D01*
X161534819Y-83629523D02*
X161534819Y-84200951D01*
X161534819Y-83915237D02*
X160534819Y-83915237D01*
X160534819Y-83915237D02*
X160677676Y-84010475D01*
X160677676Y-84010475D02*
X160772914Y-84105713D01*
X160772914Y-84105713D02*
X160820533Y-84200951D01*
X160534819Y-83010475D02*
X160534819Y-82915237D01*
X160534819Y-82915237D02*
X160582438Y-82819999D01*
X160582438Y-82819999D02*
X160630057Y-82772380D01*
X160630057Y-82772380D02*
X160725295Y-82724761D01*
X160725295Y-82724761D02*
X160915771Y-82677142D01*
X160915771Y-82677142D02*
X161153866Y-82677142D01*
X161153866Y-82677142D02*
X161344342Y-82724761D01*
X161344342Y-82724761D02*
X161439580Y-82772380D01*
X161439580Y-82772380D02*
X161487200Y-82819999D01*
X161487200Y-82819999D02*
X161534819Y-82915237D01*
X161534819Y-82915237D02*
X161534819Y-83010475D01*
X161534819Y-83010475D02*
X161487200Y-83105713D01*
X161487200Y-83105713D02*
X161439580Y-83153332D01*
X161439580Y-83153332D02*
X161344342Y-83200951D01*
X161344342Y-83200951D02*
X161153866Y-83248570D01*
X161153866Y-83248570D02*
X160915771Y-83248570D01*
X160915771Y-83248570D02*
X160725295Y-83200951D01*
X160725295Y-83200951D02*
X160630057Y-83153332D01*
X160630057Y-83153332D02*
X160582438Y-83105713D01*
X160582438Y-83105713D02*
X160534819Y-83010475D01*
X180935333Y-69287580D02*
X180887714Y-69335200D01*
X180887714Y-69335200D02*
X180744857Y-69382819D01*
X180744857Y-69382819D02*
X180649619Y-69382819D01*
X180649619Y-69382819D02*
X180506762Y-69335200D01*
X180506762Y-69335200D02*
X180411524Y-69239961D01*
X180411524Y-69239961D02*
X180363905Y-69144723D01*
X180363905Y-69144723D02*
X180316286Y-68954247D01*
X180316286Y-68954247D02*
X180316286Y-68811390D01*
X180316286Y-68811390D02*
X180363905Y-68620914D01*
X180363905Y-68620914D02*
X180411524Y-68525676D01*
X180411524Y-68525676D02*
X180506762Y-68430438D01*
X180506762Y-68430438D02*
X180649619Y-68382819D01*
X180649619Y-68382819D02*
X180744857Y-68382819D01*
X180744857Y-68382819D02*
X180887714Y-68430438D01*
X180887714Y-68430438D02*
X180935333Y-68478057D01*
X181887714Y-69382819D02*
X181316286Y-69382819D01*
X181602000Y-69382819D02*
X181602000Y-68382819D01*
X181602000Y-68382819D02*
X181506762Y-68525676D01*
X181506762Y-68525676D02*
X181411524Y-68620914D01*
X181411524Y-68620914D02*
X181316286Y-68668533D01*
X163838095Y-82896819D02*
X164409523Y-82896819D01*
X164123809Y-83896819D02*
X164123809Y-82896819D01*
X164742857Y-83896819D02*
X164742857Y-82896819D01*
X164742857Y-82896819D02*
X165123809Y-82896819D01*
X165123809Y-82896819D02*
X165219047Y-82944438D01*
X165219047Y-82944438D02*
X165266666Y-82992057D01*
X165266666Y-82992057D02*
X165314285Y-83087295D01*
X165314285Y-83087295D02*
X165314285Y-83230152D01*
X165314285Y-83230152D02*
X165266666Y-83325390D01*
X165266666Y-83325390D02*
X165219047Y-83373009D01*
X165219047Y-83373009D02*
X165123809Y-83420628D01*
X165123809Y-83420628D02*
X164742857Y-83420628D01*
X165647619Y-82896819D02*
X166266666Y-82896819D01*
X166266666Y-82896819D02*
X165933333Y-83277771D01*
X165933333Y-83277771D02*
X166076190Y-83277771D01*
X166076190Y-83277771D02*
X166171428Y-83325390D01*
X166171428Y-83325390D02*
X166219047Y-83373009D01*
X166219047Y-83373009D02*
X166266666Y-83468247D01*
X166266666Y-83468247D02*
X166266666Y-83706342D01*
X166266666Y-83706342D02*
X166219047Y-83801580D01*
X166219047Y-83801580D02*
X166171428Y-83849200D01*
X166171428Y-83849200D02*
X166076190Y-83896819D01*
X166076190Y-83896819D02*
X165790476Y-83896819D01*
X165790476Y-83896819D02*
X165695238Y-83849200D01*
X165695238Y-83849200D02*
X165647619Y-83801580D01*
X204478095Y-61306819D02*
X205049523Y-61306819D01*
X204763809Y-62306819D02*
X204763809Y-61306819D01*
X205382857Y-62306819D02*
X205382857Y-61306819D01*
X205382857Y-61306819D02*
X205763809Y-61306819D01*
X205763809Y-61306819D02*
X205859047Y-61354438D01*
X205859047Y-61354438D02*
X205906666Y-61402057D01*
X205906666Y-61402057D02*
X205954285Y-61497295D01*
X205954285Y-61497295D02*
X205954285Y-61640152D01*
X205954285Y-61640152D02*
X205906666Y-61735390D01*
X205906666Y-61735390D02*
X205859047Y-61783009D01*
X205859047Y-61783009D02*
X205763809Y-61830628D01*
X205763809Y-61830628D02*
X205382857Y-61830628D01*
X206811428Y-61306819D02*
X206620952Y-61306819D01*
X206620952Y-61306819D02*
X206525714Y-61354438D01*
X206525714Y-61354438D02*
X206478095Y-61402057D01*
X206478095Y-61402057D02*
X206382857Y-61544914D01*
X206382857Y-61544914D02*
X206335238Y-61735390D01*
X206335238Y-61735390D02*
X206335238Y-62116342D01*
X206335238Y-62116342D02*
X206382857Y-62211580D01*
X206382857Y-62211580D02*
X206430476Y-62259200D01*
X206430476Y-62259200D02*
X206525714Y-62306819D01*
X206525714Y-62306819D02*
X206716190Y-62306819D01*
X206716190Y-62306819D02*
X206811428Y-62259200D01*
X206811428Y-62259200D02*
X206859047Y-62211580D01*
X206859047Y-62211580D02*
X206906666Y-62116342D01*
X206906666Y-62116342D02*
X206906666Y-61878247D01*
X206906666Y-61878247D02*
X206859047Y-61783009D01*
X206859047Y-61783009D02*
X206811428Y-61735390D01*
X206811428Y-61735390D02*
X206716190Y-61687771D01*
X206716190Y-61687771D02*
X206525714Y-61687771D01*
X206525714Y-61687771D02*
X206430476Y-61735390D01*
X206430476Y-61735390D02*
X206382857Y-61783009D01*
X206382857Y-61783009D02*
X206335238Y-61878247D01*
X188206779Y-71733488D02*
X188206779Y-72543011D01*
X188206779Y-72543011D02*
X188254398Y-72638249D01*
X188254398Y-72638249D02*
X188302017Y-72685869D01*
X188302017Y-72685869D02*
X188397255Y-72733488D01*
X188397255Y-72733488D02*
X188587731Y-72733488D01*
X188587731Y-72733488D02*
X188682969Y-72685869D01*
X188682969Y-72685869D02*
X188730588Y-72638249D01*
X188730588Y-72638249D02*
X188778207Y-72543011D01*
X188778207Y-72543011D02*
X188778207Y-71733488D01*
X189159160Y-71733488D02*
X189825826Y-71733488D01*
X189825826Y-71733488D02*
X189397255Y-72733488D01*
X207052142Y-83164819D02*
X206718809Y-82688628D01*
X206480714Y-83164819D02*
X206480714Y-82164819D01*
X206480714Y-82164819D02*
X206861666Y-82164819D01*
X206861666Y-82164819D02*
X206956904Y-82212438D01*
X206956904Y-82212438D02*
X207004523Y-82260057D01*
X207004523Y-82260057D02*
X207052142Y-82355295D01*
X207052142Y-82355295D02*
X207052142Y-82498152D01*
X207052142Y-82498152D02*
X207004523Y-82593390D01*
X207004523Y-82593390D02*
X206956904Y-82641009D01*
X206956904Y-82641009D02*
X206861666Y-82688628D01*
X206861666Y-82688628D02*
X206480714Y-82688628D01*
X208004523Y-83164819D02*
X207433095Y-83164819D01*
X207718809Y-83164819D02*
X207718809Y-82164819D01*
X207718809Y-82164819D02*
X207623571Y-82307676D01*
X207623571Y-82307676D02*
X207528333Y-82402914D01*
X207528333Y-82402914D02*
X207433095Y-82450533D01*
X208385476Y-82260057D02*
X208433095Y-82212438D01*
X208433095Y-82212438D02*
X208528333Y-82164819D01*
X208528333Y-82164819D02*
X208766428Y-82164819D01*
X208766428Y-82164819D02*
X208861666Y-82212438D01*
X208861666Y-82212438D02*
X208909285Y-82260057D01*
X208909285Y-82260057D02*
X208956904Y-82355295D01*
X208956904Y-82355295D02*
X208956904Y-82450533D01*
X208956904Y-82450533D02*
X208909285Y-82593390D01*
X208909285Y-82593390D02*
X208337857Y-83164819D01*
X208337857Y-83164819D02*
X208956904Y-83164819D01*
X143921779Y-49034819D02*
X143921779Y-49844342D01*
X143921779Y-49844342D02*
X143969398Y-49939580D01*
X143969398Y-49939580D02*
X144017017Y-49987200D01*
X144017017Y-49987200D02*
X144112255Y-50034819D01*
X144112255Y-50034819D02*
X144302731Y-50034819D01*
X144302731Y-50034819D02*
X144397969Y-49987200D01*
X144397969Y-49987200D02*
X144445588Y-49939580D01*
X144445588Y-49939580D02*
X144493207Y-49844342D01*
X144493207Y-49844342D02*
X144493207Y-49034819D01*
X145493207Y-50034819D02*
X144921779Y-50034819D01*
X145207493Y-50034819D02*
X145207493Y-49034819D01*
X145207493Y-49034819D02*
X145112255Y-49177676D01*
X145112255Y-49177676D02*
X145017017Y-49272914D01*
X145017017Y-49272914D02*
X144921779Y-49320533D01*
X140194819Y-56323333D02*
X140909104Y-56323333D01*
X140909104Y-56323333D02*
X141051961Y-56370952D01*
X141051961Y-56370952D02*
X141147200Y-56466190D01*
X141147200Y-56466190D02*
X141194819Y-56609047D01*
X141194819Y-56609047D02*
X141194819Y-56704285D01*
X140290057Y-55894761D02*
X140242438Y-55847142D01*
X140242438Y-55847142D02*
X140194819Y-55751904D01*
X140194819Y-55751904D02*
X140194819Y-55513809D01*
X140194819Y-55513809D02*
X140242438Y-55418571D01*
X140242438Y-55418571D02*
X140290057Y-55370952D01*
X140290057Y-55370952D02*
X140385295Y-55323333D01*
X140385295Y-55323333D02*
X140480533Y-55323333D01*
X140480533Y-55323333D02*
X140623390Y-55370952D01*
X140623390Y-55370952D02*
X141194819Y-55942380D01*
X141194819Y-55942380D02*
X141194819Y-55323333D01*
X154328333Y-70144819D02*
X153995000Y-69668628D01*
X153756905Y-70144819D02*
X153756905Y-69144819D01*
X153756905Y-69144819D02*
X154137857Y-69144819D01*
X154137857Y-69144819D02*
X154233095Y-69192438D01*
X154233095Y-69192438D02*
X154280714Y-69240057D01*
X154280714Y-69240057D02*
X154328333Y-69335295D01*
X154328333Y-69335295D02*
X154328333Y-69478152D01*
X154328333Y-69478152D02*
X154280714Y-69573390D01*
X154280714Y-69573390D02*
X154233095Y-69621009D01*
X154233095Y-69621009D02*
X154137857Y-69668628D01*
X154137857Y-69668628D02*
X153756905Y-69668628D01*
X155233095Y-69144819D02*
X154756905Y-69144819D01*
X154756905Y-69144819D02*
X154709286Y-69621009D01*
X154709286Y-69621009D02*
X154756905Y-69573390D01*
X154756905Y-69573390D02*
X154852143Y-69525771D01*
X154852143Y-69525771D02*
X155090238Y-69525771D01*
X155090238Y-69525771D02*
X155185476Y-69573390D01*
X155185476Y-69573390D02*
X155233095Y-69621009D01*
X155233095Y-69621009D02*
X155280714Y-69716247D01*
X155280714Y-69716247D02*
X155280714Y-69954342D01*
X155280714Y-69954342D02*
X155233095Y-70049580D01*
X155233095Y-70049580D02*
X155185476Y-70097200D01*
X155185476Y-70097200D02*
X155090238Y-70144819D01*
X155090238Y-70144819D02*
X154852143Y-70144819D01*
X154852143Y-70144819D02*
X154756905Y-70097200D01*
X154756905Y-70097200D02*
X154709286Y-70049580D01*
X180948333Y-81799580D02*
X180900714Y-81847200D01*
X180900714Y-81847200D02*
X180757857Y-81894819D01*
X180757857Y-81894819D02*
X180662619Y-81894819D01*
X180662619Y-81894819D02*
X180519762Y-81847200D01*
X180519762Y-81847200D02*
X180424524Y-81751961D01*
X180424524Y-81751961D02*
X180376905Y-81656723D01*
X180376905Y-81656723D02*
X180329286Y-81466247D01*
X180329286Y-81466247D02*
X180329286Y-81323390D01*
X180329286Y-81323390D02*
X180376905Y-81132914D01*
X180376905Y-81132914D02*
X180424524Y-81037676D01*
X180424524Y-81037676D02*
X180519762Y-80942438D01*
X180519762Y-80942438D02*
X180662619Y-80894819D01*
X180662619Y-80894819D02*
X180757857Y-80894819D01*
X180757857Y-80894819D02*
X180900714Y-80942438D01*
X180900714Y-80942438D02*
X180948333Y-80990057D01*
X181805476Y-80894819D02*
X181615000Y-80894819D01*
X181615000Y-80894819D02*
X181519762Y-80942438D01*
X181519762Y-80942438D02*
X181472143Y-80990057D01*
X181472143Y-80990057D02*
X181376905Y-81132914D01*
X181376905Y-81132914D02*
X181329286Y-81323390D01*
X181329286Y-81323390D02*
X181329286Y-81704342D01*
X181329286Y-81704342D02*
X181376905Y-81799580D01*
X181376905Y-81799580D02*
X181424524Y-81847200D01*
X181424524Y-81847200D02*
X181519762Y-81894819D01*
X181519762Y-81894819D02*
X181710238Y-81894819D01*
X181710238Y-81894819D02*
X181805476Y-81847200D01*
X181805476Y-81847200D02*
X181853095Y-81799580D01*
X181853095Y-81799580D02*
X181900714Y-81704342D01*
X181900714Y-81704342D02*
X181900714Y-81466247D01*
X181900714Y-81466247D02*
X181853095Y-81371009D01*
X181853095Y-81371009D02*
X181805476Y-81323390D01*
X181805476Y-81323390D02*
X181710238Y-81275771D01*
X181710238Y-81275771D02*
X181519762Y-81275771D01*
X181519762Y-81275771D02*
X181424524Y-81323390D01*
X181424524Y-81323390D02*
X181376905Y-81371009D01*
X181376905Y-81371009D02*
X181329286Y-81466247D01*
X145768333Y-62524819D02*
X145435000Y-62048628D01*
X145196905Y-62524819D02*
X145196905Y-61524819D01*
X145196905Y-61524819D02*
X145577857Y-61524819D01*
X145577857Y-61524819D02*
X145673095Y-61572438D01*
X145673095Y-61572438D02*
X145720714Y-61620057D01*
X145720714Y-61620057D02*
X145768333Y-61715295D01*
X145768333Y-61715295D02*
X145768333Y-61858152D01*
X145768333Y-61858152D02*
X145720714Y-61953390D01*
X145720714Y-61953390D02*
X145673095Y-62001009D01*
X145673095Y-62001009D02*
X145577857Y-62048628D01*
X145577857Y-62048628D02*
X145196905Y-62048628D01*
X146720714Y-62524819D02*
X146149286Y-62524819D01*
X146435000Y-62524819D02*
X146435000Y-61524819D01*
X146435000Y-61524819D02*
X146339762Y-61667676D01*
X146339762Y-61667676D02*
X146244524Y-61762914D01*
X146244524Y-61762914D02*
X146149286Y-61810533D01*
X163838095Y-76546819D02*
X164409523Y-76546819D01*
X164123809Y-77546819D02*
X164123809Y-76546819D01*
X164742857Y-77546819D02*
X164742857Y-76546819D01*
X164742857Y-76546819D02*
X165123809Y-76546819D01*
X165123809Y-76546819D02*
X165219047Y-76594438D01*
X165219047Y-76594438D02*
X165266666Y-76642057D01*
X165266666Y-76642057D02*
X165314285Y-76737295D01*
X165314285Y-76737295D02*
X165314285Y-76880152D01*
X165314285Y-76880152D02*
X165266666Y-76975390D01*
X165266666Y-76975390D02*
X165219047Y-77023009D01*
X165219047Y-77023009D02*
X165123809Y-77070628D01*
X165123809Y-77070628D02*
X164742857Y-77070628D01*
X165695238Y-76642057D02*
X165742857Y-76594438D01*
X165742857Y-76594438D02*
X165838095Y-76546819D01*
X165838095Y-76546819D02*
X166076190Y-76546819D01*
X166076190Y-76546819D02*
X166171428Y-76594438D01*
X166171428Y-76594438D02*
X166219047Y-76642057D01*
X166219047Y-76642057D02*
X166266666Y-76737295D01*
X166266666Y-76737295D02*
X166266666Y-76832533D01*
X166266666Y-76832533D02*
X166219047Y-76975390D01*
X166219047Y-76975390D02*
X165647619Y-77546819D01*
X165647619Y-77546819D02*
X166266666Y-77546819D01*
X206952142Y-93324819D02*
X206618809Y-92848628D01*
X206380714Y-93324819D02*
X206380714Y-92324819D01*
X206380714Y-92324819D02*
X206761666Y-92324819D01*
X206761666Y-92324819D02*
X206856904Y-92372438D01*
X206856904Y-92372438D02*
X206904523Y-92420057D01*
X206904523Y-92420057D02*
X206952142Y-92515295D01*
X206952142Y-92515295D02*
X206952142Y-92658152D01*
X206952142Y-92658152D02*
X206904523Y-92753390D01*
X206904523Y-92753390D02*
X206856904Y-92801009D01*
X206856904Y-92801009D02*
X206761666Y-92848628D01*
X206761666Y-92848628D02*
X206380714Y-92848628D01*
X207904523Y-93324819D02*
X207333095Y-93324819D01*
X207618809Y-93324819D02*
X207618809Y-92324819D01*
X207618809Y-92324819D02*
X207523571Y-92467676D01*
X207523571Y-92467676D02*
X207428333Y-92562914D01*
X207428333Y-92562914D02*
X207333095Y-92610533D01*
X208761666Y-92658152D02*
X208761666Y-93324819D01*
X208523571Y-92277200D02*
X208285476Y-92991485D01*
X208285476Y-92991485D02*
X208904523Y-92991485D01*
X172156666Y-61454819D02*
X172156666Y-62169104D01*
X172156666Y-62169104D02*
X172109047Y-62311961D01*
X172109047Y-62311961D02*
X172013809Y-62407200D01*
X172013809Y-62407200D02*
X171870952Y-62454819D01*
X171870952Y-62454819D02*
X171775714Y-62454819D01*
X172775714Y-61883390D02*
X172680476Y-61835771D01*
X172680476Y-61835771D02*
X172632857Y-61788152D01*
X172632857Y-61788152D02*
X172585238Y-61692914D01*
X172585238Y-61692914D02*
X172585238Y-61645295D01*
X172585238Y-61645295D02*
X172632857Y-61550057D01*
X172632857Y-61550057D02*
X172680476Y-61502438D01*
X172680476Y-61502438D02*
X172775714Y-61454819D01*
X172775714Y-61454819D02*
X172966190Y-61454819D01*
X172966190Y-61454819D02*
X173061428Y-61502438D01*
X173061428Y-61502438D02*
X173109047Y-61550057D01*
X173109047Y-61550057D02*
X173156666Y-61645295D01*
X173156666Y-61645295D02*
X173156666Y-61692914D01*
X173156666Y-61692914D02*
X173109047Y-61788152D01*
X173109047Y-61788152D02*
X173061428Y-61835771D01*
X173061428Y-61835771D02*
X172966190Y-61883390D01*
X172966190Y-61883390D02*
X172775714Y-61883390D01*
X172775714Y-61883390D02*
X172680476Y-61931009D01*
X172680476Y-61931009D02*
X172632857Y-61978628D01*
X172632857Y-61978628D02*
X172585238Y-62073866D01*
X172585238Y-62073866D02*
X172585238Y-62264342D01*
X172585238Y-62264342D02*
X172632857Y-62359580D01*
X172632857Y-62359580D02*
X172680476Y-62407200D01*
X172680476Y-62407200D02*
X172775714Y-62454819D01*
X172775714Y-62454819D02*
X172966190Y-62454819D01*
X172966190Y-62454819D02*
X173061428Y-62407200D01*
X173061428Y-62407200D02*
X173109047Y-62359580D01*
X173109047Y-62359580D02*
X173156666Y-62264342D01*
X173156666Y-62264342D02*
X173156666Y-62073866D01*
X173156666Y-62073866D02*
X173109047Y-61978628D01*
X173109047Y-61978628D02*
X173061428Y-61931009D01*
X173061428Y-61931009D02*
X172966190Y-61883390D01*
X184758333Y-66239580D02*
X184710714Y-66287200D01*
X184710714Y-66287200D02*
X184567857Y-66334819D01*
X184567857Y-66334819D02*
X184472619Y-66334819D01*
X184472619Y-66334819D02*
X184329762Y-66287200D01*
X184329762Y-66287200D02*
X184234524Y-66191961D01*
X184234524Y-66191961D02*
X184186905Y-66096723D01*
X184186905Y-66096723D02*
X184139286Y-65906247D01*
X184139286Y-65906247D02*
X184139286Y-65763390D01*
X184139286Y-65763390D02*
X184186905Y-65572914D01*
X184186905Y-65572914D02*
X184234524Y-65477676D01*
X184234524Y-65477676D02*
X184329762Y-65382438D01*
X184329762Y-65382438D02*
X184472619Y-65334819D01*
X184472619Y-65334819D02*
X184567857Y-65334819D01*
X184567857Y-65334819D02*
X184710714Y-65382438D01*
X184710714Y-65382438D02*
X184758333Y-65430057D01*
X185139286Y-65430057D02*
X185186905Y-65382438D01*
X185186905Y-65382438D02*
X185282143Y-65334819D01*
X185282143Y-65334819D02*
X185520238Y-65334819D01*
X185520238Y-65334819D02*
X185615476Y-65382438D01*
X185615476Y-65382438D02*
X185663095Y-65430057D01*
X185663095Y-65430057D02*
X185710714Y-65525295D01*
X185710714Y-65525295D02*
X185710714Y-65620533D01*
X185710714Y-65620533D02*
X185663095Y-65763390D01*
X185663095Y-65763390D02*
X185091667Y-66334819D01*
X185091667Y-66334819D02*
X185710714Y-66334819D01*
X180948333Y-73859580D02*
X180900714Y-73907200D01*
X180900714Y-73907200D02*
X180757857Y-73954819D01*
X180757857Y-73954819D02*
X180662619Y-73954819D01*
X180662619Y-73954819D02*
X180519762Y-73907200D01*
X180519762Y-73907200D02*
X180424524Y-73811961D01*
X180424524Y-73811961D02*
X180376905Y-73716723D01*
X180376905Y-73716723D02*
X180329286Y-73526247D01*
X180329286Y-73526247D02*
X180329286Y-73383390D01*
X180329286Y-73383390D02*
X180376905Y-73192914D01*
X180376905Y-73192914D02*
X180424524Y-73097676D01*
X180424524Y-73097676D02*
X180519762Y-73002438D01*
X180519762Y-73002438D02*
X180662619Y-72954819D01*
X180662619Y-72954819D02*
X180757857Y-72954819D01*
X180757857Y-72954819D02*
X180900714Y-73002438D01*
X180900714Y-73002438D02*
X180948333Y-73050057D01*
X181519762Y-73383390D02*
X181424524Y-73335771D01*
X181424524Y-73335771D02*
X181376905Y-73288152D01*
X181376905Y-73288152D02*
X181329286Y-73192914D01*
X181329286Y-73192914D02*
X181329286Y-73145295D01*
X181329286Y-73145295D02*
X181376905Y-73050057D01*
X181376905Y-73050057D02*
X181424524Y-73002438D01*
X181424524Y-73002438D02*
X181519762Y-72954819D01*
X181519762Y-72954819D02*
X181710238Y-72954819D01*
X181710238Y-72954819D02*
X181805476Y-73002438D01*
X181805476Y-73002438D02*
X181853095Y-73050057D01*
X181853095Y-73050057D02*
X181900714Y-73145295D01*
X181900714Y-73145295D02*
X181900714Y-73192914D01*
X181900714Y-73192914D02*
X181853095Y-73288152D01*
X181853095Y-73288152D02*
X181805476Y-73335771D01*
X181805476Y-73335771D02*
X181710238Y-73383390D01*
X181710238Y-73383390D02*
X181519762Y-73383390D01*
X181519762Y-73383390D02*
X181424524Y-73431009D01*
X181424524Y-73431009D02*
X181376905Y-73478628D01*
X181376905Y-73478628D02*
X181329286Y-73573866D01*
X181329286Y-73573866D02*
X181329286Y-73764342D01*
X181329286Y-73764342D02*
X181376905Y-73859580D01*
X181376905Y-73859580D02*
X181424524Y-73907200D01*
X181424524Y-73907200D02*
X181519762Y-73954819D01*
X181519762Y-73954819D02*
X181710238Y-73954819D01*
X181710238Y-73954819D02*
X181805476Y-73907200D01*
X181805476Y-73907200D02*
X181853095Y-73859580D01*
X181853095Y-73859580D02*
X181900714Y-73764342D01*
X181900714Y-73764342D02*
X181900714Y-73573866D01*
X181900714Y-73573866D02*
X181853095Y-73478628D01*
X181853095Y-73478628D02*
X181805476Y-73431009D01*
X181805476Y-73431009D02*
X181710238Y-73383390D01*
X145485595Y-66609819D02*
X145485595Y-67419342D01*
X145485595Y-67419342D02*
X145533214Y-67514580D01*
X145533214Y-67514580D02*
X145580833Y-67562200D01*
X145580833Y-67562200D02*
X145676071Y-67609819D01*
X145676071Y-67609819D02*
X145866547Y-67609819D01*
X145866547Y-67609819D02*
X145961785Y-67562200D01*
X145961785Y-67562200D02*
X146009404Y-67514580D01*
X146009404Y-67514580D02*
X146057023Y-67419342D01*
X146057023Y-67419342D02*
X146057023Y-66609819D01*
X146485595Y-66705057D02*
X146533214Y-66657438D01*
X146533214Y-66657438D02*
X146628452Y-66609819D01*
X146628452Y-66609819D02*
X146866547Y-66609819D01*
X146866547Y-66609819D02*
X146961785Y-66657438D01*
X146961785Y-66657438D02*
X147009404Y-66705057D01*
X147009404Y-66705057D02*
X147057023Y-66800295D01*
X147057023Y-66800295D02*
X147057023Y-66895533D01*
X147057023Y-66895533D02*
X147009404Y-67038390D01*
X147009404Y-67038390D02*
X146437976Y-67609819D01*
X146437976Y-67609819D02*
X147057023Y-67609819D01*
X165428333Y-68779580D02*
X165380714Y-68827200D01*
X165380714Y-68827200D02*
X165237857Y-68874819D01*
X165237857Y-68874819D02*
X165142619Y-68874819D01*
X165142619Y-68874819D02*
X164999762Y-68827200D01*
X164999762Y-68827200D02*
X164904524Y-68731961D01*
X164904524Y-68731961D02*
X164856905Y-68636723D01*
X164856905Y-68636723D02*
X164809286Y-68446247D01*
X164809286Y-68446247D02*
X164809286Y-68303390D01*
X164809286Y-68303390D02*
X164856905Y-68112914D01*
X164856905Y-68112914D02*
X164904524Y-68017676D01*
X164904524Y-68017676D02*
X164999762Y-67922438D01*
X164999762Y-67922438D02*
X165142619Y-67874819D01*
X165142619Y-67874819D02*
X165237857Y-67874819D01*
X165237857Y-67874819D02*
X165380714Y-67922438D01*
X165380714Y-67922438D02*
X165428333Y-67970057D01*
X165761667Y-67874819D02*
X166380714Y-67874819D01*
X166380714Y-67874819D02*
X166047381Y-68255771D01*
X166047381Y-68255771D02*
X166190238Y-68255771D01*
X166190238Y-68255771D02*
X166285476Y-68303390D01*
X166285476Y-68303390D02*
X166333095Y-68351009D01*
X166333095Y-68351009D02*
X166380714Y-68446247D01*
X166380714Y-68446247D02*
X166380714Y-68684342D01*
X166380714Y-68684342D02*
X166333095Y-68779580D01*
X166333095Y-68779580D02*
X166285476Y-68827200D01*
X166285476Y-68827200D02*
X166190238Y-68874819D01*
X166190238Y-68874819D02*
X165904524Y-68874819D01*
X165904524Y-68874819D02*
X165809286Y-68827200D01*
X165809286Y-68827200D02*
X165761667Y-68779580D01*
X213696779Y-41369819D02*
X213696779Y-42179342D01*
X213696779Y-42179342D02*
X213744398Y-42274580D01*
X213744398Y-42274580D02*
X213792017Y-42322200D01*
X213792017Y-42322200D02*
X213887255Y-42369819D01*
X213887255Y-42369819D02*
X214077731Y-42369819D01*
X214077731Y-42369819D02*
X214172969Y-42322200D01*
X214172969Y-42322200D02*
X214220588Y-42274580D01*
X214220588Y-42274580D02*
X214268207Y-42179342D01*
X214268207Y-42179342D02*
X214268207Y-41369819D01*
X214887255Y-41798390D02*
X214792017Y-41750771D01*
X214792017Y-41750771D02*
X214744398Y-41703152D01*
X214744398Y-41703152D02*
X214696779Y-41607914D01*
X214696779Y-41607914D02*
X214696779Y-41560295D01*
X214696779Y-41560295D02*
X214744398Y-41465057D01*
X214744398Y-41465057D02*
X214792017Y-41417438D01*
X214792017Y-41417438D02*
X214887255Y-41369819D01*
X214887255Y-41369819D02*
X215077731Y-41369819D01*
X215077731Y-41369819D02*
X215172969Y-41417438D01*
X215172969Y-41417438D02*
X215220588Y-41465057D01*
X215220588Y-41465057D02*
X215268207Y-41560295D01*
X215268207Y-41560295D02*
X215268207Y-41607914D01*
X215268207Y-41607914D02*
X215220588Y-41703152D01*
X215220588Y-41703152D02*
X215172969Y-41750771D01*
X215172969Y-41750771D02*
X215077731Y-41798390D01*
X215077731Y-41798390D02*
X214887255Y-41798390D01*
X214887255Y-41798390D02*
X214792017Y-41846009D01*
X214792017Y-41846009D02*
X214744398Y-41893628D01*
X214744398Y-41893628D02*
X214696779Y-41988866D01*
X214696779Y-41988866D02*
X214696779Y-42179342D01*
X214696779Y-42179342D02*
X214744398Y-42274580D01*
X214744398Y-42274580D02*
X214792017Y-42322200D01*
X214792017Y-42322200D02*
X214887255Y-42369819D01*
X214887255Y-42369819D02*
X215077731Y-42369819D01*
X215077731Y-42369819D02*
X215172969Y-42322200D01*
X215172969Y-42322200D02*
X215220588Y-42274580D01*
X215220588Y-42274580D02*
X215268207Y-42179342D01*
X215268207Y-42179342D02*
X215268207Y-41988866D01*
X215268207Y-41988866D02*
X215220588Y-41893628D01*
X215220588Y-41893628D02*
X215172969Y-41846009D01*
X215172969Y-41846009D02*
X215077731Y-41798390D01*
X174580595Y-75474819D02*
X174580595Y-76284342D01*
X174580595Y-76284342D02*
X174628214Y-76379580D01*
X174628214Y-76379580D02*
X174675833Y-76427200D01*
X174675833Y-76427200D02*
X174771071Y-76474819D01*
X174771071Y-76474819D02*
X174961547Y-76474819D01*
X174961547Y-76474819D02*
X175056785Y-76427200D01*
X175056785Y-76427200D02*
X175104404Y-76379580D01*
X175104404Y-76379580D02*
X175152023Y-76284342D01*
X175152023Y-76284342D02*
X175152023Y-75474819D01*
X176104404Y-75474819D02*
X175628214Y-75474819D01*
X175628214Y-75474819D02*
X175580595Y-75951009D01*
X175580595Y-75951009D02*
X175628214Y-75903390D01*
X175628214Y-75903390D02*
X175723452Y-75855771D01*
X175723452Y-75855771D02*
X175961547Y-75855771D01*
X175961547Y-75855771D02*
X176056785Y-75903390D01*
X176056785Y-75903390D02*
X176104404Y-75951009D01*
X176104404Y-75951009D02*
X176152023Y-76046247D01*
X176152023Y-76046247D02*
X176152023Y-76284342D01*
X176152023Y-76284342D02*
X176104404Y-76379580D01*
X176104404Y-76379580D02*
X176056785Y-76427200D01*
X176056785Y-76427200D02*
X175961547Y-76474819D01*
X175961547Y-76474819D02*
X175723452Y-76474819D01*
X175723452Y-76474819D02*
X175628214Y-76427200D01*
X175628214Y-76427200D02*
X175580595Y-76379580D01*
X170228333Y-79259580D02*
X170180714Y-79307200D01*
X170180714Y-79307200D02*
X170037857Y-79354819D01*
X170037857Y-79354819D02*
X169942619Y-79354819D01*
X169942619Y-79354819D02*
X169799762Y-79307200D01*
X169799762Y-79307200D02*
X169704524Y-79211961D01*
X169704524Y-79211961D02*
X169656905Y-79116723D01*
X169656905Y-79116723D02*
X169609286Y-78926247D01*
X169609286Y-78926247D02*
X169609286Y-78783390D01*
X169609286Y-78783390D02*
X169656905Y-78592914D01*
X169656905Y-78592914D02*
X169704524Y-78497676D01*
X169704524Y-78497676D02*
X169799762Y-78402438D01*
X169799762Y-78402438D02*
X169942619Y-78354819D01*
X169942619Y-78354819D02*
X170037857Y-78354819D01*
X170037857Y-78354819D02*
X170180714Y-78402438D01*
X170180714Y-78402438D02*
X170228333Y-78450057D01*
X170561667Y-78354819D02*
X171228333Y-78354819D01*
X171228333Y-78354819D02*
X170799762Y-79354819D01*
X201922142Y-90369580D02*
X201874523Y-90417200D01*
X201874523Y-90417200D02*
X201731666Y-90464819D01*
X201731666Y-90464819D02*
X201636428Y-90464819D01*
X201636428Y-90464819D02*
X201493571Y-90417200D01*
X201493571Y-90417200D02*
X201398333Y-90321961D01*
X201398333Y-90321961D02*
X201350714Y-90226723D01*
X201350714Y-90226723D02*
X201303095Y-90036247D01*
X201303095Y-90036247D02*
X201303095Y-89893390D01*
X201303095Y-89893390D02*
X201350714Y-89702914D01*
X201350714Y-89702914D02*
X201398333Y-89607676D01*
X201398333Y-89607676D02*
X201493571Y-89512438D01*
X201493571Y-89512438D02*
X201636428Y-89464819D01*
X201636428Y-89464819D02*
X201731666Y-89464819D01*
X201731666Y-89464819D02*
X201874523Y-89512438D01*
X201874523Y-89512438D02*
X201922142Y-89560057D01*
X202874523Y-90464819D02*
X202303095Y-90464819D01*
X202588809Y-90464819D02*
X202588809Y-89464819D01*
X202588809Y-89464819D02*
X202493571Y-89607676D01*
X202493571Y-89607676D02*
X202398333Y-89702914D01*
X202398333Y-89702914D02*
X202303095Y-89750533D01*
X203731666Y-89798152D02*
X203731666Y-90464819D01*
X203493571Y-89417200D02*
X203255476Y-90131485D01*
X203255476Y-90131485D02*
X203874523Y-90131485D01*
X201922142Y-85289580D02*
X201874523Y-85337200D01*
X201874523Y-85337200D02*
X201731666Y-85384819D01*
X201731666Y-85384819D02*
X201636428Y-85384819D01*
X201636428Y-85384819D02*
X201493571Y-85337200D01*
X201493571Y-85337200D02*
X201398333Y-85241961D01*
X201398333Y-85241961D02*
X201350714Y-85146723D01*
X201350714Y-85146723D02*
X201303095Y-84956247D01*
X201303095Y-84956247D02*
X201303095Y-84813390D01*
X201303095Y-84813390D02*
X201350714Y-84622914D01*
X201350714Y-84622914D02*
X201398333Y-84527676D01*
X201398333Y-84527676D02*
X201493571Y-84432438D01*
X201493571Y-84432438D02*
X201636428Y-84384819D01*
X201636428Y-84384819D02*
X201731666Y-84384819D01*
X201731666Y-84384819D02*
X201874523Y-84432438D01*
X201874523Y-84432438D02*
X201922142Y-84480057D01*
X202874523Y-85384819D02*
X202303095Y-85384819D01*
X202588809Y-85384819D02*
X202588809Y-84384819D01*
X202588809Y-84384819D02*
X202493571Y-84527676D01*
X202493571Y-84527676D02*
X202398333Y-84622914D01*
X202398333Y-84622914D02*
X202303095Y-84670533D01*
X203207857Y-84384819D02*
X203826904Y-84384819D01*
X203826904Y-84384819D02*
X203493571Y-84765771D01*
X203493571Y-84765771D02*
X203636428Y-84765771D01*
X203636428Y-84765771D02*
X203731666Y-84813390D01*
X203731666Y-84813390D02*
X203779285Y-84861009D01*
X203779285Y-84861009D02*
X203826904Y-84956247D01*
X203826904Y-84956247D02*
X203826904Y-85194342D01*
X203826904Y-85194342D02*
X203779285Y-85289580D01*
X203779285Y-85289580D02*
X203731666Y-85337200D01*
X203731666Y-85337200D02*
X203636428Y-85384819D01*
X203636428Y-85384819D02*
X203350714Y-85384819D01*
X203350714Y-85384819D02*
X203255476Y-85337200D01*
X203255476Y-85337200D02*
X203207857Y-85289580D01*
X197439411Y-97634819D02*
X197439411Y-98444342D01*
X197439411Y-98444342D02*
X197487030Y-98539580D01*
X197487030Y-98539580D02*
X197534649Y-98587200D01*
X197534649Y-98587200D02*
X197629887Y-98634819D01*
X197629887Y-98634819D02*
X197820363Y-98634819D01*
X197820363Y-98634819D02*
X197915601Y-98587200D01*
X197915601Y-98587200D02*
X197963220Y-98539580D01*
X197963220Y-98539580D02*
X198010839Y-98444342D01*
X198010839Y-98444342D02*
X198010839Y-97634819D01*
X198534649Y-98634819D02*
X198725125Y-98634819D01*
X198725125Y-98634819D02*
X198820363Y-98587200D01*
X198820363Y-98587200D02*
X198867982Y-98539580D01*
X198867982Y-98539580D02*
X198963220Y-98396723D01*
X198963220Y-98396723D02*
X199010839Y-98206247D01*
X199010839Y-98206247D02*
X199010839Y-97825295D01*
X199010839Y-97825295D02*
X198963220Y-97730057D01*
X198963220Y-97730057D02*
X198915601Y-97682438D01*
X198915601Y-97682438D02*
X198820363Y-97634819D01*
X198820363Y-97634819D02*
X198629887Y-97634819D01*
X198629887Y-97634819D02*
X198534649Y-97682438D01*
X198534649Y-97682438D02*
X198487030Y-97730057D01*
X198487030Y-97730057D02*
X198439411Y-97825295D01*
X198439411Y-97825295D02*
X198439411Y-98063390D01*
X198439411Y-98063390D02*
X198487030Y-98158628D01*
X198487030Y-98158628D02*
X198534649Y-98206247D01*
X198534649Y-98206247D02*
X198629887Y-98253866D01*
X198629887Y-98253866D02*
X198820363Y-98253866D01*
X198820363Y-98253866D02*
X198915601Y-98206247D01*
X198915601Y-98206247D02*
X198963220Y-98158628D01*
X198963220Y-98158628D02*
X199010839Y-98063390D01*
X205032142Y-76179819D02*
X204698809Y-75703628D01*
X204460714Y-76179819D02*
X204460714Y-75179819D01*
X204460714Y-75179819D02*
X204841666Y-75179819D01*
X204841666Y-75179819D02*
X204936904Y-75227438D01*
X204936904Y-75227438D02*
X204984523Y-75275057D01*
X204984523Y-75275057D02*
X205032142Y-75370295D01*
X205032142Y-75370295D02*
X205032142Y-75513152D01*
X205032142Y-75513152D02*
X204984523Y-75608390D01*
X204984523Y-75608390D02*
X204936904Y-75656009D01*
X204936904Y-75656009D02*
X204841666Y-75703628D01*
X204841666Y-75703628D02*
X204460714Y-75703628D01*
X205984523Y-76179819D02*
X205413095Y-76179819D01*
X205698809Y-76179819D02*
X205698809Y-75179819D01*
X205698809Y-75179819D02*
X205603571Y-75322676D01*
X205603571Y-75322676D02*
X205508333Y-75417914D01*
X205508333Y-75417914D02*
X205413095Y-75465533D01*
X206936904Y-76179819D02*
X206365476Y-76179819D01*
X206651190Y-76179819D02*
X206651190Y-75179819D01*
X206651190Y-75179819D02*
X206555952Y-75322676D01*
X206555952Y-75322676D02*
X206460714Y-75417914D01*
X206460714Y-75417914D02*
X206365476Y-75465533D01*
X204478095Y-66386819D02*
X205049523Y-66386819D01*
X204763809Y-67386819D02*
X204763809Y-66386819D01*
X205382857Y-67386819D02*
X205382857Y-66386819D01*
X205382857Y-66386819D02*
X205763809Y-66386819D01*
X205763809Y-66386819D02*
X205859047Y-66434438D01*
X205859047Y-66434438D02*
X205906666Y-66482057D01*
X205906666Y-66482057D02*
X205954285Y-66577295D01*
X205954285Y-66577295D02*
X205954285Y-66720152D01*
X205954285Y-66720152D02*
X205906666Y-66815390D01*
X205906666Y-66815390D02*
X205859047Y-66863009D01*
X205859047Y-66863009D02*
X205763809Y-66910628D01*
X205763809Y-66910628D02*
X205382857Y-66910628D01*
X206287619Y-66386819D02*
X206954285Y-66386819D01*
X206954285Y-66386819D02*
X206525714Y-67386819D01*
X140194819Y-70293333D02*
X140909104Y-70293333D01*
X140909104Y-70293333D02*
X141051961Y-70340952D01*
X141051961Y-70340952D02*
X141147200Y-70436190D01*
X141147200Y-70436190D02*
X141194819Y-70579047D01*
X141194819Y-70579047D02*
X141194819Y-70674285D01*
X141194819Y-69293333D02*
X141194819Y-69864761D01*
X141194819Y-69579047D02*
X140194819Y-69579047D01*
X140194819Y-69579047D02*
X140337676Y-69674285D01*
X140337676Y-69674285D02*
X140432914Y-69769523D01*
X140432914Y-69769523D02*
X140480533Y-69864761D01*
X154328333Y-49824819D02*
X153995000Y-49348628D01*
X153756905Y-49824819D02*
X153756905Y-48824819D01*
X153756905Y-48824819D02*
X154137857Y-48824819D01*
X154137857Y-48824819D02*
X154233095Y-48872438D01*
X154233095Y-48872438D02*
X154280714Y-48920057D01*
X154280714Y-48920057D02*
X154328333Y-49015295D01*
X154328333Y-49015295D02*
X154328333Y-49158152D01*
X154328333Y-49158152D02*
X154280714Y-49253390D01*
X154280714Y-49253390D02*
X154233095Y-49301009D01*
X154233095Y-49301009D02*
X154137857Y-49348628D01*
X154137857Y-49348628D02*
X153756905Y-49348628D01*
X154709286Y-48920057D02*
X154756905Y-48872438D01*
X154756905Y-48872438D02*
X154852143Y-48824819D01*
X154852143Y-48824819D02*
X155090238Y-48824819D01*
X155090238Y-48824819D02*
X155185476Y-48872438D01*
X155185476Y-48872438D02*
X155233095Y-48920057D01*
X155233095Y-48920057D02*
X155280714Y-49015295D01*
X155280714Y-49015295D02*
X155280714Y-49110533D01*
X155280714Y-49110533D02*
X155233095Y-49253390D01*
X155233095Y-49253390D02*
X154661667Y-49824819D01*
X154661667Y-49824819D02*
X155280714Y-49824819D01*
X153376779Y-59104819D02*
X153376779Y-59914342D01*
X153376779Y-59914342D02*
X153424398Y-60009580D01*
X153424398Y-60009580D02*
X153472017Y-60057200D01*
X153472017Y-60057200D02*
X153567255Y-60104819D01*
X153567255Y-60104819D02*
X153757731Y-60104819D01*
X153757731Y-60104819D02*
X153852969Y-60057200D01*
X153852969Y-60057200D02*
X153900588Y-60009580D01*
X153900588Y-60009580D02*
X153948207Y-59914342D01*
X153948207Y-59914342D02*
X153948207Y-59104819D01*
X154329160Y-59104819D02*
X154948207Y-59104819D01*
X154948207Y-59104819D02*
X154614874Y-59485771D01*
X154614874Y-59485771D02*
X154757731Y-59485771D01*
X154757731Y-59485771D02*
X154852969Y-59533390D01*
X154852969Y-59533390D02*
X154900588Y-59581009D01*
X154900588Y-59581009D02*
X154948207Y-59676247D01*
X154948207Y-59676247D02*
X154948207Y-59914342D01*
X154948207Y-59914342D02*
X154900588Y-60009580D01*
X154900588Y-60009580D02*
X154852969Y-60057200D01*
X154852969Y-60057200D02*
X154757731Y-60104819D01*
X154757731Y-60104819D02*
X154472017Y-60104819D01*
X154472017Y-60104819D02*
X154376779Y-60057200D01*
X154376779Y-60057200D02*
X154329160Y-60009580D01*
X199816819Y-58753333D02*
X200531104Y-58753333D01*
X200531104Y-58753333D02*
X200673961Y-58800952D01*
X200673961Y-58800952D02*
X200769200Y-58896190D01*
X200769200Y-58896190D02*
X200816819Y-59039047D01*
X200816819Y-59039047D02*
X200816819Y-59134285D01*
X199816819Y-58372380D02*
X199816819Y-57705714D01*
X199816819Y-57705714D02*
X200816819Y-58134285D01*
X186796779Y-50358488D02*
X186796779Y-49358488D01*
X186796779Y-49358488D02*
X187034874Y-49358488D01*
X187034874Y-49358488D02*
X187177731Y-49406107D01*
X187177731Y-49406107D02*
X187272969Y-49501345D01*
X187272969Y-49501345D02*
X187320588Y-49596583D01*
X187320588Y-49596583D02*
X187368207Y-49787059D01*
X187368207Y-49787059D02*
X187368207Y-49929916D01*
X187368207Y-49929916D02*
X187320588Y-50120392D01*
X187320588Y-50120392D02*
X187272969Y-50215630D01*
X187272969Y-50215630D02*
X187177731Y-50310869D01*
X187177731Y-50310869D02*
X187034874Y-50358488D01*
X187034874Y-50358488D02*
X186796779Y-50358488D01*
X188320588Y-50358488D02*
X187749160Y-50358488D01*
X188034874Y-50358488D02*
X188034874Y-49358488D01*
X188034874Y-49358488D02*
X187939636Y-49501345D01*
X187939636Y-49501345D02*
X187844398Y-49596583D01*
X187844398Y-49596583D02*
X187749160Y-49644202D01*
X154328333Y-54904819D02*
X153995000Y-54428628D01*
X153756905Y-54904819D02*
X153756905Y-53904819D01*
X153756905Y-53904819D02*
X154137857Y-53904819D01*
X154137857Y-53904819D02*
X154233095Y-53952438D01*
X154233095Y-53952438D02*
X154280714Y-54000057D01*
X154280714Y-54000057D02*
X154328333Y-54095295D01*
X154328333Y-54095295D02*
X154328333Y-54238152D01*
X154328333Y-54238152D02*
X154280714Y-54333390D01*
X154280714Y-54333390D02*
X154233095Y-54381009D01*
X154233095Y-54381009D02*
X154137857Y-54428628D01*
X154137857Y-54428628D02*
X153756905Y-54428628D01*
X154661667Y-53904819D02*
X155280714Y-53904819D01*
X155280714Y-53904819D02*
X154947381Y-54285771D01*
X154947381Y-54285771D02*
X155090238Y-54285771D01*
X155090238Y-54285771D02*
X155185476Y-54333390D01*
X155185476Y-54333390D02*
X155233095Y-54381009D01*
X155233095Y-54381009D02*
X155280714Y-54476247D01*
X155280714Y-54476247D02*
X155280714Y-54714342D01*
X155280714Y-54714342D02*
X155233095Y-54809580D01*
X155233095Y-54809580D02*
X155185476Y-54857200D01*
X155185476Y-54857200D02*
X155090238Y-54904819D01*
X155090238Y-54904819D02*
X154804524Y-54904819D01*
X154804524Y-54904819D02*
X154709286Y-54857200D01*
X154709286Y-54857200D02*
X154661667Y-54809580D01*
X207052142Y-85384819D02*
X206718809Y-84908628D01*
X206480714Y-85384819D02*
X206480714Y-84384819D01*
X206480714Y-84384819D02*
X206861666Y-84384819D01*
X206861666Y-84384819D02*
X206956904Y-84432438D01*
X206956904Y-84432438D02*
X207004523Y-84480057D01*
X207004523Y-84480057D02*
X207052142Y-84575295D01*
X207052142Y-84575295D02*
X207052142Y-84718152D01*
X207052142Y-84718152D02*
X207004523Y-84813390D01*
X207004523Y-84813390D02*
X206956904Y-84861009D01*
X206956904Y-84861009D02*
X206861666Y-84908628D01*
X206861666Y-84908628D02*
X206480714Y-84908628D01*
X208004523Y-85384819D02*
X207433095Y-85384819D01*
X207718809Y-85384819D02*
X207718809Y-84384819D01*
X207718809Y-84384819D02*
X207623571Y-84527676D01*
X207623571Y-84527676D02*
X207528333Y-84622914D01*
X207528333Y-84622914D02*
X207433095Y-84670533D01*
X208337857Y-84384819D02*
X208956904Y-84384819D01*
X208956904Y-84384819D02*
X208623571Y-84765771D01*
X208623571Y-84765771D02*
X208766428Y-84765771D01*
X208766428Y-84765771D02*
X208861666Y-84813390D01*
X208861666Y-84813390D02*
X208909285Y-84861009D01*
X208909285Y-84861009D02*
X208956904Y-84956247D01*
X208956904Y-84956247D02*
X208956904Y-85194342D01*
X208956904Y-85194342D02*
X208909285Y-85289580D01*
X208909285Y-85289580D02*
X208861666Y-85337200D01*
X208861666Y-85337200D02*
X208766428Y-85384819D01*
X208766428Y-85384819D02*
X208480714Y-85384819D01*
X208480714Y-85384819D02*
X208385476Y-85337200D01*
X208385476Y-85337200D02*
X208337857Y-85289580D01*
X207526095Y-50638819D02*
X208097523Y-50638819D01*
X207811809Y-51638819D02*
X207811809Y-50638819D01*
X208430857Y-51638819D02*
X208430857Y-50638819D01*
X208430857Y-50638819D02*
X208811809Y-50638819D01*
X208811809Y-50638819D02*
X208907047Y-50686438D01*
X208907047Y-50686438D02*
X208954666Y-50734057D01*
X208954666Y-50734057D02*
X209002285Y-50829295D01*
X209002285Y-50829295D02*
X209002285Y-50972152D01*
X209002285Y-50972152D02*
X208954666Y-51067390D01*
X208954666Y-51067390D02*
X208907047Y-51115009D01*
X208907047Y-51115009D02*
X208811809Y-51162628D01*
X208811809Y-51162628D02*
X208430857Y-51162628D01*
X209859428Y-50972152D02*
X209859428Y-51638819D01*
X209621333Y-50591200D02*
X209383238Y-51305485D01*
X209383238Y-51305485D02*
X210002285Y-51305485D01*
X201179580Y-64917857D02*
X201227200Y-64965476D01*
X201227200Y-64965476D02*
X201274819Y-65108333D01*
X201274819Y-65108333D02*
X201274819Y-65203571D01*
X201274819Y-65203571D02*
X201227200Y-65346428D01*
X201227200Y-65346428D02*
X201131961Y-65441666D01*
X201131961Y-65441666D02*
X201036723Y-65489285D01*
X201036723Y-65489285D02*
X200846247Y-65536904D01*
X200846247Y-65536904D02*
X200703390Y-65536904D01*
X200703390Y-65536904D02*
X200512914Y-65489285D01*
X200512914Y-65489285D02*
X200417676Y-65441666D01*
X200417676Y-65441666D02*
X200322438Y-65346428D01*
X200322438Y-65346428D02*
X200274819Y-65203571D01*
X200274819Y-65203571D02*
X200274819Y-65108333D01*
X200274819Y-65108333D02*
X200322438Y-64965476D01*
X200322438Y-64965476D02*
X200370057Y-64917857D01*
X201274819Y-63965476D02*
X201274819Y-64536904D01*
X201274819Y-64251190D02*
X200274819Y-64251190D01*
X200274819Y-64251190D02*
X200417676Y-64346428D01*
X200417676Y-64346428D02*
X200512914Y-64441666D01*
X200512914Y-64441666D02*
X200560533Y-64536904D01*
X200274819Y-63346428D02*
X200274819Y-63251190D01*
X200274819Y-63251190D02*
X200322438Y-63155952D01*
X200322438Y-63155952D02*
X200370057Y-63108333D01*
X200370057Y-63108333D02*
X200465295Y-63060714D01*
X200465295Y-63060714D02*
X200655771Y-63013095D01*
X200655771Y-63013095D02*
X200893866Y-63013095D01*
X200893866Y-63013095D02*
X201084342Y-63060714D01*
X201084342Y-63060714D02*
X201179580Y-63108333D01*
X201179580Y-63108333D02*
X201227200Y-63155952D01*
X201227200Y-63155952D02*
X201274819Y-63251190D01*
X201274819Y-63251190D02*
X201274819Y-63346428D01*
X201274819Y-63346428D02*
X201227200Y-63441666D01*
X201227200Y-63441666D02*
X201179580Y-63489285D01*
X201179580Y-63489285D02*
X201084342Y-63536904D01*
X201084342Y-63536904D02*
X200893866Y-63584523D01*
X200893866Y-63584523D02*
X200655771Y-63584523D01*
X200655771Y-63584523D02*
X200465295Y-63536904D01*
X200465295Y-63536904D02*
X200370057Y-63489285D01*
X200370057Y-63489285D02*
X200322438Y-63441666D01*
X200322438Y-63441666D02*
X200274819Y-63346428D01*
X199906095Y-50638819D02*
X200477523Y-50638819D01*
X200191809Y-51638819D02*
X200191809Y-50638819D01*
X200810857Y-51638819D02*
X200810857Y-50638819D01*
X200810857Y-50638819D02*
X201191809Y-50638819D01*
X201191809Y-50638819D02*
X201287047Y-50686438D01*
X201287047Y-50686438D02*
X201334666Y-50734057D01*
X201334666Y-50734057D02*
X201382285Y-50829295D01*
X201382285Y-50829295D02*
X201382285Y-50972152D01*
X201382285Y-50972152D02*
X201334666Y-51067390D01*
X201334666Y-51067390D02*
X201287047Y-51115009D01*
X201287047Y-51115009D02*
X201191809Y-51162628D01*
X201191809Y-51162628D02*
X200810857Y-51162628D01*
X202334666Y-51638819D02*
X201763238Y-51638819D01*
X202048952Y-51638819D02*
X202048952Y-50638819D01*
X202048952Y-50638819D02*
X201953714Y-50781676D01*
X201953714Y-50781676D02*
X201858476Y-50876914D01*
X201858476Y-50876914D02*
X201763238Y-50924533D01*
X172826779Y-84013488D02*
X172826779Y-83013488D01*
X172826779Y-83013488D02*
X173064874Y-83013488D01*
X173064874Y-83013488D02*
X173207731Y-83061107D01*
X173207731Y-83061107D02*
X173302969Y-83156345D01*
X173302969Y-83156345D02*
X173350588Y-83251583D01*
X173350588Y-83251583D02*
X173398207Y-83442059D01*
X173398207Y-83442059D02*
X173398207Y-83584916D01*
X173398207Y-83584916D02*
X173350588Y-83775392D01*
X173350588Y-83775392D02*
X173302969Y-83870630D01*
X173302969Y-83870630D02*
X173207731Y-83965869D01*
X173207731Y-83965869D02*
X173064874Y-84013488D01*
X173064874Y-84013488D02*
X172826779Y-84013488D01*
X173779160Y-83108726D02*
X173826779Y-83061107D01*
X173826779Y-83061107D02*
X173922017Y-83013488D01*
X173922017Y-83013488D02*
X174160112Y-83013488D01*
X174160112Y-83013488D02*
X174255350Y-83061107D01*
X174255350Y-83061107D02*
X174302969Y-83108726D01*
X174302969Y-83108726D02*
X174350588Y-83203964D01*
X174350588Y-83203964D02*
X174350588Y-83299202D01*
X174350588Y-83299202D02*
X174302969Y-83442059D01*
X174302969Y-83442059D02*
X173731541Y-84013488D01*
X173731541Y-84013488D02*
X174350588Y-84013488D01*
X194685595Y-61504819D02*
X194685595Y-62314342D01*
X194685595Y-62314342D02*
X194733214Y-62409580D01*
X194733214Y-62409580D02*
X194780833Y-62457200D01*
X194780833Y-62457200D02*
X194876071Y-62504819D01*
X194876071Y-62504819D02*
X195066547Y-62504819D01*
X195066547Y-62504819D02*
X195161785Y-62457200D01*
X195161785Y-62457200D02*
X195209404Y-62409580D01*
X195209404Y-62409580D02*
X195257023Y-62314342D01*
X195257023Y-62314342D02*
X195257023Y-61504819D01*
X196161785Y-61504819D02*
X195971309Y-61504819D01*
X195971309Y-61504819D02*
X195876071Y-61552438D01*
X195876071Y-61552438D02*
X195828452Y-61600057D01*
X195828452Y-61600057D02*
X195733214Y-61742914D01*
X195733214Y-61742914D02*
X195685595Y-61933390D01*
X195685595Y-61933390D02*
X195685595Y-62314342D01*
X195685595Y-62314342D02*
X195733214Y-62409580D01*
X195733214Y-62409580D02*
X195780833Y-62457200D01*
X195780833Y-62457200D02*
X195876071Y-62504819D01*
X195876071Y-62504819D02*
X196066547Y-62504819D01*
X196066547Y-62504819D02*
X196161785Y-62457200D01*
X196161785Y-62457200D02*
X196209404Y-62409580D01*
X196209404Y-62409580D02*
X196257023Y-62314342D01*
X196257023Y-62314342D02*
X196257023Y-62076247D01*
X196257023Y-62076247D02*
X196209404Y-61981009D01*
X196209404Y-61981009D02*
X196161785Y-61933390D01*
X196161785Y-61933390D02*
X196066547Y-61885771D01*
X196066547Y-61885771D02*
X195876071Y-61885771D01*
X195876071Y-61885771D02*
X195780833Y-61933390D01*
X195780833Y-61933390D02*
X195733214Y-61981009D01*
X195733214Y-61981009D02*
X195685595Y-62076247D01*
X154328333Y-75224819D02*
X153995000Y-74748628D01*
X153756905Y-75224819D02*
X153756905Y-74224819D01*
X153756905Y-74224819D02*
X154137857Y-74224819D01*
X154137857Y-74224819D02*
X154233095Y-74272438D01*
X154233095Y-74272438D02*
X154280714Y-74320057D01*
X154280714Y-74320057D02*
X154328333Y-74415295D01*
X154328333Y-74415295D02*
X154328333Y-74558152D01*
X154328333Y-74558152D02*
X154280714Y-74653390D01*
X154280714Y-74653390D02*
X154233095Y-74701009D01*
X154233095Y-74701009D02*
X154137857Y-74748628D01*
X154137857Y-74748628D02*
X153756905Y-74748628D01*
X155185476Y-74558152D02*
X155185476Y-75224819D01*
X154947381Y-74177200D02*
X154709286Y-74891485D01*
X154709286Y-74891485D02*
X155328333Y-74891485D01*
X143947380Y-75224819D02*
X143614047Y-74748628D01*
X143375952Y-75224819D02*
X143375952Y-74224819D01*
X143375952Y-74224819D02*
X143756904Y-74224819D01*
X143756904Y-74224819D02*
X143852142Y-74272438D01*
X143852142Y-74272438D02*
X143899761Y-74320057D01*
X143899761Y-74320057D02*
X143947380Y-74415295D01*
X143947380Y-74415295D02*
X143947380Y-74558152D01*
X143947380Y-74558152D02*
X143899761Y-74653390D01*
X143899761Y-74653390D02*
X143852142Y-74701009D01*
X143852142Y-74701009D02*
X143756904Y-74748628D01*
X143756904Y-74748628D02*
X143375952Y-74748628D01*
X144328333Y-75177200D02*
X144471190Y-75224819D01*
X144471190Y-75224819D02*
X144709285Y-75224819D01*
X144709285Y-75224819D02*
X144804523Y-75177200D01*
X144804523Y-75177200D02*
X144852142Y-75129580D01*
X144852142Y-75129580D02*
X144899761Y-75034342D01*
X144899761Y-75034342D02*
X144899761Y-74939104D01*
X144899761Y-74939104D02*
X144852142Y-74843866D01*
X144852142Y-74843866D02*
X144804523Y-74796247D01*
X144804523Y-74796247D02*
X144709285Y-74748628D01*
X144709285Y-74748628D02*
X144518809Y-74701009D01*
X144518809Y-74701009D02*
X144423571Y-74653390D01*
X144423571Y-74653390D02*
X144375952Y-74605771D01*
X144375952Y-74605771D02*
X144328333Y-74510533D01*
X144328333Y-74510533D02*
X144328333Y-74415295D01*
X144328333Y-74415295D02*
X144375952Y-74320057D01*
X144375952Y-74320057D02*
X144423571Y-74272438D01*
X144423571Y-74272438D02*
X144518809Y-74224819D01*
X144518809Y-74224819D02*
X144756904Y-74224819D01*
X144756904Y-74224819D02*
X144899761Y-74272438D01*
X145328333Y-74701009D02*
X145661666Y-74701009D01*
X145804523Y-75224819D02*
X145328333Y-75224819D01*
X145328333Y-75224819D02*
X145328333Y-74224819D01*
X145328333Y-74224819D02*
X145804523Y-74224819D01*
X146233095Y-75224819D02*
X146233095Y-74224819D01*
X146233095Y-74224819D02*
X146804523Y-75224819D01*
X146804523Y-75224819D02*
X146804523Y-74224819D01*
X147233095Y-75177200D02*
X147375952Y-75224819D01*
X147375952Y-75224819D02*
X147614047Y-75224819D01*
X147614047Y-75224819D02*
X147709285Y-75177200D01*
X147709285Y-75177200D02*
X147756904Y-75129580D01*
X147756904Y-75129580D02*
X147804523Y-75034342D01*
X147804523Y-75034342D02*
X147804523Y-74939104D01*
X147804523Y-74939104D02*
X147756904Y-74843866D01*
X147756904Y-74843866D02*
X147709285Y-74796247D01*
X147709285Y-74796247D02*
X147614047Y-74748628D01*
X147614047Y-74748628D02*
X147423571Y-74701009D01*
X147423571Y-74701009D02*
X147328333Y-74653390D01*
X147328333Y-74653390D02*
X147280714Y-74605771D01*
X147280714Y-74605771D02*
X147233095Y-74510533D01*
X147233095Y-74510533D02*
X147233095Y-74415295D01*
X147233095Y-74415295D02*
X147280714Y-74320057D01*
X147280714Y-74320057D02*
X147328333Y-74272438D01*
X147328333Y-74272438D02*
X147423571Y-74224819D01*
X147423571Y-74224819D02*
X147661666Y-74224819D01*
X147661666Y-74224819D02*
X147804523Y-74272438D01*
X148233095Y-74701009D02*
X148566428Y-74701009D01*
X148709285Y-75224819D02*
X148233095Y-75224819D01*
X148233095Y-75224819D02*
X148233095Y-74224819D01*
X148233095Y-74224819D02*
X148709285Y-74224819D01*
X149661666Y-75224819D02*
X149090238Y-75224819D01*
X149375952Y-75224819D02*
X149375952Y-74224819D01*
X149375952Y-74224819D02*
X149280714Y-74367676D01*
X149280714Y-74367676D02*
X149185476Y-74462914D01*
X149185476Y-74462914D02*
X149090238Y-74510533D01*
X201922142Y-80209580D02*
X201874523Y-80257200D01*
X201874523Y-80257200D02*
X201731666Y-80304819D01*
X201731666Y-80304819D02*
X201636428Y-80304819D01*
X201636428Y-80304819D02*
X201493571Y-80257200D01*
X201493571Y-80257200D02*
X201398333Y-80161961D01*
X201398333Y-80161961D02*
X201350714Y-80066723D01*
X201350714Y-80066723D02*
X201303095Y-79876247D01*
X201303095Y-79876247D02*
X201303095Y-79733390D01*
X201303095Y-79733390D02*
X201350714Y-79542914D01*
X201350714Y-79542914D02*
X201398333Y-79447676D01*
X201398333Y-79447676D02*
X201493571Y-79352438D01*
X201493571Y-79352438D02*
X201636428Y-79304819D01*
X201636428Y-79304819D02*
X201731666Y-79304819D01*
X201731666Y-79304819D02*
X201874523Y-79352438D01*
X201874523Y-79352438D02*
X201922142Y-79400057D01*
X202874523Y-80304819D02*
X202303095Y-80304819D01*
X202588809Y-80304819D02*
X202588809Y-79304819D01*
X202588809Y-79304819D02*
X202493571Y-79447676D01*
X202493571Y-79447676D02*
X202398333Y-79542914D01*
X202398333Y-79542914D02*
X202303095Y-79590533D01*
X203255476Y-79400057D02*
X203303095Y-79352438D01*
X203303095Y-79352438D02*
X203398333Y-79304819D01*
X203398333Y-79304819D02*
X203636428Y-79304819D01*
X203636428Y-79304819D02*
X203731666Y-79352438D01*
X203731666Y-79352438D02*
X203779285Y-79400057D01*
X203779285Y-79400057D02*
X203826904Y-79495295D01*
X203826904Y-79495295D02*
X203826904Y-79590533D01*
X203826904Y-79590533D02*
X203779285Y-79733390D01*
X203779285Y-79733390D02*
X203207857Y-80304819D01*
X203207857Y-80304819D02*
X203826904Y-80304819D01*
X158518333Y-70144819D02*
X158185000Y-69668628D01*
X157946905Y-70144819D02*
X157946905Y-69144819D01*
X157946905Y-69144819D02*
X158327857Y-69144819D01*
X158327857Y-69144819D02*
X158423095Y-69192438D01*
X158423095Y-69192438D02*
X158470714Y-69240057D01*
X158470714Y-69240057D02*
X158518333Y-69335295D01*
X158518333Y-69335295D02*
X158518333Y-69478152D01*
X158518333Y-69478152D02*
X158470714Y-69573390D01*
X158470714Y-69573390D02*
X158423095Y-69621009D01*
X158423095Y-69621009D02*
X158327857Y-69668628D01*
X158327857Y-69668628D02*
X157946905Y-69668628D01*
X158851667Y-69144819D02*
X159518333Y-69144819D01*
X159518333Y-69144819D02*
X159089762Y-70144819D01*
X159408333Y-49824819D02*
X159075000Y-49348628D01*
X158836905Y-49824819D02*
X158836905Y-48824819D01*
X158836905Y-48824819D02*
X159217857Y-48824819D01*
X159217857Y-48824819D02*
X159313095Y-48872438D01*
X159313095Y-48872438D02*
X159360714Y-48920057D01*
X159360714Y-48920057D02*
X159408333Y-49015295D01*
X159408333Y-49015295D02*
X159408333Y-49158152D01*
X159408333Y-49158152D02*
X159360714Y-49253390D01*
X159360714Y-49253390D02*
X159313095Y-49301009D01*
X159313095Y-49301009D02*
X159217857Y-49348628D01*
X159217857Y-49348628D02*
X158836905Y-49348628D01*
X159979762Y-49253390D02*
X159884524Y-49205771D01*
X159884524Y-49205771D02*
X159836905Y-49158152D01*
X159836905Y-49158152D02*
X159789286Y-49062914D01*
X159789286Y-49062914D02*
X159789286Y-49015295D01*
X159789286Y-49015295D02*
X159836905Y-48920057D01*
X159836905Y-48920057D02*
X159884524Y-48872438D01*
X159884524Y-48872438D02*
X159979762Y-48824819D01*
X159979762Y-48824819D02*
X160170238Y-48824819D01*
X160170238Y-48824819D02*
X160265476Y-48872438D01*
X160265476Y-48872438D02*
X160313095Y-48920057D01*
X160313095Y-48920057D02*
X160360714Y-49015295D01*
X160360714Y-49015295D02*
X160360714Y-49062914D01*
X160360714Y-49062914D02*
X160313095Y-49158152D01*
X160313095Y-49158152D02*
X160265476Y-49205771D01*
X160265476Y-49205771D02*
X160170238Y-49253390D01*
X160170238Y-49253390D02*
X159979762Y-49253390D01*
X159979762Y-49253390D02*
X159884524Y-49301009D01*
X159884524Y-49301009D02*
X159836905Y-49348628D01*
X159836905Y-49348628D02*
X159789286Y-49443866D01*
X159789286Y-49443866D02*
X159789286Y-49634342D01*
X159789286Y-49634342D02*
X159836905Y-49729580D01*
X159836905Y-49729580D02*
X159884524Y-49777200D01*
X159884524Y-49777200D02*
X159979762Y-49824819D01*
X159979762Y-49824819D02*
X160170238Y-49824819D01*
X160170238Y-49824819D02*
X160265476Y-49777200D01*
X160265476Y-49777200D02*
X160313095Y-49729580D01*
X160313095Y-49729580D02*
X160360714Y-49634342D01*
X160360714Y-49634342D02*
X160360714Y-49443866D01*
X160360714Y-49443866D02*
X160313095Y-49348628D01*
X160313095Y-49348628D02*
X160265476Y-49301009D01*
X160265476Y-49301009D02*
X160170238Y-49253390D01*
X200842142Y-76179819D02*
X200508809Y-75703628D01*
X200270714Y-76179819D02*
X200270714Y-75179819D01*
X200270714Y-75179819D02*
X200651666Y-75179819D01*
X200651666Y-75179819D02*
X200746904Y-75227438D01*
X200746904Y-75227438D02*
X200794523Y-75275057D01*
X200794523Y-75275057D02*
X200842142Y-75370295D01*
X200842142Y-75370295D02*
X200842142Y-75513152D01*
X200842142Y-75513152D02*
X200794523Y-75608390D01*
X200794523Y-75608390D02*
X200746904Y-75656009D01*
X200746904Y-75656009D02*
X200651666Y-75703628D01*
X200651666Y-75703628D02*
X200270714Y-75703628D01*
X201794523Y-76179819D02*
X201223095Y-76179819D01*
X201508809Y-76179819D02*
X201508809Y-75179819D01*
X201508809Y-75179819D02*
X201413571Y-75322676D01*
X201413571Y-75322676D02*
X201318333Y-75417914D01*
X201318333Y-75417914D02*
X201223095Y-75465533D01*
X202413571Y-75179819D02*
X202508809Y-75179819D01*
X202508809Y-75179819D02*
X202604047Y-75227438D01*
X202604047Y-75227438D02*
X202651666Y-75275057D01*
X202651666Y-75275057D02*
X202699285Y-75370295D01*
X202699285Y-75370295D02*
X202746904Y-75560771D01*
X202746904Y-75560771D02*
X202746904Y-75798866D01*
X202746904Y-75798866D02*
X202699285Y-75989342D01*
X202699285Y-75989342D02*
X202651666Y-76084580D01*
X202651666Y-76084580D02*
X202604047Y-76132200D01*
X202604047Y-76132200D02*
X202508809Y-76179819D01*
X202508809Y-76179819D02*
X202413571Y-76179819D01*
X202413571Y-76179819D02*
X202318333Y-76132200D01*
X202318333Y-76132200D02*
X202270714Y-76084580D01*
X202270714Y-76084580D02*
X202223095Y-75989342D01*
X202223095Y-75989342D02*
X202175476Y-75798866D01*
X202175476Y-75798866D02*
X202175476Y-75560771D01*
X202175476Y-75560771D02*
X202223095Y-75370295D01*
X202223095Y-75370295D02*
X202270714Y-75275057D01*
X202270714Y-75275057D02*
X202318333Y-75227438D01*
X202318333Y-75227438D02*
X202413571Y-75179819D01*
X169566779Y-63423488D02*
X169566779Y-64233011D01*
X169566779Y-64233011D02*
X169614398Y-64328249D01*
X169614398Y-64328249D02*
X169662017Y-64375869D01*
X169662017Y-64375869D02*
X169757255Y-64423488D01*
X169757255Y-64423488D02*
X169947731Y-64423488D01*
X169947731Y-64423488D02*
X170042969Y-64375869D01*
X170042969Y-64375869D02*
X170090588Y-64328249D01*
X170090588Y-64328249D02*
X170138207Y-64233011D01*
X170138207Y-64233011D02*
X170138207Y-63423488D01*
X171042969Y-63756821D02*
X171042969Y-64423488D01*
X170804874Y-63375869D02*
X170566779Y-64090154D01*
X170566779Y-64090154D02*
X171185826Y-64090154D01*
D11*
%TO.C,TP5*%
X205928000Y-52832000D02*
G75*
G03*
X205928000Y-52832000I-950000J0D01*
G01*
%TO.C,R9*%
X159337742Y-55357500D02*
X159812258Y-55357500D01*
X159337742Y-56402500D02*
X159812258Y-56402500D01*
%TO.C,J3*%
X126500000Y-78690000D02*
X125260000Y-78690000D01*
X125260000Y-78690000D02*
X125260000Y-79690000D01*
X139740000Y-78930000D02*
X125500000Y-78930000D01*
X139740000Y-78930000D02*
X139740000Y-91471000D01*
X135120000Y-78930000D02*
X135120000Y-81320000D01*
X132320000Y-78930000D02*
X132320000Y-91471000D01*
X126620000Y-78930000D02*
X126620000Y-91471000D01*
X125500000Y-78930000D02*
X125500000Y-91471000D01*
X139620000Y-80550000D02*
X125620000Y-80550000D01*
X139620000Y-80550000D02*
X139620000Y-85550000D01*
X125620000Y-80550000D02*
X125620000Y-85550000D01*
X131920000Y-81050000D02*
X130920000Y-81050000D01*
X131920000Y-81050000D02*
X131920000Y-85050000D01*
X130920000Y-81050000D02*
X130920000Y-85050000D01*
X130220000Y-81050000D02*
X126920000Y-81050000D01*
X130220000Y-81050000D02*
X130220000Y-85050000D01*
X126920000Y-81050000D02*
X126920000Y-85050000D01*
X139270000Y-82550000D02*
X136771000Y-82550000D01*
X139270000Y-82550000D02*
X139270000Y-83550000D01*
X136771000Y-82550000D02*
X136771000Y-83550000D01*
X139270000Y-83550000D02*
X136771000Y-83550000D01*
X135120000Y-83780000D02*
X135120000Y-86320000D01*
X131920000Y-85050000D02*
X130920000Y-85050000D01*
X130220000Y-85050000D02*
X126920000Y-85050000D01*
X139620000Y-85550000D02*
X125620000Y-85550000D01*
X139620000Y-85550000D02*
X125620000Y-85550000D01*
X139620000Y-85550000D02*
X139620000Y-90550000D01*
X125620000Y-85550000D02*
X125620000Y-90550000D01*
X131920000Y-86050000D02*
X130920000Y-86050000D01*
X131920000Y-86050000D02*
X131920000Y-90050000D01*
X130920000Y-86050000D02*
X130920000Y-90050000D01*
X130220000Y-86050000D02*
X126920000Y-86050000D01*
X130220000Y-86050000D02*
X130220000Y-90050000D01*
X126920000Y-86050000D02*
X126920000Y-90050000D01*
X139270000Y-87550000D02*
X136771000Y-87550000D01*
X139270000Y-87550000D02*
X139270000Y-88550000D01*
X136771000Y-87550000D02*
X136771000Y-88550000D01*
X139270000Y-88550000D02*
X136771000Y-88550000D01*
X135120000Y-88780000D02*
X135120000Y-91471000D01*
X131920000Y-90050000D02*
X130920000Y-90050000D01*
X130220000Y-90050000D02*
X126920000Y-90050000D01*
X139620000Y-90550000D02*
X125620000Y-90550000D01*
X139740000Y-91471000D02*
X125500000Y-91471000D01*
%TO.C,C4*%
X180974420Y-64260000D02*
X181255580Y-64260000D01*
X180974420Y-65280000D02*
X181255580Y-65280000D01*
%TO.C,J9*%
X160080000Y-88840000D02*
X160080000Y-90170000D01*
X158750000Y-88840000D02*
X160080000Y-88840000D01*
X157480000Y-88840000D02*
X154880000Y-88840000D01*
X157480000Y-88840000D02*
X157480000Y-91500000D01*
X154880000Y-88840000D02*
X154880000Y-91500000D01*
X157480000Y-91500000D02*
X154880000Y-91500000D01*
%TO.C,C11*%
X191135580Y-62740000D02*
X190854420Y-62740000D01*
X191135580Y-61720000D02*
X190854420Y-61720000D01*
%TO.C,U10*%
X144715000Y-81235000D02*
X146045000Y-81235000D01*
X144715000Y-82565000D02*
X144715000Y-81235000D01*
X144715000Y-83835000D02*
X144715000Y-88975000D01*
X144715000Y-83835000D02*
X147315000Y-83835000D01*
X144715000Y-88975000D02*
X149915000Y-88975000D01*
X147315000Y-81235000D02*
X149915000Y-81235000D01*
X147315000Y-83835000D02*
X147315000Y-81235000D01*
X149915000Y-81235000D02*
X149915000Y-88975000D01*
%TO.C,C9*%
X191415580Y-69090000D02*
X191134420Y-69090000D01*
X191415580Y-68070000D02*
X191134420Y-68070000D01*
%TO.C,C5*%
X165735580Y-65870000D02*
X165454420Y-65870000D01*
X165735580Y-64850000D02*
X165454420Y-64850000D01*
%TO.C,R6*%
X158447742Y-75677500D02*
X158922258Y-75677500D01*
X158447742Y-76722500D02*
X158922258Y-76722500D01*
%TO.C,J10*%
X160080000Y-82490000D02*
X160080000Y-83820000D01*
X158750000Y-82490000D02*
X160080000Y-82490000D01*
X157480000Y-82490000D02*
X154880000Y-82490000D01*
X157480000Y-82490000D02*
X157480000Y-85150000D01*
X154880000Y-82490000D02*
X154880000Y-85150000D01*
X157480000Y-85150000D02*
X154880000Y-85150000D01*
%TO.C,C1*%
X180961420Y-69848000D02*
X181242580Y-69848000D01*
X180961420Y-70868000D02*
X181242580Y-70868000D01*
%TO.C,TP3*%
X166050000Y-85090000D02*
G75*
G03*
X166050000Y-85090000I-950000J0D01*
G01*
%TO.C,TP6*%
X206690000Y-63500000D02*
G75*
G03*
X206690000Y-63500000I-950000J0D01*
G01*
D12*
%TO.C,U7*%
X187870000Y-73160000D02*
X195670000Y-73160000D01*
X187870000Y-77970000D02*
X187870000Y-73160000D01*
X195670000Y-73160000D02*
X195670000Y-77970000D01*
X195670000Y-77970000D02*
X187870000Y-77970000D01*
D13*
X190700000Y-74168000D02*
G75*
G03*
X190700000Y-74168000I-279000J0D01*
G01*
D11*
%TO.C,R12*%
X207932258Y-81802500D02*
X207457742Y-81802500D01*
X207932258Y-80757500D02*
X207457742Y-80757500D01*
D12*
%TO.C,U1*%
X145370000Y-50890000D02*
X149270000Y-50890000D01*
X145370000Y-55790000D02*
X145370000Y-50890000D01*
X149270000Y-50890000D02*
X149270000Y-55790000D01*
X149270000Y-55790000D02*
X145370000Y-55790000D01*
D14*
X146609000Y-51816000D02*
G75*
G03*
X146609000Y-51816000I-100000J0D01*
G01*
D11*
%TO.C,J2*%
X126500000Y-49480000D02*
X125260000Y-49480000D01*
X125260000Y-49480000D02*
X125260000Y-50480000D01*
X139740000Y-49720000D02*
X125500000Y-49720000D01*
X139740000Y-49720000D02*
X139740000Y-62261000D01*
X135120000Y-49720000D02*
X135120000Y-52110000D01*
X132320000Y-49720000D02*
X132320000Y-62261000D01*
X126620000Y-49720000D02*
X126620000Y-62261000D01*
X125500000Y-49720000D02*
X125500000Y-62261000D01*
X139620000Y-51340000D02*
X125620000Y-51340000D01*
X139620000Y-51340000D02*
X139620000Y-56340000D01*
X125620000Y-51340000D02*
X125620000Y-56340000D01*
X131920000Y-51840000D02*
X130920000Y-51840000D01*
X131920000Y-51840000D02*
X131920000Y-55840000D01*
X130920000Y-51840000D02*
X130920000Y-55840000D01*
X130220000Y-51840000D02*
X126920000Y-51840000D01*
X130220000Y-51840000D02*
X130220000Y-55840000D01*
X126920000Y-51840000D02*
X126920000Y-55840000D01*
X139270000Y-53340000D02*
X136771000Y-53340000D01*
X139270000Y-53340000D02*
X139270000Y-54340000D01*
X136771000Y-53340000D02*
X136771000Y-54340000D01*
X139270000Y-54340000D02*
X136771000Y-54340000D01*
X135120000Y-54570000D02*
X135120000Y-57110000D01*
X131920000Y-55840000D02*
X130920000Y-55840000D01*
X130220000Y-55840000D02*
X126920000Y-55840000D01*
X139620000Y-56340000D02*
X125620000Y-56340000D01*
X139620000Y-56340000D02*
X125620000Y-56340000D01*
X139620000Y-56340000D02*
X139620000Y-61340000D01*
X125620000Y-56340000D02*
X125620000Y-61340000D01*
X131920000Y-56840000D02*
X130920000Y-56840000D01*
X131920000Y-56840000D02*
X131920000Y-60840000D01*
X130920000Y-56840000D02*
X130920000Y-60840000D01*
X130220000Y-56840000D02*
X126920000Y-56840000D01*
X130220000Y-56840000D02*
X130220000Y-60840000D01*
X126920000Y-56840000D02*
X126920000Y-60840000D01*
X139270000Y-58340000D02*
X136771000Y-58340000D01*
X139270000Y-58340000D02*
X139270000Y-59340000D01*
X136771000Y-58340000D02*
X136771000Y-59340000D01*
X139270000Y-59340000D02*
X136771000Y-59340000D01*
X135120000Y-59570000D02*
X135120000Y-62261000D01*
X131920000Y-60840000D02*
X130920000Y-60840000D01*
X130220000Y-60840000D02*
X126920000Y-60840000D01*
X139620000Y-61340000D02*
X125620000Y-61340000D01*
X139740000Y-62261000D02*
X125500000Y-62261000D01*
%TO.C,R5*%
X154257742Y-70597500D02*
X154732258Y-70597500D01*
X154257742Y-71642500D02*
X154732258Y-71642500D01*
%TO.C,C6*%
X181255580Y-80520000D02*
X180974420Y-80520000D01*
X181255580Y-79500000D02*
X180974420Y-79500000D01*
%TO.C,R1*%
X145697742Y-62977500D02*
X146172258Y-62977500D01*
X145697742Y-64022500D02*
X146172258Y-64022500D01*
%TO.C,TP2*%
X166050000Y-78740000D02*
G75*
G03*
X166050000Y-78740000I-950000J0D01*
G01*
%TO.C,R14*%
X207832258Y-91962500D02*
X207357742Y-91962500D01*
X207832258Y-90917500D02*
X207357742Y-90917500D01*
%TO.C,J8*%
X181500000Y-47760000D02*
X181500000Y-46520000D01*
X181500000Y-46520000D02*
X180500000Y-46520000D01*
X181260000Y-61000000D02*
X181260000Y-46760000D01*
X181260000Y-61000000D02*
X163720000Y-61000000D01*
X181260000Y-56380000D02*
X178870000Y-56380000D01*
X181260000Y-53580000D02*
X163720000Y-53580000D01*
X181260000Y-47880000D02*
X163720000Y-47880000D01*
X181260000Y-46760000D02*
X163720000Y-46760000D01*
X179640000Y-60880000D02*
X179640000Y-46880000D01*
X179640000Y-60880000D02*
X174640000Y-60880000D01*
X179640000Y-46880000D02*
X174640000Y-46880000D01*
X179140000Y-53180000D02*
X179140000Y-52180000D01*
X179140000Y-53180000D02*
X175140000Y-53180000D01*
X179140000Y-52180000D02*
X175140000Y-52180000D01*
X179140000Y-51480000D02*
X179140000Y-48180000D01*
X179140000Y-51480000D02*
X175140000Y-51480000D01*
X179140000Y-48180000D02*
X175140000Y-48180000D01*
X177640000Y-60530000D02*
X177640000Y-58031000D01*
X177640000Y-60530000D02*
X176640000Y-60530000D01*
X177640000Y-58031000D02*
X176640000Y-58031000D01*
X176640000Y-60530000D02*
X176640000Y-58031000D01*
X176410000Y-56380000D02*
X173870000Y-56380000D01*
X175140000Y-53180000D02*
X175140000Y-52180000D01*
X175140000Y-51480000D02*
X175140000Y-48180000D01*
X174640000Y-60880000D02*
X174640000Y-46880000D01*
X174640000Y-60880000D02*
X174640000Y-46880000D01*
X174640000Y-60880000D02*
X169640000Y-60880000D01*
X174640000Y-46880000D02*
X169640000Y-46880000D01*
X174140000Y-53180000D02*
X174140000Y-52180000D01*
X174140000Y-53180000D02*
X170140000Y-53180000D01*
X174140000Y-52180000D02*
X170140000Y-52180000D01*
X174140000Y-51480000D02*
X174140000Y-48180000D01*
X174140000Y-51480000D02*
X170140000Y-51480000D01*
X174140000Y-48180000D02*
X170140000Y-48180000D01*
X172640000Y-60530000D02*
X172640000Y-58031000D01*
X172640000Y-60530000D02*
X171640000Y-60530000D01*
X172640000Y-58031000D02*
X171640000Y-58031000D01*
X171640000Y-60530000D02*
X171640000Y-58031000D01*
X171410000Y-56380000D02*
X168870000Y-56380000D01*
X170140000Y-53180000D02*
X170140000Y-52180000D01*
X170140000Y-51480000D02*
X170140000Y-48180000D01*
X169640000Y-60880000D02*
X169640000Y-46880000D01*
X169640000Y-60880000D02*
X169640000Y-46880000D01*
X169640000Y-60880000D02*
X164640000Y-60880000D01*
X169640000Y-46880000D02*
X164640000Y-46880000D01*
X169140000Y-53180000D02*
X169140000Y-52180000D01*
X169140000Y-53180000D02*
X165140000Y-53180000D01*
X169140000Y-52180000D02*
X165140000Y-52180000D01*
X169140000Y-51480000D02*
X169140000Y-48180000D01*
X169140000Y-51480000D02*
X165140000Y-51480000D01*
X169140000Y-48180000D02*
X165140000Y-48180000D01*
X167640000Y-60530000D02*
X167640000Y-58031000D01*
X167640000Y-60530000D02*
X166640000Y-60530000D01*
X167640000Y-58031000D02*
X166640000Y-58031000D01*
X166640000Y-60530000D02*
X166640000Y-58031000D01*
X166410000Y-56380000D02*
X163720000Y-56380000D01*
X165140000Y-53180000D02*
X165140000Y-52180000D01*
X165140000Y-51480000D02*
X165140000Y-48180000D01*
X164640000Y-60880000D02*
X164640000Y-46880000D01*
X163720000Y-61000000D02*
X163720000Y-46760000D01*
%TO.C,C2*%
X184784420Y-66800000D02*
X185065580Y-66800000D01*
X184784420Y-67820000D02*
X185065580Y-67820000D01*
%TO.C,C8*%
X180974420Y-74420000D02*
X181255580Y-74420000D01*
X180974420Y-75440000D02*
X181255580Y-75440000D01*
%TO.C,U2*%
X146247500Y-67995000D02*
X144447500Y-67995000D01*
X146247500Y-67995000D02*
X147047500Y-67995000D01*
X146247500Y-71115000D02*
X145447500Y-71115000D01*
X146247500Y-71115000D02*
X147047500Y-71115000D01*
%TO.C,C3*%
X165454420Y-69340000D02*
X165735580Y-69340000D01*
X165454420Y-70360000D02*
X165735580Y-70360000D01*
D15*
%TO.C,U8*%
X213360000Y-47500000D02*
X236360000Y-47500000D01*
X213360000Y-97500000D02*
X213360000Y-47500000D01*
X236360000Y-47500000D02*
X236360000Y-97500000D01*
X236360000Y-97500000D02*
X213360000Y-97500000D01*
D11*
%TO.C,U5*%
X175342500Y-76860000D02*
X173542500Y-76860000D01*
X175342500Y-76860000D02*
X176142500Y-76860000D01*
X175342500Y-79980000D02*
X174542500Y-79980000D01*
X175342500Y-79980000D02*
X176142500Y-79980000D01*
%TO.C,C7*%
X170535580Y-77980000D02*
X170254420Y-77980000D01*
X170535580Y-76960000D02*
X170254420Y-76960000D01*
%TO.C,C14*%
X202424420Y-90930000D02*
X202705580Y-90930000D01*
X202424420Y-91950000D02*
X202705580Y-91950000D01*
%TO.C,C13*%
X202424420Y-85850000D02*
X202705580Y-85850000D01*
X202424420Y-86870000D02*
X202705580Y-86870000D01*
D15*
%TO.C,U9*%
X199050000Y-98065000D02*
X185850000Y-98065000D01*
X199050000Y-92685000D02*
X199050000Y-98065000D01*
X185850000Y-98065000D02*
X185850000Y-92685000D01*
D16*
X199800000Y-91065000D02*
G75*
G03*
X199800000Y-91065000I-100000J0D01*
G01*
D11*
%TO.C,R11*%
X205912258Y-74817500D02*
X205437742Y-74817500D01*
X205912258Y-73772500D02*
X205437742Y-73772500D01*
%TO.C,TP7*%
X206690000Y-68580000D02*
G75*
G03*
X206690000Y-68580000I-950000J0D01*
G01*
%TO.C,J1*%
X126500000Y-63450000D02*
X125260000Y-63450000D01*
X125260000Y-63450000D02*
X125260000Y-64450000D01*
X139740000Y-63690000D02*
X125500000Y-63690000D01*
X139740000Y-63690000D02*
X139740000Y-76231000D01*
X135120000Y-63690000D02*
X135120000Y-66080000D01*
X132320000Y-63690000D02*
X132320000Y-76231000D01*
X126620000Y-63690000D02*
X126620000Y-76231000D01*
X125500000Y-63690000D02*
X125500000Y-76231000D01*
X139620000Y-65310000D02*
X125620000Y-65310000D01*
X139620000Y-65310000D02*
X139620000Y-70310000D01*
X125620000Y-65310000D02*
X125620000Y-70310000D01*
X131920000Y-65810000D02*
X130920000Y-65810000D01*
X131920000Y-65810000D02*
X131920000Y-69810000D01*
X130920000Y-65810000D02*
X130920000Y-69810000D01*
X130220000Y-65810000D02*
X126920000Y-65810000D01*
X130220000Y-65810000D02*
X130220000Y-69810000D01*
X126920000Y-65810000D02*
X126920000Y-69810000D01*
X139270000Y-67310000D02*
X136771000Y-67310000D01*
X139270000Y-67310000D02*
X139270000Y-68310000D01*
X136771000Y-67310000D02*
X136771000Y-68310000D01*
X139270000Y-68310000D02*
X136771000Y-68310000D01*
X135120000Y-68540000D02*
X135120000Y-71080000D01*
X131920000Y-69810000D02*
X130920000Y-69810000D01*
X130220000Y-69810000D02*
X126920000Y-69810000D01*
X139620000Y-70310000D02*
X125620000Y-70310000D01*
X139620000Y-70310000D02*
X125620000Y-70310000D01*
X139620000Y-70310000D02*
X139620000Y-75310000D01*
X125620000Y-70310000D02*
X125620000Y-75310000D01*
X131920000Y-70810000D02*
X130920000Y-70810000D01*
X131920000Y-70810000D02*
X131920000Y-74810000D01*
X130920000Y-70810000D02*
X130920000Y-74810000D01*
X130220000Y-70810000D02*
X126920000Y-70810000D01*
X130220000Y-70810000D02*
X130220000Y-74810000D01*
X126920000Y-70810000D02*
X126920000Y-74810000D01*
X139270000Y-72310000D02*
X136771000Y-72310000D01*
X139270000Y-72310000D02*
X139270000Y-73310000D01*
X136771000Y-72310000D02*
X136771000Y-73310000D01*
X139270000Y-73310000D02*
X136771000Y-73310000D01*
X135120000Y-73540000D02*
X135120000Y-76231000D01*
X131920000Y-74810000D02*
X130920000Y-74810000D01*
X130220000Y-74810000D02*
X126920000Y-74810000D01*
X139620000Y-75310000D02*
X125620000Y-75310000D01*
X139740000Y-76231000D02*
X125500000Y-76231000D01*
%TO.C,R2*%
X154257742Y-50277500D02*
X154732258Y-50277500D01*
X154257742Y-51322500D02*
X154732258Y-51322500D01*
D15*
%TO.C,U3*%
X154775000Y-60735000D02*
X158305000Y-60735000D01*
X158305000Y-65735000D02*
X154775000Y-65735000D01*
D14*
X155204000Y-61414000D02*
G75*
G03*
X155204000Y-61414000I-100000J0D01*
G01*
D11*
%TO.C,J7*%
X201362000Y-59750000D02*
X201362000Y-58420000D01*
X202692000Y-59750000D02*
X201362000Y-59750000D01*
X203962000Y-59750000D02*
X209102000Y-59750000D01*
X203962000Y-59750000D02*
X203962000Y-57090000D01*
X209102000Y-59750000D02*
X209102000Y-57090000D01*
X203962000Y-57090000D02*
X209102000Y-57090000D01*
D12*
%TO.C,D1*%
X186460000Y-50785000D02*
X196030000Y-50785000D01*
X186460000Y-57165000D02*
X186460000Y-50785000D01*
X196030000Y-50785000D02*
X196030000Y-57165000D01*
X196030000Y-57165000D02*
X186460000Y-57165000D01*
G36*
X187230000Y-54835000D02*
G01*
X186430000Y-54835000D01*
X186430000Y-53035000D01*
X187230000Y-53035000D01*
X187230000Y-54835000D01*
G37*
D11*
%TO.C,R3*%
X154257742Y-55357500D02*
X154732258Y-55357500D01*
X154257742Y-56402500D02*
X154732258Y-56402500D01*
%TO.C,R13*%
X207457742Y-85837500D02*
X207932258Y-85837500D01*
X207457742Y-86882500D02*
X207932258Y-86882500D01*
%TO.C,TP4*%
X209738000Y-52832000D02*
G75*
G03*
X209738000Y-52832000I-950000J0D01*
G01*
%TO.C,C10*%
X199900000Y-64134420D02*
X199900000Y-64415580D01*
X198880000Y-64134420D02*
X198880000Y-64415580D01*
%TO.C,TP1*%
X202118000Y-52832000D02*
G75*
G03*
X202118000Y-52832000I-950000J0D01*
G01*
D12*
%TO.C,D2*%
X172490000Y-84440000D02*
X182060000Y-84440000D01*
X172490000Y-90820000D02*
X172490000Y-84440000D01*
X182060000Y-84440000D02*
X182060000Y-90820000D01*
X182060000Y-90820000D02*
X172490000Y-90820000D01*
G36*
X173260000Y-88490000D02*
G01*
X172460000Y-88490000D01*
X172460000Y-86690000D01*
X173260000Y-86690000D01*
X173260000Y-88490000D01*
G37*
D11*
%TO.C,U6*%
X195447500Y-62890000D02*
X193647500Y-62890000D01*
X195447500Y-62890000D02*
X196247500Y-62890000D01*
X195447500Y-66010000D02*
X194647500Y-66010000D01*
X195447500Y-66010000D02*
X196247500Y-66010000D01*
%TO.C,R4*%
X154257742Y-75677500D02*
X154732258Y-75677500D01*
X154257742Y-76722500D02*
X154732258Y-76722500D01*
%TO.C,RSENSE1*%
X146257742Y-75677500D02*
X146732258Y-75677500D01*
X146257742Y-76722500D02*
X146732258Y-76722500D01*
%TO.C,C12*%
X202424420Y-80770000D02*
X202705580Y-80770000D01*
X202424420Y-81790000D02*
X202705580Y-81790000D01*
%TO.C,R7*%
X158447742Y-70597500D02*
X158922258Y-70597500D01*
X158447742Y-71642500D02*
X158922258Y-71642500D01*
%TO.C,R8*%
X159337742Y-50277500D02*
X159812258Y-50277500D01*
X159337742Y-51322500D02*
X159812258Y-51322500D01*
%TO.C,R10*%
X201722258Y-74817500D02*
X201247742Y-74817500D01*
X201722258Y-73772500D02*
X201247742Y-73772500D01*
D12*
%TO.C,U4*%
X169230000Y-64850000D02*
X178030000Y-64850000D01*
X169230000Y-70300000D02*
X169230000Y-64850000D01*
X178030000Y-64850000D02*
X178030000Y-70300000D01*
X178030000Y-70300000D02*
X169230000Y-70300000D01*
D13*
X172787000Y-65808000D02*
G75*
G03*
X172787000Y-65808000I-279000J0D01*
G01*
%TD*%
%LPC*%
%TO.C,U9*%
G36*
X195255000Y-89207071D02*
G01*
X194592071Y-89870000D01*
X193595000Y-89870000D01*
X193595000Y-88210000D01*
X195255000Y-88210000D01*
X195255000Y-89207071D01*
G37*
%TD*%
D17*
%TO.C,TP5*%
X204978000Y-52832000D03*
%TD*%
D18*
%TO.C,R9*%
X158750000Y-55880000D03*
X160400000Y-55880000D03*
%TD*%
D19*
%TO.C,J3*%
X134620000Y-82550000D03*
D20*
X134620000Y-87550000D03*
%TD*%
D21*
%TO.C,C4*%
X180340000Y-64770000D03*
X181890000Y-64770000D03*
%TD*%
D22*
%TO.C,J9*%
X158750000Y-90170000D03*
D23*
X156210000Y-90170000D03*
%TD*%
D24*
%TO.C,C11*%
X191770000Y-62230000D03*
X190220000Y-62230000D03*
%TD*%
D22*
%TO.C,U10*%
X146045000Y-82565000D03*
D23*
X148585000Y-82565000D03*
X146045000Y-85105000D03*
X148585000Y-85105000D03*
X146045000Y-87645000D03*
X148585000Y-87645000D03*
%TD*%
D24*
%TO.C,C9*%
X192050000Y-68580000D03*
X190500000Y-68580000D03*
%TD*%
%TO.C,C5*%
X166370000Y-65360000D03*
X164820000Y-65360000D03*
%TD*%
D18*
%TO.C,R6*%
X157860000Y-76200000D03*
X159510000Y-76200000D03*
%TD*%
D22*
%TO.C,J10*%
X158750000Y-83820000D03*
D23*
X156210000Y-83820000D03*
%TD*%
D21*
%TO.C,C1*%
X180327000Y-70358000D03*
X181877000Y-70358000D03*
%TD*%
D17*
%TO.C,TP3*%
X165100000Y-85090000D03*
%TD*%
%TO.C,TP6*%
X205740000Y-63500000D03*
%TD*%
D25*
%TO.C,U7*%
X188770000Y-73660000D03*
X188770000Y-74930000D03*
X188770000Y-76200000D03*
X188770000Y-77470000D03*
X194770000Y-77470000D03*
X194770000Y-76200000D03*
X194770000Y-74930000D03*
X194770000Y-73660000D03*
%TD*%
D26*
%TO.C,R12*%
X208520000Y-81280000D03*
X206870000Y-81280000D03*
%TD*%
D27*
%TO.C,U1*%
X144855000Y-51435000D03*
X144855000Y-52705000D03*
X144855000Y-53975000D03*
X144855000Y-55245000D03*
X149785000Y-55245000D03*
X149785000Y-53975000D03*
X149785000Y-52705000D03*
X149785000Y-51435000D03*
%TD*%
D19*
%TO.C,J2*%
X134620000Y-53340000D03*
D20*
X134620000Y-58340000D03*
%TD*%
D18*
%TO.C,R5*%
X153670000Y-71120000D03*
X155320000Y-71120000D03*
%TD*%
D24*
%TO.C,C6*%
X181890000Y-80010000D03*
X180340000Y-80010000D03*
%TD*%
D18*
%TO.C,R1*%
X145110000Y-63500000D03*
X146760000Y-63500000D03*
%TD*%
D17*
%TO.C,TP2*%
X165100000Y-78740000D03*
%TD*%
D26*
%TO.C,R14*%
X208420000Y-91440000D03*
X206770000Y-91440000D03*
%TD*%
D28*
%TO.C,J8*%
X177640000Y-55880000D03*
D29*
X172640000Y-55880000D03*
X167640000Y-55880000D03*
%TD*%
D21*
%TO.C,C2*%
X184150000Y-67310000D03*
X185700000Y-67310000D03*
%TD*%
%TO.C,C8*%
X180340000Y-74930000D03*
X181890000Y-74930000D03*
%TD*%
D30*
%TO.C,U2*%
X145110000Y-68580000D03*
X145110000Y-69230000D03*
X145110000Y-69880000D03*
X145110000Y-70530000D03*
X147385000Y-70530000D03*
X147385000Y-69880000D03*
X147385000Y-69230000D03*
X147385000Y-68580000D03*
%TD*%
D21*
%TO.C,C3*%
X164820000Y-69850000D03*
X166370000Y-69850000D03*
%TD*%
D31*
%TO.C,U8*%
X213360000Y-63500000D03*
X213360000Y-66040000D03*
X213360000Y-68580000D03*
X213360000Y-71120000D03*
X213360000Y-73660000D03*
X213360000Y-76200000D03*
X213360000Y-78740000D03*
X213360000Y-81280000D03*
X213360000Y-83820000D03*
X213360000Y-86360000D03*
X213360000Y-88900000D03*
X213360000Y-91440000D03*
X236360000Y-91440000D03*
X236360000Y-88900000D03*
X236360000Y-86360000D03*
X236360000Y-83820000D03*
X236360000Y-81280000D03*
X236360000Y-78740000D03*
X236360000Y-76200000D03*
X236360000Y-73660000D03*
X236360000Y-71120000D03*
X236360000Y-68580000D03*
X236360000Y-66040000D03*
X236360000Y-63500000D03*
%TD*%
D32*
%TO.C,U5*%
X174205000Y-77470000D03*
X174205000Y-78420000D03*
X174205000Y-79370000D03*
X176480000Y-79370000D03*
X176480000Y-77470000D03*
%TD*%
D24*
%TO.C,C7*%
X171170000Y-77470000D03*
X169620000Y-77470000D03*
%TD*%
D21*
%TO.C,C14*%
X201790000Y-91440000D03*
X203340000Y-91440000D03*
%TD*%
%TO.C,C13*%
X201790000Y-86360000D03*
X203340000Y-86360000D03*
%TD*%
D33*
%TO.C,U9*%
X198350000Y-91065000D03*
X198350000Y-90265000D03*
X198350000Y-89465000D03*
X198350000Y-88665000D03*
X198350000Y-87865000D03*
X198350000Y-87065000D03*
X198350000Y-86265000D03*
X198350000Y-85465000D03*
X198350000Y-84665000D03*
X198350000Y-83865000D03*
X198350000Y-83065000D03*
D34*
X197250000Y-82165000D03*
X196450000Y-82165000D03*
X195650000Y-82165000D03*
X194850000Y-82165000D03*
X194050000Y-82165000D03*
X193250000Y-82165000D03*
X192450000Y-82165000D03*
X191650000Y-82165000D03*
X190850000Y-82165000D03*
X190050000Y-82165000D03*
X189250000Y-82165000D03*
X188450000Y-82165000D03*
X187650000Y-82165000D03*
D33*
X186550000Y-83065000D03*
X186550000Y-83865000D03*
X186550000Y-84665000D03*
X186550000Y-85465000D03*
X186550000Y-86265000D03*
X186550000Y-87065000D03*
X186550000Y-87865000D03*
X186550000Y-88665000D03*
X186550000Y-89465000D03*
X186550000Y-90265000D03*
X186550000Y-91065000D03*
D34*
X187650000Y-91965000D03*
X188450000Y-91965000D03*
X189250000Y-91965000D03*
X190050000Y-91965000D03*
X190850000Y-91965000D03*
X191650000Y-91965000D03*
X192450000Y-91965000D03*
X193250000Y-91965000D03*
X194050000Y-91965000D03*
X194850000Y-91965000D03*
X195650000Y-91965000D03*
X196450000Y-91965000D03*
X197250000Y-91965000D03*
D35*
X192450000Y-89040000D03*
X190475000Y-89040000D03*
X190475000Y-87065000D03*
X190475000Y-85090000D03*
X192450000Y-85090000D03*
X194425000Y-85090000D03*
X194425000Y-87065000D03*
X192450000Y-87065000D03*
D36*
X186500000Y-92015000D03*
X186500000Y-82115000D03*
X198400000Y-82115000D03*
X198400000Y-92015000D03*
%TD*%
D26*
%TO.C,R11*%
X206500000Y-74295000D03*
X204850000Y-74295000D03*
%TD*%
D17*
%TO.C,TP7*%
X205740000Y-68580000D03*
%TD*%
D19*
%TO.C,J1*%
X134620000Y-67310000D03*
D20*
X134620000Y-72310000D03*
%TD*%
D18*
%TO.C,R2*%
X153670000Y-50800000D03*
X155320000Y-50800000D03*
%TD*%
D37*
%TO.C,U3*%
X153670000Y-60960000D03*
X153670000Y-61610000D03*
X153670000Y-62260000D03*
X153670000Y-62910000D03*
X153670000Y-63560000D03*
X153670000Y-64210000D03*
X153670000Y-64860000D03*
X153670000Y-65510000D03*
X159410000Y-65510000D03*
X159410000Y-64860000D03*
X159410000Y-64210000D03*
X159410000Y-63560000D03*
X159410000Y-62910000D03*
X159410000Y-62260000D03*
X159410000Y-61610000D03*
X159410000Y-60960000D03*
%TD*%
D22*
%TO.C,J7*%
X202692000Y-58420000D03*
D23*
X205232000Y-58420000D03*
X207772000Y-58420000D03*
%TD*%
D38*
%TO.C,D1*%
X189230000Y-51435000D03*
X193260000Y-51435000D03*
X189230000Y-52705000D03*
X193260000Y-52705000D03*
X189230000Y-53975000D03*
X193260000Y-53975000D03*
X189230000Y-55245000D03*
X193260000Y-55245000D03*
X189230000Y-56515000D03*
X193260000Y-56515000D03*
%TD*%
D18*
%TO.C,R3*%
X153670000Y-55880000D03*
X155320000Y-55880000D03*
%TD*%
%TO.C,R13*%
X206870000Y-86360000D03*
X208520000Y-86360000D03*
%TD*%
D17*
%TO.C,TP4*%
X208788000Y-52832000D03*
%TD*%
D39*
%TO.C,C10*%
X199390000Y-63500000D03*
X199390000Y-65050000D03*
%TD*%
D17*
%TO.C,TP1*%
X201168000Y-52832000D03*
%TD*%
D38*
%TO.C,D2*%
X175260000Y-85090000D03*
X179290000Y-85090000D03*
X175260000Y-86360000D03*
X179290000Y-86360000D03*
X175260000Y-87630000D03*
X179290000Y-87630000D03*
X175260000Y-88900000D03*
X179290000Y-88900000D03*
X175260000Y-90170000D03*
X179290000Y-90170000D03*
%TD*%
D32*
%TO.C,U6*%
X194310000Y-63500000D03*
X194310000Y-64450000D03*
X194310000Y-65400000D03*
X196585000Y-65400000D03*
X196585000Y-63500000D03*
%TD*%
D18*
%TO.C,R4*%
X153670000Y-76200000D03*
X155320000Y-76200000D03*
%TD*%
%TO.C,RSENSE1*%
X145670000Y-76200000D03*
X147320000Y-76200000D03*
%TD*%
D21*
%TO.C,C12*%
X201790000Y-81280000D03*
X203340000Y-81280000D03*
%TD*%
D18*
%TO.C,R7*%
X157860000Y-71120000D03*
X159510000Y-71120000D03*
%TD*%
%TO.C,R8*%
X158750000Y-50800000D03*
X160400000Y-50800000D03*
%TD*%
D26*
%TO.C,R10*%
X202310000Y-74295000D03*
X200660000Y-74295000D03*
%TD*%
D40*
%TO.C,U4*%
X170730000Y-65300000D03*
X170730000Y-65950000D03*
X170730000Y-66600000D03*
X170730000Y-67250000D03*
X170730000Y-67900000D03*
X170730000Y-68550000D03*
X170730000Y-69200000D03*
X170730000Y-69850000D03*
X176530000Y-69850000D03*
X176530000Y-69200000D03*
X176530000Y-68550000D03*
X176530000Y-67900000D03*
X176530000Y-67250000D03*
X176530000Y-66600000D03*
X176530000Y-65950000D03*
X176530000Y-65300000D03*
%TD*%
%LPD*%
M02*
